solid OpenSCAD_Model
  facet normal -2.22045e-16 0 -1
    outer loop
      vertex -64.2135 15.8817 1.42583e-14
      vertex -90 0 1.9984e-14
      vertex 0 60 0
    endloop
  endfacet
  facet normal -2.22045e-16 0 -1
    outer loop
      vertex -64.2135 44.1183 1.42583e-14
      vertex -90 0 1.9984e-14
      vertex -90 60 1.9984e-14
    endloop
  endfacet
  facet normal -2.22045e-16 0 -1
    outer loop
      vertex -62.5365 13.5734 1.38859e-14
      vertex -90 0 1.9984e-14
      vertex -64.2135 14.1183 1.42583e-14
    endloop
  endfacet
  facet normal -2.22045e-16 0 -1
    outer loop
      vertex 0 0 0
      vertex -90 0 1.9984e-14
      vertex -62.5365 13.5734 1.38859e-14
    endloop
  endfacet
  facet normal -2.22045e-16 0 -1
    outer loop
      vertex -62.5365 16.4266 1.38859e-14
      vertex 0 60 0
      vertex -61.5 15 1.36557e-14
    endloop
  endfacet
  facet normal -2.22045e-16 0 -1
    outer loop
      vertex -37.2135 30.8817 8.26306e-15
      vertex -61.5 15 1.36557e-14
      vertex 0 60 0
    endloop
  endfacet
  facet normal -2.22045e-16 0 -1
    outer loop
      vertex -61.5 15 1.36557e-14
      vertex 0 0 0
      vertex -62.5365 13.5734 1.38859e-14
    endloop
  endfacet
  facet normal -2.22045e-16 0 -1
    outer loop
      vertex -37.2135 29.1183 8.26306e-15
      vertex -61.5 15 1.36557e-14
      vertex -37.2135 30.8817 8.26306e-15
    endloop
  endfacet
  facet normal -2.22045e-16 0 -1
    outer loop
      vertex -62.5365 16.4266 1.38859e-14
      vertex -64.2135 15.8817 1.42583e-14
      vertex 0 60 0
    endloop
  endfacet
  facet normal -2.22045e-16 0 -1
    outer loop
      vertex 0 0 0
      vertex -61.5 15 1.36557e-14
      vertex -37.2135 29.1183 8.26306e-15
    endloop
  endfacet
  facet normal -2.22045e-16 0 -1
    outer loop
      vertex 0 0 0
      vertex -37.2135 29.1183 8.26306e-15
      vertex -35.5365 28.5734 7.89068e-15
    endloop
  endfacet
  facet normal -2.22045e-16 0 -1
    outer loop
      vertex 0 0 0
      vertex -35.5365 28.5734 7.89068e-15
      vertex 0 60 0
    endloop
  endfacet
  facet normal -2.22045e-16 0 -1
    outer loop
      vertex -35.5365 28.5734 7.89068e-15
      vertex -34.5 30 7.66054e-15
      vertex 0 60 0
    endloop
  endfacet
  facet normal -2.22045e-16 0 -1
    outer loop
      vertex -35.5365 31.4266 7.89068e-15
      vertex 0 60 0
      vertex -34.5 30 7.66054e-15
    endloop
  endfacet
  facet normal -2.22045e-16 0 -1
    outer loop
      vertex -61.5 45 1.36557e-14
      vertex 0 60 0
      vertex -62.5365 43.5734 1.38859e-14
    endloop
  endfacet
  facet normal -2.22045e-16 0 -1
    outer loop
      vertex -35.5365 31.4266 7.89068e-15
      vertex -37.2135 30.8817 8.26306e-15
      vertex 0 60 0
    endloop
  endfacet
  facet normal -2.22045e-16 0 -1
    outer loop
      vertex -62.5365 43.5734 1.38859e-14
      vertex -90 0 1.9984e-14
      vertex -64.2135 44.1183 1.42583e-14
    endloop
  endfacet
  facet normal -2.22045e-16 0 -1
    outer loop
      vertex -64.2135 45.8817 1.42583e-14
      vertex -64.2135 44.1183 1.42583e-14
      vertex -90 60 1.9984e-14
    endloop
  endfacet
  facet normal -2.22045e-16 0 -1
    outer loop
      vertex 0 60 0
      vertex -90 0 1.9984e-14
      vertex -62.5365 43.5734 1.38859e-14
    endloop
  endfacet
  facet normal -2.22045e-16 0 -1
    outer loop
      vertex -64.2135 45.8817 1.42583e-14
      vertex -90 60 1.9984e-14
      vertex -62.5365 46.4266 1.38859e-14
    endloop
  endfacet
  facet normal -2.22045e-16 0 -1
    outer loop
      vertex 0 60 0
      vertex -61.5 45 1.36557e-14
      vertex -62.5365 46.4266 1.38859e-14
    endloop
  endfacet
  facet normal -2.22045e-16 0 -1
    outer loop
      vertex 0 60 0
      vertex -62.5365 46.4266 1.38859e-14
      vertex -90 60 1.9984e-14
    endloop
  endfacet
  facet normal -2.22045e-16 0 -1
    outer loop
      vertex -64.2135 14.1183 1.42583e-14
      vertex -90 0 1.9984e-14
      vertex -64.2135 15.8817 1.42583e-14
    endloop
  endfacet
  facet normal 0 -1 0
    outer loop
      vertex -5 0 5
      vertex 0 0 0
      vertex 5.55112e-15 0 25
    endloop
  endfacet
  facet normal 0 -1 0
    outer loop
      vertex -90 0 1.9984e-14
      vertex 0 0 0
      vertex -5 0 5
    endloop
  endfacet
  facet normal 0 -1 0
    outer loop
      vertex -28 0 16.3
      vertex -28 0 5
      vertex -23 0 16.3
    endloop
  endfacet
  facet normal 0 -1 0
    outer loop
      vertex -90 0 1.9984e-14
      vertex -5 0 5
      vertex -23 0 5
    endloop
  endfacet
  facet normal 0 -1 0
    outer loop
      vertex -28 0 5
      vertex -85 0 5
      vertex -90 0 1.9984e-14
    endloop
  endfacet
  facet normal 0 -1 0
    outer loop
      vertex -28 0 5
      vertex -23 0 5
      vertex -23 0 16.3
    endloop
  endfacet
  facet normal 0 -1 0
    outer loop
      vertex -90 0 1.9984e-14
      vertex -23 0 5
      vertex -28 0 5
    endloop
  endfacet
  facet normal 0 -1 0
    outer loop
      vertex -85 0 18
      vertex -90 0 1.9984e-14
      vertex -85 0 5
    endloop
  endfacet
  facet normal 0 -1 0
    outer loop
      vertex -90 0 18
      vertex -90 0 1.9984e-14
      vertex -85 0 18
    endloop
  endfacet
  facet normal 0 -1 0
    outer loop
      vertex -5 0 25
      vertex -5 0 5
      vertex 5.55112e-15 0 25
    endloop
  endfacet
  facet normal 1 0 -2.22045e-16
    outer loop
      vertex 2.7637e-15 15.2204 12.4466
      vertex 0 0 0
      vertex 0 60 0
    endloop
  endfacet
  facet normal 1 0 -2.22045e-16
    outer loop
      vertex 2.85912e-15 16.5429 12.8763
      vertex 2.7637e-15 15.2204 12.4466
      vertex 0 60 0
    endloop
  endfacet
  facet normal 1 0 -2.22045e-16
    outer loop
      vertex 2.7478e-15 15 12.375
      vertex 0 0 0
      vertex 2.7637e-15 15.2204 12.4466
    endloop
  endfacet
  facet normal 1 0 -2.22045e-16
    outer loop
      vertex 2.84322e-15 13.6775 12.8047
      vertex 0 0 0
      vertex 2.7478e-15 15 12.375
    endloop
  endfacet
  facet normal 1 0 -2.22045e-16
    outer loop
      vertex 2.85912e-15 13.4571 12.8763
      vertex 0 0 0
      vertex 2.84322e-15 13.6775 12.8047
    endloop
  endfacet
  facet normal 1 0 -2.22045e-16
    outer loop
      vertex 5.55112e-15 0 25
      vertex 0 0 0
      vertex 2.85912e-15 13.4571 12.8763
    endloop
  endfacet
  facet normal 1 0 -2.22045e-16
    outer loop
      vertex 5.55112e-15 0 25
      vertex 3.10892e-15 12.6397 14.0013
      vertex 3.15055e-15 12.5035 14.1888
    endloop
  endfacet
  facet normal 1 0 -2.22045e-16
    outer loop
      vertex 2.7637e-15 30.2204 12.4466
      vertex 2.7478e-15 30 12.375
      vertex 0 60 0
    endloop
  endfacet
  facet normal 1 0 -2.22045e-16
    outer loop
      vertex 3.15055e-15 17.4965 14.1888
      vertex 2.90075e-15 16.6792 13.0638
      vertex 0 60 0
    endloop
  endfacet
  facet normal 1 0 -2.22045e-16
    outer loop
      vertex 5.55112e-15 0 25
      vertex 3.51078e-15 12.5035 15.8112
      vertex 3.76059e-15 13.3208 16.9362
    endloop
  endfacet
  facet normal 1 0 -2.22045e-16
    outer loop
      vertex 5.55112e-15 0 25
      vertex 3.76059e-15 13.3208 16.9362
      vertex 3.80222e-15 13.4571 17.1237
    endloop
  endfacet
  facet normal 1 0 -2.22045e-16
    outer loop
      vertex 5.55112e-15 0 25
      vertex 3.80222e-15 13.4571 17.1237
      vertex 3.89763e-15 14.7796 17.5534
    endloop
  endfacet
  facet normal 1 0 -2.22045e-16
    outer loop
      vertex 3.51078e-15 17.4965 15.8112
      vertex 3.15055e-15 17.4965 14.1888
      vertex 0 60 0
    endloop
  endfacet
  facet normal 1 0 -2.22045e-16
    outer loop
      vertex 5.55112e-15 0 25
      vertex 3.89763e-15 14.7796 17.5534
      vertex 3.91354e-15 15 17.625
    endloop
  endfacet
  facet normal 1 0 -2.22045e-16
    outer loop
      vertex 2.85912e-15 28.4571 12.8763
      vertex 5.55112e-15 0 25
      vertex 3.80222e-15 16.5429 17.1237
    endloop
  endfacet
  facet normal 1 0 -2.22045e-16
    outer loop
      vertex 5.55112e-15 0 25
      vertex 3.91354e-15 15 17.625
      vertex 3.81812e-15 16.3225 17.1953
    endloop
  endfacet
  facet normal 1 0 -2.22045e-16
    outer loop
      vertex 2.85912e-15 28.4571 12.8763
      vertex 3.80222e-15 16.5429 17.1237
      vertex 0 60 0
    endloop
  endfacet
  facet normal 1 0 -2.22045e-16
    outer loop
      vertex 5.55112e-15 0 25
      vertex 3.81812e-15 16.3225 17.1953
      vertex 3.80222e-15 16.5429 17.1237
    endloop
  endfacet
  facet normal 1 0 -2.22045e-16
    outer loop
      vertex 3.55242e-15 17.3603 15.9987
      vertex 3.51078e-15 17.4965 15.8112
      vertex 0 60 0
    endloop
  endfacet
  facet normal 1 0 -2.22045e-16
    outer loop
      vertex 2.90075e-15 16.6792 13.0638
      vertex 2.85912e-15 16.5429 12.8763
      vertex 0 60 0
    endloop
  endfacet
  facet normal 1 0 -2.22045e-16
    outer loop
      vertex 2.85912e-15 31.5429 12.8763
      vertex 2.7637e-15 30.2204 12.4466
      vertex 0 60 0
    endloop
  endfacet
  facet normal 1 0 -2.22045e-16
    outer loop
      vertex 2.7478e-15 30 12.375
      vertex 2.84322e-15 28.6775 12.8047
      vertex 0 60 0
    endloop
  endfacet
  facet normal 1 0 -2.22045e-16
    outer loop
      vertex 3.91354e-15 30 17.625
      vertex 3.81812e-15 31.3225 17.1953
      vertex 5.55112e-15 60 25
    endloop
  endfacet
  facet normal 1 0 -2.22045e-16
    outer loop
      vertex 2.84322e-15 28.6775 12.8047
      vertex 2.85912e-15 28.4571 12.8763
      vertex 0 60 0
    endloop
  endfacet
  facet normal 1 0 -2.22045e-16
    outer loop
      vertex 3.15055e-15 27.5035 14.1888
      vertex 5.55112e-15 0 25
      vertex 3.10892e-15 27.6397 14.0013
    endloop
  endfacet
  facet normal 1 0 -2.22045e-16
    outer loop
      vertex 3.51078e-15 27.5035 15.8112
      vertex 5.55112e-15 0 25
      vertex 3.15055e-15 27.5035 14.1888
    endloop
  endfacet
  facet normal 1 0 -2.22045e-16
    outer loop
      vertex 3.76059e-15 28.3208 16.9362
      vertex 5.55112e-15 0 25
      vertex 3.51078e-15 27.5035 15.8112
    endloop
  endfacet
  facet normal 1 0 -2.22045e-16
    outer loop
      vertex 3.80222e-15 28.4571 17.1237
      vertex 5.55112e-15 0 25
      vertex 3.76059e-15 28.3208 16.9362
    endloop
  endfacet
  facet normal 1 0 -2.22045e-16
    outer loop
      vertex 3.80222e-15 31.5429 17.1237
      vertex 3.55242e-15 32.3603 15.9987
      vertex 5.55112e-15 60 25
    endloop
  endfacet
  facet normal 1 0 -2.22045e-16
    outer loop
      vertex 3.89763e-15 29.7796 17.5534
      vertex 5.55112e-15 0 25
      vertex 3.80222e-15 28.4571 17.1237
    endloop
  endfacet
  facet normal 1 0 -2.22045e-16
    outer loop
      vertex 3.80222e-15 46.5429 17.1237
      vertex 3.55242e-15 47.3603 15.9987
      vertex 5.55112e-15 60 25
    endloop
  endfacet
  facet normal 1 0 -2.22045e-16
    outer loop
      vertex 3.91354e-15 30 17.625
      vertex 5.55112e-15 0 25
      vertex 3.89763e-15 29.7796 17.5534
    endloop
  endfacet
  facet normal 1 0 -2.22045e-16
    outer loop
      vertex 5.55112e-15 60 25
      vertex 5.55112e-15 0 25
      vertex 3.91354e-15 30 17.625
    endloop
  endfacet
  facet normal 1 0 -2.22045e-16
    outer loop
      vertex 3.55242e-15 32.3603 15.9987
      vertex 3.51078e-15 32.4965 15.8112
      vertex 5.55112e-15 60 25
    endloop
  endfacet
  facet normal 1 0 -2.22045e-16
    outer loop
      vertex 5.55112e-15 60 25
      vertex 3.81812e-15 31.3225 17.1953
      vertex 3.80222e-15 31.5429 17.1237
    endloop
  endfacet
  facet normal 1 0 -2.22045e-16
    outer loop
      vertex 3.51078e-15 32.4965 15.8112
      vertex 3.15055e-15 32.4965 14.1888
      vertex 5.55112e-15 60 25
    endloop
  endfacet
  facet normal 1 0 -2.22045e-16
    outer loop
      vertex 2.90075e-15 31.6792 13.0638
      vertex 2.85912e-15 31.5429 12.8763
      vertex 5.55112e-15 60 25
    endloop
  endfacet
  facet normal 1 0 -2.22045e-16
    outer loop
      vertex 2.7478e-15 45 12.375
      vertex 2.84322e-15 43.6775 12.8047
      vertex 2.85912e-15 31.5429 12.8763
    endloop
  endfacet
  facet normal 1 0 -2.22045e-16
    outer loop
      vertex 5.55112e-15 60 25
      vertex 3.15055e-15 32.4965 14.1888
      vertex 2.90075e-15 31.6792 13.0638
    endloop
  endfacet
  facet normal 1 0 -2.22045e-16
    outer loop
      vertex 2.7478e-15 45 12.375
      vertex 2.85912e-15 31.5429 12.8763
      vertex 0 60 0
    endloop
  endfacet
  facet normal 1 0 -2.22045e-16
    outer loop
      vertex 2.85912e-15 46.5429 12.8763
      vertex 2.7637e-15 45.2204 12.4466
      vertex 0 60 0
    endloop
  endfacet
  facet normal 1 0 -2.22045e-16
    outer loop
      vertex 2.7637e-15 45.2204 12.4466
      vertex 2.7478e-15 45 12.375
      vertex 0 60 0
    endloop
  endfacet
  facet normal 1 0 -2.22045e-16
    outer loop
      vertex 3.80222e-15 43.4571 17.1237
      vertex 3.89763e-15 44.7796 17.5534
      vertex 5.55112e-15 60 25
    endloop
  endfacet
  facet normal 1 0 -2.22045e-16
    outer loop
      vertex 2.85912e-15 43.4571 12.8763
      vertex 2.85912e-15 31.5429 12.8763
      vertex 2.84322e-15 43.6775 12.8047
    endloop
  endfacet
  facet normal 1 0 -2.22045e-16
    outer loop
      vertex 3.10892e-15 42.6397 14.0013
      vertex 2.85912e-15 31.5429 12.8763
      vertex 2.85912e-15 43.4571 12.8763
    endloop
  endfacet
  facet normal 1 0 -2.22045e-16
    outer loop
      vertex 3.15055e-15 42.5035 14.1888
      vertex 2.85912e-15 31.5429 12.8763
      vertex 3.10892e-15 42.6397 14.0013
    endloop
  endfacet
  facet normal 1 0 -2.22045e-16
    outer loop
      vertex 3.55242e-15 47.3603 15.9987
      vertex 3.51078e-15 47.4965 15.8112
      vertex 5.55112e-15 60 25
    endloop
  endfacet
  facet normal 1 0 -2.22045e-16
    outer loop
      vertex 3.51078e-15 42.5035 15.8112
      vertex 2.85912e-15 31.5429 12.8763
      vertex 3.15055e-15 42.5035 14.1888
    endloop
  endfacet
  facet normal 1 0 -2.22045e-16
    outer loop
      vertex 3.76059e-15 43.3208 16.9362
      vertex 2.85912e-15 31.5429 12.8763
      vertex 3.51078e-15 42.5035 15.8112
    endloop
  endfacet
  facet normal 1 0 -2.22045e-16
    outer loop
      vertex 3.80222e-15 43.4571 17.1237
      vertex 2.85912e-15 31.5429 12.8763
      vertex 3.76059e-15 43.3208 16.9362
    endloop
  endfacet
  facet normal 1 0 -2.22045e-16
    outer loop
      vertex 3.91354e-15 45 17.625
      vertex 3.81812e-15 46.3225 17.1953
      vertex 5.55112e-15 60 25
    endloop
  endfacet
  facet normal 1 0 -2.22045e-16
    outer loop
      vertex 5.55112e-15 60 25
      vertex 2.85912e-15 31.5429 12.8763
      vertex 3.80222e-15 43.4571 17.1237
    endloop
  endfacet
  facet normal 1 0 -2.22045e-16
    outer loop
      vertex 5.55112e-15 60 25
      vertex 3.89763e-15 44.7796 17.5534
      vertex 3.91354e-15 45 17.625
    endloop
  endfacet
  facet normal 1 0 -2.22045e-16
    outer loop
      vertex 3.51078e-15 47.4965 15.8112
      vertex 3.15055e-15 47.4965 14.1888
      vertex 5.55112e-15 60 25
    endloop
  endfacet
  facet normal 1 0 -2.22045e-16
    outer loop
      vertex 5.55112e-15 60 25
      vertex 3.81812e-15 46.3225 17.1953
      vertex 3.80222e-15 46.5429 17.1237
    endloop
  endfacet
  facet normal 1 0 -2.22045e-16
    outer loop
      vertex 5.55112e-15 60 25
      vertex 3.15055e-15 47.4965 14.1888
      vertex 0 60 0
    endloop
  endfacet
  facet normal 1 0 -2.22045e-16
    outer loop
      vertex 3.15055e-15 47.4965 14.1888
      vertex 2.90075e-15 46.6792 13.0638
      vertex 0 60 0
    endloop
  endfacet
  facet normal 1 0 -2.22045e-16
    outer loop
      vertex 2.90075e-15 46.6792 13.0638
      vertex 2.85912e-15 46.5429 12.8763
      vertex 0 60 0
    endloop
  endfacet
  facet normal 1 0 -2.22045e-16
    outer loop
      vertex 2.85912e-15 13.4571 12.8763
      vertex 3.10892e-15 12.6397 14.0013
      vertex 5.55112e-15 0 25
    endloop
  endfacet
  facet normal 1 0 -2.22045e-16
    outer loop
      vertex 3.15055e-15 12.5035 14.1888
      vertex 3.51078e-15 12.5035 15.8112
      vertex 5.55112e-15 0 25
    endloop
  endfacet
  facet normal 1 0 -2.22045e-16
    outer loop
      vertex 3.80222e-15 16.5429 17.1237
      vertex 3.55242e-15 17.3603 15.9987
      vertex 0 60 0
    endloop
  endfacet
  facet normal 1 0 -2.22045e-16
    outer loop
      vertex 2.85912e-15 28.4571 12.8763
      vertex 3.10892e-15 27.6397 14.0013
      vertex 5.55112e-15 0 25
    endloop
  endfacet
  facet normal 0 1 0
    outer loop
      vertex -85 60 18
      vertex -90 60 1.9984e-14
      vertex -90 60 18
    endloop
  endfacet
  facet normal 0 1 0
    outer loop
      vertex -85 60 5
      vertex -90 60 1.9984e-14
      vertex -85 60 18
    endloop
  endfacet
  facet normal 0 1 0
    outer loop
      vertex 0 60 0
      vertex -90 60 1.9984e-14
      vertex -28 60 5
    endloop
  endfacet
  facet normal 0 1 0
    outer loop
      vertex -5 60 25
      vertex 5.55112e-15 60 25
      vertex -5 60 5
    endloop
  endfacet
  facet normal 0 1 0
    outer loop
      vertex -23 60 5
      vertex -28 60 5
      vertex -23 60 16.3
    endloop
  endfacet
  facet normal 0 1 0
    outer loop
      vertex -28 60 5
      vertex -28 60 16.3
      vertex -23 60 16.3
    endloop
  endfacet
  facet normal 0 1 0
    outer loop
      vertex 0 60 0
      vertex -28 60 5
      vertex -23 60 5
    endloop
  endfacet
  facet normal 0 1 0
    outer loop
      vertex 0 60 0
      vertex -23 60 5
      vertex -5 60 5
    endloop
  endfacet
  facet normal 0 1 0
    outer loop
      vertex 0 60 0
      vertex -5 60 5
      vertex 5.55112e-15 60 25
    endloop
  endfacet
  facet normal 0 1 0
    outer loop
      vertex -28 60 5
      vertex -90 60 1.9984e-14
      vertex -85 60 5
    endloop
  endfacet
  facet normal -1 0 0
    outer loop
      vertex -90 0 1.9984e-14
      vertex -90 0 18
      vertex -90 60 1.9984e-14
    endloop
  endfacet
  facet normal -1 0 0
    outer loop
      vertex -90 60 1.9984e-14
      vertex -90 0 18
      vertex -90 60 18
    endloop
  endfacet
  facet normal 0.309017 0.951056 0
    outer loop
      vertex -64.2135 14.1183 5
      vertex -62.5365 13.5734 5
      vertex -64.2135 14.1183 1.42583e-14
    endloop
  endfacet
  facet normal 0.309017 0.951056 0
    outer loop
      vertex -64.2135 14.1183 1.42583e-14
      vertex -62.5365 13.5734 5
      vertex -62.5365 13.5734 1.38859e-14
    endloop
  endfacet
  facet normal 1 0 0
    outer loop
      vertex -64.2135 15.8817 1.42583e-14
      vertex -64.2135 15.8817 5
      vertex -64.2135 14.1183 5
    endloop
  endfacet
  facet normal 1 0 0
    outer loop
      vertex -64.2135 14.1183 1.42583e-14
      vertex -64.2135 15.8817 1.42583e-14
      vertex -64.2135 14.1183 5
    endloop
  endfacet
  facet normal 0.309017 -0.951056 0
    outer loop
      vertex -62.5365 16.4266 1.38859e-14
      vertex -62.5365 16.4266 5
      vertex -64.2135 15.8817 5
    endloop
  endfacet
  facet normal 0.309017 -0.951056 0
    outer loop
      vertex -64.2135 15.8817 1.42583e-14
      vertex -62.5365 16.4266 1.38859e-14
      vertex -64.2135 15.8817 5
    endloop
  endfacet
  facet normal -0.809017 -0.587785 0
    outer loop
      vertex -62.5365 16.4266 5
      vertex -62.5365 16.4266 1.38859e-14
      vertex -61.5 15 5
    endloop
  endfacet
  facet normal -0.809017 -0.587785 0
    outer loop
      vertex -61.5 15 5
      vertex -62.5365 16.4266 1.38859e-14
      vertex -61.5 15 1.36557e-14
    endloop
  endfacet
  facet normal -0.809017 0.587785 0
    outer loop
      vertex -61.5 15 5
      vertex -61.5 15 1.36557e-14
      vertex -62.5365 13.5734 5
    endloop
  endfacet
  facet normal -0.809017 0.587785 0
    outer loop
      vertex -62.5365 13.5734 5
      vertex -61.5 15 1.36557e-14
      vertex -62.5365 13.5734 1.38859e-14
    endloop
  endfacet
  facet normal 1 0 0
    outer loop
      vertex -37.2135 30.8817 8.26306e-15
      vertex -37.2135 30.8817 5
      vertex -37.2135 29.1183 5
    endloop
  endfacet
  facet normal 1 0 0
    outer loop
      vertex -37.2135 29.1183 8.26306e-15
      vertex -37.2135 30.8817 8.26306e-15
      vertex -37.2135 29.1183 5
    endloop
  endfacet
  facet normal 0.309017 0.951056 0
    outer loop
      vertex -37.2135 29.1183 5
      vertex -35.5365 28.5734 5
      vertex -37.2135 29.1183 8.26306e-15
    endloop
  endfacet
  facet normal 0.309017 0.951056 0
    outer loop
      vertex -37.2135 29.1183 8.26306e-15
      vertex -35.5365 28.5734 5
      vertex -35.5365 28.5734 7.89068e-15
    endloop
  endfacet
  facet normal 0.309017 -0.951056 0
    outer loop
      vertex -35.5365 31.4266 7.89068e-15
      vertex -35.5365 31.4266 5
      vertex -37.2135 30.8817 5
    endloop
  endfacet
  facet normal 0.309017 -0.951056 0
    outer loop
      vertex -37.2135 30.8817 8.26306e-15
      vertex -35.5365 31.4266 7.89068e-15
      vertex -37.2135 30.8817 5
    endloop
  endfacet
  facet normal -0.809017 -0.587785 0
    outer loop
      vertex -35.5365 31.4266 5
      vertex -35.5365 31.4266 7.89068e-15
      vertex -34.5 30 5
    endloop
  endfacet
  facet normal -0.809017 -0.587785 0
    outer loop
      vertex -34.5 30 5
      vertex -35.5365 31.4266 7.89068e-15
      vertex -34.5 30 7.66054e-15
    endloop
  endfacet
  facet normal -0.809017 0.587785 0
    outer loop
      vertex -34.5 30 5
      vertex -34.5 30 7.66054e-15
      vertex -35.5365 28.5734 5
    endloop
  endfacet
  facet normal -0.809017 0.587785 0
    outer loop
      vertex -35.5365 28.5734 5
      vertex -34.5 30 7.66054e-15
      vertex -35.5365 28.5734 7.89068e-15
    endloop
  endfacet
  facet normal 0.309017 0.951056 0
    outer loop
      vertex -64.2135 44.1183 5
      vertex -62.5365 43.5734 5
      vertex -64.2135 44.1183 1.42583e-14
    endloop
  endfacet
  facet normal 0.309017 0.951056 0
    outer loop
      vertex -64.2135 44.1183 1.42583e-14
      vertex -62.5365 43.5734 5
      vertex -62.5365 43.5734 1.38859e-14
    endloop
  endfacet
  facet normal 1 0 0
    outer loop
      vertex -64.2135 45.8817 1.42583e-14
      vertex -64.2135 45.8817 5
      vertex -64.2135 44.1183 5
    endloop
  endfacet
  facet normal 1 0 0
    outer loop
      vertex -64.2135 44.1183 1.42583e-14
      vertex -64.2135 45.8817 1.42583e-14
      vertex -64.2135 44.1183 5
    endloop
  endfacet
  facet normal 0.309017 -0.951056 0
    outer loop
      vertex -62.5365 46.4266 1.38859e-14
      vertex -62.5365 46.4266 5
      vertex -64.2135 45.8817 5
    endloop
  endfacet
  facet normal 0.309017 -0.951056 0
    outer loop
      vertex -64.2135 45.8817 1.42583e-14
      vertex -62.5365 46.4266 1.38859e-14
      vertex -64.2135 45.8817 5
    endloop
  endfacet
  facet normal -0.809017 -0.587785 0
    outer loop
      vertex -62.5365 46.4266 5
      vertex -62.5365 46.4266 1.38859e-14
      vertex -61.5 45 5
    endloop
  endfacet
  facet normal -0.809017 -0.587785 0
    outer loop
      vertex -61.5 45 5
      vertex -62.5365 46.4266 1.38859e-14
      vertex -61.5 45 1.36557e-14
    endloop
  endfacet
  facet normal -0.809017 0.587785 0
    outer loop
      vertex -61.5 45 5
      vertex -61.5 45 1.36557e-14
      vertex -62.5365 43.5734 5
    endloop
  endfacet
  facet normal -0.809017 0.587785 0
    outer loop
      vertex -62.5365 43.5734 5
      vertex -61.5 45 1.36557e-14
      vertex -62.5365 43.5734 1.38859e-14
    endloop
  endfacet
  facet normal 0 0 1
    outer loop
      vertex -90 60 18
      vertex -90 0 18
      vertex -85 0 18
    endloop
  endfacet
  facet normal 0 0 1
    outer loop
      vertex -85 60 18
      vertex -90 60 18
      vertex -85 0 18
    endloop
  endfacet
  facet normal 1 0 0
    outer loop
      vertex -85 0 18
      vertex -85 0 5
      vertex -85 60 5
    endloop
  endfacet
  facet normal 1 0 0
    outer loop
      vertex -85 60 18
      vertex -85 0 18
      vertex -85 60 5
    endloop
  endfacet
  facet normal 2.22045e-16 0 1
    outer loop
      vertex -34.5 30 5
      vertex -28 0 5
      vertex -28 60 5
    endloop
  endfacet
  facet normal 2.22045e-16 0 1
    outer loop
      vertex -62.5365 43.5734 5
      vertex -85 0 5
      vertex -28 60 5
    endloop
  endfacet
  facet normal 2.22045e-16 0 1
    outer loop
      vertex -61.5 15 5
      vertex -62.5365 13.5734 5
      vertex -28 60 5
    endloop
  endfacet
  facet normal 2.22045e-16 0 1
    outer loop
      vertex -85 0 5
      vertex -28 0 5
      vertex -62.5365 13.5734 5
    endloop
  endfacet
  facet normal 2.22045e-16 0 1
    outer loop
      vertex -37.2135 30.8817 5
      vertex -35.5365 31.4266 5
      vertex -28 60 5
    endloop
  endfacet
  facet normal 2.22045e-16 0 1
    outer loop
      vertex -85 0 5
      vertex -62.5365 13.5734 5
      vertex -64.2135 14.1183 5
    endloop
  endfacet
  facet normal 2.22045e-16 0 1
    outer loop
      vertex -85 0 5
      vertex -64.2135 15.8817 5
      vertex -28 60 5
    endloop
  endfacet
  facet normal 2.22045e-16 0 1
    outer loop
      vertex -85 0 5
      vertex -64.2135 14.1183 5
      vertex -64.2135 15.8817 5
    endloop
  endfacet
  facet normal 2.22045e-16 0 1
    outer loop
      vertex -64.2135 15.8817 5
      vertex -62.5365 16.4266 5
      vertex -28 60 5
    endloop
  endfacet
  facet normal 2.22045e-16 0 1
    outer loop
      vertex -64.2135 44.1183 5
      vertex -64.2135 45.8817 5
      vertex -85 60 5
    endloop
  endfacet
  facet normal 2.22045e-16 0 1
    outer loop
      vertex -62.5365 13.5734 5
      vertex -28 0 5
      vertex -35.5365 28.5734 5
    endloop
  endfacet
  facet normal 2.22045e-16 0 1
    outer loop
      vertex -35.5365 31.4266 5
      vertex -34.5 30 5
      vertex -28 60 5
    endloop
  endfacet
  facet normal 2.22045e-16 0 1
    outer loop
      vertex -62.5365 13.5734 5
      vertex -35.5365 28.5734 5
      vertex -37.2135 29.1183 5
    endloop
  endfacet
  facet normal 2.22045e-16 0 1
    outer loop
      vertex -62.5365 13.5734 5
      vertex -37.2135 30.8817 5
      vertex -28 60 5
    endloop
  endfacet
  facet normal 2.22045e-16 0 1
    outer loop
      vertex -62.5365 13.5734 5
      vertex -37.2135 29.1183 5
      vertex -37.2135 30.8817 5
    endloop
  endfacet
  facet normal 2.22045e-16 0 1
    outer loop
      vertex -35.5365 28.5734 5
      vertex -28 0 5
      vertex -34.5 30 5
    endloop
  endfacet
  facet normal 2.22045e-16 0 1
    outer loop
      vertex -61.5 45 5
      vertex -62.5365 43.5734 5
      vertex -28 60 5
    endloop
  endfacet
  facet normal 2.22045e-16 0 1
    outer loop
      vertex -64.2135 44.1183 5
      vertex -85 0 5
      vertex -62.5365 43.5734 5
    endloop
  endfacet
  facet normal 2.22045e-16 0 1
    outer loop
      vertex -85 60 5
      vertex -85 0 5
      vertex -64.2135 44.1183 5
    endloop
  endfacet
  facet normal 2.22045e-16 0 1
    outer loop
      vertex -85 60 5
      vertex -64.2135 45.8817 5
      vertex -28 60 5
    endloop
  endfacet
  facet normal 2.22045e-16 0 1
    outer loop
      vertex -64.2135 45.8817 5
      vertex -62.5365 46.4266 5
      vertex -28 60 5
    endloop
  endfacet
  facet normal 2.22045e-16 0 1
    outer loop
      vertex -62.5365 46.4266 5
      vertex -61.5 45 5
      vertex -28 60 5
    endloop
  endfacet
  facet normal 2.22045e-16 0 1
    outer loop
      vertex -62.5365 16.4266 5
      vertex -61.5 15 5
      vertex -28 60 5
    endloop
  endfacet
  facet normal -1 0 0
    outer loop
      vertex -28 0 5
      vertex -28 0 16.3
      vertex -28 60 5
    endloop
  endfacet
  facet normal -1 0 0
    outer loop
      vertex -28 60 5
      vertex -28 0 16.3
      vertex -28 60 16.3
    endloop
  endfacet
  facet normal 0 0 1
    outer loop
      vertex -28 60 16.3
      vertex -28 0 16.3
      vertex -23 0 16.3
    endloop
  endfacet
  facet normal 0 0 1
    outer loop
      vertex -23 60 16.3
      vertex -28 60 16.3
      vertex -23 0 16.3
    endloop
  endfacet
  facet normal 1 0 0
    outer loop
      vertex -23 0 16.3
      vertex -23 0 5
      vertex -23 60 5
    endloop
  endfacet
  facet normal 1 0 0
    outer loop
      vertex -23 60 16.3
      vertex -23 0 16.3
      vertex -23 60 5
    endloop
  endfacet
  facet normal 2.22045e-16 0 1
    outer loop
      vertex -23 0 5
      vertex -5 0 5
      vertex -5 60 5
    endloop
  endfacet
  facet normal 2.22045e-16 0 1
    outer loop
      vertex -23 60 5
      vertex -23 0 5
      vertex -5 60 5
    endloop
  endfacet
  facet normal -1 0 2.22045e-16
    outer loop
      vertex -5 30 16.5
      vertex -5 0 25
      vertex -5 60 25
    endloop
  endfacet
  facet normal -1 0 2.22045e-16
    outer loop
      vertex -5 0 5
      vertex -5 0 25
      vertex -5 14.1183 13.7865
    endloop
  endfacet
  facet normal -1 0 2.22045e-16
    outer loop
      vertex -5 0 5
      vertex -5 14.1183 13.7865
      vertex -5 60 5
    endloop
  endfacet
  facet normal -1 0 2.22045e-16
    outer loop
      vertex -5 13.5734 15.4635
      vertex -5 0 25
      vertex -5 15 16.5
    endloop
  endfacet
  facet normal -1 0 2.22045e-16
    outer loop
      vertex -5 14.1183 13.7865
      vertex -5 15.8817 13.7865
      vertex -5 60 5
    endloop
  endfacet
  facet normal -1 0 2.22045e-16
    outer loop
      vertex -5 29.1183 13.7865
      vertex -5 0 25
      vertex -5 28.5734 15.4635
    endloop
  endfacet
  facet normal -1 0 2.22045e-16
    outer loop
      vertex -5 15.8817 13.7865
      vertex -5 16.4266 15.4635
      vertex -5 60 5
    endloop
  endfacet
  facet normal -1 0 2.22045e-16
    outer loop
      vertex -5 16.4266 15.4635
      vertex -5 15 16.5
      vertex -5 60 5
    endloop
  endfacet
  facet normal -1 0 2.22045e-16
    outer loop
      vertex -5 15 16.5
      vertex -5 0 25
      vertex -5 29.1183 13.7865
    endloop
  endfacet
  facet normal -1 0 2.22045e-16
    outer loop
      vertex -5 15 16.5
      vertex -5 29.1183 13.7865
      vertex -5 60 5
    endloop
  endfacet
  facet normal -1 0 2.22045e-16
    outer loop
      vertex -5 31.4266 15.4635
      vertex -5 60 5
      vertex -5 30.8817 13.7865
    endloop
  endfacet
  facet normal -1 0 2.22045e-16
    outer loop
      vertex -5 29.1183 13.7865
      vertex -5 30.8817 13.7865
      vertex -5 60 5
    endloop
  endfacet
  facet normal -1 0 2.22045e-16
    outer loop
      vertex -5 28.5734 15.4635
      vertex -5 0 25
      vertex -5 30 16.5
    endloop
  endfacet
  facet normal -1 0 2.22045e-16
    outer loop
      vertex -5 45 16.5
      vertex -5 31.4266 15.4635
      vertex -5 60 25
    endloop
  endfacet
  facet normal -1 0 2.22045e-16
    outer loop
      vertex -5 31.4266 15.4635
      vertex -5 30 16.5
      vertex -5 60 25
    endloop
  endfacet
  facet normal -1 0 2.22045e-16
    outer loop
      vertex -5 46.4266 15.4635
      vertex -5 60 25
      vertex -5 45.8817 13.7865
    endloop
  endfacet
  facet normal -1 0 2.22045e-16
    outer loop
      vertex -5 60 5
      vertex -5 31.4266 15.4635
      vertex -5 44.1183 13.7865
    endloop
  endfacet
  facet normal -1 0 2.22045e-16
    outer loop
      vertex -5 60 5
      vertex -5 44.1183 13.7865
      vertex -5 45.8817 13.7865
    endloop
  endfacet
  facet normal -1 0 2.22045e-16
    outer loop
      vertex -5 60 5
      vertex -5 45.8817 13.7865
      vertex -5 60 25
    endloop
  endfacet
  facet normal -1 0 2.22045e-16
    outer loop
      vertex -5 43.5734 15.4635
      vertex -5 31.4266 15.4635
      vertex -5 45 16.5
    endloop
  endfacet
  facet normal -1 0 2.22045e-16
    outer loop
      vertex -5 46.4266 15.4635
      vertex -5 45 16.5
      vertex -5 60 25
    endloop
  endfacet
  facet normal -1 0 2.22045e-16
    outer loop
      vertex -5 44.1183 13.7865
      vertex -5 31.4266 15.4635
      vertex -5 43.5734 15.4635
    endloop
  endfacet
  facet normal -1 0 2.22045e-16
    outer loop
      vertex -5 14.1183 13.7865
      vertex -5 0 25
      vertex -5 13.5734 15.4635
    endloop
  endfacet
  facet normal 2.22045e-16 0 1
    outer loop
      vertex -5 0 25
      vertex 5.55112e-15 0 25
      vertex 5.55112e-15 60 25
    endloop
  endfacet
  facet normal 2.22045e-16 0 1
    outer loop
      vertex -5 60 25
      vertex -5 0 25
      vertex 5.55112e-15 60 25
    endloop
  endfacet
  facet normal 0.335921 -0.29106 0.89579
    outer loop
      vertex 2.7637e-15 15.2204 12.4466
      vertex -3 15.8817 13.7865
      vertex -3 15 13.5
    endloop
  endfacet
  facet normal 0.335921 -0.29106 0.89579
    outer loop
      vertex 2.7478e-15 15 12.375
      vertex 2.7637e-15 15.2204 12.4466
      vertex -3 15 13.5
    endloop
  endfacet
  facet normal 0.335922 -0.29106 0.895791
    outer loop
      vertex 2.85912e-15 16.5429 12.8763
      vertex -3 15.8817 13.7865
      vertex 2.7637e-15 15.2204 12.4466
    endloop
  endfacet
  facet normal 0.335922 -0.762005 0.553629
    outer loop
      vertex 2.90075e-15 16.6792 13.0638
      vertex -3 16.4266 14.5365
      vertex -3 15.8817 13.7865
    endloop
  endfacet
  facet normal 0.335922 -0.762005 0.553629
    outer loop
      vertex 2.85912e-15 16.5429 12.8763
      vertex 2.90075e-15 16.6792 13.0638
      vertex -3 15.8817 13.7865
    endloop
  endfacet
  facet normal 0.335922 -0.762005 0.553629
    outer loop
      vertex 3.15055e-15 17.4965 14.1888
      vertex -3 16.4266 14.5365
      vertex 2.90075e-15 16.6792 13.0638
    endloop
  endfacet
  facet normal 0.335922 -0.94189 -7.45896e-17
    outer loop
      vertex 3.51078e-15 17.4965 15.8112
      vertex -3 16.4266 15.4635
      vertex -3 16.4266 14.5365
    endloop
  endfacet
  facet normal 0.335922 -0.94189 -7.45896e-17
    outer loop
      vertex 3.15055e-15 17.4965 14.1888
      vertex 3.51078e-15 17.4965 15.8112
      vertex -3 16.4266 14.5365
    endloop
  endfacet
  facet normal 0.335922 -0.762005 -0.553629
    outer loop
      vertex 3.51078e-15 17.4965 15.8112
      vertex 3.55242e-15 17.3603 15.9987
      vertex -3 15.8817 16.2135
    endloop
  endfacet
  facet normal 0.335922 -0.762005 -0.553629
    outer loop
      vertex -3 16.4266 15.4635
      vertex 3.51078e-15 17.4965 15.8112
      vertex -3 15.8817 16.2135
    endloop
  endfacet
  facet normal 0.335922 -0.762005 -0.553629
    outer loop
      vertex 3.80222e-15 16.5429 17.1237
      vertex -3 15.8817 16.2135
      vertex 3.55242e-15 17.3603 15.9987
    endloop
  endfacet
  facet normal 0.335922 -0.29106 -0.89579
    outer loop
      vertex 3.81812e-15 16.3225 17.1953
      vertex -3 15 16.5
      vertex 3.80222e-15 16.5429 17.1237
    endloop
  endfacet
  facet normal 0.335922 -0.29106 -0.89579
    outer loop
      vertex 3.80222e-15 16.5429 17.1237
      vertex -3 15 16.5
      vertex -3 15.8817 16.2135
    endloop
  endfacet
  facet normal 0.335921 -0.29106 -0.895791
    outer loop
      vertex 3.81812e-15 16.3225 17.1953
      vertex 3.91354e-15 15 17.625
      vertex -3 15 16.5
    endloop
  endfacet
  facet normal 0.335921 0.29106 -0.89579
    outer loop
      vertex 3.91354e-15 15 17.625
      vertex 3.89763e-15 14.7796 17.5534
      vertex -3 15 16.5
    endloop
  endfacet
  facet normal 0.335921 0.29106 -0.89579
    outer loop
      vertex -3 15 16.5
      vertex 3.89763e-15 14.7796 17.5534
      vertex -3 14.1183 16.2135
    endloop
  endfacet
  facet normal 0.335922 0.29106 -0.895791
    outer loop
      vertex 3.89763e-15 14.7796 17.5534
      vertex 3.80222e-15 13.4571 17.1237
      vertex -3 14.1183 16.2135
    endloop
  endfacet
  facet normal 0.335922 0.762005 -0.553629
    outer loop
      vertex 3.80222e-15 13.4571 17.1237
      vertex 3.76059e-15 13.3208 16.9362
      vertex -3 14.1183 16.2135
    endloop
  endfacet
  facet normal 0.335922 0.762005 -0.553629
    outer loop
      vertex -3 14.1183 16.2135
      vertex 3.76059e-15 13.3208 16.9362
      vertex -3 13.5734 15.4635
    endloop
  endfacet
  facet normal 0.335922 0.762005 -0.553629
    outer loop
      vertex 3.76059e-15 13.3208 16.9362
      vertex 3.51078e-15 12.5035 15.8112
      vertex -3 13.5734 15.4635
    endloop
  endfacet
  facet normal 0.335922 0.94189 -7.45896e-17
    outer loop
      vertex -3 13.5734 15.4635
      vertex 3.51078e-15 12.5035 15.8112
      vertex -3 13.5734 14.5365
    endloop
  endfacet
  facet normal 0.335922 0.94189 -7.45896e-17
    outer loop
      vertex -3 13.5734 14.5365
      vertex 3.51078e-15 12.5035 15.8112
      vertex 3.15055e-15 12.5035 14.1888
    endloop
  endfacet
  facet normal 0.335922 0.762005 0.553629
    outer loop
      vertex 3.15055e-15 12.5035 14.1888
      vertex 3.10892e-15 12.6397 14.0013
      vertex -3 13.5734 14.5365
    endloop
  endfacet
  facet normal 0.335922 0.762005 0.553629
    outer loop
      vertex -3 13.5734 14.5365
      vertex 3.10892e-15 12.6397 14.0013
      vertex -3 14.1183 13.7865
    endloop
  endfacet
  facet normal 0.335922 0.762005 0.553629
    outer loop
      vertex -3 14.1183 13.7865
      vertex 3.10892e-15 12.6397 14.0013
      vertex 2.85912e-15 13.4571 12.8763
    endloop
  endfacet
  facet normal 0.335922 0.29106 0.89579
    outer loop
      vertex -3 15 13.5
      vertex -3 14.1183 13.7865
      vertex 2.85912e-15 13.4571 12.8763
    endloop
  endfacet
  facet normal 0.335922 0.29106 0.89579
    outer loop
      vertex 2.84322e-15 13.6775 12.8047
      vertex -3 15 13.5
      vertex 2.85912e-15 13.4571 12.8763
    endloop
  endfacet
  facet normal 0.335921 0.29106 0.895791
    outer loop
      vertex -3 15 13.5
      vertex 2.84322e-15 13.6775 12.8047
      vertex 2.7478e-15 15 12.375
    endloop
  endfacet
  facet normal 0.335922 -0.29106 0.895791
    outer loop
      vertex 2.85912e-15 31.5429 12.8763
      vertex -3 30.8817 13.7865
      vertex 2.7637e-15 30.2204 12.4466
    endloop
  endfacet
  facet normal 0.335921 -0.29106 0.89579
    outer loop
      vertex 2.7637e-15 30.2204 12.4466
      vertex -3 30.8817 13.7865
      vertex -3 30 13.5
    endloop
  endfacet
  facet normal 0.335921 -0.29106 0.89579
    outer loop
      vertex 2.7478e-15 30 12.375
      vertex 2.7637e-15 30.2204 12.4466
      vertex -3 30 13.5
    endloop
  endfacet
  facet normal 0.335922 -0.762005 0.553629
    outer loop
      vertex 2.90075e-15 31.6792 13.0638
      vertex -3 31.4266 14.5365
      vertex -3 30.8817 13.7865
    endloop
  endfacet
  facet normal 0.335922 -0.762005 0.553629
    outer loop
      vertex 2.85912e-15 31.5429 12.8763
      vertex 2.90075e-15 31.6792 13.0638
      vertex -3 30.8817 13.7865
    endloop
  endfacet
  facet normal 0.335922 -0.762005 0.553629
    outer loop
      vertex 3.15055e-15 32.4965 14.1888
      vertex -3 31.4266 14.5365
      vertex 2.90075e-15 31.6792 13.0638
    endloop
  endfacet
  facet normal 0.335922 -0.94189 -7.45896e-17
    outer loop
      vertex 3.51078e-15 32.4965 15.8112
      vertex -3 31.4266 15.4635
      vertex -3 31.4266 14.5365
    endloop
  endfacet
  facet normal 0.335922 -0.94189 -7.45896e-17
    outer loop
      vertex 3.15055e-15 32.4965 14.1888
      vertex 3.51078e-15 32.4965 15.8112
      vertex -3 31.4266 14.5365
    endloop
  endfacet
  facet normal 0.335922 -0.762005 -0.553629
    outer loop
      vertex 3.51078e-15 32.4965 15.8112
      vertex 3.55242e-15 32.3603 15.9987
      vertex -3 30.8817 16.2135
    endloop
  endfacet
  facet normal 0.335922 -0.762005 -0.553629
    outer loop
      vertex -3 31.4266 15.4635
      vertex 3.51078e-15 32.4965 15.8112
      vertex -3 30.8817 16.2135
    endloop
  endfacet
  facet normal 0.335922 -0.762005 -0.553629
    outer loop
      vertex 3.80222e-15 31.5429 17.1237
      vertex -3 30.8817 16.2135
      vertex 3.55242e-15 32.3603 15.9987
    endloop
  endfacet
  facet normal 0.335922 -0.29106 -0.89579
    outer loop
      vertex 3.81812e-15 31.3225 17.1953
      vertex -3 30 16.5
      vertex 3.80222e-15 31.5429 17.1237
    endloop
  endfacet
  facet normal 0.335922 -0.29106 -0.89579
    outer loop
      vertex 3.80222e-15 31.5429 17.1237
      vertex -3 30 16.5
      vertex -3 30.8817 16.2135
    endloop
  endfacet
  facet normal 0.335921 -0.29106 -0.895791
    outer loop
      vertex 3.81812e-15 31.3225 17.1953
      vertex 3.91354e-15 30 17.625
      vertex -3 30 16.5
    endloop
  endfacet
  facet normal 0.335921 0.29106 -0.89579
    outer loop
      vertex 3.91354e-15 30 17.625
      vertex 3.89763e-15 29.7796 17.5534
      vertex -3 30 16.5
    endloop
  endfacet
  facet normal 0.335921 0.29106 -0.89579
    outer loop
      vertex -3 30 16.5
      vertex 3.89763e-15 29.7796 17.5534
      vertex -3 29.1183 16.2135
    endloop
  endfacet
  facet normal 0.335922 0.29106 -0.895791
    outer loop
      vertex 3.89763e-15 29.7796 17.5534
      vertex 3.80222e-15 28.4571 17.1237
      vertex -3 29.1183 16.2135
    endloop
  endfacet
  facet normal 0.335922 0.762005 -0.553629
    outer loop
      vertex 3.80222e-15 28.4571 17.1237
      vertex 3.76059e-15 28.3208 16.9362
      vertex -3 29.1183 16.2135
    endloop
  endfacet
  facet normal 0.335922 0.762005 -0.553629
    outer loop
      vertex -3 29.1183 16.2135
      vertex 3.76059e-15 28.3208 16.9362
      vertex -3 28.5734 15.4635
    endloop
  endfacet
  facet normal 0.335922 0.762005 -0.553629
    outer loop
      vertex 3.76059e-15 28.3208 16.9362
      vertex 3.51078e-15 27.5035 15.8112
      vertex -3 28.5734 15.4635
    endloop
  endfacet
  facet normal 0.335922 0.94189 -7.45896e-17
    outer loop
      vertex -3 28.5734 15.4635
      vertex 3.51078e-15 27.5035 15.8112
      vertex -3 28.5734 14.5365
    endloop
  endfacet
  facet normal 0.335922 0.94189 -7.45896e-17
    outer loop
      vertex -3 28.5734 14.5365
      vertex 3.51078e-15 27.5035 15.8112
      vertex 3.15055e-15 27.5035 14.1888
    endloop
  endfacet
  facet normal 0.335922 0.762005 0.553629
    outer loop
      vertex 3.15055e-15 27.5035 14.1888
      vertex 3.10892e-15 27.6397 14.0013
      vertex -3 28.5734 14.5365
    endloop
  endfacet
  facet normal 0.335922 0.762005 0.553629
    outer loop
      vertex -3 28.5734 14.5365
      vertex 3.10892e-15 27.6397 14.0013
      vertex -3 29.1183 13.7865
    endloop
  endfacet
  facet normal 0.335922 0.762005 0.553629
    outer loop
      vertex -3 29.1183 13.7865
      vertex 3.10892e-15 27.6397 14.0013
      vertex 2.85912e-15 28.4571 12.8763
    endloop
  endfacet
  facet normal 0.335922 0.29106 0.89579
    outer loop
      vertex -3 30 13.5
      vertex -3 29.1183 13.7865
      vertex 2.85912e-15 28.4571 12.8763
    endloop
  endfacet
  facet normal 0.335922 0.29106 0.89579
    outer loop
      vertex 2.84322e-15 28.6775 12.8047
      vertex -3 30 13.5
      vertex 2.85912e-15 28.4571 12.8763
    endloop
  endfacet
  facet normal 0.335921 0.29106 0.895791
    outer loop
      vertex -3 30 13.5
      vertex 2.84322e-15 28.6775 12.8047
      vertex 2.7478e-15 30 12.375
    endloop
  endfacet
  facet normal 0.335921 -0.29106 0.89579
    outer loop
      vertex 2.7637e-15 45.2204 12.4466
      vertex -3 45.8817 13.7865
      vertex -3 45 13.5
    endloop
  endfacet
  facet normal 0.335921 -0.29106 0.89579
    outer loop
      vertex 2.7478e-15 45 12.375
      vertex 2.7637e-15 45.2204 12.4466
      vertex -3 45 13.5
    endloop
  endfacet
  facet normal 0.335922 -0.29106 0.895791
    outer loop
      vertex 2.85912e-15 46.5429 12.8763
      vertex -3 45.8817 13.7865
      vertex 2.7637e-15 45.2204 12.4466
    endloop
  endfacet
  facet normal 0.335922 -0.762005 0.553629
    outer loop
      vertex 2.90075e-15 46.6792 13.0638
      vertex -3 46.4266 14.5365
      vertex -3 45.8817 13.7865
    endloop
  endfacet
  facet normal 0.335922 -0.762005 0.553629
    outer loop
      vertex 2.85912e-15 46.5429 12.8763
      vertex 2.90075e-15 46.6792 13.0638
      vertex -3 45.8817 13.7865
    endloop
  endfacet
  facet normal 0.335922 -0.762005 0.553629
    outer loop
      vertex 3.15055e-15 47.4965 14.1888
      vertex -3 46.4266 14.5365
      vertex 2.90075e-15 46.6792 13.0638
    endloop
  endfacet
  facet normal 0.335922 -0.94189 -7.45896e-17
    outer loop
      vertex 3.51078e-15 47.4965 15.8112
      vertex -3 46.4266 15.4635
      vertex -3 46.4266 14.5365
    endloop
  endfacet
  facet normal 0.335922 -0.94189 -7.45896e-17
    outer loop
      vertex 3.15055e-15 47.4965 14.1888
      vertex 3.51078e-15 47.4965 15.8112
      vertex -3 46.4266 14.5365
    endloop
  endfacet
  facet normal 0.335922 -0.762005 -0.553629
    outer loop
      vertex 3.51078e-15 47.4965 15.8112
      vertex 3.55242e-15 47.3603 15.9987
      vertex -3 45.8817 16.2135
    endloop
  endfacet
  facet normal 0.335922 -0.762005 -0.553629
    outer loop
      vertex -3 46.4266 15.4635
      vertex 3.51078e-15 47.4965 15.8112
      vertex -3 45.8817 16.2135
    endloop
  endfacet
  facet normal 0.335922 -0.762005 -0.553629
    outer loop
      vertex 3.80222e-15 46.5429 17.1237
      vertex -3 45.8817 16.2135
      vertex 3.55242e-15 47.3603 15.9987
    endloop
  endfacet
  facet normal 0.335922 -0.29106 -0.89579
    outer loop
      vertex 3.81812e-15 46.3225 17.1953
      vertex -3 45 16.5
      vertex 3.80222e-15 46.5429 17.1237
    endloop
  endfacet
  facet normal 0.335922 -0.29106 -0.89579
    outer loop
      vertex 3.80222e-15 46.5429 17.1237
      vertex -3 45 16.5
      vertex -3 45.8817 16.2135
    endloop
  endfacet
  facet normal 0.335921 -0.29106 -0.895791
    outer loop
      vertex 3.81812e-15 46.3225 17.1953
      vertex 3.91354e-15 45 17.625
      vertex -3 45 16.5
    endloop
  endfacet
  facet normal 0.335921 0.29106 -0.89579
    outer loop
      vertex 3.91354e-15 45 17.625
      vertex 3.89763e-15 44.7796 17.5534
      vertex -3 45 16.5
    endloop
  endfacet
  facet normal 0.335921 0.29106 -0.89579
    outer loop
      vertex -3 45 16.5
      vertex 3.89763e-15 44.7796 17.5534
      vertex -3 44.1183 16.2135
    endloop
  endfacet
  facet normal 0.335922 0.29106 -0.895791
    outer loop
      vertex 3.89763e-15 44.7796 17.5534
      vertex 3.80222e-15 43.4571 17.1237
      vertex -3 44.1183 16.2135
    endloop
  endfacet
  facet normal 0.335922 0.762005 -0.553629
    outer loop
      vertex 3.80222e-15 43.4571 17.1237
      vertex 3.76059e-15 43.3208 16.9362
      vertex -3 44.1183 16.2135
    endloop
  endfacet
  facet normal 0.335922 0.762005 -0.553629
    outer loop
      vertex -3 44.1183 16.2135
      vertex 3.76059e-15 43.3208 16.9362
      vertex -3 43.5734 15.4635
    endloop
  endfacet
  facet normal 0.335922 0.762005 -0.553629
    outer loop
      vertex 3.76059e-15 43.3208 16.9362
      vertex 3.51078e-15 42.5035 15.8112
      vertex -3 43.5734 15.4635
    endloop
  endfacet
  facet normal 0.335922 0.94189 -7.45896e-17
    outer loop
      vertex -3 43.5734 15.4635
      vertex 3.51078e-15 42.5035 15.8112
      vertex -3 43.5734 14.5365
    endloop
  endfacet
  facet normal 0.335922 0.94189 -7.45896e-17
    outer loop
      vertex -3 43.5734 14.5365
      vertex 3.51078e-15 42.5035 15.8112
      vertex 3.15055e-15 42.5035 14.1888
    endloop
  endfacet
  facet normal 0.335922 0.762005 0.553629
    outer loop
      vertex 3.15055e-15 42.5035 14.1888
      vertex 3.10892e-15 42.6397 14.0013
      vertex -3 43.5734 14.5365
    endloop
  endfacet
  facet normal 0.335922 0.762005 0.553629
    outer loop
      vertex -3 43.5734 14.5365
      vertex 3.10892e-15 42.6397 14.0013
      vertex -3 44.1183 13.7865
    endloop
  endfacet
  facet normal 0.335922 0.762005 0.553629
    outer loop
      vertex -3 44.1183 13.7865
      vertex 3.10892e-15 42.6397 14.0013
      vertex 2.85912e-15 43.4571 12.8763
    endloop
  endfacet
  facet normal 0.335922 0.29106 0.89579
    outer loop
      vertex -3 45 13.5
      vertex -3 44.1183 13.7865
      vertex 2.85912e-15 43.4571 12.8763
    endloop
  endfacet
  facet normal 0.335922 0.29106 0.89579
    outer loop
      vertex 2.84322e-15 43.6775 12.8047
      vertex -3 45 13.5
      vertex 2.85912e-15 43.4571 12.8763
    endloop
  endfacet
  facet normal 0.335921 0.29106 0.895791
    outer loop
      vertex -3 45 13.5
      vertex 2.84322e-15 43.6775 12.8047
      vertex 2.7478e-15 45 12.375
    endloop
  endfacet
  facet normal 1.85083e-16 0.951056 0.309017
    outer loop
      vertex -5 13.5734 15.4635
      vertex -4 13.5734 15.4635
      vertex -5 14.1183 13.7865
    endloop
  endfacet
  facet normal 1.85083e-16 0.951056 0.309017
    outer loop
      vertex -5 14.1183 13.7865
      vertex -4 13.5734 15.4635
      vertex -4 14.1183 13.7865
    endloop
  endfacet
  facet normal 2.22045e-16 0 1
    outer loop
      vertex -4 15.8817 13.7865
      vertex -5 15.8817 13.7865
      vertex -5 14.1183 13.7865
    endloop
  endfacet
  facet normal 2.22045e-16 0 1
    outer loop
      vertex -4 14.1183 13.7865
      vertex -4 15.8817 13.7865
      vertex -5 14.1183 13.7865
    endloop
  endfacet
  facet normal -1.07657e-16 0.587785 -0.809017
    outer loop
      vertex -5 15 16.5
      vertex -4 15 16.5
      vertex -5 13.5734 15.4635
    endloop
  endfacet
  facet normal -1.07657e-16 0.587785 -0.809017
    outer loop
      vertex -5 13.5734 15.4635
      vertex -4 15 16.5
      vertex -4 13.5734 15.4635
    endloop
  endfacet
  facet normal -2.51618e-16 -0.587785 -0.809017
    outer loop
      vertex -5 15 16.5
      vertex -5 16.4266 15.4635
      vertex -4 15 16.5
    endloop
  endfacet
  facet normal -2.51618e-16 -0.587785 -0.809017
    outer loop
      vertex -4 15 16.5
      vertex -5 16.4266 15.4635
      vertex -4 16.4266 15.4635
    endloop
  endfacet
  facet normal -4.78514e-17 -0.951056 0.309017
    outer loop
      vertex -4 16.4266 15.4635
      vertex -5 16.4266 15.4635
      vertex -5 15.8817 13.7865
    endloop
  endfacet
  facet normal -4.78514e-17 -0.951056 0.309017
    outer loop
      vertex -4 15.8817 13.7865
      vertex -4 16.4266 15.4635
      vertex -5 15.8817 13.7865
    endloop
  endfacet
  facet normal 1.85083e-16 0.951056 0.309017
    outer loop
      vertex -5 28.5734 15.4635
      vertex -4 28.5734 15.4635
      vertex -5 29.1183 13.7865
    endloop
  endfacet
  facet normal 1.85083e-16 0.951056 0.309017
    outer loop
      vertex -5 29.1183 13.7865
      vertex -4 28.5734 15.4635
      vertex -4 29.1183 13.7865
    endloop
  endfacet
  facet normal 2.22045e-16 0 1
    outer loop
      vertex -4 30.8817 13.7865
      vertex -5 30.8817 13.7865
      vertex -5 29.1183 13.7865
    endloop
  endfacet
  facet normal 2.22045e-16 0 1
    outer loop
      vertex -4 29.1183 13.7865
      vertex -4 30.8817 13.7865
      vertex -5 29.1183 13.7865
    endloop
  endfacet
  facet normal -1.07657e-16 0.587785 -0.809017
    outer loop
      vertex -5 30 16.5
      vertex -4 30 16.5
      vertex -5 28.5734 15.4635
    endloop
  endfacet
  facet normal -1.07657e-16 0.587785 -0.809017
    outer loop
      vertex -5 28.5734 15.4635
      vertex -4 30 16.5
      vertex -4 28.5734 15.4635
    endloop
  endfacet
  facet normal -2.51618e-16 -0.587785 -0.809017
    outer loop
      vertex -5 30 16.5
      vertex -5 31.4266 15.4635
      vertex -4 30 16.5
    endloop
  endfacet
  facet normal -2.51618e-16 -0.587785 -0.809017
    outer loop
      vertex -4 30 16.5
      vertex -5 31.4266 15.4635
      vertex -4 31.4266 15.4635
    endloop
  endfacet
  facet normal -4.78514e-17 -0.951056 0.309017
    outer loop
      vertex -4 31.4266 15.4635
      vertex -5 31.4266 15.4635
      vertex -5 30.8817 13.7865
    endloop
  endfacet
  facet normal -4.78514e-17 -0.951056 0.309017
    outer loop
      vertex -4 30.8817 13.7865
      vertex -4 31.4266 15.4635
      vertex -5 30.8817 13.7865
    endloop
  endfacet
  facet normal 1.85083e-16 0.951056 0.309017
    outer loop
      vertex -5 43.5734 15.4635
      vertex -4 43.5734 15.4635
      vertex -5 44.1183 13.7865
    endloop
  endfacet
  facet normal 1.85083e-16 0.951056 0.309017
    outer loop
      vertex -5 44.1183 13.7865
      vertex -4 43.5734 15.4635
      vertex -4 44.1183 13.7865
    endloop
  endfacet
  facet normal 2.22045e-16 0 1
    outer loop
      vertex -4 45.8817 13.7865
      vertex -5 45.8817 13.7865
      vertex -5 44.1183 13.7865
    endloop
  endfacet
  facet normal 2.22045e-16 0 1
    outer loop
      vertex -4 44.1183 13.7865
      vertex -4 45.8817 13.7865
      vertex -5 44.1183 13.7865
    endloop
  endfacet
  facet normal -1.07657e-16 0.587785 -0.809017
    outer loop
      vertex -5 45 16.5
      vertex -4 45 16.5
      vertex -5 43.5734 15.4635
    endloop
  endfacet
  facet normal -1.07657e-16 0.587785 -0.809017
    outer loop
      vertex -5 43.5734 15.4635
      vertex -4 45 16.5
      vertex -4 43.5734 15.4635
    endloop
  endfacet
  facet normal -2.51618e-16 -0.587785 -0.809017
    outer loop
      vertex -5 45 16.5
      vertex -5 46.4266 15.4635
      vertex -4 45 16.5
    endloop
  endfacet
  facet normal -2.51618e-16 -0.587785 -0.809017
    outer loop
      vertex -4 45 16.5
      vertex -5 46.4266 15.4635
      vertex -4 46.4266 15.4635
    endloop
  endfacet
  facet normal -4.78514e-17 -0.951056 0.309017
    outer loop
      vertex -4 46.4266 15.4635
      vertex -5 46.4266 15.4635
      vertex -5 45.8817 13.7865
    endloop
  endfacet
  facet normal -4.78514e-17 -0.951056 0.309017
    outer loop
      vertex -4 45.8817 13.7865
      vertex -4 46.4266 15.4635
      vertex -5 45.8817 13.7865
    endloop
  endfacet
  facet normal 1 -1.22461e-16 -2.22045e-16
    outer loop
      vertex -3 15.8817 13.7865
      vertex -3 16.4266 14.5365
      vertex -3 16.4266 15.4635
    endloop
  endfacet
  facet normal 1 -1.22461e-16 -2.22045e-16
    outer loop
      vertex -3 15 16.5
      vertex -3 15.8817 13.7865
      vertex -3 15.8817 16.2135
    endloop
  endfacet
  facet normal 1 -1.22461e-16 -2.22045e-16
    outer loop
      vertex -3 15.8817 16.2135
      vertex -3 15.8817 13.7865
      vertex -3 16.4266 15.4635
    endloop
  endfacet
  facet normal 1 -1.22461e-16 -2.22045e-16
    outer loop
      vertex -3 14.1183 16.2135
      vertex -3 15.8817 13.7865
      vertex -3 15 16.5
    endloop
  endfacet
  facet normal 1 -1.22461e-16 -2.22045e-16
    outer loop
      vertex -3 13.5734 15.4635
      vertex -3 15.8817 13.7865
      vertex -3 14.1183 16.2135
    endloop
  endfacet
  facet normal 1 -1.22461e-16 -2.22045e-16
    outer loop
      vertex -3 13.5734 14.5365
      vertex -3 15.8817 13.7865
      vertex -3 13.5734 15.4635
    endloop
  endfacet
  facet normal 1 -1.22461e-16 -2.22045e-16
    outer loop
      vertex -3 14.1183 13.7865
      vertex -3 15.8817 13.7865
      vertex -3 13.5734 14.5365
    endloop
  endfacet
  facet normal 1 -1.22461e-16 -2.22045e-16
    outer loop
      vertex -3 15 13.5
      vertex -3 15.8817 13.7865
      vertex -3 14.1183 13.7865
    endloop
  endfacet
  facet normal 1 -1.22461e-16 -2.22045e-16
    outer loop
      vertex -3 30.8817 13.7865
      vertex -3 31.4266 14.5365
      vertex -3 31.4266 15.4635
    endloop
  endfacet
  facet normal 1 -1.22461e-16 -2.22045e-16
    outer loop
      vertex -3 30 16.5
      vertex -3 30.8817 13.7865
      vertex -3 30.8817 16.2135
    endloop
  endfacet
  facet normal 1 -1.22461e-16 -2.22045e-16
    outer loop
      vertex -3 30.8817 16.2135
      vertex -3 30.8817 13.7865
      vertex -3 31.4266 15.4635
    endloop
  endfacet
  facet normal 1 -1.22461e-16 -2.22045e-16
    outer loop
      vertex -3 29.1183 16.2135
      vertex -3 30.8817 13.7865
      vertex -3 30 16.5
    endloop
  endfacet
  facet normal 1 -1.22461e-16 -2.22045e-16
    outer loop
      vertex -3 28.5734 15.4635
      vertex -3 30.8817 13.7865
      vertex -3 29.1183 16.2135
    endloop
  endfacet
  facet normal 1 -1.22461e-16 -2.22045e-16
    outer loop
      vertex -3 28.5734 14.5365
      vertex -3 30.8817 13.7865
      vertex -3 28.5734 15.4635
    endloop
  endfacet
  facet normal 1 -1.22461e-16 -2.22045e-16
    outer loop
      vertex -3 29.1183 13.7865
      vertex -3 30.8817 13.7865
      vertex -3 28.5734 14.5365
    endloop
  endfacet
  facet normal 1 -1.22461e-16 -2.22045e-16
    outer loop
      vertex -3 30 13.5
      vertex -3 30.8817 13.7865
      vertex -3 29.1183 13.7865
    endloop
  endfacet
  facet normal 1 -1.22461e-16 -2.22045e-16
    outer loop
      vertex -3 45.8817 13.7865
      vertex -3 46.4266 14.5365
      vertex -3 46.4266 15.4635
    endloop
  endfacet
  facet normal 1 -1.22461e-16 -2.22045e-16
    outer loop
      vertex -3 45 16.5
      vertex -3 45.8817 13.7865
      vertex -3 45.8817 16.2135
    endloop
  endfacet
  facet normal 1 -1.22461e-16 -2.22045e-16
    outer loop
      vertex -3 45.8817 16.2135
      vertex -3 45.8817 13.7865
      vertex -3 46.4266 15.4635
    endloop
  endfacet
  facet normal 1 -1.22461e-16 -2.22045e-16
    outer loop
      vertex -3 44.1183 16.2135
      vertex -3 45.8817 13.7865
      vertex -3 45 16.5
    endloop
  endfacet
  facet normal 1 -1.22461e-16 -2.22045e-16
    outer loop
      vertex -3 43.5734 15.4635
      vertex -3 45.8817 13.7865
      vertex -3 44.1183 16.2135
    endloop
  endfacet
  facet normal 1 -1.22461e-16 -2.22045e-16
    outer loop
      vertex -3 43.5734 14.5365
      vertex -3 45.8817 13.7865
      vertex -3 43.5734 15.4635
    endloop
  endfacet
  facet normal 1 -1.22461e-16 -2.22045e-16
    outer loop
      vertex -3 44.1183 13.7865
      vertex -3 45.8817 13.7865
      vertex -3 43.5734 14.5365
    endloop
  endfacet
  facet normal 1 -1.22461e-16 -2.22045e-16
    outer loop
      vertex -3 45 13.5
      vertex -3 45.8817 13.7865
      vertex -3 44.1183 13.7865
    endloop
  endfacet
  facet normal -1 1.22461e-16 2.22045e-16
    outer loop
      vertex -4 15 16.5
      vertex -4 16.4266 15.4635
      vertex -4 13.5734 15.4635
    endloop
  endfacet
  facet normal -1 1.22461e-16 2.22045e-16
    outer loop
      vertex -4 13.5734 15.4635
      vertex -4 16.4266 15.4635
      vertex -4 15.8817 13.7865
    endloop
  endfacet
  facet normal -1 1.22461e-16 2.22045e-16
    outer loop
      vertex -4 13.5734 15.4635
      vertex -4 15.8817 13.7865
      vertex -4 14.1183 13.7865
    endloop
  endfacet
  facet normal -1 1.22461e-16 2.22045e-16
    outer loop
      vertex -4 30 16.5
      vertex -4 31.4266 15.4635
      vertex -4 28.5734 15.4635
    endloop
  endfacet
  facet normal -1 1.22461e-16 2.22045e-16
    outer loop
      vertex -4 28.5734 15.4635
      vertex -4 31.4266 15.4635
      vertex -4 30.8817 13.7865
    endloop
  endfacet
  facet normal -1 1.22461e-16 2.22045e-16
    outer loop
      vertex -4 28.5734 15.4635
      vertex -4 30.8817 13.7865
      vertex -4 29.1183 13.7865
    endloop
  endfacet
  facet normal -1 1.22461e-16 2.22045e-16
    outer loop
      vertex -4 45 16.5
      vertex -4 46.4266 15.4635
      vertex -4 43.5734 15.4635
    endloop
  endfacet
  facet normal -1 1.22461e-16 2.22045e-16
    outer loop
      vertex -4 43.5734 15.4635
      vertex -4 46.4266 15.4635
      vertex -4 45.8817 13.7865
    endloop
  endfacet
  facet normal -1 1.22461e-16 2.22045e-16
    outer loop
      vertex -4 43.5734 15.4635
      vertex -4 45.8817 13.7865
      vertex -4 44.1183 13.7865
    endloop
  endfacet
endsolid OpenSCAD_Model
