solid OpenSCAD_Model
  facet normal -1 0 0
    outer loop
      vertex 0 0 0
      vertex 0 0 9
      vertex 0 25 0
    endloop
  endfacet
  facet normal -1 0 0
    outer loop
      vertex 0 25 0
      vertex 0 0 9
      vertex 0 25 9
    endloop
  endfacet
  facet normal 0 -1 0
    outer loop
      vertex 0 0 9
      vertex 0 0 0
      vertex 40 0 0
    endloop
  endfacet
  facet normal 0 -1 0
    outer loop
      vertex 40 0 9
      vertex 0 0 9
      vertex 40 0 0
    endloop
  endfacet
  facet normal 0 0 -1
    outer loop
      vertex 9.26777 14.2678 0
      vertex 0 25 0
      vertex 40 0 0
    endloop
  endfacet
  facet normal 0 0 -1
    outer loop
      vertex 30.7322 14.2678 0
      vertex 0 25 0
      vertex 40 25 0
    endloop
  endfacet
  facet normal 0 0 -1
    outer loop
      vertex 0 0 0
      vertex 0 25 0
      vertex 5 12.5 0
    endloop
  endfacet
  facet normal 0 0 -1
    outer loop
      vertex 0 0 0
      vertex 5 12.5 0
      vertex 5.73223 10.7322 0
    endloop
  endfacet
  facet normal 0 0 -1
    outer loop
      vertex 0 0 0
      vertex 5.73223 10.7322 0
      vertex 7.5 10 0
    endloop
  endfacet
  facet normal 0 0 -1
    outer loop
      vertex 0 0 0
      vertex 7.5 10 0
      vertex 40 0 0
    endloop
  endfacet
  facet normal 0 0 -1
    outer loop
      vertex 10 12.5 0
      vertex 40 0 0
      vertex 9.26777 10.7322 0
    endloop
  endfacet
  facet normal 0 0 -1
    outer loop
      vertex 32.5 10 0
      vertex 40 0 0
      vertex 30.7322 10.7322 0
    endloop
  endfacet
  facet normal 0 0 -1
    outer loop
      vertex 7.5 15 0
      vertex 0 25 0
      vertex 9.26777 14.2678 0
    endloop
  endfacet
  facet normal 0 0 -1
    outer loop
      vertex 10 12.5 0
      vertex 9.26777 14.2678 0
      vertex 40 0 0
    endloop
  endfacet
  facet normal 0 0 -1
    outer loop
      vertex 5.73223 14.2678 0
      vertex 0 25 0
      vertex 7.5 15 0
    endloop
  endfacet
  facet normal 0 0 -1
    outer loop
      vertex 5 12.5 0
      vertex 0 25 0
      vertex 5.73223 14.2678 0
    endloop
  endfacet
  facet normal 0 0 -1
    outer loop
      vertex 30.7322 10.7322 0
      vertex 0 25 0
      vertex 30 12.5 0
    endloop
  endfacet
  facet normal 0 0 -1
    outer loop
      vertex 40 0 0
      vertex 0 25 0
      vertex 30.7322 10.7322 0
    endloop
  endfacet
  facet normal 0 0 -1
    outer loop
      vertex 34.2678 14.2678 0
      vertex 40 25 0
      vertex 35 12.5 0
    endloop
  endfacet
  facet normal 0 0 -1
    outer loop
      vertex 40 0 0
      vertex 32.5 10 0
      vertex 34.2678 10.7322 0
    endloop
  endfacet
  facet normal 0 0 -1
    outer loop
      vertex 40 0 0
      vertex 34.2678 10.7322 0
      vertex 35 12.5 0
    endloop
  endfacet
  facet normal 0 0 -1
    outer loop
      vertex 40 0 0
      vertex 35 12.5 0
      vertex 40 25 0
    endloop
  endfacet
  facet normal 0 0 -1
    outer loop
      vertex 30.7322 14.2678 0
      vertex 40 25 0
      vertex 32.5 15 0
    endloop
  endfacet
  facet normal 0 0 -1
    outer loop
      vertex 34.2678 14.2678 0
      vertex 32.5 15 0
      vertex 40 25 0
    endloop
  endfacet
  facet normal 0 0 -1
    outer loop
      vertex 30 12.5 0
      vertex 0 25 0
      vertex 30.7322 14.2678 0
    endloop
  endfacet
  facet normal 0 0 -1
    outer loop
      vertex 9.26777 10.7322 0
      vertex 40 0 0
      vertex 7.5 10 0
    endloop
  endfacet
  facet normal 0 1 0
    outer loop
      vertex 0 25 0
      vertex 0 25 9
      vertex 40 25 0
    endloop
  endfacet
  facet normal 0 1 0
    outer loop
      vertex 40 25 0
      vertex 0 25 9
      vertex 40 25 9
    endloop
  endfacet
  facet normal 0 0 1
    outer loop
      vertex 7.5 10 9
      vertex 0 0 9
      vertex 40 0 9
    endloop
  endfacet
  facet normal 0 0 1
    outer loop
      vertex 30.7322 10.7322 9
      vertex 0 25 9
      vertex 40 0 9
    endloop
  endfacet
  facet normal 0 0 1
    outer loop
      vertex 30.7322 14.2678 9
      vertex 32.5 15 9
      vertex 40 25 9
    endloop
  endfacet
  facet normal 0 0 1
    outer loop
      vertex 5 12.5 9
      vertex 0 0 9
      vertex 5.73223 10.7322 9
    endloop
  endfacet
  facet normal 0 0 1
    outer loop
      vertex 9.26777 14.2678 9
      vertex 10 12.5 9
      vertex 40 0 9
    endloop
  endfacet
  facet normal 0 0 1
    outer loop
      vertex 0 25 9
      vertex 0 0 9
      vertex 5 12.5 9
    endloop
  endfacet
  facet normal 0 0 1
    outer loop
      vertex 9.26777 10.7322 9
      vertex 7.5 10 9
      vertex 40 0 9
    endloop
  endfacet
  facet normal 0 0 1
    outer loop
      vertex 10 12.5 9
      vertex 9.26777 10.7322 9
      vertex 40 0 9
    endloop
  endfacet
  facet normal 0 0 1
    outer loop
      vertex 0 25 9
      vertex 5.73223 14.2678 9
      vertex 7.5 15 9
    endloop
  endfacet
  facet normal 0 0 1
    outer loop
      vertex 0 25 9
      vertex 9.26777 14.2678 9
      vertex 40 0 9
    endloop
  endfacet
  facet normal 0 0 1
    outer loop
      vertex 0 25 9
      vertex 7.5 15 9
      vertex 9.26777 14.2678 9
    endloop
  endfacet
  facet normal 0 0 1
    outer loop
      vertex 5.73223 10.7322 9
      vertex 0 0 9
      vertex 7.5 10 9
    endloop
  endfacet
  facet normal 0 0 1
    outer loop
      vertex 32.5 10 9
      vertex 30.7322 10.7322 9
      vertex 40 0 9
    endloop
  endfacet
  facet normal 0 0 1
    outer loop
      vertex 30 12.5 9
      vertex 0 25 9
      vertex 30.7322 10.7322 9
    endloop
  endfacet
  facet normal 0 0 1
    outer loop
      vertex 30.7322 14.2678 9
      vertex 0 25 9
      vertex 30 12.5 9
    endloop
  endfacet
  facet normal 0 0 1
    outer loop
      vertex 32.5 15 9
      vertex 34.2678 14.2678 9
      vertex 40 25 9
    endloop
  endfacet
  facet normal 0 0 1
    outer loop
      vertex 40 25 9
      vertex 0 25 9
      vertex 30.7322 14.2678 9
    endloop
  endfacet
  facet normal 0 0 1
    outer loop
      vertex 35 12.5 9
      vertex 34.2678 10.7322 9
      vertex 40 0 9
    endloop
  endfacet
  facet normal 0 0 1
    outer loop
      vertex 40 25 9
      vertex 35 12.5 9
      vertex 40 0 9
    endloop
  endfacet
  facet normal 0 0 1
    outer loop
      vertex 40 25 9
      vertex 34.2678 14.2678 9
      vertex 35 12.5 9
    endloop
  endfacet
  facet normal 0 0 1
    outer loop
      vertex 34.2678 10.7322 9
      vertex 32.5 10 9
      vertex 40 0 9
    endloop
  endfacet
  facet normal 0 0 1
    outer loop
      vertex 5 12.5 9
      vertex 5.73223 14.2678 9
      vertex 0 25 9
    endloop
  endfacet
  facet normal 1 0 0
    outer loop
      vertex 40 0 9
      vertex 40 0 0
      vertex 40 25 0
    endloop
  endfacet
  facet normal 1 0 0
    outer loop
      vertex 40 25 9
      vertex 40 0 9
      vertex 40 25 0
    endloop
  endfacet
  facet normal 0.92388 -0.382683 0
    outer loop
      vertex 5.73223 14.2678 0
      vertex 5.73223 14.2678 9
      vertex 5 12.5 9
    endloop
  endfacet
  facet normal 0.92388 -0.382683 0
    outer loop
      vertex 5 12.5 0
      vertex 5.73223 14.2678 0
      vertex 5 12.5 9
    endloop
  endfacet
  facet normal 0.92388 0.382683 0
    outer loop
      vertex 5 12.5 9
      vertex 5.73223 10.7322 9
      vertex 5.73223 10.7322 0
    endloop
  endfacet
  facet normal 0.92388 0.382683 0
    outer loop
      vertex 5 12.5 0
      vertex 5 12.5 9
      vertex 5.73223 10.7322 0
    endloop
  endfacet
  facet normal 0.382683 -0.92388 0
    outer loop
      vertex 7.5 15 0
      vertex 7.5 15 9
      vertex 5.73223 14.2678 9
    endloop
  endfacet
  facet normal 0.382683 -0.92388 0
    outer loop
      vertex 5.73223 14.2678 0
      vertex 7.5 15 0
      vertex 5.73223 14.2678 9
    endloop
  endfacet
  facet normal -0.382683 -0.92388 0
    outer loop
      vertex 9.26777 14.2678 0
      vertex 9.26777 14.2678 9
      vertex 7.5 15 9
    endloop
  endfacet
  facet normal -0.382683 -0.92388 0
    outer loop
      vertex 7.5 15 0
      vertex 9.26777 14.2678 0
      vertex 7.5 15 9
    endloop
  endfacet
  facet normal -0.92388 -0.382683 0
    outer loop
      vertex 10 12.5 9
      vertex 9.26777 14.2678 9
      vertex 10 12.5 0
    endloop
  endfacet
  facet normal -0.92388 -0.382683 0
    outer loop
      vertex 10 12.5 0
      vertex 9.26777 14.2678 9
      vertex 9.26777 14.2678 0
    endloop
  endfacet
  facet normal -0.92388 0.382683 0
    outer loop
      vertex 10 12.5 9
      vertex 10 12.5 0
      vertex 9.26777 10.7322 9
    endloop
  endfacet
  facet normal -0.92388 0.382683 0
    outer loop
      vertex 9.26777 10.7322 9
      vertex 10 12.5 0
      vertex 9.26777 10.7322 0
    endloop
  endfacet
  facet normal -0.382683 0.92388 0
    outer loop
      vertex 9.26777 10.7322 9
      vertex 9.26777 10.7322 0
      vertex 7.5 10 9
    endloop
  endfacet
  facet normal -0.382683 0.92388 0
    outer loop
      vertex 7.5 10 9
      vertex 9.26777 10.7322 0
      vertex 7.5 10 0
    endloop
  endfacet
  facet normal 0.382683 0.92388 0
    outer loop
      vertex 7.5 10 9
      vertex 7.5 10 0
      vertex 5.73223 10.7322 9
    endloop
  endfacet
  facet normal 0.382683 0.92388 0
    outer loop
      vertex 5.73223 10.7322 9
      vertex 7.5 10 0
      vertex 5.73223 10.7322 0
    endloop
  endfacet
  facet normal 0.92388 -0.382683 0
    outer loop
      vertex 30.7322 14.2678 0
      vertex 30.7322 14.2678 9
      vertex 30 12.5 9
    endloop
  endfacet
  facet normal 0.92388 -0.382683 0
    outer loop
      vertex 30 12.5 0
      vertex 30.7322 14.2678 0
      vertex 30 12.5 9
    endloop
  endfacet
  facet normal 0.92388 0.382683 0
    outer loop
      vertex 30 12.5 9
      vertex 30.7322 10.7322 9
      vertex 30.7322 10.7322 0
    endloop
  endfacet
  facet normal 0.92388 0.382683 0
    outer loop
      vertex 30 12.5 0
      vertex 30 12.5 9
      vertex 30.7322 10.7322 0
    endloop
  endfacet
  facet normal 0.382683 -0.92388 0
    outer loop
      vertex 32.5 15 0
      vertex 32.5 15 9
      vertex 30.7322 14.2678 9
    endloop
  endfacet
  facet normal 0.382683 -0.92388 0
    outer loop
      vertex 30.7322 14.2678 0
      vertex 32.5 15 0
      vertex 30.7322 14.2678 9
    endloop
  endfacet
  facet normal -0.382683 -0.92388 0
    outer loop
      vertex 34.2678 14.2678 0
      vertex 34.2678 14.2678 9
      vertex 32.5 15 9
    endloop
  endfacet
  facet normal -0.382683 -0.92388 0
    outer loop
      vertex 32.5 15 0
      vertex 34.2678 14.2678 0
      vertex 32.5 15 9
    endloop
  endfacet
  facet normal -0.92388 -0.382683 0
    outer loop
      vertex 35 12.5 9
      vertex 34.2678 14.2678 9
      vertex 35 12.5 0
    endloop
  endfacet
  facet normal -0.92388 -0.382683 0
    outer loop
      vertex 35 12.5 0
      vertex 34.2678 14.2678 9
      vertex 34.2678 14.2678 0
    endloop
  endfacet
  facet normal -0.92388 0.382683 0
    outer loop
      vertex 35 12.5 9
      vertex 35 12.5 0
      vertex 34.2678 10.7322 9
    endloop
  endfacet
  facet normal -0.92388 0.382683 0
    outer loop
      vertex 34.2678 10.7322 9
      vertex 35 12.5 0
      vertex 34.2678 10.7322 0
    endloop
  endfacet
  facet normal -0.382683 0.92388 0
    outer loop
      vertex 34.2678 10.7322 9
      vertex 34.2678 10.7322 0
      vertex 32.5 10 9
    endloop
  endfacet
  facet normal -0.382683 0.92388 0
    outer loop
      vertex 32.5 10 9
      vertex 34.2678 10.7322 0
      vertex 32.5 10 0
    endloop
  endfacet
  facet normal 0.382683 0.92388 0
    outer loop
      vertex 32.5 10 9
      vertex 32.5 10 0
      vertex 30.7322 10.7322 9
    endloop
  endfacet
  facet normal 0.382683 0.92388 0
    outer loop
      vertex 30.7322 10.7322 9
      vertex 32.5 10 0
      vertex 30.7322 10.7322 0
    endloop
  endfacet
endsolid OpenSCAD_Model
