solid OpenSCAD_Model
  facet normal -1 0 0
    outer loop
      vertex 0 -22.2514 15
      vertex 0 -22.2518 15
      vertex 0 -17 15
    endloop
  endfacet
  facet normal -1 0 0
    outer loop
      vertex 0 -22.2514 15
      vertex 0 -17 15
      vertex 0 -17 -6.66134e-16
    endloop
  endfacet
  facet normal -1 0 0
    outer loop
      vertex 0 -22.2514 15
      vertex 0 -17 -6.66134e-16
      vertex 0 -22.2514 4.99905e-16
    endloop
  endfacet
  facet normal 2.22045e-16 -1 2.22045e-16
    outer loop
      vertex 0.03921 -22.2518 15
      vertex 0.03921 -22.2518 14.9477
      vertex 9 -22.2518 14.9477
    endloop
  endfacet
  facet normal 2.22045e-16 -1 2.22045e-16
    outer loop
      vertex 11 -22.2518 15
      vertex 0.03921 -22.2518 15
      vertex 9 -22.2518 15
    endloop
  endfacet
  facet normal 2.22045e-16 -1 2.22045e-16
    outer loop
      vertex 9 -22.2518 15
      vertex 0.03921 -22.2518 15
      vertex 9 -22.2518 14.9477
    endloop
  endfacet
  facet normal 2.22045e-16 -1 2.22045e-16
    outer loop
      vertex 0 -22.2518 15
      vertex 0.03921 -22.2518 15
      vertex 11 -22.2518 15
    endloop
  endfacet
  facet normal 0 -4.44089e-16 -1
    outer loop
      vertex 0.026175 -22.2505 15
      vertex 0.03921 -22.2518 15
      vertex 0 -22.2514 15
    endloop
  endfacet
  facet normal 0 -4.44089e-16 -1
    outer loop
      vertex 0 -22.2514 15
      vertex 0.03921 -22.2518 15
      vertex 0 -22.2518 15
    endloop
  endfacet
  facet normal 0.0349024 -0.999391 4.43819e-16
    outer loop
      vertex 0.026175 -22.2505 4.99702e-16
      vertex 0.026175 -22.2505 15
      vertex 0 -22.2514 15
    endloop
  endfacet
  facet normal 0.0349024 -0.999391 4.43819e-16
    outer loop
      vertex 0 -22.2514 4.99905e-16
      vertex 0.026175 -22.2505 4.99702e-16
      vertex 0 -22.2514 15
    endloop
  endfacet
  facet normal 0 -2.22045e-16 -1
    outer loop
      vertex 0 -22.2514 4.99905e-16
      vertex 0 -17 -6.66134e-16
      vertex 0.026175 -22.2505 4.99702e-16
    endloop
  endfacet
  facet normal 0 -2.22045e-16 -1
    outer loop
      vertex 11 -20 0
      vertex 0 -17 -6.66134e-16
      vertex 30 -17 -6.66134e-16
    endloop
  endfacet
  facet normal 0 -2.22045e-16 -1
    outer loop
      vertex 19 -20 0
      vertex 30 -17 -6.66134e-16
      vertex 30 -22.2514 4.99905e-16
    endloop
  endfacet
  facet normal 0 -2.22045e-16 -1
    outer loop
      vertex 19 -20 0
      vertex 30 -22.2514 4.99905e-16
      vertex 29.9216 -22.2541 5.00513e-16
    endloop
  endfacet
  facet normal 0 -2.22045e-16 -1
    outer loop
      vertex 9 -23 6.66134e-16
      vertex 11 -23.75 8.32667e-16
      vertex 9 -24.5 9.99201e-16
    endloop
  endfacet
  facet normal 0 -2.22045e-16 -1
    outer loop
      vertex 0.636036 -22.6026 5.77885e-16
      vertex 0.574533 -22.5179 5.59088e-16
      vertex 9 -23 6.66134e-16
    endloop
  endfacet
  facet normal 0 -2.22045e-16 -1
    outer loop
      vertex 0.685159 -22.6949 5.98399e-16
      vertex 0.636036 -22.6026 5.77885e-16
      vertex 9 -23 6.66134e-16
    endloop
  endfacet
  facet normal 0 -2.22045e-16 -1
    outer loop
      vertex 0.720946 -22.7933 6.20231e-16
      vertex 0.685159 -22.6949 5.98399e-16
      vertex 9 -23 6.66134e-16
    endloop
  endfacet
  facet normal 0 -2.22045e-16 -1
    outer loop
      vertex 0.742701 -22.8956 6.42957e-16
      vertex 0.720946 -22.7933 6.20231e-16
      vertex 9 -23 6.66134e-16
    endloop
  endfacet
  facet normal 0 -2.22045e-16 -1
    outer loop
      vertex 0.75 -23 6.66134e-16
      vertex 0.742701 -22.8956 6.42957e-16
      vertex 9 -23 6.66134e-16
    endloop
  endfacet
  facet normal 0 -2.22045e-16 -1
    outer loop
      vertex 19 -20 0
      vertex 29.9216 -22.2541 5.00513e-16
      vertex 29.8186 -22.2723 5.04547e-16
    endloop
  endfacet
  facet normal 0 -2.22045e-16 -1
    outer loop
      vertex 11 -20 0
      vertex 30 -17 -6.66134e-16
      vertex 19 -20 0
    endloop
  endfacet
  facet normal 0 -2.22045e-16 -1
    outer loop
      vertex 0.130236 -22.2614 5.0213e-16
      vertex 9 -23 6.66134e-16
      vertex 0.231763 -22.2867 5.07751e-16
    endloop
  endfacet
  facet normal 0 -2.22045e-16 -1
    outer loop
      vertex 11 -23.75 8.32667e-16
      vertex 9 -23 6.66134e-16
      vertex 11 -20 0
    endloop
  endfacet
  facet normal 0 -2.22045e-16 -1
    outer loop
      vertex 0.574533 -22.5179 5.59088e-16
      vertex 0.501848 -22.4426 5.42375e-16
      vertex 9 -23 6.66134e-16
    endloop
  endfacet
  facet normal 0 -2.22045e-16 -1
    outer loop
      vertex 0.419395 -22.3782 5.28071e-16
      vertex 0.328778 -22.3259 5.16454e-16
      vertex 9 -23 6.66134e-16
    endloop
  endfacet
  facet normal 0 -2.22045e-16 -1
    outer loop
      vertex 0.328778 -22.3259 5.16454e-16
      vertex 0.231763 -22.2867 5.07751e-16
      vertex 9 -23 6.66134e-16
    endloop
  endfacet
  facet normal 0 -2.22045e-16 -1
    outer loop
      vertex 19 -20 0
      vertex 29.719 -22.3046 5.11727e-16
      vertex 29.625 -22.3505 5.21912e-16
    endloop
  endfacet
  facet normal 0 -2.22045e-16 -1
    outer loop
      vertex 0.026175 -22.2505 4.99702e-16
      vertex 0 -17 -6.66134e-16
      vertex 11 -20 0
    endloop
  endfacet
  facet normal 0 -2.22045e-16 -1
    outer loop
      vertex 9 -23 6.66134e-16
      vertex 0.130236 -22.2614 5.0213e-16
      vertex 0.026175 -22.2505 4.99702e-16
    endloop
  endfacet
  facet normal 0 -2.22045e-16 -1
    outer loop
      vertex 21 -24.5 9.99201e-16
      vertex 9 -24.5 9.99201e-16
      vertex 11 -23.75 8.32667e-16
    endloop
  endfacet
  facet normal 0 -2.22045e-16 -1
    outer loop
      vertex 0.501848 -22.4426 5.42375e-16
      vertex 0.419395 -22.3782 5.28071e-16
      vertex 9 -23 6.66134e-16
    endloop
  endfacet
  facet normal 0 -2.22045e-16 -1
    outer loop
      vertex 21 -23 6.66134e-16
      vertex 21 -24.5 9.99201e-16
      vertex 19 -23.75 8.32667e-16
    endloop
  endfacet
  facet normal 0 -2.22045e-16 -1
    outer loop
      vertex 19 -20 0
      vertex 29.8186 -22.2723 5.04547e-16
      vertex 29.719 -22.3046 5.11727e-16
    endloop
  endfacet
  facet normal 0 -2.22045e-16 -1
    outer loop
      vertex 9 -23 6.66134e-16
      vertex 0.026175 -22.2505 4.99702e-16
      vertex 11 -20 0
    endloop
  endfacet
  facet normal 0 -2.22045e-16 -1
    outer loop
      vertex 19 -20 0
      vertex 21 -23 6.66134e-16
      vertex 19 -23.75 8.32667e-16
    endloop
  endfacet
  facet normal 0 -2.22045e-16 -1
    outer loop
      vertex 19 -20 0
      vertex 29.2518 -23 6.66134e-16
      vertex 21 -23 6.66134e-16
    endloop
  endfacet
  facet normal 0 -2.22045e-16 -1
    outer loop
      vertex 19 -20 0
      vertex 29.2518 -22.9477 6.54517e-16
      vertex 29.2518 -23 6.66134e-16
    endloop
  endfacet
  facet normal 0 -2.22045e-16 -1
    outer loop
      vertex 19 -20 0
      vertex 29.2664 -22.8441 6.3151e-16
      vertex 29.2518 -22.9477 6.54517e-16
    endloop
  endfacet
  facet normal 0 -2.22045e-16 -1
    outer loop
      vertex 19 -20 0
      vertex 29.2952 -22.7435 6.09176e-16
      vertex 29.2664 -22.8441 6.3151e-16
    endloop
  endfacet
  facet normal 0 -2.22045e-16 -1
    outer loop
      vertex 19 -20 0
      vertex 29.3378 -22.6479 5.87951e-16
      vertex 29.2952 -22.7435 6.09176e-16
    endloop
  endfacet
  facet normal 0 -2.22045e-16 -1
    outer loop
      vertex 19 -20 0
      vertex 29.3932 -22.5592 5.68248e-16
      vertex 29.3378 -22.6479 5.87951e-16
    endloop
  endfacet
  facet normal 0 -2.22045e-16 -1
    outer loop
      vertex 19 -20 0
      vertex 29.4605 -22.479 5.5045e-16
      vertex 29.3932 -22.5592 5.68248e-16
    endloop
  endfacet
  facet normal 0 -2.22045e-16 -1
    outer loop
      vertex 19 -20 0
      vertex 29.5383 -22.409 5.34904e-16
      vertex 29.4605 -22.479 5.5045e-16
    endloop
  endfacet
  facet normal 0 -2.22045e-16 -1
    outer loop
      vertex 19 -20 0
      vertex 29.625 -22.3505 5.21912e-16
      vertex 29.5383 -22.409 5.34904e-16
    endloop
  endfacet
  facet normal 0 -2.22045e-16 -1
    outer loop
      vertex 19 -23.75 8.32667e-16
      vertex 21 -24.5 9.99201e-16
      vertex 11 -23.75 8.32667e-16
    endloop
  endfacet
  facet normal 0 1 -2.22045e-16
    outer loop
      vertex 6.46352 -17 8.92658
      vertex 0 -17 15
      vertex 30 -17 -6.66134e-16
    endloop
  endfacet
  facet normal 0 1 -2.22045e-16
    outer loop
      vertex 22.7865 -17 8.38168
      vertex 0 -17 15
      vertex 30 -17 15
    endloop
  endfacet
  facet normal 0 1 -2.22045e-16
    outer loop
      vertex 0 -17 -6.66134e-16
      vertex 0 -17 15
      vertex 4.78647 -17 8.38168
    endloop
  endfacet
  facet normal 0 1 -2.22045e-16
    outer loop
      vertex 0 -17 -6.66134e-16
      vertex 4.78647 -17 8.38168
      vertex 4.78647 -17 6.61832
    endloop
  endfacet
  facet normal 0 1 -2.22045e-16
    outer loop
      vertex 0 -17 -6.66134e-16
      vertex 4.78647 -17 6.61832
      vertex 6.46352 -17 6.07341
    endloop
  endfacet
  facet normal 0 1 -2.22045e-16
    outer loop
      vertex 0 -17 -6.66134e-16
      vertex 6.46352 -17 6.07341
      vertex 30 -17 -6.66134e-16
    endloop
  endfacet
  facet normal 0 1 -2.22045e-16
    outer loop
      vertex 7.5 -17 7.5
      vertex 30 -17 -6.66134e-16
      vertex 6.46352 -17 6.07341
    endloop
  endfacet
  facet normal 0 1 -2.22045e-16
    outer loop
      vertex 25.5 -17 7.5
      vertex 30 -17 -6.66134e-16
      vertex 24.4635 -17 6.07341
    endloop
  endfacet
  facet normal 0 1 -2.22045e-16
    outer loop
      vertex 7.5 -17 7.5
      vertex 6.46352 -17 8.92658
      vertex 30 -17 -6.66134e-16
    endloop
  endfacet
  facet normal 0 1 -2.22045e-16
    outer loop
      vertex 22.7865 -17 6.61832
      vertex 0 -17 15
      vertex 22.7865 -17 8.38168
    endloop
  endfacet
  facet normal 0 1 -2.22045e-16
    outer loop
      vertex 24.4635 -17 8.92658
      vertex 22.7865 -17 8.38168
      vertex 30 -17 15
    endloop
  endfacet
  facet normal 0 1 -2.22045e-16
    outer loop
      vertex 30 -17 -6.66134e-16
      vertex 0 -17 15
      vertex 22.7865 -17 6.61832
    endloop
  endfacet
  facet normal 0 1 -2.22045e-16
    outer loop
      vertex 30 -17 -6.66134e-16
      vertex 22.7865 -17 6.61832
      vertex 24.4635 -17 6.07341
    endloop
  endfacet
  facet normal 0 1 -2.22045e-16
    outer loop
      vertex 30 -17 -6.66134e-16
      vertex 25.5 -17 7.5
      vertex 30 -17 15
    endloop
  endfacet
  facet normal 0 1 -2.22045e-16
    outer loop
      vertex 25.5 -17 7.5
      vertex 24.4635 -17 8.92658
      vertex 30 -17 15
    endloop
  endfacet
  facet normal 0 1 -2.22045e-16
    outer loop
      vertex 4.78647 -17 8.38168
      vertex 0 -17 15
      vertex 6.46352 -17 8.92658
    endloop
  endfacet
  facet normal 0 2.22045e-16 1
    outer loop
      vertex 0 -17 15
      vertex 0 -22.2518 15
      vertex 11 -22.2518 15
    endloop
  endfacet
  facet normal 0 2.22045e-16 1
    outer loop
      vertex 19 -20 15
      vertex 0 -17 15
      vertex 11 -20 15
    endloop
  endfacet
  facet normal 0 2.22045e-16 1
    outer loop
      vertex 11 -20 15
      vertex 0 -17 15
      vertex 11 -22.2518 15
    endloop
  endfacet
  facet normal 0 2.22045e-16 1
    outer loop
      vertex 30 -17 15
      vertex 0 -17 15
      vertex 19 -20 15
    endloop
  endfacet
  facet normal 0 2.22045e-16 1
    outer loop
      vertex 30 -22.2518 15
      vertex 19 -20 15
      vertex 19 -22.2518 15
    endloop
  endfacet
  facet normal 0 2.22045e-16 1
    outer loop
      vertex 30 -17 15
      vertex 19 -20 15
      vertex 30 -22.2518 15
    endloop
  endfacet
  facet normal 0 2.22045e-16 1
    outer loop
      vertex 30 -17 15
      vertex 30 -22.2518 15
      vertex 30 -23 15
    endloop
  endfacet
  facet normal -0.104526 -0.994522 4.41657e-16
    outer loop
      vertex 0.130236 -22.2614 5.0213e-16
      vertex 0.130236 -22.2614 14.8796
      vertex 0.03921 -22.2518 14.9477
    endloop
  endfacet
  facet normal -0.104526 -0.994522 4.41657e-16
    outer loop
      vertex 0.026175 -22.2505 15
      vertex 0.130236 -22.2614 5.0213e-16
      vertex 0.03921 -22.2518 14.9477
    endloop
  endfacet
  facet normal -0.104526 -0.994522 4.41657e-16
    outer loop
      vertex 0.03921 -22.2518 15
      vertex 0.026175 -22.2505 15
      vertex 0.03921 -22.2518 14.9477
    endloop
  endfacet
  facet normal -0.104526 -0.994522 4.41657e-16
    outer loop
      vertex 0.026175 -22.2505 15
      vertex 0.026175 -22.2505 4.99702e-16
      vertex 0.130236 -22.2614 5.0213e-16
    endloop
  endfacet
  facet normal 1 0 0
    outer loop
      vertex 11 -20 0
      vertex 11 -20 15
      vertex 11 -22.2518 15
    endloop
  endfacet
  facet normal 1 0 0
    outer loop
      vertex 11 -23.75 15
      vertex 11 -20 0
      vertex 11 -22.2518 15
    endloop
  endfacet
  facet normal 1 0 0
    outer loop
      vertex 11 -23.75 8.32667e-16
      vertex 11 -20 0
      vertex 11 -23.75 15
    endloop
  endfacet
  facet normal 0 4.44089e-16 1
    outer loop
      vertex 11 -23.75 15
      vertex 9 -24.5 15
      vertex 21 -24.5 15
    endloop
  endfacet
  facet normal 0 4.44089e-16 1
    outer loop
      vertex 11 -23.75 15
      vertex 11 -22.2518 15
      vertex 9 -22.2518 15
    endloop
  endfacet
  facet normal 0 4.44089e-16 1
    outer loop
      vertex 21 -22.2518 15
      vertex 19 -22.2518 15
      vertex 21 -24.5 15
    endloop
  endfacet
  facet normal 0 4.44089e-16 1
    outer loop
      vertex 19 -22.2518 15
      vertex 19 -23.75 15
      vertex 21 -24.5 15
    endloop
  endfacet
  facet normal 0 4.44089e-16 1
    outer loop
      vertex 9 -22.2518 15
      vertex 9 -24.5 15
      vertex 11 -23.75 15
    endloop
  endfacet
  facet normal 0 4.44089e-16 1
    outer loop
      vertex 19 -23.75 15
      vertex 11 -23.75 15
      vertex 21 -24.5 15
    endloop
  endfacet
  facet normal -1 0 0
    outer loop
      vertex 9 -24.5 9.99201e-16
      vertex 9 -24.5 15
      vertex 9 -23 6.66134e-16
    endloop
  endfacet
  facet normal -1 0 0
    outer loop
      vertex 9 -22.2664 14.8441
      vertex 9 -24.5 15
      vertex 9 -22.2518 15
    endloop
  endfacet
  facet normal -1 0 0
    outer loop
      vertex 9 -22.2952 14.7435
      vertex 9 -24.5 15
      vertex 9 -22.2664 14.8441
    endloop
  endfacet
  facet normal -1 0 0
    outer loop
      vertex 9 -22.3378 14.6479
      vertex 9 -24.5 15
      vertex 9 -22.2952 14.7435
    endloop
  endfacet
  facet normal -1 0 0
    outer loop
      vertex 9 -22.3932 14.5592
      vertex 9 -24.5 15
      vertex 9 -22.3378 14.6479
    endloop
  endfacet
  facet normal -1 0 0
    outer loop
      vertex 9 -22.4605 14.479
      vertex 9 -24.5 15
      vertex 9 -22.3932 14.5592
    endloop
  endfacet
  facet normal -1 0 0
    outer loop
      vertex 9 -22.5383 14.409
      vertex 9 -24.5 15
      vertex 9 -22.4605 14.479
    endloop
  endfacet
  facet normal -1 0 0
    outer loop
      vertex 9 -22.625 14.3505
      vertex 9 -24.5 15
      vertex 9 -22.5383 14.409
    endloop
  endfacet
  facet normal -1 0 0
    outer loop
      vertex 9 -22.719 14.3046
      vertex 9 -24.5 15
      vertex 9 -22.625 14.3505
    endloop
  endfacet
  facet normal -1 0 0
    outer loop
      vertex 9 -22.8186 14.2723
      vertex 9 -24.5 15
      vertex 9 -22.719 14.3046
    endloop
  endfacet
  facet normal -1 0 0
    outer loop
      vertex 9 -22.9216 14.2541
      vertex 9 -24.5 15
      vertex 9 -22.8186 14.2723
    endloop
  endfacet
  facet normal -1 0 0
    outer loop
      vertex 9 -23 14.2514
      vertex 9 -24.5 15
      vertex 9 -22.9216 14.2541
    endloop
  endfacet
  facet normal -1 0 0
    outer loop
      vertex 9 -23 6.66134e-16
      vertex 9 -24.5 15
      vertex 9 -23 14.2514
    endloop
  endfacet
  facet normal -1 0 0
    outer loop
      vertex 9 -22.2664 14.8441
      vertex 9 -22.2518 15
      vertex 9 -22.2518 14.9477
    endloop
  endfacet
  facet normal 2.19884e-16 -0.990269 0.139169
    outer loop
      vertex 0.130236 -22.2614 14.8796
      vertex 0.150269 -22.2664 14.8441
      vertex 9 -22.2664 14.8441
    endloop
  endfacet
  facet normal 2.19884e-16 -0.990269 0.139169
    outer loop
      vertex 0.03921 -22.2518 14.9477
      vertex 0.130236 -22.2614 14.8796
      vertex 9 -22.2518 14.9477
    endloop
  endfacet
  facet normal 2.19884e-16 -0.990269 0.139169
    outer loop
      vertex 9 -22.2518 14.9477
      vertex 0.130236 -22.2614 14.8796
      vertex 9 -22.2664 14.8441
    endloop
  endfacet
  facet normal -0.241926 -0.970295 4.30897e-16
    outer loop
      vertex 0.231763 -22.2867 5.07751e-16
      vertex 0.231763 -22.2867 14.7732
      vertex 0.150269 -22.2664 14.8441
    endloop
  endfacet
  facet normal -0.241926 -0.970295 4.30897e-16
    outer loop
      vertex 0.130236 -22.2614 14.8796
      vertex 0.231763 -22.2867 5.07751e-16
      vertex 0.150269 -22.2664 14.8441
    endloop
  endfacet
  facet normal -0.241926 -0.970295 4.30897e-16
    outer loop
      vertex 0.130236 -22.2614 14.8796
      vertex 0.130236 -22.2614 5.0213e-16
      vertex 0.231763 -22.2867 5.07751e-16
    endloop
  endfacet
  facet normal -0.374602 -0.927186 4.11753e-16
    outer loop
      vertex 0.328778 -22.3259 5.16454e-16
      vertex 0.328778 -22.3259 14.6746
      vertex 0.252858 -22.2952 14.7435
    endloop
  endfacet
  facet normal -0.374602 -0.927186 4.11753e-16
    outer loop
      vertex 0.231763 -22.2867 14.7732
      vertex 0.328778 -22.3259 5.16454e-16
      vertex 0.252858 -22.2952 14.7435
    endloop
  endfacet
  facet normal -0.374602 -0.927186 4.11753e-16
    outer loop
      vertex 0.231763 -22.2867 14.7732
      vertex 0.231763 -22.2867 5.07751e-16
      vertex 0.328778 -22.3259 5.16454e-16
    endloop
  endfacet
  facet normal -0.500002 -0.866024 3.84592e-16
    outer loop
      vertex 0.419395 -22.3782 5.28071e-16
      vertex 0.419395 -22.3782 14.5832
      vertex 0.349363 -22.3378 14.6479
    endloop
  endfacet
  facet normal -0.500002 -0.866024 3.84592e-16
    outer loop
      vertex 0.328778 -22.3259 14.6746
      vertex 0.419395 -22.3782 5.28071e-16
      vertex 0.349363 -22.3378 14.6479
    endloop
  endfacet
  facet normal -0.500002 -0.866024 3.84592e-16
    outer loop
      vertex 0.328778 -22.3259 14.6746
      vertex 0.328778 -22.3259 5.16454e-16
      vertex 0.419395 -22.3782 5.28071e-16
    endloop
  endfacet
  facet normal -0.615659 -0.788012 3.49948e-16
    outer loop
      vertex 0.501848 -22.4426 5.42375e-16
      vertex 0.501848 -22.4426 14.5003
      vertex 0.438613 -22.3932 14.5592
    endloop
  endfacet
  facet normal -0.615659 -0.788012 3.49948e-16
    outer loop
      vertex 0.419395 -22.3782 14.5832
      vertex 0.501848 -22.4426 5.42375e-16
      vertex 0.438613 -22.3932 14.5592
    endloop
  endfacet
  facet normal -0.615659 -0.788012 3.49948e-16
    outer loop
      vertex 0.419395 -22.3782 14.5832
      vertex 0.419395 -22.3782 5.28071e-16
      vertex 0.501848 -22.4426 5.42375e-16
    endloop
  endfacet
  facet normal -0.719342 -0.694656 3.08489e-16
    outer loop
      vertex 0.574533 -22.5179 14.4273
      vertex 0.519089 -22.4605 14.479
      vertex 0.574533 -22.5179 5.59088e-16
    endloop
  endfacet
  facet normal -0.719342 -0.694656 3.08489e-16
    outer loop
      vertex 0.574533 -22.5179 5.59088e-16
      vertex 0.519089 -22.4605 14.479
      vertex 0.501848 -22.4426 14.5003
    endloop
  endfacet
  facet normal -0.719342 -0.694656 3.08489e-16
    outer loop
      vertex 0.574533 -22.5179 5.59088e-16
      vertex 0.501848 -22.4426 14.5003
      vertex 0.501848 -22.4426 5.42375e-16
    endloop
  endfacet
  facet normal -0.809018 -0.587784 2.61028e-16
    outer loop
      vertex 0.636036 -22.6026 14.3656
      vertex 0.589314 -22.5383 14.409
      vertex 0.636036 -22.6026 5.77885e-16
    endloop
  endfacet
  facet normal -0.809018 -0.587784 2.61028e-16
    outer loop
      vertex 0.636036 -22.6026 5.77885e-16
      vertex 0.589314 -22.5383 14.409
      vertex 0.574533 -22.5179 14.4273
    endloop
  endfacet
  facet normal -0.809018 -0.587784 2.61028e-16
    outer loop
      vertex 0.636036 -22.6026 5.77885e-16
      vertex 0.574533 -22.5179 14.4273
      vertex 0.574533 -22.5179 5.59088e-16
    endloop
  endfacet
  facet normal -0.882948 -0.469471 2.08487e-16
    outer loop
      vertex 0.685159 -22.6949 14.3164
      vertex 0.647967 -22.625 14.3505
      vertex 0.685159 -22.6949 5.98399e-16
    endloop
  endfacet
  facet normal -0.882948 -0.469471 2.08487e-16
    outer loop
      vertex 0.685159 -22.6949 5.98399e-16
      vertex 0.647967 -22.625 14.3505
      vertex 0.636036 -22.6026 14.3656
    endloop
  endfacet
  facet normal -0.882948 -0.469471 2.08487e-16
    outer loop
      vertex 0.685159 -22.6949 5.98399e-16
      vertex 0.636036 -22.6026 14.3656
      vertex 0.636036 -22.6026 5.77885e-16
    endloop
  endfacet
  facet normal -0.939693 -0.34202 1.51887e-16
    outer loop
      vertex 0.720946 -22.7933 14.2805
      vertex 0.69393 -22.719 14.3046
      vertex 0.720946 -22.7933 6.20231e-16
    endloop
  endfacet
  facet normal -0.939693 -0.34202 1.51887e-16
    outer loop
      vertex 0.720946 -22.7933 6.20231e-16
      vertex 0.69393 -22.719 14.3046
      vertex 0.685159 -22.6949 14.3164
    endloop
  endfacet
  facet normal -0.939693 -0.34202 1.51887e-16
    outer loop
      vertex 0.720946 -22.7933 6.20231e-16
      vertex 0.685159 -22.6949 14.3164
      vertex 0.685159 -22.6949 5.98399e-16
    endloop
  endfacet
  facet normal -0.978147 -0.207914 9.23324e-17
    outer loop
      vertex 0.742701 -22.8956 14.2587
      vertex 0.726321 -22.8186 14.2723
      vertex 0.742701 -22.8956 6.42957e-16
    endloop
  endfacet
  facet normal -0.978147 -0.207914 9.23324e-17
    outer loop
      vertex 0.742701 -22.8956 6.42957e-16
      vertex 0.726321 -22.8186 14.2723
      vertex 0.720946 -22.7933 14.2805
    endloop
  endfacet
  facet normal -0.978147 -0.207914 9.23324e-17
    outer loop
      vertex 0.742701 -22.8956 6.42957e-16
      vertex 0.720946 -22.7933 14.2805
      vertex 0.720946 -22.7933 6.20231e-16
    endloop
  endfacet
  facet normal -0.997564 -0.0697568 3.09783e-17
    outer loop
      vertex 0.75 -23 14.2514
      vertex 0.744518 -22.9216 14.2541
      vertex 0.75 -23 6.66134e-16
    endloop
  endfacet
  facet normal -0.997564 -0.0697568 3.09783e-17
    outer loop
      vertex 0.75 -23 6.66134e-16
      vertex 0.744518 -22.9216 14.2541
      vertex 0.742701 -22.8956 14.2587
    endloop
  endfacet
  facet normal -0.997564 -0.0697568 3.09783e-17
    outer loop
      vertex 0.75 -23 6.66134e-16
      vertex 0.742701 -22.8956 14.2587
      vertex 0.742701 -22.8956 6.42957e-16
    endloop
  endfacet
  facet normal 0 -1 2.22045e-16
    outer loop
      vertex 3 -23 7.5
      vertex 0.75 -23 14.2514
      vertex 0.75 -23 6.66134e-16
    endloop
  endfacet
  facet normal 0 -1 2.22045e-16
    outer loop
      vertex 3.57295 -23 5.73664
      vertex 3 -23 7.5
      vertex 0.75 -23 6.66134e-16
    endloop
  endfacet
  facet normal 0 -1 2.22045e-16
    outer loop
      vertex 9 -23 7.5
      vertex 8.42705 -23 5.73664
      vertex 9 -23 6.66134e-16
    endloop
  endfacet
  facet normal 0 -1 2.22045e-16
    outer loop
      vertex 3.57295 -23 9.26336
      vertex 0.75 -23 14.2514
      vertex 3 -23 7.5
    endloop
  endfacet
  facet normal 0 -1 2.22045e-16
    outer loop
      vertex 9 -23 14.2514
      vertex 0.75 -23 14.2514
      vertex 3.57295 -23 9.26336
    endloop
  endfacet
  facet normal 0 -1 2.22045e-16
    outer loop
      vertex 8.42705 -23 9.26336
      vertex 9 -23 14.2514
      vertex 6.92705 -23 10.3532
    endloop
  endfacet
  facet normal 0 -1 2.22045e-16
    outer loop
      vertex 8.42705 -23 5.73664
      vertex 6.92705 -23 4.64683
      vertex 9 -23 6.66134e-16
    endloop
  endfacet
  facet normal 0 -1 2.22045e-16
    outer loop
      vertex 9 -23 7.5
      vertex 9 -23 14.2514
      vertex 8.42705 -23 9.26336
    endloop
  endfacet
  facet normal 0 -1 2.22045e-16
    outer loop
      vertex 9 -23 6.66134e-16
      vertex 9 -23 14.2514
      vertex 9 -23 7.5
    endloop
  endfacet
  facet normal 0 -1 2.22045e-16
    outer loop
      vertex 5.07295 -23 4.64683
      vertex 3.57295 -23 5.73664
      vertex 0.75 -23 6.66134e-16
    endloop
  endfacet
  facet normal 0 -1 2.22045e-16
    outer loop
      vertex 9 -23 6.66134e-16
      vertex 6.92705 -23 4.64683
      vertex 0.75 -23 6.66134e-16
    endloop
  endfacet
  facet normal 0 -1 2.22045e-16
    outer loop
      vertex 6.92705 -23 4.64683
      vertex 5.07295 -23 4.64683
      vertex 0.75 -23 6.66134e-16
    endloop
  endfacet
  facet normal 0 -1 2.22045e-16
    outer loop
      vertex 3.57295 -23 9.26336
      vertex 5.07295 -23 10.3532
      vertex 9 -23 14.2514
    endloop
  endfacet
  facet normal 0 -1 2.22045e-16
    outer loop
      vertex 5.07295 -23 10.3532
      vertex 6.92705 -23 10.3532
      vertex 9 -23 14.2514
    endloop
  endfacet
  facet normal 0 -1 4.44089e-16
    outer loop
      vertex 9 -24.5 15
      vertex 9 -24.5 9.99201e-16
      vertex 21 -24.5 9.99201e-16
    endloop
  endfacet
  facet normal 0 -1 4.44089e-16
    outer loop
      vertex 21 -24.5 15
      vertex 9 -24.5 15
      vertex 21 -24.5 9.99201e-16
    endloop
  endfacet
  facet normal 1 0 0
    outer loop
      vertex 21 -24.5 15
      vertex 21 -24.5 9.99201e-16
      vertex 21 -23 6.66134e-16
    endloop
  endfacet
  facet normal 1 0 0
    outer loop
      vertex 21 -22.9216 14.2541
      vertex 21 -24.5 15
      vertex 21 -23 14.2514
    endloop
  endfacet
  facet normal 1 0 0
    outer loop
      vertex 21 -23 14.2514
      vertex 21 -24.5 15
      vertex 21 -23 6.66134e-16
    endloop
  endfacet
  facet normal 1 0 0
    outer loop
      vertex 21 -22.8186 14.2723
      vertex 21 -24.5 15
      vertex 21 -22.9216 14.2541
    endloop
  endfacet
  facet normal 1 0 0
    outer loop
      vertex 21 -22.719 14.3046
      vertex 21 -24.5 15
      vertex 21 -22.8186 14.2723
    endloop
  endfacet
  facet normal 1 0 0
    outer loop
      vertex 21 -22.625 14.3505
      vertex 21 -24.5 15
      vertex 21 -22.719 14.3046
    endloop
  endfacet
  facet normal 1 0 0
    outer loop
      vertex 21 -22.5383 14.409
      vertex 21 -24.5 15
      vertex 21 -22.625 14.3505
    endloop
  endfacet
  facet normal 1 0 0
    outer loop
      vertex 21 -22.4605 14.479
      vertex 21 -24.5 15
      vertex 21 -22.5383 14.409
    endloop
  endfacet
  facet normal 1 0 0
    outer loop
      vertex 21 -22.3932 14.5592
      vertex 21 -24.5 15
      vertex 21 -22.4605 14.479
    endloop
  endfacet
  facet normal 1 0 0
    outer loop
      vertex 21 -22.3378 14.6479
      vertex 21 -24.5 15
      vertex 21 -22.3932 14.5592
    endloop
  endfacet
  facet normal 1 0 0
    outer loop
      vertex 21 -22.2952 14.7435
      vertex 21 -24.5 15
      vertex 21 -22.3378 14.6479
    endloop
  endfacet
  facet normal 1 0 0
    outer loop
      vertex 21 -22.2664 14.8441
      vertex 21 -24.5 15
      vertex 21 -22.2952 14.7435
    endloop
  endfacet
  facet normal 1 0 0
    outer loop
      vertex 21 -22.2518 14.9477
      vertex 21 -24.5 15
      vertex 21 -22.2664 14.8441
    endloop
  endfacet
  facet normal 1 0 0
    outer loop
      vertex 21 -22.2518 15
      vertex 21 -24.5 15
      vertex 21 -22.2518 14.9477
    endloop
  endfacet
  facet normal 0 -1 2.22045e-16
    outer loop
      vertex 23.0729 -23 4.64683
      vertex 21 -23 6.66134e-16
      vertex 29.2518 -23 6.66134e-16
    endloop
  endfacet
  facet normal 0 -1 2.22045e-16
    outer loop
      vertex 21 -23 14.2514
      vertex 21 -23 6.66134e-16
      vertex 21 -23 7.5
    endloop
  endfacet
  facet normal 0 -1 2.22045e-16
    outer loop
      vertex 24.9271 -23 4.64683
      vertex 23.0729 -23 4.64683
      vertex 29.2518 -23 6.66134e-16
    endloop
  endfacet
  facet normal 0 -1 2.22045e-16
    outer loop
      vertex 21 -23 14.2514
      vertex 21.5729 -23 9.26336
      vertex 23.0729 -23 10.3532
    endloop
  endfacet
  facet normal 0 -1 2.22045e-16
    outer loop
      vertex 29.2518 -23 14.2514
      vertex 21 -23 14.2514
      vertex 24.9271 -23 10.3532
    endloop
  endfacet
  facet normal 0 -1 2.22045e-16
    outer loop
      vertex 29.2518 -23 14.2514
      vertex 24.9271 -23 10.3532
      vertex 26.4271 -23 9.26336
    endloop
  endfacet
  facet normal 0 -1 2.22045e-16
    outer loop
      vertex 26.4271 -23 5.73664
      vertex 24.9271 -23 4.64683
      vertex 29.2518 -23 6.66134e-16
    endloop
  endfacet
  facet normal 0 -1 2.22045e-16
    outer loop
      vertex 29.2518 -23 14.2514
      vertex 26.4271 -23 9.26336
      vertex 27 -23 7.5
    endloop
  endfacet
  facet normal 0 -1 2.22045e-16
    outer loop
      vertex 29.2518 -23 14.2514
      vertex 27 -23 7.5
      vertex 29.2518 -23 6.66134e-16
    endloop
  endfacet
  facet normal 0 -1 2.22045e-16
    outer loop
      vertex 21.5729 -23 5.73664
      vertex 21 -23 6.66134e-16
      vertex 23.0729 -23 4.64683
    endloop
  endfacet
  facet normal 0 -1 2.22045e-16
    outer loop
      vertex 21 -23 7.5
      vertex 21 -23 6.66134e-16
      vertex 21.5729 -23 5.73664
    endloop
  endfacet
  facet normal 0 -1 2.22045e-16
    outer loop
      vertex 21 -23 7.5
      vertex 21.5729 -23 9.26336
      vertex 21 -23 14.2514
    endloop
  endfacet
  facet normal 0 -1 2.22045e-16
    outer loop
      vertex 23.0729 -23 10.3532
      vertex 24.9271 -23 10.3532
      vertex 21 -23 14.2514
    endloop
  endfacet
  facet normal 0 -1 2.22045e-16
    outer loop
      vertex 27 -23 7.5
      vertex 26.4271 -23 5.73664
      vertex 29.2518 -23 6.66134e-16
    endloop
  endfacet
  facet normal 1 0 0
    outer loop
      vertex 29.2518 -22.9477 6.54517e-16
      vertex 29.2518 -22.9477 14.2532
      vertex 29.2518 -23 14.2514
    endloop
  endfacet
  facet normal 1 0 0
    outer loop
      vertex 29.2518 -23 6.66134e-16
      vertex 29.2518 -22.9477 6.54517e-16
      vertex 29.2518 -23 14.2514
    endloop
  endfacet
  facet normal 0.990269 -0.139169 6.18035e-17
    outer loop
      vertex 29.2664 -22.8441 6.3151e-16
      vertex 29.2664 -22.8441 14.2678
      vertex 29.2555 -22.9216 14.2541
    endloop
  endfacet
  facet normal 0.990269 -0.139169 6.18035e-17
    outer loop
      vertex 29.2518 -22.9477 14.2532
      vertex 29.2664 -22.8441 6.3151e-16
      vertex 29.2555 -22.9216 14.2541
    endloop
  endfacet
  facet normal 0.990269 -0.139169 6.18035e-17
    outer loop
      vertex 29.2518 -22.9477 14.2532
      vertex 29.2518 -22.9477 6.54517e-16
      vertex 29.2664 -22.8441 6.3151e-16
    endloop
  endfacet
  facet normal 0.96126 -0.275645 1.22411e-16
    outer loop
      vertex 29.2952 -22.7435 6.09176e-16
      vertex 29.2952 -22.7435 14.2967
      vertex 29.2737 -22.8186 14.2723
    endloop
  endfacet
  facet normal 0.96126 -0.275645 1.22411e-16
    outer loop
      vertex 29.2664 -22.8441 14.2678
      vertex 29.2952 -22.7435 6.09176e-16
      vertex 29.2737 -22.8186 14.2723
    endloop
  endfacet
  facet normal 0.96126 -0.275645 1.22411e-16
    outer loop
      vertex 29.2664 -22.8441 14.2678
      vertex 29.2664 -22.8441 6.3151e-16
      vertex 29.2952 -22.7435 6.09176e-16
    endloop
  endfacet
  facet normal 0.913549 -0.406729 1.80624e-16
    outer loop
      vertex 29.3378 -22.6479 5.87951e-16
      vertex 29.3378 -22.6479 14.3393
      vertex 29.3061 -22.719 14.3046
    endloop
  endfacet
  facet normal 0.913549 -0.406729 1.80624e-16
    outer loop
      vertex 29.2952 -22.7435 14.2967
      vertex 29.3378 -22.6479 5.87951e-16
      vertex 29.3061 -22.719 14.3046
    endloop
  endfacet
  facet normal 0.913549 -0.406729 1.80624e-16
    outer loop
      vertex 29.2952 -22.7435 14.2967
      vertex 29.2952 -22.7435 6.09176e-16
      vertex 29.3378 -22.6479 5.87951e-16
    endloop
  endfacet
  facet normal 0.848047 -0.529921 2.35332e-16
    outer loop
      vertex 29.3932 -22.5592 5.68248e-16
      vertex 29.3932 -22.5592 14.3949
      vertex 29.3521 -22.625 14.3505
    endloop
  endfacet
  facet normal 0.848047 -0.529921 2.35332e-16
    outer loop
      vertex 29.3378 -22.6479 14.3393
      vertex 29.3932 -22.5592 5.68248e-16
      vertex 29.3521 -22.625 14.3505
    endloop
  endfacet
  facet normal 0.848047 -0.529921 2.35332e-16
    outer loop
      vertex 29.3378 -22.6479 14.3393
      vertex 29.3378 -22.6479 5.87951e-16
      vertex 29.3932 -22.5592 5.68248e-16
    endloop
  endfacet
  facet normal 0.766045 -0.642787 2.85455e-16
    outer loop
      vertex 29.4605 -22.479 5.5045e-16
      vertex 29.4605 -22.479 14.4623
      vertex 29.4108 -22.5383 14.409
    endloop
  endfacet
  facet normal 0.766045 -0.642787 2.85455e-16
    outer loop
      vertex 29.3932 -22.5592 14.3949
      vertex 29.4605 -22.479 5.5045e-16
      vertex 29.4108 -22.5383 14.409
    endloop
  endfacet
  facet normal 0.766045 -0.642787 2.85455e-16
    outer loop
      vertex 29.3932 -22.5592 14.3949
      vertex 29.3932 -22.5592 5.68248e-16
      vertex 29.4605 -22.479 5.5045e-16
    endloop
  endfacet
  facet normal 0.669128 -0.743147 3.30024e-16
    outer loop
      vertex 29.5383 -22.409 5.34904e-16
      vertex 29.5383 -22.409 14.5404
      vertex 29.4811 -22.4605 14.479
    endloop
  endfacet
  facet normal 0.669128 -0.743147 3.30024e-16
    outer loop
      vertex 29.4605 -22.479 14.4623
      vertex 29.5383 -22.409 5.34904e-16
      vertex 29.4811 -22.4605 14.479
    endloop
  endfacet
  facet normal 0.669128 -0.743147 3.30024e-16
    outer loop
      vertex 29.4605 -22.479 14.4623
      vertex 29.4605 -22.479 5.5045e-16
      vertex 29.5383 -22.409 5.34904e-16
    endloop
  endfacet
  facet normal 0.559193 -0.829037 3.68166e-16
    outer loop
      vertex 29.625 -22.3505 5.21912e-16
      vertex 29.625 -22.3505 14.6276
      vertex 29.5616 -22.3932 14.5592
    endloop
  endfacet
  facet normal 0.559193 -0.829037 3.68166e-16
    outer loop
      vertex 29.5383 -22.409 14.5404
      vertex 29.625 -22.3505 5.21912e-16
      vertex 29.5616 -22.3932 14.5592
    endloop
  endfacet
  facet normal 0.559193 -0.829037 3.68166e-16
    outer loop
      vertex 29.5383 -22.409 14.5404
      vertex 29.5383 -22.409 5.34904e-16
      vertex 29.625 -22.3505 5.21912e-16
    endloop
  endfacet
  facet normal 0.438373 -0.898793 3.99144e-16
    outer loop
      vertex 29.719 -22.3046 5.11727e-16
      vertex 29.719 -22.3046 14.7224
      vertex 29.651 -22.3378 14.6479
    endloop
  endfacet
  facet normal 0.438373 -0.898793 3.99144e-16
    outer loop
      vertex 29.625 -22.3505 14.6276
      vertex 29.719 -22.3046 5.11727e-16
      vertex 29.651 -22.3378 14.6479
    endloop
  endfacet
  facet normal 0.438373 -0.898793 3.99144e-16
    outer loop
      vertex 29.625 -22.3505 14.6276
      vertex 29.625 -22.3505 5.21912e-16
      vertex 29.719 -22.3046 5.11727e-16
    endloop
  endfacet
  facet normal 0.309016 -0.951057 4.22354e-16
    outer loop
      vertex 29.8186 -22.2723 5.04547e-16
      vertex 29.8186 -22.2723 14.8235
      vertex 29.7479 -22.2952 14.7435
    endloop
  endfacet
  facet normal 0.309016 -0.951057 4.22354e-16
    outer loop
      vertex 29.719 -22.3046 14.7224
      vertex 29.8186 -22.2723 5.04547e-16
      vertex 29.7479 -22.2952 14.7435
    endloop
  endfacet
  facet normal 0.309016 -0.951057 4.22354e-16
    outer loop
      vertex 29.719 -22.3046 14.7224
      vertex 29.719 -22.3046 5.11727e-16
      vertex 29.8186 -22.2723 5.04547e-16
    endloop
  endfacet
  facet normal 0.173642 -0.984809 4.37343e-16
    outer loop
      vertex 29.9216 -22.2541 5.00513e-16
      vertex 29.9216 -22.2541 14.9314
      vertex 29.852 -22.2664 14.8441
    endloop
  endfacet
  facet normal 0.173642 -0.984809 4.37343e-16
    outer loop
      vertex 29.8186 -22.2723 14.8235
      vertex 29.9216 -22.2541 5.00513e-16
      vertex 29.852 -22.2664 14.8441
    endloop
  endfacet
  facet normal 0.173642 -0.984809 4.37343e-16
    outer loop
      vertex 29.8186 -22.2723 14.8235
      vertex 29.8186 -22.2723 5.04547e-16
      vertex 29.9216 -22.2541 5.00513e-16
    endloop
  endfacet
  facet normal 0.0349024 -0.999391 4.43819e-16
    outer loop
      vertex 30 -22.2514 4.99905e-16
      vertex 30 -22.2514 15
      vertex 29.9869 -22.2518 15
    endloop
  endfacet
  facet normal 0.0349024 -0.999391 4.43819e-16
    outer loop
      vertex 29.9216 -22.2541 14.9314
      vertex 30 -22.2514 4.99905e-16
      vertex 29.9869 -22.2518 14.9477
    endloop
  endfacet
  facet normal 0.0349024 -0.999391 4.43819e-16
    outer loop
      vertex 29.9869 -22.2518 14.9477
      vertex 30 -22.2514 4.99905e-16
      vertex 29.9869 -22.2518 15
    endloop
  endfacet
  facet normal 0.0349024 -0.999391 4.43819e-16
    outer loop
      vertex 29.9216 -22.2541 5.00513e-16
      vertex 30 -22.2514 4.99905e-16
      vertex 29.9216 -22.2541 14.9314
    endloop
  endfacet
  facet normal 1 0 0
    outer loop
      vertex 30 -17 15
      vertex 30 -23 15
      vertex 30 -22.2514 15
    endloop
  endfacet
  facet normal 1 0 0
    outer loop
      vertex 30 -22.2514 4.99905e-16
      vertex 30 -17 15
      vertex 30 -22.2514 15
    endloop
  endfacet
  facet normal 1 0 0
    outer loop
      vertex 30 -22.2514 4.99905e-16
      vertex 30 -17 -6.66134e-16
      vertex 30 -17 15
    endloop
  endfacet
  facet normal 0 -1 2.22045e-16
    outer loop
      vertex 11 -20 15
      vertex 11 -20 0
      vertex 19 -20 0
    endloop
  endfacet
  facet normal 0 -1 2.22045e-16
    outer loop
      vertex 19 -20 15
      vertex 11 -20 15
      vertex 19 -20 0
    endloop
  endfacet
  facet normal -1 0 0
    outer loop
      vertex 19 -22.2518 15
      vertex 19 -20 15
      vertex 19 -20 0
    endloop
  endfacet
  facet normal -1 0 0
    outer loop
      vertex 19 -22.2518 15
      vertex 19 -20 0
      vertex 19 -23.75 15
    endloop
  endfacet
  facet normal -1 0 0
    outer loop
      vertex 19 -20 0
      vertex 19 -23.75 8.32667e-16
      vertex 19 -23.75 15
    endloop
  endfacet
  facet normal 0 1 -4.44089e-16
    outer loop
      vertex 19 -23.75 15
      vertex 19 -23.75 8.32667e-16
      vertex 11 -23.75 15
    endloop
  endfacet
  facet normal 0 1 -4.44089e-16
    outer loop
      vertex 11 -23.75 15
      vertex 19 -23.75 8.32667e-16
      vertex 11 -23.75 8.32667e-16
    endloop
  endfacet
  facet normal 0.309017 -3.27644e-16 -0.951056
    outer loop
      vertex 6.46352 -17 8.92658
      vertex 6.46352 -21 8.92658
      vertex 4.78647 -17 8.38168
    endloop
  endfacet
  facet normal 0.309017 -3.27644e-16 -0.951056
    outer loop
      vertex 4.78647 -17 8.38168
      vertex 6.46352 -21 8.92658
      vertex 4.78647 -21 8.38168
    endloop
  endfacet
  facet normal 1 0 0
    outer loop
      vertex 4.78647 -17 6.61832
      vertex 4.78647 -17 8.38168
      vertex 4.78647 -21 8.38168
    endloop
  endfacet
  facet normal 1 0 0
    outer loop
      vertex 4.78647 -21 6.61832
      vertex 4.78647 -17 6.61832
      vertex 4.78647 -21 8.38168
    endloop
  endfacet
  facet normal -0.809017 -2.02495e-16 -0.587785
    outer loop
      vertex 7.5 -17 7.5
      vertex 7.5 -21 7.5
      vertex 6.46352 -17 8.92658
    endloop
  endfacet
  facet normal -0.809017 -2.02495e-16 -0.587785
    outer loop
      vertex 6.46352 -17 8.92658
      vertex 7.5 -21 7.5
      vertex 6.46352 -21 8.92658
    endloop
  endfacet
  facet normal -0.809017 2.02495e-16 0.587785
    outer loop
      vertex 7.5 -17 7.5
      vertex 6.46352 -17 6.07341
      vertex 7.5 -21 7.5
    endloop
  endfacet
  facet normal -0.809017 2.02495e-16 0.587785
    outer loop
      vertex 7.5 -21 7.5
      vertex 6.46352 -17 6.07341
      vertex 6.46352 -21 6.07341
    endloop
  endfacet
  facet normal 0.309017 3.27644e-16 0.951056
    outer loop
      vertex 6.46352 -21 6.07341
      vertex 6.46352 -17 6.07341
      vertex 4.78647 -17 6.61832
    endloop
  endfacet
  facet normal 0.309017 3.27644e-16 0.951056
    outer loop
      vertex 4.78647 -21 6.61832
      vertex 6.46352 -21 6.07341
      vertex 4.78647 -17 6.61832
    endloop
  endfacet
  facet normal 0.309017 -3.27644e-16 -0.951056
    outer loop
      vertex 24.4635 -17 8.92658
      vertex 24.4635 -21 8.92658
      vertex 22.7865 -17 8.38168
    endloop
  endfacet
  facet normal 0.309017 -3.27644e-16 -0.951056
    outer loop
      vertex 22.7865 -17 8.38168
      vertex 24.4635 -21 8.92658
      vertex 22.7865 -21 8.38168
    endloop
  endfacet
  facet normal 1 0 0
    outer loop
      vertex 22.7865 -17 6.61832
      vertex 22.7865 -17 8.38168
      vertex 22.7865 -21 8.38168
    endloop
  endfacet
  facet normal 1 0 0
    outer loop
      vertex 22.7865 -21 6.61832
      vertex 22.7865 -17 6.61832
      vertex 22.7865 -21 8.38168
    endloop
  endfacet
  facet normal -0.809017 -2.02495e-16 -0.587785
    outer loop
      vertex 25.5 -17 7.5
      vertex 25.5 -21 7.5
      vertex 24.4635 -17 8.92658
    endloop
  endfacet
  facet normal -0.809017 -2.02495e-16 -0.587785
    outer loop
      vertex 24.4635 -17 8.92658
      vertex 25.5 -21 7.5
      vertex 24.4635 -21 8.92658
    endloop
  endfacet
  facet normal -0.809017 2.02495e-16 0.587785
    outer loop
      vertex 25.5 -17 7.5
      vertex 24.4635 -17 6.07341
      vertex 25.5 -21 7.5
    endloop
  endfacet
  facet normal -0.809017 2.02495e-16 0.587785
    outer loop
      vertex 25.5 -21 7.5
      vertex 24.4635 -17 6.07341
      vertex 24.4635 -21 6.07341
    endloop
  endfacet
  facet normal 0.309017 3.27644e-16 0.951056
    outer loop
      vertex 24.4635 -21 6.07341
      vertex 24.4635 -17 6.07341
      vertex 22.7865 -17 6.61832
    endloop
  endfacet
  facet normal 0.309017 3.27644e-16 0.951056
    outer loop
      vertex 22.7865 -21 6.61832
      vertex 24.4635 -21 6.07341
      vertex 22.7865 -17 6.61832
    endloop
  endfacet
  facet normal 0 -4.44089e-16 -1
    outer loop
      vertex 30 -22.2514 15
      vertex 30 -23 15
      vertex 30 -22.2518 15
    endloop
  endfacet
  facet normal 0 -4.44089e-16 -1
    outer loop
      vertex 30 -22.2514 15
      vertex 30 -22.2518 15
      vertex 29.9869 -22.2518 15
    endloop
  endfacet
  facet normal 2.22045e-16 -1 2.22045e-16
    outer loop
      vertex 21 -22.2518 15
      vertex 21 -22.2518 14.9477
      vertex 29.9869 -22.2518 14.9477
    endloop
  endfacet
  facet normal 2.22045e-16 -1 2.22045e-16
    outer loop
      vertex 30 -22.2518 15
      vertex 21 -22.2518 15
      vertex 29.9869 -22.2518 15
    endloop
  endfacet
  facet normal 2.22045e-16 -1 2.22045e-16
    outer loop
      vertex 29.9869 -22.2518 15
      vertex 21 -22.2518 15
      vertex 29.9869 -22.2518 14.9477
    endloop
  endfacet
  facet normal 2.22045e-16 -1 2.22045e-16
    outer loop
      vertex 19 -22.2518 15
      vertex 21 -22.2518 15
      vertex 30 -22.2518 15
    endloop
  endfacet
  facet normal 7.74988e-18 -0.0349024 0.999391
    outer loop
      vertex 0.744518 -22.9216 14.2541
      vertex 0.75 -23 14.2514
      vertex 9 -22.9216 14.2541
    endloop
  endfacet
  facet normal 7.74988e-18 -0.0349024 0.999391
    outer loop
      vertex 9 -22.9216 14.2541
      vertex 0.75 -23 14.2514
      vertex 9 -23 14.2514
    endloop
  endfacet
  facet normal 3.85564e-17 -0.173642 0.984809
    outer loop
      vertex 0.742701 -22.8956 14.2587
      vertex 0.744518 -22.9216 14.2541
      vertex 9 -22.9216 14.2541
    endloop
  endfacet
  facet normal 3.85564e-17 -0.173642 0.984809
    outer loop
      vertex 0.726321 -22.8186 14.2723
      vertex 0.742701 -22.8956 14.2587
      vertex 9 -22.8186 14.2723
    endloop
  endfacet
  facet normal 3.85564e-17 -0.173642 0.984809
    outer loop
      vertex 9 -22.8186 14.2723
      vertex 0.742701 -22.8956 14.2587
      vertex 9 -22.9216 14.2541
    endloop
  endfacet
  facet normal 6.86154e-17 -0.309016 0.951057
    outer loop
      vertex 0.720946 -22.7933 14.2805
      vertex 0.726321 -22.8186 14.2723
      vertex 9 -22.8186 14.2723
    endloop
  endfacet
  facet normal 6.86154e-17 -0.309016 0.951057
    outer loop
      vertex 0.69393 -22.719 14.3046
      vertex 0.720946 -22.7933 14.2805
      vertex 9 -22.719 14.3046
    endloop
  endfacet
  facet normal 6.86154e-17 -0.309016 0.951057
    outer loop
      vertex 9 -22.719 14.3046
      vertex 0.720946 -22.7933 14.2805
      vertex 9 -22.8186 14.2723
    endloop
  endfacet
  facet normal 9.73383e-17 -0.438373 0.898793
    outer loop
      vertex 0.685159 -22.6949 14.3164
      vertex 0.69393 -22.719 14.3046
      vertex 9 -22.719 14.3046
    endloop
  endfacet
  facet normal 9.73383e-17 -0.438373 0.898793
    outer loop
      vertex 0.647967 -22.625 14.3505
      vertex 0.685159 -22.6949 14.3164
      vertex 9 -22.625 14.3505
    endloop
  endfacet
  facet normal 9.73383e-17 -0.438373 0.898793
    outer loop
      vertex 9 -22.625 14.3505
      vertex 0.685159 -22.6949 14.3164
      vertex 9 -22.719 14.3046
    endloop
  endfacet
  facet normal 1.24166e-16 -0.559193 0.829037
    outer loop
      vertex 0.636036 -22.6026 14.3656
      vertex 0.647967 -22.625 14.3505
      vertex 9 -22.625 14.3505
    endloop
  endfacet
  facet normal 1.24166e-16 -0.559193 0.829037
    outer loop
      vertex 0.589314 -22.5383 14.409
      vertex 0.636036 -22.6026 14.3656
      vertex 9 -22.5383 14.409
    endloop
  endfacet
  facet normal 1.24166e-16 -0.559193 0.829037
    outer loop
      vertex 9 -22.5383 14.409
      vertex 0.636036 -22.6026 14.3656
      vertex 9 -22.625 14.3505
    endloop
  endfacet
  facet normal 1.48576e-16 -0.669128 0.743147
    outer loop
      vertex 0.574533 -22.5179 14.4273
      vertex 0.589314 -22.5383 14.409
      vertex 9 -22.5383 14.409
    endloop
  endfacet
  facet normal 1.48576e-16 -0.669128 0.743147
    outer loop
      vertex 0.519089 -22.4605 14.479
      vertex 0.574533 -22.5179 14.4273
      vertex 9 -22.4605 14.479
    endloop
  endfacet
  facet normal 1.48576e-16 -0.669128 0.743147
    outer loop
      vertex 9 -22.4605 14.479
      vertex 0.574533 -22.5179 14.4273
      vertex 9 -22.5383 14.409
    endloop
  endfacet
  facet normal 1.70096e-16 -0.766045 0.642787
    outer loop
      vertex 0.501848 -22.4426 14.5003
      vertex 0.519089 -22.4605 14.479
      vertex 9 -22.4605 14.479
    endloop
  endfacet
  facet normal 1.70096e-16 -0.766045 0.642787
    outer loop
      vertex 0.438613 -22.3932 14.5592
      vertex 0.501848 -22.4426 14.5003
      vertex 9 -22.3932 14.5592
    endloop
  endfacet
  facet normal 1.70096e-16 -0.766045 0.642787
    outer loop
      vertex 9 -22.3932 14.5592
      vertex 0.501848 -22.4426 14.5003
      vertex 9 -22.4605 14.479
    endloop
  endfacet
  facet normal 1.88304e-16 -0.848047 0.529921
    outer loop
      vertex 0.419395 -22.3782 14.5832
      vertex 0.438613 -22.3932 14.5592
      vertex 9 -22.3932 14.5592
    endloop
  endfacet
  facet normal 1.88304e-16 -0.848047 0.529921
    outer loop
      vertex 0.349363 -22.3378 14.6479
      vertex 0.419395 -22.3782 14.5832
      vertex 9 -22.3378 14.6479
    endloop
  endfacet
  facet normal 1.88304e-16 -0.848047 0.529921
    outer loop
      vertex 9 -22.3378 14.6479
      vertex 0.419395 -22.3782 14.5832
      vertex 9 -22.3932 14.5592
    endloop
  endfacet
  facet normal 2.02849e-16 -0.913549 0.406729
    outer loop
      vertex 0.328778 -22.3259 14.6746
      vertex 0.349363 -22.3378 14.6479
      vertex 9 -22.3378 14.6479
    endloop
  endfacet
  facet normal 2.02849e-16 -0.913549 0.406729
    outer loop
      vertex 0.252858 -22.2952 14.7435
      vertex 0.328778 -22.3259 14.6746
      vertex 9 -22.2952 14.7435
    endloop
  endfacet
  facet normal 2.02849e-16 -0.913549 0.406729
    outer loop
      vertex 9 -22.2952 14.7435
      vertex 0.328778 -22.3259 14.6746
      vertex 9 -22.3378 14.6479
    endloop
  endfacet
  facet normal 2.13442e-16 -0.96126 0.275645
    outer loop
      vertex 0.231763 -22.2867 14.7732
      vertex 0.252858 -22.2952 14.7435
      vertex 9 -22.2952 14.7435
    endloop
  endfacet
  facet normal 2.13442e-16 -0.96126 0.275645
    outer loop
      vertex 0.150269 -22.2664 14.8441
      vertex 0.231763 -22.2867 14.7732
      vertex 9 -22.2664 14.8441
    endloop
  endfacet
  facet normal 2.13442e-16 -0.96126 0.275645
    outer loop
      vertex 9 -22.2664 14.8441
      vertex 0.231763 -22.2867 14.7732
      vertex 9 -22.2952 14.7435
    endloop
  endfacet
  facet normal 0.77427 -0.580703 0.251576
    outer loop
      vertex 3.57295 -23 5.73664
      vertex 4.78647 -21 6.61832
      vertex 3 -23 7.5
    endloop
  endfacet
  facet normal 0.77427 -0.580703 0.251576
    outer loop
      vertex 3 -23 7.5
      vertex 4.78647 -21 6.61832
      vertex 4.5 -21 7.5
    endloop
  endfacet
  facet normal 0.478525 -0.580703 0.658633
    outer loop
      vertex 3.57295 -23 5.73664
      vertex 5.53647 -21 6.07341
      vertex 4.78647 -21 6.61832
    endloop
  endfacet
  facet normal 0.478525 -0.580703 0.658633
    outer loop
      vertex 5.07295 -23 4.64683
      vertex 5.53647 -21 6.07341
      vertex 3.57295 -23 5.73664
    endloop
  endfacet
  facet normal 0 -0.580703 0.814116
    outer loop
      vertex 6.92705 -23 4.64683
      vertex 6.46352 -21 6.07341
      vertex 5.53647 -21 6.07341
    endloop
  endfacet
  facet normal 0 -0.580703 0.814116
    outer loop
      vertex 5.07295 -23 4.64683
      vertex 6.92705 -23 4.64683
      vertex 5.53647 -21 6.07341
    endloop
  endfacet
  facet normal -0.478525 -0.580703 0.658633
    outer loop
      vertex 6.46352 -21 6.07341
      vertex 6.92705 -23 4.64683
      vertex 7.21352 -21 6.61832
    endloop
  endfacet
  facet normal -0.478525 -0.580703 0.658633
    outer loop
      vertex 8.42705 -23 5.73664
      vertex 7.21352 -21 6.61832
      vertex 6.92705 -23 4.64683
    endloop
  endfacet
  facet normal -0.77427 -0.580703 0.251576
    outer loop
      vertex 8.42705 -23 5.73664
      vertex 7.5 -21 7.5
      vertex 7.21352 -21 6.61832
    endloop
  endfacet
  facet normal -0.77427 -0.580703 0.251576
    outer loop
      vertex 8.42705 -23 5.73664
      vertex 9 -23 7.5
      vertex 7.5 -21 7.5
    endloop
  endfacet
  facet normal -0.77427 -0.580703 -0.251576
    outer loop
      vertex 7.5 -21 7.5
      vertex 9 -23 7.5
      vertex 7.21352 -21 8.38168
    endloop
  endfacet
  facet normal -0.77427 -0.580703 -0.251576
    outer loop
      vertex 9 -23 7.5
      vertex 8.42705 -23 9.26336
      vertex 7.21352 -21 8.38168
    endloop
  endfacet
  facet normal -0.478525 -0.580703 -0.658633
    outer loop
      vertex 7.21352 -21 8.38168
      vertex 8.42705 -23 9.26336
      vertex 6.46352 -21 8.92658
    endloop
  endfacet
  facet normal -0.478525 -0.580703 -0.658633
    outer loop
      vertex 8.42705 -23 9.26336
      vertex 6.92705 -23 10.3532
      vertex 6.46352 -21 8.92658
    endloop
  endfacet
  facet normal 0 -0.580703 -0.814116
    outer loop
      vertex 6.46352 -21 8.92658
      vertex 6.92705 -23 10.3532
      vertex 5.53647 -21 8.92658
    endloop
  endfacet
  facet normal 0 -0.580703 -0.814116
    outer loop
      vertex 5.53647 -21 8.92658
      vertex 6.92705 -23 10.3532
      vertex 5.07295 -23 10.3532
    endloop
  endfacet
  facet normal 0.478525 -0.580703 -0.658633
    outer loop
      vertex 5.53647 -21 8.92658
      vertex 5.07295 -23 10.3532
      vertex 4.78647 -21 8.38168
    endloop
  endfacet
  facet normal 0.478525 -0.580703 -0.658633
    outer loop
      vertex 4.78647 -21 8.38168
      vertex 5.07295 -23 10.3532
      vertex 3.57295 -23 9.26336
    endloop
  endfacet
  facet normal 0.77427 -0.580703 -0.251576
    outer loop
      vertex 4.5 -21 7.5
      vertex 4.78647 -21 8.38168
      vertex 3.57295 -23 9.26336
    endloop
  endfacet
  facet normal 0.77427 -0.580703 -0.251576
    outer loop
      vertex 4.5 -21 7.5
      vertex 3.57295 -23 9.26336
      vertex 3 -23 7.5
    endloop
  endfacet
  facet normal 2.19884e-16 -0.990269 0.139169
    outer loop
      vertex 29.852 -22.2664 14.8441
      vertex 29.9216 -22.2541 14.9314
      vertex 21 -22.2518 14.9477
    endloop
  endfacet
  facet normal 2.19884e-16 -0.990269 0.139169
    outer loop
      vertex 21 -22.2518 14.9477
      vertex 29.9216 -22.2541 14.9314
      vertex 29.9869 -22.2518 14.9477
    endloop
  endfacet
  facet normal 2.19884e-16 -0.990269 0.139169
    outer loop
      vertex 29.852 -22.2664 14.8441
      vertex 21 -22.2518 14.9477
      vertex 21 -22.2664 14.8441
    endloop
  endfacet
  facet normal 2.13442e-16 -0.96126 0.275645
    outer loop
      vertex 29.7479 -22.2952 14.7435
      vertex 29.8186 -22.2723 14.8235
      vertex 21 -22.2664 14.8441
    endloop
  endfacet
  facet normal 2.13442e-16 -0.96126 0.275645
    outer loop
      vertex 21 -22.2664 14.8441
      vertex 29.8186 -22.2723 14.8235
      vertex 29.852 -22.2664 14.8441
    endloop
  endfacet
  facet normal 2.13442e-16 -0.96126 0.275645
    outer loop
      vertex 29.7479 -22.2952 14.7435
      vertex 21 -22.2664 14.8441
      vertex 21 -22.2952 14.7435
    endloop
  endfacet
  facet normal 2.02849e-16 -0.913549 0.406729
    outer loop
      vertex 29.651 -22.3378 14.6479
      vertex 29.719 -22.3046 14.7224
      vertex 21 -22.2952 14.7435
    endloop
  endfacet
  facet normal 2.02849e-16 -0.913549 0.406729
    outer loop
      vertex 21 -22.2952 14.7435
      vertex 29.719 -22.3046 14.7224
      vertex 29.7479 -22.2952 14.7435
    endloop
  endfacet
  facet normal 2.02849e-16 -0.913549 0.406729
    outer loop
      vertex 29.651 -22.3378 14.6479
      vertex 21 -22.2952 14.7435
      vertex 21 -22.3378 14.6479
    endloop
  endfacet
  facet normal 1.88304e-16 -0.848047 0.529921
    outer loop
      vertex 29.5616 -22.3932 14.5592
      vertex 29.625 -22.3505 14.6276
      vertex 21 -22.3378 14.6479
    endloop
  endfacet
  facet normal 1.88304e-16 -0.848047 0.529921
    outer loop
      vertex 21 -22.3378 14.6479
      vertex 29.625 -22.3505 14.6276
      vertex 29.651 -22.3378 14.6479
    endloop
  endfacet
  facet normal 1.88304e-16 -0.848047 0.529921
    outer loop
      vertex 29.5616 -22.3932 14.5592
      vertex 21 -22.3378 14.6479
      vertex 21 -22.3932 14.5592
    endloop
  endfacet
  facet normal 1.70096e-16 -0.766045 0.642787
    outer loop
      vertex 29.4811 -22.4605 14.479
      vertex 29.5383 -22.409 14.5404
      vertex 21 -22.3932 14.5592
    endloop
  endfacet
  facet normal 1.70096e-16 -0.766045 0.642787
    outer loop
      vertex 21 -22.3932 14.5592
      vertex 29.5383 -22.409 14.5404
      vertex 29.5616 -22.3932 14.5592
    endloop
  endfacet
  facet normal 1.70096e-16 -0.766045 0.642787
    outer loop
      vertex 29.4811 -22.4605 14.479
      vertex 21 -22.3932 14.5592
      vertex 21 -22.4605 14.479
    endloop
  endfacet
  facet normal 1.48576e-16 -0.669128 0.743147
    outer loop
      vertex 29.4108 -22.5383 14.409
      vertex 29.4605 -22.479 14.4623
      vertex 21 -22.4605 14.479
    endloop
  endfacet
  facet normal 1.48576e-16 -0.669128 0.743147
    outer loop
      vertex 21 -22.4605 14.479
      vertex 29.4605 -22.479 14.4623
      vertex 29.4811 -22.4605 14.479
    endloop
  endfacet
  facet normal 1.48576e-16 -0.669128 0.743147
    outer loop
      vertex 29.4108 -22.5383 14.409
      vertex 21 -22.4605 14.479
      vertex 21 -22.5383 14.409
    endloop
  endfacet
  facet normal 1.24166e-16 -0.559193 0.829037
    outer loop
      vertex 29.3521 -22.625 14.3505
      vertex 29.3932 -22.5592 14.3949
      vertex 21 -22.5383 14.409
    endloop
  endfacet
  facet normal 1.24166e-16 -0.559193 0.829037
    outer loop
      vertex 21 -22.5383 14.409
      vertex 29.3932 -22.5592 14.3949
      vertex 29.4108 -22.5383 14.409
    endloop
  endfacet
  facet normal 1.24166e-16 -0.559193 0.829037
    outer loop
      vertex 29.3521 -22.625 14.3505
      vertex 21 -22.5383 14.409
      vertex 21 -22.625 14.3505
    endloop
  endfacet
  facet normal 9.73383e-17 -0.438373 0.898793
    outer loop
      vertex 29.3061 -22.719 14.3046
      vertex 29.3378 -22.6479 14.3393
      vertex 21 -22.625 14.3505
    endloop
  endfacet
  facet normal 9.73383e-17 -0.438373 0.898793
    outer loop
      vertex 21 -22.625 14.3505
      vertex 29.3378 -22.6479 14.3393
      vertex 29.3521 -22.625 14.3505
    endloop
  endfacet
  facet normal 9.73383e-17 -0.438373 0.898793
    outer loop
      vertex 29.3061 -22.719 14.3046
      vertex 21 -22.625 14.3505
      vertex 21 -22.719 14.3046
    endloop
  endfacet
  facet normal 6.86154e-17 -0.309016 0.951057
    outer loop
      vertex 29.2737 -22.8186 14.2723
      vertex 29.2952 -22.7435 14.2967
      vertex 21 -22.719 14.3046
    endloop
  endfacet
  facet normal 6.86154e-17 -0.309016 0.951057
    outer loop
      vertex 21 -22.719 14.3046
      vertex 29.2952 -22.7435 14.2967
      vertex 29.3061 -22.719 14.3046
    endloop
  endfacet
  facet normal 6.86154e-17 -0.309016 0.951057
    outer loop
      vertex 29.2737 -22.8186 14.2723
      vertex 21 -22.719 14.3046
      vertex 21 -22.8186 14.2723
    endloop
  endfacet
  facet normal 3.85564e-17 -0.173642 0.984809
    outer loop
      vertex 29.2555 -22.9216 14.2541
      vertex 29.2664 -22.8441 14.2678
      vertex 21 -22.8186 14.2723
    endloop
  endfacet
  facet normal 3.85564e-17 -0.173642 0.984809
    outer loop
      vertex 21 -22.8186 14.2723
      vertex 29.2664 -22.8441 14.2678
      vertex 29.2737 -22.8186 14.2723
    endloop
  endfacet
  facet normal 3.85564e-17 -0.173642 0.984809
    outer loop
      vertex 29.2555 -22.9216 14.2541
      vertex 21 -22.8186 14.2723
      vertex 21 -22.9216 14.2541
    endloop
  endfacet
  facet normal 7.74988e-18 -0.0349024 0.999391
    outer loop
      vertex 29.2518 -23 14.2514
      vertex 29.2518 -22.9477 14.2532
      vertex 21 -22.9216 14.2541
    endloop
  endfacet
  facet normal 7.74988e-18 -0.0349024 0.999391
    outer loop
      vertex 21 -22.9216 14.2541
      vertex 29.2518 -22.9477 14.2532
      vertex 29.2555 -22.9216 14.2541
    endloop
  endfacet
  facet normal 7.74988e-18 -0.0349024 0.999391
    outer loop
      vertex 29.2518 -23 14.2514
      vertex 21 -22.9216 14.2541
      vertex 21 -23 14.2514
    endloop
  endfacet
  facet normal 0.77427 -0.580703 0.251576
    outer loop
      vertex 21.5729 -23 5.73664
      vertex 22.7865 -21 6.61832
      vertex 21 -23 7.5
    endloop
  endfacet
  facet normal 0.77427 -0.580703 0.251576
    outer loop
      vertex 21 -23 7.5
      vertex 22.7865 -21 6.61832
      vertex 22.5 -21 7.5
    endloop
  endfacet
  facet normal 0.478525 -0.580703 0.658633
    outer loop
      vertex 21.5729 -23 5.73664
      vertex 23.5365 -21 6.07341
      vertex 22.7865 -21 6.61832
    endloop
  endfacet
  facet normal 0.478525 -0.580703 0.658633
    outer loop
      vertex 23.0729 -23 4.64683
      vertex 23.5365 -21 6.07341
      vertex 21.5729 -23 5.73664
    endloop
  endfacet
  facet normal 0 -0.580703 0.814116
    outer loop
      vertex 24.9271 -23 4.64683
      vertex 24.4635 -21 6.07341
      vertex 23.5365 -21 6.07341
    endloop
  endfacet
  facet normal 0 -0.580703 0.814116
    outer loop
      vertex 23.0729 -23 4.64683
      vertex 24.9271 -23 4.64683
      vertex 23.5365 -21 6.07341
    endloop
  endfacet
  facet normal -0.478525 -0.580703 0.658633
    outer loop
      vertex 24.4635 -21 6.07341
      vertex 24.9271 -23 4.64683
      vertex 25.2135 -21 6.61832
    endloop
  endfacet
  facet normal -0.478525 -0.580703 0.658633
    outer loop
      vertex 26.4271 -23 5.73664
      vertex 25.2135 -21 6.61832
      vertex 24.9271 -23 4.64683
    endloop
  endfacet
  facet normal -0.77427 -0.580703 0.251576
    outer loop
      vertex 26.4271 -23 5.73664
      vertex 25.5 -21 7.5
      vertex 25.2135 -21 6.61832
    endloop
  endfacet
  facet normal -0.77427 -0.580703 0.251576
    outer loop
      vertex 26.4271 -23 5.73664
      vertex 27 -23 7.5
      vertex 25.5 -21 7.5
    endloop
  endfacet
  facet normal -0.77427 -0.580703 -0.251576
    outer loop
      vertex 25.5 -21 7.5
      vertex 27 -23 7.5
      vertex 25.2135 -21 8.38168
    endloop
  endfacet
  facet normal -0.77427 -0.580703 -0.251576
    outer loop
      vertex 27 -23 7.5
      vertex 26.4271 -23 9.26336
      vertex 25.2135 -21 8.38168
    endloop
  endfacet
  facet normal -0.478525 -0.580703 -0.658633
    outer loop
      vertex 25.2135 -21 8.38168
      vertex 26.4271 -23 9.26336
      vertex 24.4635 -21 8.92658
    endloop
  endfacet
  facet normal -0.478525 -0.580703 -0.658633
    outer loop
      vertex 26.4271 -23 9.26336
      vertex 24.9271 -23 10.3532
      vertex 24.4635 -21 8.92658
    endloop
  endfacet
  facet normal 0 -0.580703 -0.814116
    outer loop
      vertex 24.4635 -21 8.92658
      vertex 24.9271 -23 10.3532
      vertex 23.5365 -21 8.92658
    endloop
  endfacet
  facet normal 0 -0.580703 -0.814116
    outer loop
      vertex 23.5365 -21 8.92658
      vertex 24.9271 -23 10.3532
      vertex 23.0729 -23 10.3532
    endloop
  endfacet
  facet normal 0.478525 -0.580703 -0.658633
    outer loop
      vertex 23.5365 -21 8.92658
      vertex 23.0729 -23 10.3532
      vertex 22.7865 -21 8.38168
    endloop
  endfacet
  facet normal 0.478525 -0.580703 -0.658633
    outer loop
      vertex 22.7865 -21 8.38168
      vertex 23.0729 -23 10.3532
      vertex 21.5729 -23 9.26336
    endloop
  endfacet
  facet normal 0.77427 -0.580703 -0.251576
    outer loop
      vertex 22.5 -21 7.5
      vertex 22.7865 -21 8.38168
      vertex 21.5729 -23 9.26336
    endloop
  endfacet
  facet normal 0.77427 -0.580703 -0.251576
    outer loop
      vertex 22.5 -21 7.5
      vertex 21.5729 -23 9.26336
      vertex 21 -23 7.5
    endloop
  endfacet
  facet normal 0 -1 3.44505e-16
    outer loop
      vertex 4.78647 -21 8.38168
      vertex 4.5 -21 7.5
      vertex 4.78647 -21 6.61832
    endloop
  endfacet
  facet normal 0 -1 3.44505e-16
    outer loop
      vertex 5.53647 -21 8.92658
      vertex 4.78647 -21 8.38168
      vertex 6.46352 -21 8.92658
    endloop
  endfacet
  facet normal 0 -1 3.44505e-16
    outer loop
      vertex 7.21352 -21 8.38168
      vertex 6.46352 -21 8.92658
      vertex 7.5 -21 7.5
    endloop
  endfacet
  facet normal 0 -1 3.44505e-16
    outer loop
      vertex 6.46352 -21 6.07341
      vertex 4.78647 -21 6.61832
      vertex 5.53647 -21 6.07341
    endloop
  endfacet
  facet normal 0 -1 3.44505e-16
    outer loop
      vertex 7.5 -21 7.5
      vertex 6.46352 -21 6.07341
      vertex 7.21352 -21 6.61832
    endloop
  endfacet
  facet normal 0 -1 3.44505e-16
    outer loop
      vertex 22.7865 -21 8.38168
      vertex 22.5 -21 7.5
      vertex 22.7865 -21 6.61832
    endloop
  endfacet
  facet normal 0 -1 3.44505e-16
    outer loop
      vertex 23.5365 -21 8.92658
      vertex 22.7865 -21 8.38168
      vertex 24.4635 -21 8.92658
    endloop
  endfacet
  facet normal 0 -1 3.44505e-16
    outer loop
      vertex 25.2135 -21 8.38168
      vertex 24.4635 -21 8.92658
      vertex 25.5 -21 7.5
    endloop
  endfacet
  facet normal 0 -1 3.44505e-16
    outer loop
      vertex 24.4635 -21 6.07341
      vertex 22.7865 -21 6.61832
      vertex 23.5365 -21 6.07341
    endloop
  endfacet
  facet normal 0 -1 3.44505e-16
    outer loop
      vertex 25.5 -21 7.5
      vertex 24.4635 -21 6.07341
      vertex 25.2135 -21 6.61832
    endloop
  endfacet
  facet normal -2.22045e-16 4.93038e-32 1
    outer loop
      vertex -16.5 -17.5 2.625
      vertex -19 -30 2.625
      vertex -11 -30 2.625
    endloop
  endfacet
  facet normal -2.22045e-16 4.93038e-32 1
    outer loop
      vertex -13.5 -12.5 2.625
      vertex -13.5 -17.5 2.625
      vertex -11 -30 2.625
    endloop
  endfacet
  facet normal -2.22045e-16 4.93038e-32 1
    outer loop
      vertex -19 20 2.625
      vertex -19 -30 2.625
      vertex -16.5 -17.5 2.625
    endloop
  endfacet
  facet normal -2.22045e-16 4.93038e-32 1
    outer loop
      vertex -19 20 2.625
      vertex -16.5 -17.5 2.625
      vertex -16.5 -12.5 2.625
    endloop
  endfacet
  facet normal -2.22045e-16 4.93038e-32 1
    outer loop
      vertex -11 20 2.625
      vertex -13.5 -12.5 2.625
      vertex -11 -30 2.625
    endloop
  endfacet
  facet normal -2.22045e-16 4.93038e-32 1
    outer loop
      vertex -11 20 2.625
      vertex -19 20 2.625
      vertex -13.5 -12.5 2.625
    endloop
  endfacet
  facet normal -2.22045e-16 4.93038e-32 1
    outer loop
      vertex -13.5 -17.5 2.625
      vertex -16.5 -17.5 2.625
      vertex -11 -30 2.625
    endloop
  endfacet
  facet normal -2.22045e-16 4.93038e-32 1
    outer loop
      vertex -16.5 -12.5 2.625
      vertex -13.5 -12.5 2.625
      vertex -19 20 2.625
    endloop
  endfacet
  facet normal -2.22045e-16 -1 -4.93038e-32
    outer loop
      vertex -11 -30 2.625
      vertex -19 -30 2.625
      vertex -19 -30 0.375
    endloop
  endfacet
  facet normal -2.22045e-16 -1 -4.93038e-32
    outer loop
      vertex -11 -30 0.375
      vertex -11 -30 2.625
      vertex -19 -30 0.375
    endloop
  endfacet
  facet normal -1 2.22045e-16 -2.22045e-16
    outer loop
      vertex -19 -30 2.625
      vertex -19 20 2.625
      vertex -19 -30 0.375
    endloop
  endfacet
  facet normal -1 2.22045e-16 -2.22045e-16
    outer loop
      vertex -19 -30 0.375
      vertex -19 20 2.625
      vertex -19 20 0.375
    endloop
  endfacet
  facet normal 2.22045e-16 1 4.93038e-32
    outer loop
      vertex -19 20 2.625
      vertex -11 20 2.625
      vertex -19 20 0.375
    endloop
  endfacet
  facet normal 2.22045e-16 1 4.93038e-32
    outer loop
      vertex -19 20 0.375
      vertex -11 20 2.625
      vertex -11 20 0.375
    endloop
  endfacet
  facet normal 1 -2.22045e-16 2.22045e-16
    outer loop
      vertex -11 20 2.625
      vertex -11 -30 2.625
      vertex -11 -30 0.375
    endloop
  endfacet
  facet normal 1 -2.22045e-16 2.22045e-16
    outer loop
      vertex -11 20 0.375
      vertex -11 20 2.625
      vertex -11 -30 0.375
    endloop
  endfacet
  facet normal -2.22045e-16 -1 -4.93038e-32
    outer loop
      vertex -13.5 -17.5 6.75
      vertex -16.5 -17.5 6.75
      vertex -16.5 -17.5 2.625
    endloop
  endfacet
  facet normal -2.22045e-16 -1 -4.93038e-32
    outer loop
      vertex -13.5 -17.5 2.625
      vertex -13.5 -17.5 6.75
      vertex -16.5 -17.5 2.625
    endloop
  endfacet
  facet normal -1 2.22045e-16 -2.22045e-16
    outer loop
      vertex -16.5 -17.5 6.75
      vertex -16.5 -12.5 6.75
      vertex -16.5 -17.5 2.625
    endloop
  endfacet
  facet normal -1 2.22045e-16 -2.22045e-16
    outer loop
      vertex -16.5 -17.5 2.625
      vertex -16.5 -12.5 6.75
      vertex -16.5 -12.5 2.625
    endloop
  endfacet
  facet normal 1 -2.22045e-16 2.22045e-16
    outer loop
      vertex -13.5 -12.5 6.75
      vertex -13.5 -17.5 6.75
      vertex -13.5 -17.5 2.625
    endloop
  endfacet
  facet normal 1 -2.22045e-16 2.22045e-16
    outer loop
      vertex -13.5 -12.5 2.625
      vertex -13.5 -12.5 6.75
      vertex -13.5 -17.5 2.625
    endloop
  endfacet
  facet normal 2.22045e-16 1 4.93038e-32
    outer loop
      vertex -16.5 -12.5 6.75
      vertex -13.5 -12.5 6.75
      vertex -16.5 -12.5 2.625
    endloop
  endfacet
  facet normal 2.22045e-16 1 4.93038e-32
    outer loop
      vertex -16.5 -12.5 2.625
      vertex -13.5 -12.5 6.75
      vertex -13.5 -12.5 2.625
    endloop
  endfacet
  facet normal 2.22045e-16 -4.93038e-32 -1
    outer loop
      vertex -19 -30 0.375
      vertex -19 20 0.375
      vertex -11 -30 0.375
    endloop
  endfacet
  facet normal 2.22045e-16 -4.93038e-32 -1
    outer loop
      vertex -11 -30 0.375
      vertex -19 20 0.375
      vertex -11 20 0.375
    endloop
  endfacet
  facet normal -2.22045e-16 4.93038e-32 1
    outer loop
      vertex -16.5 -12.5 6.75
      vertex -16.5 -17.5 6.75
      vertex -13.5 -17.5 6.75
    endloop
  endfacet
  facet normal -2.22045e-16 4.93038e-32 1
    outer loop
      vertex -13.5 -12.5 6.75
      vertex -16.5 -12.5 6.75
      vertex -13.5 -17.5 6.75
    endloop
  endfacet
endsolid OpenSCAD_Model
