solid OpenSCAD_Model
  facet normal -1 0 0
    outer loop
      vertex 0 0 0
      vertex 0 0 4
      vertex 0 20 0
    endloop
  endfacet
  facet normal -1 0 0
    outer loop
      vertex 0 20 0
      vertex 0 0 4
      vertex 0 16 4
    endloop
  endfacet
  facet normal -1 0 0
    outer loop
      vertex 0 20 0
      vertex 0 16 4
      vertex 0 16 20
    endloop
  endfacet
  facet normal -1 0 0
    outer loop
      vertex 0 20 0
      vertex 0 16 20
      vertex 0 20 20
    endloop
  endfacet
  facet normal 0 -1 0
    outer loop
      vertex 0 0 4
      vertex 0 0 0
      vertex 40 0 0
    endloop
  endfacet
  facet normal 0 -1 0
    outer loop
      vertex 18 0 4
      vertex 0 0 4
      vertex 40 0 0
    endloop
  endfacet
  facet normal 0 -1 0
    outer loop
      vertex 22 0 4
      vertex 18 0 4
      vertex 40 0 0
    endloop
  endfacet
  facet normal 0 -1 0
    outer loop
      vertex 40 0 4
      vertex 22 0 4
      vertex 40 0 0
    endloop
  endfacet
  facet normal 0 0 -1
    outer loop
      vertex 10.4635 9.42658 0
      vertex 0 20 0
      vertex 40 0 0
    endloop
  endfacet
  facet normal 0 0 -1
    outer loop
      vertex 28.7865 8.88168 0
      vertex 0 20 0
      vertex 40 20 0
    endloop
  endfacet
  facet normal 0 0 -1
    outer loop
      vertex 0 0 0
      vertex 0 20 0
      vertex 8.78647 8.88168 0
    endloop
  endfacet
  facet normal 0 0 -1
    outer loop
      vertex 0 0 0
      vertex 8.78647 8.88168 0
      vertex 8.78647 7.11832 0
    endloop
  endfacet
  facet normal 0 0 -1
    outer loop
      vertex 0 0 0
      vertex 8.78647 7.11832 0
      vertex 10.4635 6.57341 0
    endloop
  endfacet
  facet normal 0 0 -1
    outer loop
      vertex 0 0 0
      vertex 10.4635 6.57341 0
      vertex 40 0 0
    endloop
  endfacet
  facet normal 0 0 -1
    outer loop
      vertex 10.4635 9.42658 0
      vertex 40 0 0
      vertex 11.5 8 0
    endloop
  endfacet
  facet normal 0 0 -1
    outer loop
      vertex 8.78647 8.88168 0
      vertex 0 20 0
      vertex 10.4635 9.42658 0
    endloop
  endfacet
  facet normal 0 0 -1
    outer loop
      vertex 31.5 8 0
      vertex 40 0 0
      vertex 30.4635 6.57341 0
    endloop
  endfacet
  facet normal 0 0 -1
    outer loop
      vertex 28.7865 7.11832 0
      vertex 0 20 0
      vertex 28.7865 8.88168 0
    endloop
  endfacet
  facet normal 0 0 -1
    outer loop
      vertex 30.4635 9.42658 0
      vertex 28.7865 8.88168 0
      vertex 40 20 0
    endloop
  endfacet
  facet normal 0 0 -1
    outer loop
      vertex 40 0 0
      vertex 0 20 0
      vertex 28.7865 7.11832 0
    endloop
  endfacet
  facet normal 0 0 -1
    outer loop
      vertex 40 0 0
      vertex 28.7865 7.11832 0
      vertex 30.4635 6.57341 0
    endloop
  endfacet
  facet normal 0 0 -1
    outer loop
      vertex 40 0 0
      vertex 31.5 8 0
      vertex 40 20 0
    endloop
  endfacet
  facet normal 0 0 -1
    outer loop
      vertex 31.5 8 0
      vertex 30.4635 9.42658 0
      vertex 40 20 0
    endloop
  endfacet
  facet normal 0 0 -1
    outer loop
      vertex 11.5 8 0
      vertex 40 0 0
      vertex 10.4635 6.57341 0
    endloop
  endfacet
  facet normal 0 1 0
    outer loop
      vertex 10.4635 20 13.4266
      vertex 0 20 20
      vertex 40 20 0
    endloop
  endfacet
  facet normal 0 1 0
    outer loop
      vertex 28.7865 20 12.8817
      vertex 0 20 20
      vertex 40 20 20
    endloop
  endfacet
  facet normal 0 1 0
    outer loop
      vertex 0 20 0
      vertex 0 20 20
      vertex 8.78647 20 12.8817
    endloop
  endfacet
  facet normal 0 1 0
    outer loop
      vertex 0 20 0
      vertex 8.78647 20 12.8817
      vertex 8.78647 20 11.1183
    endloop
  endfacet
  facet normal 0 1 0
    outer loop
      vertex 0 20 0
      vertex 8.78647 20 11.1183
      vertex 40 20 0
    endloop
  endfacet
  facet normal 0 1 0
    outer loop
      vertex 8.78647 20 11.1183
      vertex 10.4635 20 10.5734
      vertex 40 20 0
    endloop
  endfacet
  facet normal 0 1 0
    outer loop
      vertex 11.5 20 12
      vertex 40 20 0
      vertex 10.4635 20 10.5734
    endloop
  endfacet
  facet normal 0 1 0
    outer loop
      vertex 31.5 20 12
      vertex 40 20 0
      vertex 30.4635 20 10.5734
    endloop
  endfacet
  facet normal 0 1 0
    outer loop
      vertex 11.5 20 12
      vertex 10.4635 20 13.4266
      vertex 40 20 0
    endloop
  endfacet
  facet normal 0 1 0
    outer loop
      vertex 28.7865 20 11.1183
      vertex 0 20 20
      vertex 28.7865 20 12.8817
    endloop
  endfacet
  facet normal 0 1 0
    outer loop
      vertex 30.4635 20 13.4266
      vertex 28.7865 20 12.8817
      vertex 40 20 20
    endloop
  endfacet
  facet normal 0 1 0
    outer loop
      vertex 40 20 0
      vertex 0 20 20
      vertex 28.7865 20 11.1183
    endloop
  endfacet
  facet normal 0 1 0
    outer loop
      vertex 40 20 0
      vertex 28.7865 20 11.1183
      vertex 30.4635 20 10.5734
    endloop
  endfacet
  facet normal 0 1 0
    outer loop
      vertex 40 20 0
      vertex 31.5 20 12
      vertex 40 20 20
    endloop
  endfacet
  facet normal 0 1 0
    outer loop
      vertex 31.5 20 12
      vertex 30.4635 20 13.4266
      vertex 40 20 20
    endloop
  endfacet
  facet normal 0 1 0
    outer loop
      vertex 8.78647 20 12.8817
      vertex 0 20 20
      vertex 10.4635 20 13.4266
    endloop
  endfacet
  facet normal 0 0 1
    outer loop
      vertex 22 16 20
      vertex 40 16 20
      vertex 0 20 20
    endloop
  endfacet
  facet normal 0 0 1
    outer loop
      vertex 0 20 20
      vertex 0 16 20
      vertex 18 16 20
    endloop
  endfacet
  facet normal 0 0 1
    outer loop
      vertex 22 15.9123 20
      vertex 0 20 20
      vertex 18 16 20
    endloop
  endfacet
  facet normal 0 0 1
    outer loop
      vertex 18 15.9123 20
      vertex 22 15.9123 20
      vertex 18 16 20
    endloop
  endfacet
  facet normal 0 0 1
    outer loop
      vertex 22 15.9123 20
      vertex 22 16 20
      vertex 0 20 20
    endloop
  endfacet
  facet normal 0 0 1
    outer loop
      vertex 40 16 20
      vertex 40 20 20
      vertex 0 20 20
    endloop
  endfacet
  facet normal 0 -1 0
    outer loop
      vertex 9.07295 16 9.14683
      vertex 0 16 4
      vertex 18 16 4
    endloop
  endfacet
  facet normal 0 -1 0
    outer loop
      vertex 10.9271 16 9.14683
      vertex 9.07295 16 9.14683
      vertex 18 16 4
    endloop
  endfacet
  facet normal 0 -1 0
    outer loop
      vertex 0 16 20
      vertex 0 16 4
      vertex 7.57295 16 10.2366
    endloop
  endfacet
  facet normal 0 -1 0
    outer loop
      vertex 0 16 20
      vertex 7.57295 16 10.2366
      vertex 7 16 12
    endloop
  endfacet
  facet normal 0 -1 0
    outer loop
      vertex 18 16 20
      vertex 13 16 12
      vertex 18 16 4
    endloop
  endfacet
  facet normal 0 -1 0
    outer loop
      vertex 18 16 20
      vertex 0 16 20
      vertex 13 16 12
    endloop
  endfacet
  facet normal 0 -1 0
    outer loop
      vertex 13 16 12
      vertex 12.4271 16 10.2366
      vertex 18 16 4
    endloop
  endfacet
  facet normal 0 -1 0
    outer loop
      vertex 7.57295 16 10.2366
      vertex 0 16 4
      vertex 9.07295 16 9.14683
    endloop
  endfacet
  facet normal 0 -1 0
    outer loop
      vertex 12.4271 16 10.2366
      vertex 10.9271 16 9.14683
      vertex 18 16 4
    endloop
  endfacet
  facet normal 0 -1 0
    outer loop
      vertex 7 16 12
      vertex 13 16 12
      vertex 0 16 20
    endloop
  endfacet
  facet normal 0 0 1
    outer loop
      vertex 9.07295 5.14683 4
      vertex 0 0 4
      vertex 18 0 4
    endloop
  endfacet
  facet normal 0 0 1
    outer loop
      vertex 0 16 4
      vertex 0 0 4
      vertex 7.57295 6.23664 4
    endloop
  endfacet
  facet normal 0 0 1
    outer loop
      vertex 0 16 4
      vertex 7.57295 6.23664 4
      vertex 7 8 4
    endloop
  endfacet
  facet normal 0 0 1
    outer loop
      vertex 9.07295 10.8532 4
      vertex 0 16 4
      vertex 7.57295 9.76336 4
    endloop
  endfacet
  facet normal 0 0 1
    outer loop
      vertex 13 8 4
      vertex 12.4271 6.23664 4
      vertex 18 0 4
    endloop
  endfacet
  facet normal 0 0 1
    outer loop
      vertex 18 16 4
      vertex 0 16 4
      vertex 9.07295 10.8532 4
    endloop
  endfacet
  facet normal 0 0 1
    outer loop
      vertex 12.4271 6.23664 4
      vertex 10.9271 5.14683 4
      vertex 18 0 4
    endloop
  endfacet
  facet normal 0 0 1
    outer loop
      vertex 18 16 4
      vertex 12.4271 9.76336 4
      vertex 18 0 4
    endloop
  endfacet
  facet normal 0 0 1
    outer loop
      vertex 18 16 4
      vertex 10.9271 10.8532 4
      vertex 12.4271 9.76336 4
    endloop
  endfacet
  facet normal 0 0 1
    outer loop
      vertex 12.4271 9.76336 4
      vertex 13 8 4
      vertex 18 0 4
    endloop
  endfacet
  facet normal 0 0 1
    outer loop
      vertex 9.07295 10.8532 4
      vertex 10.9271 10.8532 4
      vertex 18 16 4
    endloop
  endfacet
  facet normal 0 0 1
    outer loop
      vertex 10.9271 5.14683 4
      vertex 9.07295 5.14683 4
      vertex 18 0 4
    endloop
  endfacet
  facet normal 0 0 1
    outer loop
      vertex 7.57295 6.23664 4
      vertex 0 0 4
      vertex 9.07295 5.14683 4
    endloop
  endfacet
  facet normal 0 0 1
    outer loop
      vertex 7 8 4
      vertex 7.57295 9.76336 4
      vertex 0 16 4
    endloop
  endfacet
  facet normal -1 0 0
    outer loop
      vertex 18 16 4
      vertex 18 0 4
      vertex 18 3.32659 4.34964
    endloop
  endfacet
  facet normal -1 0 0
    outer loop
      vertex 18 16 4
      vertex 18 3.32659 4.34964
      vertex 18 6.50779 5.38327
    endloop
  endfacet
  facet normal -1 0 0
    outer loop
      vertex 18 6.50779 5.38327
      vertex 18 9.40456 7.05573
      vertex 18 16 4
    endloop
  endfacet
  facet normal -1 0 0
    outer loop
      vertex 18 9.40456 7.05573
      vertex 18 11.8903 9.29391
      vertex 18 16 4
    endloop
  endfacet
  facet normal -1 0 0
    outer loop
      vertex 18 11.8903 9.29391
      vertex 18 13.8564 12
      vertex 18 16 4
    endloop
  endfacet
  facet normal -1 0 0
    outer loop
      vertex 18 13.8564 12
      vertex 18 15.2169 15.0557
      vertex 18 16 4
    endloop
  endfacet
  facet normal -1 0 0
    outer loop
      vertex 18 15.2169 15.0557
      vertex 18 15.9123 18.3275
      vertex 18 16 4
    endloop
  endfacet
  facet normal -1 0 0
    outer loop
      vertex 18 15.9123 18.3275
      vertex 18 15.9123 20
      vertex 18 16 4
    endloop
  endfacet
  facet normal -1 0 0
    outer loop
      vertex 18 16 4
      vertex 18 15.9123 20
      vertex 18 16 20
    endloop
  endfacet
  facet normal -2.20828e-16 -0.104528 0.994522
    outer loop
      vertex 22 0 4
      vertex 22 3.32659 4.34964
      vertex 18 3.32659 4.34964
    endloop
  endfacet
  facet normal -2.20828e-16 -0.104528 0.994522
    outer loop
      vertex 18 0 4
      vertex 22 0 4
      vertex 18 3.32659 4.34964
    endloop
  endfacet
  facet normal 1 0 0
    outer loop
      vertex 22 3.32659 4.34964
      vertex 22 0 4
      vertex 22 16 4
    endloop
  endfacet
  facet normal 1 0 0
    outer loop
      vertex 22 16 20
      vertex 22 15.9123 18.3275
      vertex 22 16 4
    endloop
  endfacet
  facet normal 1 0 0
    outer loop
      vertex 22 15.9123 18.3275
      vertex 22 15.2169 15.0557
      vertex 22 16 4
    endloop
  endfacet
  facet normal 1 0 0
    outer loop
      vertex 22 15.2169 15.0557
      vertex 22 13.8564 12
      vertex 22 16 4
    endloop
  endfacet
  facet normal 1 0 0
    outer loop
      vertex 22 13.8564 12
      vertex 22 11.8903 9.29391
      vertex 22 16 4
    endloop
  endfacet
  facet normal 1 0 0
    outer loop
      vertex 22 11.8903 9.29391
      vertex 22 9.40456 7.05573
      vertex 22 16 4
    endloop
  endfacet
  facet normal 1 0 0
    outer loop
      vertex 22 9.40456 7.05573
      vertex 22 6.50779 5.38327
      vertex 22 16 4
    endloop
  endfacet
  facet normal 1 0 0
    outer loop
      vertex 22 6.50779 5.38327
      vertex 22 3.32659 4.34964
      vertex 22 16 4
    endloop
  endfacet
  facet normal 1 0 0
    outer loop
      vertex 22 15.9123 20
      vertex 22 15.9123 18.3275
      vertex 22 16 20
    endloop
  endfacet
  facet normal 0 0 1
    outer loop
      vertex 29.0729 5.14683 4
      vertex 22 0 4
      vertex 40 0 4
    endloop
  endfacet
  facet normal 0 0 1
    outer loop
      vertex 22 16 4
      vertex 22 0 4
      vertex 27.5729 6.23664 4
    endloop
  endfacet
  facet normal 0 0 1
    outer loop
      vertex 30.9271 5.14683 4
      vertex 29.0729 5.14683 4
      vertex 40 0 4
    endloop
  endfacet
  facet normal 0 0 1
    outer loop
      vertex 22 16 4
      vertex 27.5729 6.23664 4
      vertex 27 8 4
    endloop
  endfacet
  facet normal 0 0 1
    outer loop
      vertex 22 16 4
      vertex 27 8 4
      vertex 27.5729 9.76336 4
    endloop
  endfacet
  facet normal 0 0 1
    outer loop
      vertex 40 16 4
      vertex 22 16 4
      vertex 29.0729 10.8532 4
    endloop
  endfacet
  facet normal 0 0 1
    outer loop
      vertex 33 8 4
      vertex 32.4271 6.23664 4
      vertex 40 0 4
    endloop
  endfacet
  facet normal 0 0 1
    outer loop
      vertex 40 16 4
      vertex 29.0729 10.8532 4
      vertex 30.9271 10.8532 4
    endloop
  endfacet
  facet normal 0 0 1
    outer loop
      vertex 40 16 4
      vertex 32.4271 9.76336 4
      vertex 40 0 4
    endloop
  endfacet
  facet normal 0 0 1
    outer loop
      vertex 40 16 4
      vertex 30.9271 10.8532 4
      vertex 32.4271 9.76336 4
    endloop
  endfacet
  facet normal 0 0 1
    outer loop
      vertex 32.4271 9.76336 4
      vertex 33 8 4
      vertex 40 0 4
    endloop
  endfacet
  facet normal 0 0 1
    outer loop
      vertex 32.4271 6.23664 4
      vertex 30.9271 5.14683 4
      vertex 40 0 4
    endloop
  endfacet
  facet normal 0 0 1
    outer loop
      vertex 27.5729 6.23664 4
      vertex 22 0 4
      vertex 29.0729 5.14683 4
    endloop
  endfacet
  facet normal 0 0 1
    outer loop
      vertex 27.5729 9.76336 4
      vertex 29.0729 10.8532 4
      vertex 22 16 4
    endloop
  endfacet
  facet normal 1 0 0
    outer loop
      vertex 40 0 4
      vertex 40 0 0
      vertex 40 20 0
    endloop
  endfacet
  facet normal 1 0 0
    outer loop
      vertex 40 16 4
      vertex 40 0 4
      vertex 40 20 0
    endloop
  endfacet
  facet normal 1 0 0
    outer loop
      vertex 40 20 20
      vertex 40 16 4
      vertex 40 20 0
    endloop
  endfacet
  facet normal 1 0 0
    outer loop
      vertex 40 16 20
      vertex 40 16 4
      vertex 40 20 20
    endloop
  endfacet
  facet normal 0.309017 -0.951056 0
    outer loop
      vertex 10.4635 9.42658 0
      vertex 10.4635 9.42658 2
      vertex 8.78647 8.88168 2
    endloop
  endfacet
  facet normal 0.309017 -0.951056 0
    outer loop
      vertex 8.78647 8.88168 0
      vertex 10.4635 9.42658 0
      vertex 8.78647 8.88168 2
    endloop
  endfacet
  facet normal 1 0 0
    outer loop
      vertex 8.78647 8.88168 0
      vertex 8.78647 8.88168 2
      vertex 8.78647 7.11832 2
    endloop
  endfacet
  facet normal 1 0 0
    outer loop
      vertex 8.78647 7.11832 0
      vertex 8.78647 8.88168 0
      vertex 8.78647 7.11832 2
    endloop
  endfacet
  facet normal -0.809017 -0.587785 0
    outer loop
      vertex 11.5 8 2
      vertex 10.4635 9.42658 2
      vertex 11.5 8 0
    endloop
  endfacet
  facet normal -0.809017 -0.587785 0
    outer loop
      vertex 11.5 8 0
      vertex 10.4635 9.42658 2
      vertex 10.4635 9.42658 0
    endloop
  endfacet
  facet normal -0.809017 0.587785 0
    outer loop
      vertex 11.5 8 2
      vertex 11.5 8 0
      vertex 10.4635 6.57341 2
    endloop
  endfacet
  facet normal -0.809017 0.587785 0
    outer loop
      vertex 10.4635 6.57341 2
      vertex 11.5 8 0
      vertex 10.4635 6.57341 0
    endloop
  endfacet
  facet normal 0.309017 0.951056 0
    outer loop
      vertex 10.4635 6.57341 2
      vertex 10.4635 6.57341 0
      vertex 8.78647 7.11832 2
    endloop
  endfacet
  facet normal 0.309017 0.951056 0
    outer loop
      vertex 8.78647 7.11832 2
      vertex 10.4635 6.57341 0
      vertex 8.78647 7.11832 0
    endloop
  endfacet
  facet normal 0.309017 -0.951056 0
    outer loop
      vertex 30.4635 9.42658 0
      vertex 30.4635 9.42658 2
      vertex 28.7865 8.88168 2
    endloop
  endfacet
  facet normal 0.309017 -0.951056 0
    outer loop
      vertex 28.7865 8.88168 0
      vertex 30.4635 9.42658 0
      vertex 28.7865 8.88168 2
    endloop
  endfacet
  facet normal 1 0 0
    outer loop
      vertex 28.7865 8.88168 0
      vertex 28.7865 8.88168 2
      vertex 28.7865 7.11832 2
    endloop
  endfacet
  facet normal 1 0 0
    outer loop
      vertex 28.7865 7.11832 0
      vertex 28.7865 8.88168 0
      vertex 28.7865 7.11832 2
    endloop
  endfacet
  facet normal -0.809017 -0.587785 0
    outer loop
      vertex 31.5 8 2
      vertex 30.4635 9.42658 2
      vertex 31.5 8 0
    endloop
  endfacet
  facet normal -0.809017 -0.587785 0
    outer loop
      vertex 31.5 8 0
      vertex 30.4635 9.42658 2
      vertex 30.4635 9.42658 0
    endloop
  endfacet
  facet normal -0.809017 0.587785 0
    outer loop
      vertex 31.5 8 2
      vertex 31.5 8 0
      vertex 30.4635 6.57341 2
    endloop
  endfacet
  facet normal -0.809017 0.587785 0
    outer loop
      vertex 30.4635 6.57341 2
      vertex 31.5 8 0
      vertex 30.4635 6.57341 0
    endloop
  endfacet
  facet normal 0.309017 0.951056 0
    outer loop
      vertex 30.4635 6.57341 2
      vertex 30.4635 6.57341 0
      vertex 28.7865 7.11832 2
    endloop
  endfacet
  facet normal 0.309017 0.951056 0
    outer loop
      vertex 28.7865 7.11832 2
      vertex 30.4635 6.57341 0
      vertex 28.7865 7.11832 0
    endloop
  endfacet
  facet normal 0.309017 -2.11177e-16 -0.951056
    outer loop
      vertex 10.4635 20 13.4266
      vertex 10.4635 18 13.4266
      vertex 8.78647 20 12.8817
    endloop
  endfacet
  facet normal 0.309017 -2.11177e-16 -0.951056
    outer loop
      vertex 8.78647 20 12.8817
      vertex 10.4635 18 13.4266
      vertex 8.78647 18 12.8817
    endloop
  endfacet
  facet normal 1 0 0
    outer loop
      vertex 8.78647 20 11.1183
      vertex 8.78647 20 12.8817
      vertex 8.78647 18 12.8817
    endloop
  endfacet
  facet normal 1 0 0
    outer loop
      vertex 8.78647 18 11.1183
      vertex 8.78647 20 11.1183
      vertex 8.78647 18 12.8817
    endloop
  endfacet
  facet normal -0.809017 -1.30515e-16 -0.587785
    outer loop
      vertex 11.5 20 12
      vertex 11.5 18 12
      vertex 10.4635 20 13.4266
    endloop
  endfacet
  facet normal -0.809017 -1.30515e-16 -0.587785
    outer loop
      vertex 10.4635 20 13.4266
      vertex 11.5 18 12
      vertex 10.4635 18 13.4266
    endloop
  endfacet
  facet normal -0.809017 1.30515e-16 0.587785
    outer loop
      vertex 11.5 20 12
      vertex 10.4635 20 10.5734
      vertex 11.5 18 12
    endloop
  endfacet
  facet normal -0.809017 1.30515e-16 0.587785
    outer loop
      vertex 11.5 18 12
      vertex 10.4635 20 10.5734
      vertex 10.4635 18 10.5734
    endloop
  endfacet
  facet normal 0.309017 2.11177e-16 0.951056
    outer loop
      vertex 10.4635 18 10.5734
      vertex 10.4635 20 10.5734
      vertex 8.78647 20 11.1183
    endloop
  endfacet
  facet normal 0.309017 2.11177e-16 0.951056
    outer loop
      vertex 8.78647 18 11.1183
      vertex 10.4635 18 10.5734
      vertex 8.78647 20 11.1183
    endloop
  endfacet
  facet normal 0.309017 -2.11177e-16 -0.951056
    outer loop
      vertex 30.4635 20 13.4266
      vertex 30.4635 18 13.4266
      vertex 28.7865 20 12.8817
    endloop
  endfacet
  facet normal 0.309017 -2.11177e-16 -0.951056
    outer loop
      vertex 28.7865 20 12.8817
      vertex 30.4635 18 13.4266
      vertex 28.7865 18 12.8817
    endloop
  endfacet
  facet normal 1 0 0
    outer loop
      vertex 28.7865 20 11.1183
      vertex 28.7865 20 12.8817
      vertex 28.7865 18 12.8817
    endloop
  endfacet
  facet normal 1 0 0
    outer loop
      vertex 28.7865 18 11.1183
      vertex 28.7865 20 11.1183
      vertex 28.7865 18 12.8817
    endloop
  endfacet
  facet normal -0.809017 -1.30515e-16 -0.587785
    outer loop
      vertex 31.5 20 12
      vertex 31.5 18 12
      vertex 30.4635 20 13.4266
    endloop
  endfacet
  facet normal -0.809017 -1.30515e-16 -0.587785
    outer loop
      vertex 30.4635 20 13.4266
      vertex 31.5 18 12
      vertex 30.4635 18 13.4266
    endloop
  endfacet
  facet normal -0.809017 1.30515e-16 0.587785
    outer loop
      vertex 31.5 20 12
      vertex 30.4635 20 10.5734
      vertex 31.5 18 12
    endloop
  endfacet
  facet normal -0.809017 1.30515e-16 0.587785
    outer loop
      vertex 31.5 18 12
      vertex 30.4635 20 10.5734
      vertex 30.4635 18 10.5734
    endloop
  endfacet
  facet normal 0.309017 2.11177e-16 0.951056
    outer loop
      vertex 30.4635 18 10.5734
      vertex 30.4635 20 10.5734
      vertex 28.7865 20 11.1183
    endloop
  endfacet
  facet normal 0.309017 2.11177e-16 0.951056
    outer loop
      vertex 28.7865 18 11.1183
      vertex 30.4635 18 10.5734
      vertex 28.7865 20 11.1183
    endloop
  endfacet
  facet normal 0 -1 0
    outer loop
      vertex 29.0729 16 9.14683
      vertex 22 16 4
      vertex 40 16 4
    endloop
  endfacet
  facet normal 0 -1 0
    outer loop
      vertex 22 16 20
      vertex 22 16 4
      vertex 27.5729 16 10.2366
    endloop
  endfacet
  facet normal 0 -1 0
    outer loop
      vertex 30.9271 16 9.14683
      vertex 29.0729 16 9.14683
      vertex 40 16 4
    endloop
  endfacet
  facet normal 0 -1 0
    outer loop
      vertex 22 16 20
      vertex 27.5729 16 10.2366
      vertex 27 16 12
    endloop
  endfacet
  facet normal 0 -1 0
    outer loop
      vertex 40 16 20
      vertex 33 16 12
      vertex 40 16 4
    endloop
  endfacet
  facet normal 0 -1 0
    outer loop
      vertex 40 16 20
      vertex 22 16 20
      vertex 33 16 12
    endloop
  endfacet
  facet normal 0 -1 0
    outer loop
      vertex 32.4271 16 10.2366
      vertex 30.9271 16 9.14683
      vertex 40 16 4
    endloop
  endfacet
  facet normal 0 -1 0
    outer loop
      vertex 27.5729 16 10.2366
      vertex 22 16 4
      vertex 29.0729 16 9.14683
    endloop
  endfacet
  facet normal 0 -1 0
    outer loop
      vertex 33 16 12
      vertex 32.4271 16 10.2366
      vertex 40 16 4
    endloop
  endfacet
  facet normal 0 -1 0
    outer loop
      vertex 27 16 12
      vertex 33 16 12
      vertex 22 16 20
    endloop
  endfacet
  facet normal 0 -1 0
    outer loop
      vertex 22 15.9123 18.3275
      vertex 22 15.9123 20
      vertex 18 15.9123 20
    endloop
  endfacet
  facet normal 0 -1 0
    outer loop
      vertex 18 15.9123 18.3275
      vertex 22 15.9123 18.3275
      vertex 18 15.9123 20
    endloop
  endfacet
  facet normal 0.478525 -0.580703 0.658633
    outer loop
      vertex 7.57295 16 10.2366
      vertex 9.53647 18 10.5734
      vertex 8.78647 18 11.1183
    endloop
  endfacet
  facet normal 0.77427 -0.580703 0.251576
    outer loop
      vertex 7.57295 16 10.2366
      vertex 8.78647 18 11.1183
      vertex 7 16 12
    endloop
  endfacet
  facet normal 0.478525 -0.580703 0.658633
    outer loop
      vertex 9.07295 16 9.14683
      vertex 9.53647 18 10.5734
      vertex 7.57295 16 10.2366
    endloop
  endfacet
  facet normal 0 -0.580703 0.814116
    outer loop
      vertex 10.9271 16 9.14683
      vertex 10.4635 18 10.5734
      vertex 9.53647 18 10.5734
    endloop
  endfacet
  facet normal 0 -0.580703 0.814116
    outer loop
      vertex 9.07295 16 9.14683
      vertex 10.9271 16 9.14683
      vertex 9.53647 18 10.5734
    endloop
  endfacet
  facet normal -0.478525 -0.580703 0.658633
    outer loop
      vertex 10.4635 18 10.5734
      vertex 10.9271 16 9.14683
      vertex 11.2135 18 11.1183
    endloop
  endfacet
  facet normal -0.478525 -0.580703 0.658633
    outer loop
      vertex 12.4271 16 10.2366
      vertex 11.2135 18 11.1183
      vertex 10.9271 16 9.14683
    endloop
  endfacet
  facet normal -0.77427 -0.580703 0.251576
    outer loop
      vertex 12.4271 16 10.2366
      vertex 11.5 18 12
      vertex 11.2135 18 11.1183
    endloop
  endfacet
  facet normal -0.77427 -0.580703 0.251576
    outer loop
      vertex 12.4271 16 10.2366
      vertex 13 16 12
      vertex 11.5 18 12
    endloop
  endfacet
  facet normal 0 1 -2.22045e-16
    outer loop
      vertex 9.07295 16 14.8532
      vertex 10.9271 16 14.8532
      vertex 7.57295 16 13.7634
    endloop
  endfacet
  facet normal 0 1 -2.22045e-16
    outer loop
      vertex 7.57295 16 13.7634
      vertex 10.9271 16 14.8532
      vertex 12.4271 16 13.7634
    endloop
  endfacet
  facet normal 0 1 -2.22045e-16
    outer loop
      vertex 7.57295 16 13.7634
      vertex 12.4271 16 13.7634
      vertex 13 16 12
    endloop
  endfacet
  facet normal 0 1 -2.22045e-16
    outer loop
      vertex 7.57295 16 13.7634
      vertex 13 16 12
      vertex 7 16 12
    endloop
  endfacet
  facet normal -0.77427 -0.580703 -0.251576
    outer loop
      vertex 11.5 18 12
      vertex 13 16 12
      vertex 11.2135 18 12.8817
    endloop
  endfacet
  facet normal -0.77427 -0.580703 -0.251576
    outer loop
      vertex 13 16 12
      vertex 12.4271 16 13.7634
      vertex 11.2135 18 12.8817
    endloop
  endfacet
  facet normal 0.77427 -0.580703 -0.251576
    outer loop
      vertex 8.5 18 12
      vertex 7.57295 16 13.7634
      vertex 7 16 12
    endloop
  endfacet
  facet normal 0.77427 -0.580703 0.251576
    outer loop
      vertex 8.78647 18 11.1183
      vertex 8.5 18 12
      vertex 7 16 12
    endloop
  endfacet
  facet normal 0.77427 0.251576 0.580703
    outer loop
      vertex 7.57295 6.23664 4
      vertex 8.78647 7.11832 2
      vertex 7 8 4
    endloop
  endfacet
  facet normal 0.478525 0.658633 0.580703
    outer loop
      vertex 9.53647 6.57341 2
      vertex 8.78647 7.11832 2
      vertex 7.57295 6.23664 4
    endloop
  endfacet
  facet normal 0.478525 0.658633 0.580703
    outer loop
      vertex 9.07295 5.14683 4
      vertex 9.53647 6.57341 2
      vertex 7.57295 6.23664 4
    endloop
  endfacet
  facet normal 0 0.814116 0.580703
    outer loop
      vertex 10.4635 6.57341 2
      vertex 9.53647 6.57341 2
      vertex 10.9271 5.14683 4
    endloop
  endfacet
  facet normal 0 0.814116 0.580703
    outer loop
      vertex 10.9271 5.14683 4
      vertex 9.53647 6.57341 2
      vertex 9.07295 5.14683 4
    endloop
  endfacet
  facet normal -0.478525 0.658633 0.580703
    outer loop
      vertex 10.9271 5.14683 4
      vertex 11.2135 7.11832 2
      vertex 10.4635 6.57341 2
    endloop
  endfacet
  facet normal -0.478525 0.658633 0.580703
    outer loop
      vertex 12.4271 6.23664 4
      vertex 11.2135 7.11832 2
      vertex 10.9271 5.14683 4
    endloop
  endfacet
  facet normal -0.77427 0.251576 0.580703
    outer loop
      vertex 12.4271 6.23664 4
      vertex 11.5 8 2
      vertex 11.2135 7.11832 2
    endloop
  endfacet
  facet normal -0.77427 0.251576 0.580703
    outer loop
      vertex 12.4271 6.23664 4
      vertex 13 8 4
      vertex 11.5 8 2
    endloop
  endfacet
  facet normal -0.77427 -0.251576 0.580703
    outer loop
      vertex 11.5 8 2
      vertex 13 8 4
      vertex 11.2135 8.88168 2
    endloop
  endfacet
  facet normal -0.77427 -0.251576 0.580703
    outer loop
      vertex 13 8 4
      vertex 12.4271 9.76336 4
      vertex 11.2135 8.88168 2
    endloop
  endfacet
  facet normal -0.478525 -0.658633 0.580703
    outer loop
      vertex 11.2135 8.88168 2
      vertex 12.4271 9.76336 4
      vertex 10.4635 9.42658 2
    endloop
  endfacet
  facet normal -0.478525 -0.658633 0.580703
    outer loop
      vertex 12.4271 9.76336 4
      vertex 10.9271 10.8532 4
      vertex 10.4635 9.42658 2
    endloop
  endfacet
  facet normal 0 -0.814116 0.580703
    outer loop
      vertex 9.53647 9.42658 2
      vertex 10.4635 9.42658 2
      vertex 10.9271 10.8532 4
    endloop
  endfacet
  facet normal 0 -0.814116 0.580703
    outer loop
      vertex 9.07295 10.8532 4
      vertex 9.53647 9.42658 2
      vertex 10.9271 10.8532 4
    endloop
  endfacet
  facet normal 0.478525 -0.658633 0.580703
    outer loop
      vertex 9.53647 9.42658 2
      vertex 9.07295 10.8532 4
      vertex 8.78647 8.88168 2
    endloop
  endfacet
  facet normal 0.478525 -0.658633 0.580703
    outer loop
      vertex 8.78647 8.88168 2
      vertex 9.07295 10.8532 4
      vertex 7.57295 9.76336 4
    endloop
  endfacet
  facet normal 0.77427 -0.251576 0.580703
    outer loop
      vertex 8.5 8 2
      vertex 8.78647 8.88168 2
      vertex 7.57295 9.76336 4
    endloop
  endfacet
  facet normal 0.77427 -0.251576 0.580703
    outer loop
      vertex 8.5 8 2
      vertex 7.57295 9.76336 4
      vertex 7 8 4
    endloop
  endfacet
  facet normal 0.77427 0.251576 0.580703
    outer loop
      vertex 8.78647 7.11832 2
      vertex 8.5 8 2
      vertex 7 8 4
    endloop
  endfacet
  facet normal -4.61657e-17 -0.978148 0.207912
    outer loop
      vertex 22 15.2169 15.0557
      vertex 22 15.9123 18.3275
      vertex 18 15.9123 18.3275
    endloop
  endfacet
  facet normal -4.61657e-17 -0.978148 0.207912
    outer loop
      vertex 18 15.2169 15.0557
      vertex 22 15.2169 15.0557
      vertex 18 15.9123 18.3275
    endloop
  endfacet
  facet normal -9.03137e-17 -0.913545 0.406737
    outer loop
      vertex 22 13.8564 12
      vertex 22 15.2169 15.0557
      vertex 18 15.2169 15.0557
    endloop
  endfacet
  facet normal -9.03137e-17 -0.913545 0.406737
    outer loop
      vertex 18 13.8564 12
      vertex 22 13.8564 12
      vertex 18 15.2169 15.0557
    endloop
  endfacet
  facet normal -1.30515e-16 -0.809017 0.587785
    outer loop
      vertex 22 11.8903 9.29391
      vertex 22 13.8564 12
      vertex 18 13.8564 12
    endloop
  endfacet
  facet normal -1.30515e-16 -0.809017 0.587785
    outer loop
      vertex 18 11.8903 9.29391
      vertex 22 11.8903 9.29391
      vertex 18 13.8564 12
    endloop
  endfacet
  facet normal -1.65011e-16 -0.669131 0.743145
    outer loop
      vertex 22 9.40456 7.05573
      vertex 22 11.8903 9.29391
      vertex 18 11.8903 9.29391
    endloop
  endfacet
  facet normal -1.65011e-16 -0.669131 0.743145
    outer loop
      vertex 18 9.40456 7.05573
      vertex 22 9.40456 7.05573
      vertex 18 11.8903 9.29391
    endloop
  endfacet
  facet normal -1.92296e-16 -0.5 0.866025
    outer loop
      vertex 22 6.50779 5.38327
      vertex 22 9.40456 7.05573
      vertex 18 9.40456 7.05573
    endloop
  endfacet
  facet normal -1.92296e-16 -0.5 0.866025
    outer loop
      vertex 18 6.50779 5.38327
      vertex 22 6.50779 5.38327
      vertex 18 9.40456 7.05573
    endloop
  endfacet
  facet normal -2.11177e-16 -0.309017 0.951056
    outer loop
      vertex 22 3.32659 4.34964
      vertex 22 6.50779 5.38327
      vertex 18 6.50779 5.38327
    endloop
  endfacet
  facet normal -2.11177e-16 -0.309017 0.951056
    outer loop
      vertex 18 3.32659 4.34964
      vertex 22 3.32659 4.34964
      vertex 18 6.50779 5.38327
    endloop
  endfacet
  facet normal 0.77427 0.251576 0.580703
    outer loop
      vertex 27.5729 6.23664 4
      vertex 28.7865 7.11832 2
      vertex 27 8 4
    endloop
  endfacet
  facet normal 0.478525 0.658633 0.580703
    outer loop
      vertex 29.5365 6.57341 2
      vertex 28.7865 7.11832 2
      vertex 27.5729 6.23664 4
    endloop
  endfacet
  facet normal 0.478525 0.658633 0.580703
    outer loop
      vertex 29.0729 5.14683 4
      vertex 29.5365 6.57341 2
      vertex 27.5729 6.23664 4
    endloop
  endfacet
  facet normal 0 0.814116 0.580703
    outer loop
      vertex 30.4635 6.57341 2
      vertex 29.5365 6.57341 2
      vertex 30.9271 5.14683 4
    endloop
  endfacet
  facet normal 0 0.814116 0.580703
    outer loop
      vertex 30.9271 5.14683 4
      vertex 29.5365 6.57341 2
      vertex 29.0729 5.14683 4
    endloop
  endfacet
  facet normal -0.478525 0.658633 0.580703
    outer loop
      vertex 30.9271 5.14683 4
      vertex 31.2135 7.11832 2
      vertex 30.4635 6.57341 2
    endloop
  endfacet
  facet normal -0.478525 0.658633 0.580703
    outer loop
      vertex 32.4271 6.23664 4
      vertex 31.2135 7.11832 2
      vertex 30.9271 5.14683 4
    endloop
  endfacet
  facet normal -0.77427 0.251576 0.580703
    outer loop
      vertex 32.4271 6.23664 4
      vertex 31.5 8 2
      vertex 31.2135 7.11832 2
    endloop
  endfacet
  facet normal -0.77427 0.251576 0.580703
    outer loop
      vertex 32.4271 6.23664 4
      vertex 33 8 4
      vertex 31.5 8 2
    endloop
  endfacet
  facet normal -0.77427 -0.251576 0.580703
    outer loop
      vertex 31.5 8 2
      vertex 33 8 4
      vertex 31.2135 8.88168 2
    endloop
  endfacet
  facet normal -0.77427 -0.251576 0.580703
    outer loop
      vertex 33 8 4
      vertex 32.4271 9.76336 4
      vertex 31.2135 8.88168 2
    endloop
  endfacet
  facet normal -0.478525 -0.658633 0.580703
    outer loop
      vertex 31.2135 8.88168 2
      vertex 32.4271 9.76336 4
      vertex 30.4635 9.42658 2
    endloop
  endfacet
  facet normal -0.478525 -0.658633 0.580703
    outer loop
      vertex 32.4271 9.76336 4
      vertex 30.9271 10.8532 4
      vertex 30.4635 9.42658 2
    endloop
  endfacet
  facet normal 0 -0.814116 0.580703
    outer loop
      vertex 29.5365 9.42658 2
      vertex 30.4635 9.42658 2
      vertex 30.9271 10.8532 4
    endloop
  endfacet
  facet normal 0 -0.814116 0.580703
    outer loop
      vertex 29.0729 10.8532 4
      vertex 29.5365 9.42658 2
      vertex 30.9271 10.8532 4
    endloop
  endfacet
  facet normal 0.478525 -0.658633 0.580703
    outer loop
      vertex 29.5365 9.42658 2
      vertex 29.0729 10.8532 4
      vertex 28.7865 8.88168 2
    endloop
  endfacet
  facet normal 0.478525 -0.658633 0.580703
    outer loop
      vertex 28.7865 8.88168 2
      vertex 29.0729 10.8532 4
      vertex 27.5729 9.76336 4
    endloop
  endfacet
  facet normal 0.77427 -0.251576 0.580703
    outer loop
      vertex 28.5 8 2
      vertex 28.7865 8.88168 2
      vertex 27.5729 9.76336 4
    endloop
  endfacet
  facet normal 0.77427 -0.251576 0.580703
    outer loop
      vertex 28.5 8 2
      vertex 27.5729 9.76336 4
      vertex 27 8 4
    endloop
  endfacet
  facet normal 0.77427 0.251576 0.580703
    outer loop
      vertex 28.7865 7.11832 2
      vertex 28.5 8 2
      vertex 27 8 4
    endloop
  endfacet
  facet normal 0 0 1
    outer loop
      vertex 8.78647 7.11832 2
      vertex 8.78647 8.88168 2
      vertex 8.5 8 2
    endloop
  endfacet
  facet normal 0 0 1
    outer loop
      vertex 10.4635 9.42658 2
      vertex 9.53647 9.42658 2
      vertex 8.78647 8.88168 2
    endloop
  endfacet
  facet normal 0 0 1
    outer loop
      vertex 11.5 8 2
      vertex 11.2135 8.88168 2
      vertex 10.4635 9.42658 2
    endloop
  endfacet
  facet normal 0 0 1
    outer loop
      vertex 9.53647 6.57341 2
      vertex 10.4635 6.57341 2
      vertex 8.78647 7.11832 2
    endloop
  endfacet
  facet normal 0 0 1
    outer loop
      vertex 11.2135 7.11832 2
      vertex 11.5 8 2
      vertex 10.4635 6.57341 2
    endloop
  endfacet
  facet normal 0 0 1
    outer loop
      vertex 28.7865 7.11832 2
      vertex 28.7865 8.88168 2
      vertex 28.5 8 2
    endloop
  endfacet
  facet normal 0 0 1
    outer loop
      vertex 30.4635 9.42658 2
      vertex 29.5365 9.42658 2
      vertex 28.7865 8.88168 2
    endloop
  endfacet
  facet normal 0 0 1
    outer loop
      vertex 31.5 8 2
      vertex 31.2135 8.88168 2
      vertex 30.4635 9.42658 2
    endloop
  endfacet
  facet normal 0 0 1
    outer loop
      vertex 29.5365 6.57341 2
      vertex 30.4635 6.57341 2
      vertex 28.7865 7.11832 2
    endloop
  endfacet
  facet normal 0 0 1
    outer loop
      vertex 31.2135 7.11832 2
      vertex 31.5 8 2
      vertex 30.4635 6.57341 2
    endloop
  endfacet
  facet normal 0 -1 2.22045e-16
    outer loop
      vertex 8.78647 18 11.1183
      vertex 8.78647 18 12.8817
      vertex 8.5 18 12
    endloop
  endfacet
  facet normal 0.77427 -0.580703 -0.251576
    outer loop
      vertex 8.5 18 12
      vertex 8.78647 18 12.8817
      vertex 7.57295 16 13.7634
    endloop
  endfacet
  facet normal 0.478525 -0.580703 -0.658633
    outer loop
      vertex 8.78647 18 12.8817
      vertex 9.07295 16 14.8532
      vertex 7.57295 16 13.7634
    endloop
  endfacet
  facet normal 0.478525 -0.580703 -0.658633
    outer loop
      vertex 9.53647 18 13.4266
      vertex 9.07295 16 14.8532
      vertex 8.78647 18 12.8817
    endloop
  endfacet
  facet normal 0 -1 2.22045e-16
    outer loop
      vertex 10.4635 18 13.4266
      vertex 9.53647 18 13.4266
      vertex 8.78647 18 12.8817
    endloop
  endfacet
  facet normal 0 -0.580703 -0.814116
    outer loop
      vertex 10.4635 18 13.4266
      vertex 10.9271 16 14.8532
      vertex 9.53647 18 13.4266
    endloop
  endfacet
  facet normal 0 -0.580703 -0.814116
    outer loop
      vertex 9.53647 18 13.4266
      vertex 10.9271 16 14.8532
      vertex 9.07295 16 14.8532
    endloop
  endfacet
  facet normal -0.478525 -0.580703 -0.658633
    outer loop
      vertex 12.4271 16 13.7634
      vertex 10.9271 16 14.8532
      vertex 10.4635 18 13.4266
    endloop
  endfacet
  facet normal -0.478525 -0.580703 -0.658633
    outer loop
      vertex 11.2135 18 12.8817
      vertex 12.4271 16 13.7634
      vertex 10.4635 18 13.4266
    endloop
  endfacet
  facet normal 0 -1 2.22045e-16
    outer loop
      vertex 11.5 18 12
      vertex 11.2135 18 12.8817
      vertex 10.4635 18 13.4266
    endloop
  endfacet
  facet normal 0 -1 2.22045e-16
    outer loop
      vertex 9.53647 18 10.5734
      vertex 10.4635 18 10.5734
      vertex 8.78647 18 11.1183
    endloop
  endfacet
  facet normal 0 -1 2.22045e-16
    outer loop
      vertex 11.2135 18 11.1183
      vertex 11.5 18 12
      vertex 10.4635 18 10.5734
    endloop
  endfacet
  facet normal 0 -1 2.22045e-16
    outer loop
      vertex 28.7865 18 11.1183
      vertex 28.7865 18 12.8817
      vertex 28.5 18 12
    endloop
  endfacet
  facet normal 0.77427 -0.580703 -0.251576
    outer loop
      vertex 28.5 18 12
      vertex 28.7865 18 12.8817
      vertex 27.5729 16 13.7634
    endloop
  endfacet
  facet normal 0.478525 -0.580703 -0.658633
    outer loop
      vertex 28.7865 18 12.8817
      vertex 29.0729 16 14.8532
      vertex 27.5729 16 13.7634
    endloop
  endfacet
  facet normal 0.478525 -0.580703 -0.658633
    outer loop
      vertex 29.5365 18 13.4266
      vertex 29.0729 16 14.8532
      vertex 28.7865 18 12.8817
    endloop
  endfacet
  facet normal 0 -1 2.22045e-16
    outer loop
      vertex 30.4635 18 13.4266
      vertex 29.5365 18 13.4266
      vertex 28.7865 18 12.8817
    endloop
  endfacet
  facet normal 0 -0.580703 -0.814116
    outer loop
      vertex 30.4635 18 13.4266
      vertex 30.9271 16 14.8532
      vertex 29.5365 18 13.4266
    endloop
  endfacet
  facet normal 0 -0.580703 -0.814116
    outer loop
      vertex 29.5365 18 13.4266
      vertex 30.9271 16 14.8532
      vertex 29.0729 16 14.8532
    endloop
  endfacet
  facet normal -0.478525 -0.580703 -0.658633
    outer loop
      vertex 32.4271 16 13.7634
      vertex 30.9271 16 14.8532
      vertex 30.4635 18 13.4266
    endloop
  endfacet
  facet normal -0.478525 -0.580703 -0.658633
    outer loop
      vertex 31.2135 18 12.8817
      vertex 32.4271 16 13.7634
      vertex 30.4635 18 13.4266
    endloop
  endfacet
  facet normal 0 -1 2.22045e-16
    outer loop
      vertex 31.5 18 12
      vertex 31.2135 18 12.8817
      vertex 30.4635 18 13.4266
    endloop
  endfacet
  facet normal 0 -1 2.22045e-16
    outer loop
      vertex 29.5365 18 10.5734
      vertex 30.4635 18 10.5734
      vertex 28.7865 18 11.1183
    endloop
  endfacet
  facet normal 0.478525 -0.580703 0.658633
    outer loop
      vertex 27.5729 16 10.2366
      vertex 29.5365 18 10.5734
      vertex 28.7865 18 11.1183
    endloop
  endfacet
  facet normal 0.77427 -0.580703 0.251576
    outer loop
      vertex 27.5729 16 10.2366
      vertex 28.7865 18 11.1183
      vertex 27 16 12
    endloop
  endfacet
  facet normal 0.77427 -0.580703 0.251576
    outer loop
      vertex 28.7865 18 11.1183
      vertex 28.5 18 12
      vertex 27 16 12
    endloop
  endfacet
  facet normal 0 -1 2.22045e-16
    outer loop
      vertex 31.2135 18 11.1183
      vertex 31.5 18 12
      vertex 30.4635 18 10.5734
    endloop
  endfacet
  facet normal -0.77427 -0.580703 -0.251576
    outer loop
      vertex 31.5 18 12
      vertex 33 16 12
      vertex 31.2135 18 12.8817
    endloop
  endfacet
  facet normal -0.77427 -0.580703 0.251576
    outer loop
      vertex 32.4271 16 10.2366
      vertex 33 16 12
      vertex 31.5 18 12
    endloop
  endfacet
  facet normal -0.77427 -0.580703 0.251576
    outer loop
      vertex 32.4271 16 10.2366
      vertex 31.5 18 12
      vertex 31.2135 18 11.1183
    endloop
  endfacet
  facet normal -0.478525 -0.580703 0.658633
    outer loop
      vertex 30.4635 18 10.5734
      vertex 30.9271 16 9.14683
      vertex 31.2135 18 11.1183
    endloop
  endfacet
  facet normal 0 -0.580703 0.814116
    outer loop
      vertex 30.9271 16 9.14683
      vertex 30.4635 18 10.5734
      vertex 29.5365 18 10.5734
    endloop
  endfacet
  facet normal 0 -0.580703 0.814116
    outer loop
      vertex 29.0729 16 9.14683
      vertex 30.9271 16 9.14683
      vertex 29.5365 18 10.5734
    endloop
  endfacet
  facet normal 0.478525 -0.580703 0.658633
    outer loop
      vertex 29.0729 16 9.14683
      vertex 29.5365 18 10.5734
      vertex 27.5729 16 10.2366
    endloop
  endfacet
  facet normal -0.478525 -0.580703 0.658633
    outer loop
      vertex 32.4271 16 10.2366
      vertex 31.2135 18 11.1183
      vertex 30.9271 16 9.14683
    endloop
  endfacet
  facet normal 0 1 -2.22045e-16
    outer loop
      vertex 29.0729 16 14.8532
      vertex 30.9271 16 14.8532
      vertex 27.5729 16 13.7634
    endloop
  endfacet
  facet normal 0 1 -2.22045e-16
    outer loop
      vertex 27.5729 16 13.7634
      vertex 30.9271 16 14.8532
      vertex 32.4271 16 13.7634
    endloop
  endfacet
  facet normal 0 1 -2.22045e-16
    outer loop
      vertex 27.5729 16 13.7634
      vertex 32.4271 16 13.7634
      vertex 33 16 12
    endloop
  endfacet
  facet normal 0 1 -2.22045e-16
    outer loop
      vertex 27.5729 16 13.7634
      vertex 33 16 12
      vertex 27 16 12
    endloop
  endfacet
  facet normal -0.77427 -0.580703 -0.251576
    outer loop
      vertex 33 16 12
      vertex 32.4271 16 13.7634
      vertex 31.2135 18 12.8817
    endloop
  endfacet
  facet normal 0.77427 -0.580703 -0.251576
    outer loop
      vertex 28.5 18 12
      vertex 27.5729 16 13.7634
      vertex 27 16 12
    endloop
  endfacet
endsolid OpenSCAD_Model
