solid OpenSCAD_Model
  facet normal -2.22045e-16 -1 0
    outer loop
      vertex -30 -6.75 13.5
      vertex -30 -6.75 0
      vertex -11.648 -6.75 0
    endloop
  endfacet
  facet normal -2.22045e-16 -1 0
    outer loop
      vertex -11.648 -6.75 13.5
      vertex -30 -6.75 13.5
      vertex -11.648 -6.75 0
    endloop
  endfacet
  facet normal 0 0 -1
    outer loop
      vertex -30 -6.75 0
      vertex -30 6.75 0
      vertex -11.648 -6.75 0
    endloop
  endfacet
  facet normal 0 0 -1
    outer loop
      vertex -11.648 -6.75 0
      vertex -30 6.75 0
      vertex -11.648 6.75 0
    endloop
  endfacet
  facet normal 0 0 -1
    outer loop
      vertex -11.648 -6.75 0
      vertex -11.648 6.75 0
      vertex -10.9217 7.9351 0
    endloop
  endfacet
  facet normal 0 0 -1
    outer loop
      vertex -11.648 -6.75 0
      vertex -10.9217 7.9351 0
      vertex -9.54594 9.54594 0
    endloop
  endfacet
  facet normal 0 0 -1
    outer loop
      vertex -11.648 -6.75 0
      vertex -9.54594 9.54594 0
      vertex -7.9351 10.9217 0
    endloop
  endfacet
  facet normal 0 0 -1
    outer loop
      vertex -11.648 -6.75 0
      vertex -7.9351 10.9217 0
      vertex -6.75 11.648 0
    endloop
  endfacet
  facet normal 0 0 -1
    outer loop
      vertex -6.75 11.648 0
      vertex -6.75 30 0
      vertex 6.75 30 0
    endloop
  endfacet
  facet normal 0 0 -1
    outer loop
      vertex -6.75 11.648 0
      vertex 6.75 30 0
      vertex -11.648 -6.75 0
    endloop
  endfacet
  facet normal 0 0 -1
    outer loop
      vertex -11.648 -6.75 0
      vertex 6.75 30 0
      vertex 6.75 11.648 0
    endloop
  endfacet
  facet normal 0 0 -1
    outer loop
      vertex -11.648 -6.75 0
      vertex 6.75 11.648 0
      vertex 7.9351 10.9217 0
    endloop
  endfacet
  facet normal 0 0 -1
    outer loop
      vertex -11.648 -6.75 0
      vertex 7.9351 10.9217 0
      vertex 9.54594 9.54594 0
    endloop
  endfacet
  facet normal 0 0 -1
    outer loop
      vertex -11.648 -6.75 0
      vertex 9.54594 9.54594 0
      vertex 10.9217 7.9351 0
    endloop
  endfacet
  facet normal 0 0 -1
    outer loop
      vertex -11.648 -6.75 0
      vertex 10.9217 7.9351 0
      vertex 11.648 6.75 0
    endloop
  endfacet
  facet normal 0 0 -1
    outer loop
      vertex 11.648 6.75 0
      vertex 30 6.75 0
      vertex -11.648 -6.75 0
    endloop
  endfacet
  facet normal 0 0 -1
    outer loop
      vertex 11.648 -6.75 0
      vertex 30 6.75 0
      vertex 30 -6.75 0
    endloop
  endfacet
  facet normal 0 0 -1
    outer loop
      vertex -11.648 -6.75 0
      vertex 30 6.75 0
      vertex 11.648 -6.75 0
    endloop
  endfacet
  facet normal 0 0 -1
    outer loop
      vertex -6.75 -11.648 0
      vertex 6.75 -30 0
      vertex -6.75 -30 0
    endloop
  endfacet
  facet normal 0 0 -1
    outer loop
      vertex 11.648 -6.75 0
      vertex 10.9217 -7.9351 0
      vertex -11.648 -6.75 0
    endloop
  endfacet
  facet normal 0 0 -1
    outer loop
      vertex -10.9217 -7.9351 0
      vertex 9.54594 -9.54594 0
      vertex 7.9351 -10.9217 0
    endloop
  endfacet
  facet normal 0 0 -1
    outer loop
      vertex -10.9217 -7.9351 0
      vertex 7.9351 -10.9217 0
      vertex 6.75 -11.648 0
    endloop
  endfacet
  facet normal 0 0 -1
    outer loop
      vertex 6.75 -11.648 0
      vertex 6.75 -30 0
      vertex -6.75 -11.648 0
    endloop
  endfacet
  facet normal 0 0 -1
    outer loop
      vertex 6.75 -11.648 0
      vertex -6.75 -11.648 0
      vertex -7.9351 -10.9217 0
    endloop
  endfacet
  facet normal 0 0 -1
    outer loop
      vertex 6.75 -11.648 0
      vertex -7.9351 -10.9217 0
      vertex -9.54594 -9.54594 0
    endloop
  endfacet
  facet normal 0 0 -1
    outer loop
      vertex 10.9217 -7.9351 0
      vertex 9.54594 -9.54594 0
      vertex -10.9217 -7.9351 0
    endloop
  endfacet
  facet normal 0 0 -1
    outer loop
      vertex -11.648 -6.75 0
      vertex 10.9217 -7.9351 0
      vertex -10.9217 -7.9351 0
    endloop
  endfacet
  facet normal 0 0 -1
    outer loop
      vertex -10.9217 -7.9351 0
      vertex 6.75 -11.648 0
      vertex -9.54594 -9.54594 0
    endloop
  endfacet
  facet normal -1 2.22045e-16 0
    outer loop
      vertex -30 -6.75 0
      vertex -30 -6.75 13.5
      vertex -30 6.75 0
    endloop
  endfacet
  facet normal -1 2.22045e-16 0
    outer loop
      vertex -30 6.75 0
      vertex -30 -6.75 13.5
      vertex -30 6.75 13.5
    endloop
  endfacet
  facet normal 0 0 1
    outer loop
      vertex -30 6.75 13.5
      vertex -30 -6.75 13.5
      vertex -11.648 -6.75 13.5
    endloop
  endfacet
  facet normal 0 0 1
    outer loop
      vertex -12.8393 -4.17173 13.5
      vertex -30 6.75 13.5
      vertex -12.0286 -6.12887 13.5
    endloop
  endfacet
  facet normal 0 0 1
    outer loop
      vertex -12.0286 -6.12887 13.5
      vertex -30 6.75 13.5
      vertex -11.648 -6.75 13.5
    endloop
  endfacet
  facet normal 0 0 1
    outer loop
      vertex -13.3338 -2.11186 13.5
      vertex -30 6.75 13.5
      vertex -12.8393 -4.17173 13.5
    endloop
  endfacet
  facet normal 0 0 1
    outer loop
      vertex -13.5 0 13.5
      vertex -30 6.75 13.5
      vertex -13.3338 -2.11186 13.5
    endloop
  endfacet
  facet normal 0 0 1
    outer loop
      vertex -13.3338 2.11186 13.5
      vertex -30 6.75 13.5
      vertex -13.5 0 13.5
    endloop
  endfacet
  facet normal 0 0 1
    outer loop
      vertex -12.8393 4.17173 13.5
      vertex -30 6.75 13.5
      vertex -13.3338 2.11186 13.5
    endloop
  endfacet
  facet normal 0 0 1
    outer loop
      vertex -12.0286 6.12887 13.5
      vertex -30 6.75 13.5
      vertex -12.8393 4.17173 13.5
    endloop
  endfacet
  facet normal 0 0 1
    outer loop
      vertex -11.648 6.75 13.5
      vertex -30 6.75 13.5
      vertex -12.0286 6.12887 13.5
    endloop
  endfacet
  facet normal -0.85264 -0.522499 0
    outer loop
      vertex -12.0286 -6.12887 13.5
      vertex -11.648 -6.75 13.5
      vertex -12.0286 -6.12887 120
    endloop
  endfacet
  facet normal -0.85264 -0.522499 0
    outer loop
      vertex -10.9217 -7.9351 0
      vertex -11.648 -6.75 13.5
      vertex -11.648 -6.75 0
    endloop
  endfacet
  facet normal -0.85264 -0.522499 0
    outer loop
      vertex -12.0286 -6.12887 120
      vertex -11.648 -6.75 13.5
      vertex -10.9217 -7.9351 0
    endloop
  endfacet
  facet normal -0.85264 -0.522499 0
    outer loop
      vertex -12.0286 -6.12887 120
      vertex -10.9217 -7.9351 0
      vertex -10.9217 -7.9351 120
    endloop
  endfacet
  facet normal -0.760406 -0.649448 0
    outer loop
      vertex -10.9217 -7.9351 0
      vertex -9.54594 -9.54594 0
      vertex -10.9217 -7.9351 120
    endloop
  endfacet
  facet normal -0.760406 -0.649448 0
    outer loop
      vertex -10.9217 -7.9351 120
      vertex -9.54594 -9.54594 0
      vertex -9.54594 -9.54594 120
    endloop
  endfacet
  facet normal -0.649448 -0.760406 0
    outer loop
      vertex -9.54594 -9.54594 120
      vertex -9.54594 -9.54594 0
      vertex -7.9351 -10.9217 0
    endloop
  endfacet
  facet normal -0.649448 -0.760406 0
    outer loop
      vertex -7.9351 -10.9217 120
      vertex -9.54594 -9.54594 120
      vertex -7.9351 -10.9217 0
    endloop
  endfacet
  facet normal -0.522499 -0.85264 0
    outer loop
      vertex -7.9351 -10.9217 120
      vertex -7.9351 -10.9217 0
      vertex -6.75 -11.648 0
    endloop
  endfacet
  facet normal -0.522499 -0.85264 0
    outer loop
      vertex -6.12887 -12.0286 13.5
      vertex -7.9351 -10.9217 120
      vertex -6.75 -11.648 13.5
    endloop
  endfacet
  facet normal -0.522499 -0.85264 0
    outer loop
      vertex -6.75 -11.648 13.5
      vertex -7.9351 -10.9217 120
      vertex -6.75 -11.648 0
    endloop
  endfacet
  facet normal -0.522499 -0.85264 0
    outer loop
      vertex -6.12887 -12.0286 120
      vertex -7.9351 -10.9217 120
      vertex -6.12887 -12.0286 13.5
    endloop
  endfacet
  facet normal -1 0 0
    outer loop
      vertex -6.75 -30 0
      vertex -6.75 -30 13.5
      vertex -6.75 -11.648 0
    endloop
  endfacet
  facet normal -1 0 0
    outer loop
      vertex -6.75 -11.648 0
      vertex -6.75 -30 13.5
      vertex -6.75 -11.648 13.5
    endloop
  endfacet
  facet normal 0 -1 0
    outer loop
      vertex -6.75 -30 13.5
      vertex -6.75 -30 0
      vertex 6.75 -30 0
    endloop
  endfacet
  facet normal 0 -1 0
    outer loop
      vertex 6.75 -30 13.5
      vertex -6.75 -30 13.5
      vertex 6.75 -30 0
    endloop
  endfacet
  facet normal 1 0 0
    outer loop
      vertex 6.75 -30 13.5
      vertex 6.75 -30 0
      vertex 6.75 -11.648 0
    endloop
  endfacet
  facet normal 1 0 0
    outer loop
      vertex 6.75 -11.648 13.5
      vertex 6.75 -30 13.5
      vertex 6.75 -11.648 0
    endloop
  endfacet
  facet normal 0.522499 -0.85264 0
    outer loop
      vertex 6.12887 -12.0286 120
      vertex 6.12887 -12.0286 13.5
      vertex 6.75 -11.648 13.5
    endloop
  endfacet
  facet normal 0.522499 -0.85264 0
    outer loop
      vertex 7.9351 -10.9217 0
      vertex 6.12887 -12.0286 120
      vertex 6.75 -11.648 13.5
    endloop
  endfacet
  facet normal 0.522499 -0.85264 0
    outer loop
      vertex 6.75 -11.648 0
      vertex 7.9351 -10.9217 0
      vertex 6.75 -11.648 13.5
    endloop
  endfacet
  facet normal 0.522499 -0.85264 0
    outer loop
      vertex 7.9351 -10.9217 0
      vertex 7.9351 -10.9217 120
      vertex 6.12887 -12.0286 120
    endloop
  endfacet
  facet normal 0.649448 -0.760406 0
    outer loop
      vertex 7.9351 -10.9217 120
      vertex 7.9351 -10.9217 0
      vertex 9.54594 -9.54594 0
    endloop
  endfacet
  facet normal 0.649448 -0.760406 0
    outer loop
      vertex 9.54594 -9.54594 120
      vertex 7.9351 -10.9217 120
      vertex 9.54594 -9.54594 0
    endloop
  endfacet
  facet normal 0.760406 -0.649448 0
    outer loop
      vertex 9.54594 -9.54594 120
      vertex 9.54594 -9.54594 0
      vertex 10.9217 -7.9351 0
    endloop
  endfacet
  facet normal 0.760406 -0.649448 0
    outer loop
      vertex 10.9217 -7.9351 120
      vertex 9.54594 -9.54594 120
      vertex 10.9217 -7.9351 0
    endloop
  endfacet
  facet normal 0.85264 -0.522499 0
    outer loop
      vertex 10.9217 -7.9351 120
      vertex 10.9217 -7.9351 0
      vertex 11.648 -6.75 0
    endloop
  endfacet
  facet normal 0.85264 -0.522499 0
    outer loop
      vertex 12.0286 -6.12887 13.5
      vertex 10.9217 -7.9351 120
      vertex 11.648 -6.75 13.5
    endloop
  endfacet
  facet normal 0.85264 -0.522499 0
    outer loop
      vertex 11.648 -6.75 13.5
      vertex 10.9217 -7.9351 120
      vertex 11.648 -6.75 0
    endloop
  endfacet
  facet normal 0.85264 -0.522499 0
    outer loop
      vertex 12.0286 -6.12887 120
      vertex 10.9217 -7.9351 120
      vertex 12.0286 -6.12887 13.5
    endloop
  endfacet
  facet normal -2.22045e-16 -1 0
    outer loop
      vertex 11.648 -6.75 13.5
      vertex 11.648 -6.75 0
      vertex 30 -6.75 0
    endloop
  endfacet
  facet normal -2.22045e-16 -1 0
    outer loop
      vertex 30 -6.75 13.5
      vertex 11.648 -6.75 13.5
      vertex 30 -6.75 0
    endloop
  endfacet
  facet normal 1 -2.22045e-16 0
    outer loop
      vertex 30 -6.75 13.5
      vertex 30 -6.75 0
      vertex 30 6.75 0
    endloop
  endfacet
  facet normal 1 -2.22045e-16 0
    outer loop
      vertex 30 6.75 13.5
      vertex 30 -6.75 13.5
      vertex 30 6.75 0
    endloop
  endfacet
  facet normal 2.22045e-16 1 0
    outer loop
      vertex 11.648 6.75 0
      vertex 11.648 6.75 13.5
      vertex 30 6.75 0
    endloop
  endfacet
  facet normal 2.22045e-16 1 0
    outer loop
      vertex 30 6.75 0
      vertex 11.648 6.75 13.5
      vertex 30 6.75 13.5
    endloop
  endfacet
  facet normal 0.85264 0.522499 0
    outer loop
      vertex 11.648 6.75 0
      vertex 10.9217 7.9351 0
      vertex 10.9217 7.9351 120
    endloop
  endfacet
  facet normal 0.85264 0.522499 0
    outer loop
      vertex 11.648 6.75 13.5
      vertex 11.648 6.75 0
      vertex 10.9217 7.9351 120
    endloop
  endfacet
  facet normal 0.85264 0.522499 0
    outer loop
      vertex 12.0286 6.12887 120
      vertex 11.648 6.75 13.5
      vertex 10.9217 7.9351 120
    endloop
  endfacet
  facet normal 0.85264 0.522499 0
    outer loop
      vertex 12.0286 6.12887 13.5
      vertex 11.648 6.75 13.5
      vertex 12.0286 6.12887 120
    endloop
  endfacet
  facet normal 0.760406 0.649448 0
    outer loop
      vertex 10.9217 7.9351 0
      vertex 9.54594 9.54594 0
      vertex 9.54594 9.54594 120
    endloop
  endfacet
  facet normal 0.760406 0.649448 0
    outer loop
      vertex 10.9217 7.9351 120
      vertex 10.9217 7.9351 0
      vertex 9.54594 9.54594 120
    endloop
  endfacet
  facet normal 0.649448 0.760406 0
    outer loop
      vertex 7.9351 10.9217 0
      vertex 7.9351 10.9217 120
      vertex 9.54594 9.54594 0
    endloop
  endfacet
  facet normal 0.649448 0.760406 0
    outer loop
      vertex 9.54594 9.54594 0
      vertex 7.9351 10.9217 120
      vertex 9.54594 9.54594 120
    endloop
  endfacet
  facet normal 0.522499 0.85264 0
    outer loop
      vertex 6.12887 12.0286 13.5
      vertex 6.12887 12.0286 120
      vertex 6.75 11.648 13.5
    endloop
  endfacet
  facet normal 0.522499 0.85264 0
    outer loop
      vertex 6.75 11.648 13.5
      vertex 6.12887 12.0286 120
      vertex 7.9351 10.9217 120
    endloop
  endfacet
  facet normal 0.522499 0.85264 0
    outer loop
      vertex 6.75 11.648 13.5
      vertex 7.9351 10.9217 120
      vertex 7.9351 10.9217 0
    endloop
  endfacet
  facet normal 0.522499 0.85264 0
    outer loop
      vertex 6.75 11.648 13.5
      vertex 7.9351 10.9217 0
      vertex 6.75 11.648 0
    endloop
  endfacet
  facet normal 1 0 0
    outer loop
      vertex 6.75 11.648 13.5
      vertex 6.75 11.648 0
      vertex 6.75 30 0
    endloop
  endfacet
  facet normal 1 0 0
    outer loop
      vertex 6.75 30 13.5
      vertex 6.75 11.648 13.5
      vertex 6.75 30 0
    endloop
  endfacet
  facet normal 0 1 0
    outer loop
      vertex -6.75 30 0
      vertex -6.75 30 13.5
      vertex 6.75 30 0
    endloop
  endfacet
  facet normal 0 1 0
    outer loop
      vertex 6.75 30 0
      vertex -6.75 30 13.5
      vertex 6.75 30 13.5
    endloop
  endfacet
  facet normal -1 0 0
    outer loop
      vertex -6.75 11.648 0
      vertex -6.75 11.648 13.5
      vertex -6.75 30 0
    endloop
  endfacet
  facet normal -1 0 0
    outer loop
      vertex -6.75 30 0
      vertex -6.75 11.648 13.5
      vertex -6.75 30 13.5
    endloop
  endfacet
  facet normal -0.522499 0.85264 0
    outer loop
      vertex -7.9351 10.9217 0
      vertex -7.9351 10.9217 120
      vertex -6.75 11.648 0
    endloop
  endfacet
  facet normal -0.522499 0.85264 0
    outer loop
      vertex -6.75 11.648 13.5
      vertex -7.9351 10.9217 120
      vertex -6.12887 12.0286 120
    endloop
  endfacet
  facet normal -0.522499 0.85264 0
    outer loop
      vertex -6.75 11.648 0
      vertex -7.9351 10.9217 120
      vertex -6.75 11.648 13.5
    endloop
  endfacet
  facet normal -0.522499 0.85264 0
    outer loop
      vertex -6.75 11.648 13.5
      vertex -6.12887 12.0286 120
      vertex -6.12887 12.0286 13.5
    endloop
  endfacet
  facet normal -0.649448 0.760406 0
    outer loop
      vertex -9.54594 9.54594 0
      vertex -9.54594 9.54594 120
      vertex -7.9351 10.9217 0
    endloop
  endfacet
  facet normal -0.649448 0.760406 0
    outer loop
      vertex -7.9351 10.9217 0
      vertex -9.54594 9.54594 120
      vertex -7.9351 10.9217 120
    endloop
  endfacet
  facet normal -0.760406 0.649448 0
    outer loop
      vertex -10.9217 7.9351 0
      vertex -10.9217 7.9351 120
      vertex -9.54594 9.54594 0
    endloop
  endfacet
  facet normal -0.760406 0.649448 0
    outer loop
      vertex -9.54594 9.54594 0
      vertex -10.9217 7.9351 120
      vertex -9.54594 9.54594 120
    endloop
  endfacet
  facet normal -0.85264 0.522499 0
    outer loop
      vertex -12.0286 6.12887 13.5
      vertex -12.0286 6.12887 120
      vertex -11.648 6.75 13.5
    endloop
  endfacet
  facet normal -0.85264 0.522499 0
    outer loop
      vertex -11.648 6.75 13.5
      vertex -12.0286 6.12887 120
      vertex -10.9217 7.9351 120
    endloop
  endfacet
  facet normal -0.85264 0.522499 0
    outer loop
      vertex -11.648 6.75 13.5
      vertex -10.9217 7.9351 120
      vertex -10.9217 7.9351 0
    endloop
  endfacet
  facet normal -0.85264 0.522499 0
    outer loop
      vertex -11.648 6.75 13.5
      vertex -10.9217 7.9351 0
      vertex -11.648 6.75 0
    endloop
  endfacet
  facet normal 2.22045e-16 1 0
    outer loop
      vertex -30 6.75 0
      vertex -30 6.75 13.5
      vertex -11.648 6.75 0
    endloop
  endfacet
  facet normal 2.22045e-16 1 0
    outer loop
      vertex -11.648 6.75 0
      vertex -30 6.75 13.5
      vertex -11.648 6.75 13.5
    endloop
  endfacet
  facet normal -0.92388 0.382683 0
    outer loop
      vertex -12.8393 4.17173 13.5
      vertex -12.8393 4.17173 120
      vertex -12.0286 6.12887 13.5
    endloop
  endfacet
  facet normal -0.92388 0.382683 0
    outer loop
      vertex -12.0286 6.12887 13.5
      vertex -12.8393 4.17173 120
      vertex -12.0286 6.12887 120
    endloop
  endfacet
  facet normal -0.97237 0.233446 0
    outer loop
      vertex -13.3338 2.11186 13.5
      vertex -13.3338 2.11186 120
      vertex -12.8393 4.17173 13.5
    endloop
  endfacet
  facet normal -0.97237 0.233446 0
    outer loop
      vertex -12.8393 4.17173 13.5
      vertex -13.3338 2.11186 120
      vertex -12.8393 4.17173 120
    endloop
  endfacet
  facet normal -0.996917 0.0784589 0
    outer loop
      vertex -13.5 0 13.5
      vertex -13.5 0 120
      vertex -13.3338 2.11186 13.5
    endloop
  endfacet
  facet normal -0.996917 0.0784589 0
    outer loop
      vertex -13.3338 2.11186 13.5
      vertex -13.5 0 120
      vertex -13.3338 2.11186 120
    endloop
  endfacet
  facet normal -0.996917 -0.0784589 0
    outer loop
      vertex -13.5 0 13.5
      vertex -13.3338 -2.11186 13.5
      vertex -13.5 0 120
    endloop
  endfacet
  facet normal -0.996917 -0.0784589 0
    outer loop
      vertex -13.5 0 120
      vertex -13.3338 -2.11186 13.5
      vertex -13.3338 -2.11186 120
    endloop
  endfacet
  facet normal -0.97237 -0.233446 0
    outer loop
      vertex -13.3338 -2.11186 13.5
      vertex -12.8393 -4.17173 13.5
      vertex -13.3338 -2.11186 120
    endloop
  endfacet
  facet normal -0.97237 -0.233446 0
    outer loop
      vertex -13.3338 -2.11186 120
      vertex -12.8393 -4.17173 13.5
      vertex -12.8393 -4.17173 120
    endloop
  endfacet
  facet normal -0.92388 -0.382683 0
    outer loop
      vertex -12.8393 -4.17173 13.5
      vertex -12.0286 -6.12887 13.5
      vertex -12.8393 -4.17173 120
    endloop
  endfacet
  facet normal -0.92388 -0.382683 0
    outer loop
      vertex -12.8393 -4.17173 120
      vertex -12.0286 -6.12887 13.5
      vertex -12.0286 -6.12887 120
    endloop
  endfacet
  facet normal 0 0 1
    outer loop
      vertex -13.3338 2.11186 120
      vertex -13.5 0 120
      vertex -13.3338 -2.11186 120
    endloop
  endfacet
  facet normal 0 0 1
    outer loop
      vertex -12.0286 -6.12887 120
      vertex -13.3338 2.11186 120
      vertex -12.8393 -4.17173 120
    endloop
  endfacet
  facet normal 0 0 1
    outer loop
      vertex -12.8393 -4.17173 120
      vertex -13.3338 2.11186 120
      vertex -13.3338 -2.11186 120
    endloop
  endfacet
  facet normal 0 0 1
    outer loop
      vertex -10.9217 -7.9351 120
      vertex -13.3338 2.11186 120
      vertex -12.0286 -6.12887 120
    endloop
  endfacet
  facet normal 0 0 1
    outer loop
      vertex -9.54594 -9.54594 120
      vertex -13.3338 2.11186 120
      vertex -10.9217 -7.9351 120
    endloop
  endfacet
  facet normal 0 0 1
    outer loop
      vertex -7.9351 -10.9217 120
      vertex -13.3338 2.11186 120
      vertex -9.54594 -9.54594 120
    endloop
  endfacet
  facet normal 0 0 1
    outer loop
      vertex -6.12887 -12.0286 120
      vertex -13.3338 2.11186 120
      vertex -7.9351 -10.9217 120
    endloop
  endfacet
  facet normal 0 0 1
    outer loop
      vertex -4.17173 -12.8393 120
      vertex -13.3338 2.11186 120
      vertex -6.12887 -12.0286 120
    endloop
  endfacet
  facet normal 0 0 1
    outer loop
      vertex -2.11186 -13.3338 120
      vertex -13.3338 2.11186 120
      vertex -4.17173 -12.8393 120
    endloop
  endfacet
  facet normal 0 0 1
    outer loop
      vertex -4.75 -8.22724 120
      vertex -13.3338 2.11186 120
      vertex -2.11186 -13.3338 120
    endloop
  endfacet
  facet normal 0 0 1
    outer loop
      vertex -4.75 8.22724 120
      vertex 7.9351 10.9217 120
      vertex 6.12887 12.0286 120
    endloop
  endfacet
  facet normal 0 0 1
    outer loop
      vertex -4.75 8.22724 120
      vertex 4.75 8.22724 120
      vertex 7.9351 10.9217 120
    endloop
  endfacet
  facet normal 0 0 1
    outer loop
      vertex 4.75 8.22724 120
      vertex 10.9217 7.9351 120
      vertex 9.54594 9.54594 120
    endloop
  endfacet
  facet normal 0 0 1
    outer loop
      vertex 9.5 0 120
      vertex 4.75 -8.22724 120
      vertex 9.54594 -9.54594 120
    endloop
  endfacet
  facet normal 0 0 1
    outer loop
      vertex 9.5 0 120
      vertex 9.54594 -9.54594 120
      vertex 10.9217 -7.9351 120
    endloop
  endfacet
  facet normal 0 0 1
    outer loop
      vertex 4.75 8.22724 120
      vertex 9.5 0 120
      vertex 13.5 0 120
    endloop
  endfacet
  facet normal 0 0 1
    outer loop
      vertex 4.75 8.22724 120
      vertex 13.5 0 120
      vertex 13.3338 2.11186 120
    endloop
  endfacet
  facet normal 0 0 1
    outer loop
      vertex 4.75 8.22724 120
      vertex 12.8393 4.17173 120
      vertex 12.0286 6.12887 120
    endloop
  endfacet
  facet normal 0 0 1
    outer loop
      vertex 4.75 8.22724 120
      vertex 12.0286 6.12887 120
      vertex 10.9217 7.9351 120
    endloop
  endfacet
  facet normal 0 0 1
    outer loop
      vertex 0 13.5 120
      vertex -13.3338 2.11186 120
      vertex 2.11186 13.3338 120
    endloop
  endfacet
  facet normal 0 0 1
    outer loop
      vertex -2.11186 13.3338 120
      vertex -13.3338 2.11186 120
      vertex 0 13.5 120
    endloop
  endfacet
  facet normal 0 0 1
    outer loop
      vertex -4.17173 12.8393 120
      vertex -13.3338 2.11186 120
      vertex -2.11186 13.3338 120
    endloop
  endfacet
  facet normal 0 0 1
    outer loop
      vertex -6.12887 12.0286 120
      vertex -13.3338 2.11186 120
      vertex -4.17173 12.8393 120
    endloop
  endfacet
  facet normal 0 0 1
    outer loop
      vertex -7.9351 10.9217 120
      vertex -13.3338 2.11186 120
      vertex -6.12887 12.0286 120
    endloop
  endfacet
  facet normal 0 0 1
    outer loop
      vertex -9.54594 9.54594 120
      vertex -13.3338 2.11186 120
      vertex -7.9351 10.9217 120
    endloop
  endfacet
  facet normal 0 0 1
    outer loop
      vertex -10.9217 7.9351 120
      vertex -13.3338 2.11186 120
      vertex -9.54594 9.54594 120
    endloop
  endfacet
  facet normal 0 0 1
    outer loop
      vertex -12.0286 6.12887 120
      vertex -13.3338 2.11186 120
      vertex -10.9217 7.9351 120
    endloop
  endfacet
  facet normal 0 0 1
    outer loop
      vertex -12.8393 4.17173 120
      vertex -13.3338 2.11186 120
      vertex -12.0286 6.12887 120
    endloop
  endfacet
  facet normal 0 0 1
    outer loop
      vertex 0 -13.5 120
      vertex -4.75 -8.22724 120
      vertex -2.11186 -13.3338 120
    endloop
  endfacet
  facet normal 0 0 1
    outer loop
      vertex -4.75 8.22724 120
      vertex 6.12887 12.0286 120
      vertex 4.17173 12.8393 120
    endloop
  endfacet
  facet normal 0 0 1
    outer loop
      vertex 9.5 0 120
      vertex 10.9217 -7.9351 120
      vertex 12.0286 -6.12887 120
    endloop
  endfacet
  facet normal 0 0 1
    outer loop
      vertex 2.11186 13.3338 120
      vertex -4.75 8.22724 120
      vertex 4.17173 12.8393 120
    endloop
  endfacet
  facet normal 0 0 1
    outer loop
      vertex 2.11186 13.3338 120
      vertex -13.3338 2.11186 120
      vertex -4.75 8.22724 120
    endloop
  endfacet
  facet normal 0 0 1
    outer loop
      vertex 7.9351 10.9217 120
      vertex 4.75 8.22724 120
      vertex 9.54594 9.54594 120
    endloop
  endfacet
  facet normal 0 0 1
    outer loop
      vertex 4.75 8.22724 120
      vertex 13.3338 2.11186 120
      vertex 12.8393 4.17173 120
    endloop
  endfacet
  facet normal 0 0 1
    outer loop
      vertex 13.5 0 120
      vertex 9.5 0 120
      vertex 13.3338 -2.11186 120
    endloop
  endfacet
  facet normal 0 0 1
    outer loop
      vertex 9.54594 -9.54594 120
      vertex 4.75 -8.22724 120
      vertex 7.9351 -10.9217 120
    endloop
  endfacet
  facet normal 0 0 1
    outer loop
      vertex -4.75 -8.22724 120
      vertex -9.5 0 120
      vertex -13.3338 2.11186 120
    endloop
  endfacet
  facet normal 0 0 1
    outer loop
      vertex 4.75 -8.22724 120
      vertex 6.12887 -12.0286 120
      vertex 7.9351 -10.9217 120
    endloop
  endfacet
  facet normal 0 0 1
    outer loop
      vertex 4.75 -8.22724 120
      vertex 4.17173 -12.8393 120
      vertex 6.12887 -12.0286 120
    endloop
  endfacet
  facet normal 0 0 1
    outer loop
      vertex 4.75 -8.22724 120
      vertex 2.11186 -13.3338 120
      vertex 4.17173 -12.8393 120
    endloop
  endfacet
  facet normal 0 0 1
    outer loop
      vertex 4.75 -8.22724 120
      vertex 0 -13.5 120
      vertex 2.11186 -13.3338 120
    endloop
  endfacet
  facet normal 0 0 1
    outer loop
      vertex 4.75 -8.22724 120
      vertex -4.75 -8.22724 120
      vertex 0 -13.5 120
    endloop
  endfacet
  facet normal 0 0 1
    outer loop
      vertex 9.5 0 120
      vertex 12.0286 -6.12887 120
      vertex 12.8393 -4.17173 120
    endloop
  endfacet
  facet normal 0 0 1
    outer loop
      vertex 9.5 0 120
      vertex 12.8393 -4.17173 120
      vertex 13.3338 -2.11186 120
    endloop
  endfacet
  facet normal 0 0 1
    outer loop
      vertex -9.5 0 120
      vertex -4.75 8.22724 120
      vertex -13.3338 2.11186 120
    endloop
  endfacet
  facet normal -0.382683 -0.92388 0
    outer loop
      vertex -6.12887 -12.0286 120
      vertex -6.12887 -12.0286 13.5
      vertex -4.17173 -12.8393 13.5
    endloop
  endfacet
  facet normal -0.382683 -0.92388 0
    outer loop
      vertex -4.17173 -12.8393 120
      vertex -6.12887 -12.0286 120
      vertex -4.17173 -12.8393 13.5
    endloop
  endfacet
  facet normal 0 0 1
    outer loop
      vertex -6.75 -11.648 13.5
      vertex -6.75 -30 13.5
      vertex 6.75 -30 13.5
    endloop
  endfacet
  facet normal 0 0 1
    outer loop
      vertex -6.12887 -12.0286 13.5
      vertex -6.75 -11.648 13.5
      vertex 6.75 -30 13.5
    endloop
  endfacet
  facet normal 0 0 1
    outer loop
      vertex 6.75 -11.648 13.5
      vertex 6.12887 -12.0286 13.5
      vertex 6.75 -30 13.5
    endloop
  endfacet
  facet normal 0 0 1
    outer loop
      vertex 6.12887 -12.0286 13.5
      vertex 4.17173 -12.8393 13.5
      vertex 6.75 -30 13.5
    endloop
  endfacet
  facet normal 0 0 1
    outer loop
      vertex 4.17173 -12.8393 13.5
      vertex 2.11186 -13.3338 13.5
      vertex 6.75 -30 13.5
    endloop
  endfacet
  facet normal 0 0 1
    outer loop
      vertex 2.11186 -13.3338 13.5
      vertex 0 -13.5 13.5
      vertex 6.75 -30 13.5
    endloop
  endfacet
  facet normal 0 0 1
    outer loop
      vertex 0 -13.5 13.5
      vertex -2.11186 -13.3338 13.5
      vertex 6.75 -30 13.5
    endloop
  endfacet
  facet normal 0 0 1
    outer loop
      vertex -2.11186 -13.3338 13.5
      vertex -4.17173 -12.8393 13.5
      vertex 6.75 -30 13.5
    endloop
  endfacet
  facet normal 0 0 1
    outer loop
      vertex -4.17173 -12.8393 13.5
      vertex -6.12887 -12.0286 13.5
      vertex 6.75 -30 13.5
    endloop
  endfacet
  facet normal 0.382683 -0.92388 0
    outer loop
      vertex 4.17173 -12.8393 120
      vertex 4.17173 -12.8393 13.5
      vertex 6.12887 -12.0286 13.5
    endloop
  endfacet
  facet normal 0.382683 -0.92388 0
    outer loop
      vertex 6.12887 -12.0286 120
      vertex 4.17173 -12.8393 120
      vertex 6.12887 -12.0286 13.5
    endloop
  endfacet
  facet normal 0.92388 -0.382683 0
    outer loop
      vertex 12.0286 -6.12887 120
      vertex 12.0286 -6.12887 13.5
      vertex 12.8393 -4.17173 13.5
    endloop
  endfacet
  facet normal 0.92388 -0.382683 0
    outer loop
      vertex 12.8393 -4.17173 120
      vertex 12.0286 -6.12887 120
      vertex 12.8393 -4.17173 13.5
    endloop
  endfacet
  facet normal 0 0 1
    outer loop
      vertex 13.3338 2.11186 13.5
      vertex 13.5 0 13.5
      vertex 30 6.75 13.5
    endloop
  endfacet
  facet normal 0 0 1
    outer loop
      vertex 30 6.75 13.5
      vertex 11.648 6.75 13.5
      vertex 12.0286 6.12887 13.5
    endloop
  endfacet
  facet normal 0 0 1
    outer loop
      vertex 13.5 0 13.5
      vertex 13.3338 -2.11186 13.5
      vertex 30 6.75 13.5
    endloop
  endfacet
  facet normal 0 0 1
    outer loop
      vertex 12.8393 4.17173 13.5
      vertex 30 6.75 13.5
      vertex 12.0286 6.12887 13.5
    endloop
  endfacet
  facet normal 0 0 1
    outer loop
      vertex 12.8393 4.17173 13.5
      vertex 13.3338 2.11186 13.5
      vertex 30 6.75 13.5
    endloop
  endfacet
  facet normal 0 0 1
    outer loop
      vertex 13.3338 -2.11186 13.5
      vertex 12.8393 -4.17173 13.5
      vertex 30 6.75 13.5
    endloop
  endfacet
  facet normal 0 0 1
    outer loop
      vertex 12.8393 -4.17173 13.5
      vertex 12.0286 -6.12887 13.5
      vertex 30 6.75 13.5
    endloop
  endfacet
  facet normal 0 0 1
    outer loop
      vertex 12.0286 -6.12887 13.5
      vertex 11.648 -6.75 13.5
      vertex 30 6.75 13.5
    endloop
  endfacet
  facet normal 0 0 1
    outer loop
      vertex 11.648 -6.75 13.5
      vertex 30 -6.75 13.5
      vertex 30 6.75 13.5
    endloop
  endfacet
  facet normal 0.92388 0.382683 0
    outer loop
      vertex 12.8393 4.17173 13.5
      vertex 12.0286 6.12887 13.5
      vertex 12.0286 6.12887 120
    endloop
  endfacet
  facet normal 0.92388 0.382683 0
    outer loop
      vertex 12.8393 4.17173 120
      vertex 12.8393 4.17173 13.5
      vertex 12.0286 6.12887 120
    endloop
  endfacet
  facet normal 0 0 1
    outer loop
      vertex -2.11186 13.3338 13.5
      vertex 0 13.5 13.5
      vertex -6.75 30 13.5
    endloop
  endfacet
  facet normal 0 0 1
    outer loop
      vertex -6.75 30 13.5
      vertex -6.75 11.648 13.5
      vertex -6.12887 12.0286 13.5
    endloop
  endfacet
  facet normal 0 0 1
    outer loop
      vertex 0 13.5 13.5
      vertex 2.11186 13.3338 13.5
      vertex -6.75 30 13.5
    endloop
  endfacet
  facet normal 0 0 1
    outer loop
      vertex -4.17173 12.8393 13.5
      vertex -6.75 30 13.5
      vertex -6.12887 12.0286 13.5
    endloop
  endfacet
  facet normal 0 0 1
    outer loop
      vertex -4.17173 12.8393 13.5
      vertex -2.11186 13.3338 13.5
      vertex -6.75 30 13.5
    endloop
  endfacet
  facet normal 0 0 1
    outer loop
      vertex 2.11186 13.3338 13.5
      vertex 4.17173 12.8393 13.5
      vertex -6.75 30 13.5
    endloop
  endfacet
  facet normal 0 0 1
    outer loop
      vertex 4.17173 12.8393 13.5
      vertex 6.12887 12.0286 13.5
      vertex -6.75 30 13.5
    endloop
  endfacet
  facet normal 0 0 1
    outer loop
      vertex 6.12887 12.0286 13.5
      vertex 6.75 11.648 13.5
      vertex -6.75 30 13.5
    endloop
  endfacet
  facet normal 0 0 1
    outer loop
      vertex 6.75 11.648 13.5
      vertex 6.75 30 13.5
      vertex -6.75 30 13.5
    endloop
  endfacet
  facet normal 0.382683 0.92388 0
    outer loop
      vertex 4.17173 12.8393 13.5
      vertex 4.17173 12.8393 120
      vertex 6.12887 12.0286 13.5
    endloop
  endfacet
  facet normal 0.382683 0.92388 0
    outer loop
      vertex 6.12887 12.0286 13.5
      vertex 4.17173 12.8393 120
      vertex 6.12887 12.0286 120
    endloop
  endfacet
  facet normal -0.382683 0.92388 0
    outer loop
      vertex -6.12887 12.0286 13.5
      vertex -6.12887 12.0286 120
      vertex -4.17173 12.8393 13.5
    endloop
  endfacet
  facet normal -0.382683 0.92388 0
    outer loop
      vertex -4.17173 12.8393 13.5
      vertex -6.12887 12.0286 120
      vertex -4.17173 12.8393 120
    endloop
  endfacet
  facet normal -0.233446 0.97237 0
    outer loop
      vertex -4.17173 12.8393 13.5
      vertex -4.17173 12.8393 120
      vertex -2.11186 13.3338 13.5
    endloop
  endfacet
  facet normal -0.233446 0.97237 0
    outer loop
      vertex -2.11186 13.3338 13.5
      vertex -4.17173 12.8393 120
      vertex -2.11186 13.3338 120
    endloop
  endfacet
  facet normal -0.0784589 0.996917 0
    outer loop
      vertex -2.11186 13.3338 13.5
      vertex -2.11186 13.3338 120
      vertex 0 13.5 13.5
    endloop
  endfacet
  facet normal -0.0784589 0.996917 0
    outer loop
      vertex 0 13.5 13.5
      vertex -2.11186 13.3338 120
      vertex 0 13.5 120
    endloop
  endfacet
  facet normal 0.0784589 0.996917 0
    outer loop
      vertex 0 13.5 13.5
      vertex 0 13.5 120
      vertex 2.11186 13.3338 13.5
    endloop
  endfacet
  facet normal 0.0784589 0.996917 0
    outer loop
      vertex 2.11186 13.3338 13.5
      vertex 0 13.5 120
      vertex 2.11186 13.3338 120
    endloop
  endfacet
  facet normal 0.233446 0.97237 0
    outer loop
      vertex 2.11186 13.3338 13.5
      vertex 2.11186 13.3338 120
      vertex 4.17173 12.8393 13.5
    endloop
  endfacet
  facet normal 0.233446 0.97237 0
    outer loop
      vertex 4.17173 12.8393 13.5
      vertex 2.11186 13.3338 120
      vertex 4.17173 12.8393 120
    endloop
  endfacet
  facet normal 0.97237 0.233446 0
    outer loop
      vertex 13.3338 2.11186 13.5
      vertex 12.8393 4.17173 13.5
      vertex 12.8393 4.17173 120
    endloop
  endfacet
  facet normal 0.97237 0.233446 0
    outer loop
      vertex 13.3338 2.11186 120
      vertex 13.3338 2.11186 13.5
      vertex 12.8393 4.17173 120
    endloop
  endfacet
  facet normal 0.996917 0.0784589 0
    outer loop
      vertex 13.5 0 13.5
      vertex 13.3338 2.11186 13.5
      vertex 13.3338 2.11186 120
    endloop
  endfacet
  facet normal 0.996917 0.0784589 0
    outer loop
      vertex 13.5 0 120
      vertex 13.5 0 13.5
      vertex 13.3338 2.11186 120
    endloop
  endfacet
  facet normal 0.996917 -0.0784589 0
    outer loop
      vertex 13.3338 -2.11186 120
      vertex 13.3338 -2.11186 13.5
      vertex 13.5 0 13.5
    endloop
  endfacet
  facet normal 0.996917 -0.0784589 0
    outer loop
      vertex 13.5 0 120
      vertex 13.3338 -2.11186 120
      vertex 13.5 0 13.5
    endloop
  endfacet
  facet normal 0.97237 -0.233446 0
    outer loop
      vertex 12.8393 -4.17173 120
      vertex 12.8393 -4.17173 13.5
      vertex 13.3338 -2.11186 13.5
    endloop
  endfacet
  facet normal 0.97237 -0.233446 0
    outer loop
      vertex 13.3338 -2.11186 120
      vertex 12.8393 -4.17173 120
      vertex 13.3338 -2.11186 13.5
    endloop
  endfacet
  facet normal 0.233446 -0.97237 0
    outer loop
      vertex 2.11186 -13.3338 120
      vertex 2.11186 -13.3338 13.5
      vertex 4.17173 -12.8393 13.5
    endloop
  endfacet
  facet normal 0.233446 -0.97237 0
    outer loop
      vertex 4.17173 -12.8393 120
      vertex 2.11186 -13.3338 120
      vertex 4.17173 -12.8393 13.5
    endloop
  endfacet
  facet normal 0.0784589 -0.996917 0
    outer loop
      vertex 0 -13.5 120
      vertex 0 -13.5 13.5
      vertex 2.11186 -13.3338 13.5
    endloop
  endfacet
  facet normal 0.0784589 -0.996917 0
    outer loop
      vertex 2.11186 -13.3338 120
      vertex 0 -13.5 120
      vertex 2.11186 -13.3338 13.5
    endloop
  endfacet
  facet normal -0.0784589 -0.996917 0
    outer loop
      vertex -2.11186 -13.3338 120
      vertex -2.11186 -13.3338 13.5
      vertex 0 -13.5 13.5
    endloop
  endfacet
  facet normal -0.0784589 -0.996917 0
    outer loop
      vertex 0 -13.5 120
      vertex -2.11186 -13.3338 120
      vertex 0 -13.5 13.5
    endloop
  endfacet
  facet normal -0.233446 -0.97237 0
    outer loop
      vertex -4.17173 -12.8393 120
      vertex -4.17173 -12.8393 13.5
      vertex -2.11186 -13.3338 13.5
    endloop
  endfacet
  facet normal -0.233446 -0.97237 0
    outer loop
      vertex -2.11186 -13.3338 120
      vertex -4.17173 -12.8393 120
      vertex -2.11186 -13.3338 13.5
    endloop
  endfacet
  facet normal 0.866025 0.5 0
    outer loop
      vertex -9.5 0 120
      vertex -4.75 -8.22724 120
      vertex -4.75 -8.22724 101
    endloop
  endfacet
  facet normal 0.866025 0.5 0
    outer loop
      vertex -9.5 0 101
      vertex -9.5 0 120
      vertex -4.75 -8.22724 101
    endloop
  endfacet
  facet normal 0 1 0
    outer loop
      vertex 4.75 -8.22724 120
      vertex 4.75 -8.22724 101
      vertex -4.75 -8.22724 120
    endloop
  endfacet
  facet normal 0 1 0
    outer loop
      vertex -4.75 -8.22724 120
      vertex 4.75 -8.22724 101
      vertex -4.75 -8.22724 101
    endloop
  endfacet
  facet normal -0.866025 0.5 0
    outer loop
      vertex 9.5 0 120
      vertex 9.5 0 101
      vertex 4.75 -8.22724 120
    endloop
  endfacet
  facet normal -0.866025 0.5 0
    outer loop
      vertex 4.75 -8.22724 120
      vertex 9.5 0 101
      vertex 4.75 -8.22724 101
    endloop
  endfacet
  facet normal -0.866025 -0.5 0
    outer loop
      vertex 9.5 0 120
      vertex 4.75 8.22724 120
      vertex 9.5 0 101
    endloop
  endfacet
  facet normal -0.866025 -0.5 0
    outer loop
      vertex 9.5 0 101
      vertex 4.75 8.22724 120
      vertex 4.75 8.22724 101
    endloop
  endfacet
  facet normal 0 -1 0
    outer loop
      vertex 4.75 8.22724 101
      vertex 4.75 8.22724 120
      vertex -4.75 8.22724 120
    endloop
  endfacet
  facet normal 0 -1 0
    outer loop
      vertex -4.75 8.22724 101
      vertex 4.75 8.22724 101
      vertex -4.75 8.22724 120
    endloop
  endfacet
  facet normal 0.866025 -0.5 0
    outer loop
      vertex -4.75 8.22724 101
      vertex -4.75 8.22724 120
      vertex -9.5 0 120
    endloop
  endfacet
  facet normal 0.866025 -0.5 0
    outer loop
      vertex -9.5 0 101
      vertex -4.75 8.22724 101
      vertex -9.5 0 120
    endloop
  endfacet
  facet normal 0 0 1
    outer loop
      vertex -5.25 0 101
      vertex -9.5 0 101
      vertex -4.75 -8.22724 101
    endloop
  endfacet
  facet normal 0 0 1
    outer loop
      vertex -5.25 0 101
      vertex -2.625 4.54663 101
      vertex -4.75 8.22724 101
    endloop
  endfacet
  facet normal 0 0 1
    outer loop
      vertex 4.75 -8.22724 101
      vertex -2.625 -4.54663 101
      vertex -4.75 -8.22724 101
    endloop
  endfacet
  facet normal 0 0 1
    outer loop
      vertex 2.625 4.54663 101
      vertex 5.25 0 101
      vertex 9.5 0 101
    endloop
  endfacet
  facet normal 0 0 1
    outer loop
      vertex -4.75 8.22724 101
      vertex -9.5 0 101
      vertex -5.25 0 101
    endloop
  endfacet
  facet normal 0 0 1
    outer loop
      vertex -2.625 -4.54663 101
      vertex -5.25 0 101
      vertex -4.75 -8.22724 101
    endloop
  endfacet
  facet normal 0 0 1
    outer loop
      vertex 4.75 8.22724 101
      vertex 2.625 4.54663 101
      vertex 9.5 0 101
    endloop
  endfacet
  facet normal 0 0 1
    outer loop
      vertex 4.75 8.22724 101
      vertex -4.75 8.22724 101
      vertex 2.625 4.54663 101
    endloop
  endfacet
  facet normal 0 0 1
    outer loop
      vertex 9.5 0 101
      vertex 5.25 0 101
      vertex 4.75 -8.22724 101
    endloop
  endfacet
  facet normal 0 0 1
    outer loop
      vertex 5.25 0 101
      vertex 2.625 -4.54663 101
      vertex 4.75 -8.22724 101
    endloop
  endfacet
  facet normal 0 0 1
    outer loop
      vertex 2.625 -4.54663 101
      vertex -2.625 -4.54663 101
      vertex 4.75 -8.22724 101
    endloop
  endfacet
  facet normal 0 0 1
    outer loop
      vertex -2.625 4.54663 101
      vertex 2.625 4.54663 101
      vertex -4.75 8.22724 101
    endloop
  endfacet
  facet normal -0.866025 -0.5 0
    outer loop
      vertex -5.25 0 101
      vertex -2.625 -4.54663 101
      vertex -5.25 0 120
    endloop
  endfacet
  facet normal -0.866025 -0.5 0
    outer loop
      vertex -5.25 0 120
      vertex -2.625 -4.54663 101
      vertex -2.625 -4.54663 120
    endloop
  endfacet
  facet normal 0 -1 0
    outer loop
      vertex -2.625 -4.54663 120
      vertex -2.625 -4.54663 101
      vertex 2.625 -4.54663 101
    endloop
  endfacet
  facet normal 0 -1 0
    outer loop
      vertex 2.625 -4.54663 120
      vertex -2.625 -4.54663 120
      vertex 2.625 -4.54663 101
    endloop
  endfacet
  facet normal 0.866025 -0.5 0
    outer loop
      vertex 2.625 -4.54663 120
      vertex 2.625 -4.54663 101
      vertex 5.25 0 101
    endloop
  endfacet
  facet normal 0.866025 -0.5 0
    outer loop
      vertex 5.25 0 120
      vertex 2.625 -4.54663 120
      vertex 5.25 0 101
    endloop
  endfacet
  facet normal 0.866025 0.5 0
    outer loop
      vertex 5.25 0 101
      vertex 2.625 4.54663 101
      vertex 2.625 4.54663 120
    endloop
  endfacet
  facet normal 0.866025 0.5 0
    outer loop
      vertex 5.25 0 120
      vertex 5.25 0 101
      vertex 2.625 4.54663 120
    endloop
  endfacet
  facet normal 0 1 0
    outer loop
      vertex -2.625 4.54663 101
      vertex -2.625 4.54663 120
      vertex 2.625 4.54663 101
    endloop
  endfacet
  facet normal 0 1 0
    outer loop
      vertex 2.625 4.54663 101
      vertex -2.625 4.54663 120
      vertex 2.625 4.54663 120
    endloop
  endfacet
  facet normal -0.866025 0.5 0
    outer loop
      vertex -5.25 0 101
      vertex -5.25 0 120
      vertex -2.625 4.54663 101
    endloop
  endfacet
  facet normal -0.866025 0.5 0
    outer loop
      vertex -2.625 4.54663 101
      vertex -5.25 0 120
      vertex -2.625 4.54663 120
    endloop
  endfacet
  facet normal 0 0 1
    outer loop
      vertex -2.625 4.54663 120
      vertex -5.25 0 120
      vertex -2.625 -4.54663 120
    endloop
  endfacet
  facet normal 0 0 1
    outer loop
      vertex -2.5 0 120
      vertex -2.625 4.54663 120
      vertex -2.625 -4.54663 120
    endloop
  endfacet
  facet normal 0 0 1
    outer loop
      vertex 2.625 4.54663 120
      vertex -2.625 4.54663 120
      vertex 5.25 0 120
    endloop
  endfacet
  facet normal 0 0 1
    outer loop
      vertex -1.91511 -1.60697 120
      vertex -2.34923 -0.85505 120
      vertex -2.625 -4.54663 120
    endloop
  endfacet
  facet normal 0 0 1
    outer loop
      vertex -2.34923 -0.85505 120
      vertex -2.5 0 120
      vertex -2.625 -4.54663 120
    endloop
  endfacet
  facet normal 0 0 1
    outer loop
      vertex -1.91511 1.60697 120
      vertex -2.625 4.54663 120
      vertex -2.34923 0.85505 120
    endloop
  endfacet
  facet normal 0 0 1
    outer loop
      vertex 0.43412 -2.46202 120
      vertex -0.43412 -2.46202 120
      vertex 2.625 -4.54663 120
    endloop
  endfacet
  facet normal 0 0 1
    outer loop
      vertex 1.91511 1.60697 120
      vertex 2.34923 0.85505 120
      vertex 5.25 0 120
    endloop
  endfacet
  facet normal 0 0 1
    outer loop
      vertex -0.43412 2.46202 120
      vertex -2.625 4.54663 120
      vertex -1.25 2.16506 120
    endloop
  endfacet
  facet normal 0 0 1
    outer loop
      vertex 2.5 0 120
      vertex 2.34923 -0.85505 120
      vertex 2.625 -4.54663 120
    endloop
  endfacet
  facet normal 0 0 1
    outer loop
      vertex 0.43412 2.46202 120
      vertex -2.625 4.54663 120
      vertex -0.43412 2.46202 120
    endloop
  endfacet
  facet normal 0 0 1
    outer loop
      vertex 1.25 2.16506 120
      vertex -2.625 4.54663 120
      vertex 0.43412 2.46202 120
    endloop
  endfacet
  facet normal 0 0 1
    outer loop
      vertex 5.25 0 120
      vertex -2.625 4.54663 120
      vertex 1.25 2.16506 120
    endloop
  endfacet
  facet normal 0 0 1
    outer loop
      vertex 1.25 -2.16506 120
      vertex 0.43412 -2.46202 120
      vertex 2.625 -4.54663 120
    endloop
  endfacet
  facet normal 0 0 1
    outer loop
      vertex 1.91511 -1.60697 120
      vertex 1.25 -2.16506 120
      vertex 2.625 -4.54663 120
    endloop
  endfacet
  facet normal 0 0 1
    outer loop
      vertex 5.25 0 120
      vertex 2.5 0 120
      vertex 2.625 -4.54663 120
    endloop
  endfacet
  facet normal 0 0 1
    outer loop
      vertex 5.25 0 120
      vertex 2.34923 0.85505 120
      vertex 2.5 0 120
    endloop
  endfacet
  facet normal 0 0 1
    outer loop
      vertex 2.34923 -0.85505 120
      vertex 1.91511 -1.60697 120
      vertex 2.625 -4.54663 120
    endloop
  endfacet
  facet normal 0 0 1
    outer loop
      vertex 1.25 2.16506 120
      vertex 1.91511 1.60697 120
      vertex 5.25 0 120
    endloop
  endfacet
  facet normal 0 0 1
    outer loop
      vertex 2.625 -4.54663 120
      vertex -0.43412 -2.46202 120
      vertex -2.625 -4.54663 120
    endloop
  endfacet
  facet normal 0 0 1
    outer loop
      vertex -0.43412 -2.46202 120
      vertex -1.25 -2.16506 120
      vertex -2.625 -4.54663 120
    endloop
  endfacet
  facet normal 0 0 1
    outer loop
      vertex -1.25 -2.16506 120
      vertex -1.91511 -1.60697 120
      vertex -2.625 -4.54663 120
    endloop
  endfacet
  facet normal 0 0 1
    outer loop
      vertex -2.5 0 120
      vertex -2.34923 0.85505 120
      vertex -2.625 4.54663 120
    endloop
  endfacet
  facet normal 0 0 1
    outer loop
      vertex -1.91511 1.60697 120
      vertex -1.25 2.16506 120
      vertex -2.625 4.54663 120
    endloop
  endfacet
  facet normal 0.984808 0.173648 0
    outer loop
      vertex -2.5 0 120
      vertex -2.34923 -0.85505 120
      vertex -2.34923 -0.85505 101
    endloop
  endfacet
  facet normal 0.984808 0.173648 0
    outer loop
      vertex -2.5 0 101
      vertex -2.5 0 120
      vertex -2.34923 -0.85505 101
    endloop
  endfacet
  facet normal 0.866025 0.5 0
    outer loop
      vertex -2.34923 -0.85505 120
      vertex -1.91511 -1.60697 120
      vertex -1.91511 -1.60697 101
    endloop
  endfacet
  facet normal 0.866025 0.5 0
    outer loop
      vertex -2.34923 -0.85505 101
      vertex -2.34923 -0.85505 120
      vertex -1.91511 -1.60697 101
    endloop
  endfacet
  facet normal 0.642788 0.766044 0
    outer loop
      vertex -1.25 -2.16506 120
      vertex -1.25 -2.16506 101
      vertex -1.91511 -1.60697 120
    endloop
  endfacet
  facet normal 0.642788 0.766044 0
    outer loop
      vertex -1.91511 -1.60697 120
      vertex -1.25 -2.16506 101
      vertex -1.91511 -1.60697 101
    endloop
  endfacet
  facet normal 0.342019 0.939693 0
    outer loop
      vertex -0.43412 -2.46202 120
      vertex -0.43412 -2.46202 101
      vertex -1.25 -2.16506 120
    endloop
  endfacet
  facet normal 0.342019 0.939693 0
    outer loop
      vertex -1.25 -2.16506 120
      vertex -0.43412 -2.46202 101
      vertex -1.25 -2.16506 101
    endloop
  endfacet
  facet normal 0 1 0
    outer loop
      vertex 0.43412 -2.46202 120
      vertex 0.43412 -2.46202 101
      vertex -0.43412 -2.46202 120
    endloop
  endfacet
  facet normal 0 1 0
    outer loop
      vertex -0.43412 -2.46202 120
      vertex 0.43412 -2.46202 101
      vertex -0.43412 -2.46202 101
    endloop
  endfacet
  facet normal -0.342019 0.939693 0
    outer loop
      vertex 1.25 -2.16506 120
      vertex 1.25 -2.16506 101
      vertex 0.43412 -2.46202 120
    endloop
  endfacet
  facet normal -0.342019 0.939693 0
    outer loop
      vertex 0.43412 -2.46202 120
      vertex 1.25 -2.16506 101
      vertex 0.43412 -2.46202 101
    endloop
  endfacet
  facet normal -0.642788 0.766044 0
    outer loop
      vertex 1.91511 -1.60697 120
      vertex 1.91511 -1.60697 101
      vertex 1.25 -2.16506 120
    endloop
  endfacet
  facet normal -0.642788 0.766044 0
    outer loop
      vertex 1.25 -2.16506 120
      vertex 1.91511 -1.60697 101
      vertex 1.25 -2.16506 101
    endloop
  endfacet
  facet normal -0.866025 0.5 0
    outer loop
      vertex 2.34923 -0.85505 120
      vertex 2.34923 -0.85505 101
      vertex 1.91511 -1.60697 120
    endloop
  endfacet
  facet normal -0.866025 0.5 0
    outer loop
      vertex 1.91511 -1.60697 120
      vertex 2.34923 -0.85505 101
      vertex 1.91511 -1.60697 101
    endloop
  endfacet
  facet normal -0.984808 0.173648 0
    outer loop
      vertex 2.5 0 120
      vertex 2.5 0 101
      vertex 2.34923 -0.85505 120
    endloop
  endfacet
  facet normal -0.984808 0.173648 0
    outer loop
      vertex 2.34923 -0.85505 120
      vertex 2.5 0 101
      vertex 2.34923 -0.85505 101
    endloop
  endfacet
  facet normal -0.984808 -0.173648 0
    outer loop
      vertex 2.5 0 120
      vertex 2.34923 0.85505 120
      vertex 2.5 0 101
    endloop
  endfacet
  facet normal -0.984808 -0.173648 0
    outer loop
      vertex 2.5 0 101
      vertex 2.34923 0.85505 120
      vertex 2.34923 0.85505 101
    endloop
  endfacet
  facet normal -0.866025 -0.5 0
    outer loop
      vertex 2.34923 0.85505 120
      vertex 1.91511 1.60697 120
      vertex 2.34923 0.85505 101
    endloop
  endfacet
  facet normal -0.866025 -0.5 0
    outer loop
      vertex 2.34923 0.85505 101
      vertex 1.91511 1.60697 120
      vertex 1.91511 1.60697 101
    endloop
  endfacet
  facet normal -0.642788 -0.766044 0
    outer loop
      vertex 1.91511 1.60697 101
      vertex 1.91511 1.60697 120
      vertex 1.25 2.16506 120
    endloop
  endfacet
  facet normal -0.642788 -0.766044 0
    outer loop
      vertex 1.25 2.16506 101
      vertex 1.91511 1.60697 101
      vertex 1.25 2.16506 120
    endloop
  endfacet
  facet normal -0.342019 -0.939693 0
    outer loop
      vertex 1.25 2.16506 101
      vertex 1.25 2.16506 120
      vertex 0.43412 2.46202 120
    endloop
  endfacet
  facet normal -0.342019 -0.939693 0
    outer loop
      vertex 0.43412 2.46202 101
      vertex 1.25 2.16506 101
      vertex 0.43412 2.46202 120
    endloop
  endfacet
  facet normal 0 -1 0
    outer loop
      vertex 0.43412 2.46202 101
      vertex 0.43412 2.46202 120
      vertex -0.43412 2.46202 120
    endloop
  endfacet
  facet normal 0 -1 0
    outer loop
      vertex -0.43412 2.46202 101
      vertex 0.43412 2.46202 101
      vertex -0.43412 2.46202 120
    endloop
  endfacet
  facet normal 0.342019 -0.939693 0
    outer loop
      vertex -0.43412 2.46202 101
      vertex -0.43412 2.46202 120
      vertex -1.25 2.16506 120
    endloop
  endfacet
  facet normal 0.342019 -0.939693 0
    outer loop
      vertex -1.25 2.16506 101
      vertex -0.43412 2.46202 101
      vertex -1.25 2.16506 120
    endloop
  endfacet
  facet normal 0.642788 -0.766044 0
    outer loop
      vertex -1.25 2.16506 101
      vertex -1.25 2.16506 120
      vertex -1.91511 1.60697 120
    endloop
  endfacet
  facet normal 0.642788 -0.766044 0
    outer loop
      vertex -1.91511 1.60697 101
      vertex -1.25 2.16506 101
      vertex -1.91511 1.60697 120
    endloop
  endfacet
  facet normal 0.866025 -0.5 0
    outer loop
      vertex -1.91511 1.60697 101
      vertex -1.91511 1.60697 120
      vertex -2.34923 0.85505 120
    endloop
  endfacet
  facet normal 0.866025 -0.5 0
    outer loop
      vertex -2.34923 0.85505 101
      vertex -1.91511 1.60697 101
      vertex -2.34923 0.85505 120
    endloop
  endfacet
  facet normal 0.984808 -0.173648 0
    outer loop
      vertex -2.34923 0.85505 101
      vertex -2.34923 0.85505 120
      vertex -2.5 0 120
    endloop
  endfacet
  facet normal 0.984808 -0.173648 0
    outer loop
      vertex -2.5 0 101
      vertex -2.34923 0.85505 101
      vertex -2.5 0 120
    endloop
  endfacet
  facet normal 0 0 1
    outer loop
      vertex -2.34923 0.85505 101
      vertex -2.5 0 101
      vertex -2.34923 -0.85505 101
    endloop
  endfacet
  facet normal 0 0 1
    outer loop
      vertex -1.25 -2.16506 101
      vertex -2.34923 0.85505 101
      vertex -1.91511 -1.60697 101
    endloop
  endfacet
  facet normal 0 0 1
    outer loop
      vertex -1.91511 -1.60697 101
      vertex -2.34923 0.85505 101
      vertex -2.34923 -0.85505 101
    endloop
  endfacet
  facet normal 0 0 1
    outer loop
      vertex -0.43412 -2.46202 101
      vertex -2.34923 0.85505 101
      vertex -1.25 -2.16506 101
    endloop
  endfacet
  facet normal 0 0 1
    outer loop
      vertex 0.43412 -2.46202 101
      vertex -2.34923 0.85505 101
      vertex -0.43412 -2.46202 101
    endloop
  endfacet
  facet normal 0 0 1
    outer loop
      vertex 1.25 -2.16506 101
      vertex -2.34923 0.85505 101
      vertex 0.43412 -2.46202 101
    endloop
  endfacet
  facet normal 0 0 1
    outer loop
      vertex 1.91511 -1.60697 101
      vertex -2.34923 0.85505 101
      vertex 1.25 -2.16506 101
    endloop
  endfacet
  facet normal 0 0 1
    outer loop
      vertex 2.34923 -0.85505 101
      vertex -2.34923 0.85505 101
      vertex 1.91511 -1.60697 101
    endloop
  endfacet
  facet normal 0 0 1
    outer loop
      vertex 2.5 0 101
      vertex -2.34923 0.85505 101
      vertex 2.34923 -0.85505 101
    endloop
  endfacet
  facet normal 0 0 1
    outer loop
      vertex 2.34923 0.85505 101
      vertex -2.34923 0.85505 101
      vertex 2.5 0 101
    endloop
  endfacet
  facet normal 0 0 1
    outer loop
      vertex 1.91511 1.60697 101
      vertex -2.34923 0.85505 101
      vertex 2.34923 0.85505 101
    endloop
  endfacet
  facet normal 0 0 1
    outer loop
      vertex 1.25 2.16506 101
      vertex -2.34923 0.85505 101
      vertex 1.91511 1.60697 101
    endloop
  endfacet
  facet normal 0 0 1
    outer loop
      vertex 0.43412 2.46202 101
      vertex -2.34923 0.85505 101
      vertex 1.25 2.16506 101
    endloop
  endfacet
  facet normal 0 0 1
    outer loop
      vertex -0.43412 2.46202 101
      vertex -2.34923 0.85505 101
      vertex 0.43412 2.46202 101
    endloop
  endfacet
  facet normal 0 0 1
    outer loop
      vertex -1.25 2.16506 101
      vertex -2.34923 0.85505 101
      vertex -0.43412 2.46202 101
    endloop
  endfacet
  facet normal 0 0 1
    outer loop
      vertex -1.91511 1.60697 101
      vertex -2.34923 0.85505 101
      vertex -1.25 2.16506 101
    endloop
  endfacet
endsolid OpenSCAD_Model
