solid OpenSCAD_Model
  facet normal 0 0 -1
    outer loop
      vertex -45.5 -12.5 -15
      vertex -45.5 12.5 -15
      vertex -31.1308 -12.5 -15
    endloop
  endfacet
  facet normal 0 0 -1
    outer loop
      vertex -31.1308 -12.5 -15
      vertex -45.5 12.5 -15
      vertex -31.1308 12.5 -15
    endloop
  endfacet
  facet normal -0.768221 0 0.640184
    outer loop
      vertex -45.5 -12.5 -15
      vertex -20.5 -12.5 15
      vertex -45.5 12.5 -15
    endloop
  endfacet
  facet normal -0.768221 0 0.640184
    outer loop
      vertex -45.5 12.5 -15
      vertex -20.5 -12.5 15
      vertex -20.5 12.5 15
    endloop
  endfacet
  facet normal 0 -1 0
    outer loop
      vertex -31.1308 -12.5 -8.81439
      vertex -45.5 -12.5 -15
      vertex -31.1308 -12.5 -15
    endloop
  endfacet
  facet normal 0 -1 0
    outer loop
      vertex -31.4308 -12.5 -7.5
      vertex -45.5 -12.5 -15
      vertex -31.1308 -12.5 -8.81439
    endloop
  endfacet
  facet normal 0 -1 0
    outer loop
      vertex -28.1654 -12.5 -3.4053
      vertex -26.2962 -12.5 -3.4053
      vertex -20.5 -12.5 15
    endloop
  endfacet
  facet normal 0 -1 0
    outer loop
      vertex -31.0148 -12.5 -5.67769
      vertex -45.5 -12.5 -15
      vertex -31.4308 -12.5 -7.5
    endloop
  endfacet
  facet normal 0 -1 0
    outer loop
      vertex -20.5 -12.5 15
      vertex -45.5 -12.5 -15
      vertex -31.0148 -12.5 -5.67769
    endloop
  endfacet
  facet normal 0 -1 0
    outer loop
      vertex -20.5 -12.5 15
      vertex -31.0148 -12.5 -5.67769
      vertex -29.8494 -12.5 -4.21631
    endloop
  endfacet
  facet normal 0 -1 0
    outer loop
      vertex -24.6121 -12.5 -4.21631
      vertex -20.5 -12.5 15
      vertex -26.2962 -12.5 -3.4053
    endloop
  endfacet
  facet normal 0 -1 0
    outer loop
      vertex -23.4467 -12.5 -5.67769
      vertex -20.5 -12.5 15
      vertex -24.6121 -12.5 -4.21631
    endloop
  endfacet
  facet normal 0 -1 0
    outer loop
      vertex -23.0308 -12.5 -7.5
      vertex -20.5 -12.5 15
      vertex -23.4467 -12.5 -5.67769
    endloop
  endfacet
  facet normal 0 -1 0
    outer loop
      vertex -23.3308 -12.5 -15
      vertex -20.5 -12.5 15
      vertex -23.0308 -12.5 -7.5
    endloop
  endfacet
  facet normal 0 -1 0
    outer loop
      vertex -23.3308 -12.5 -15
      vertex -23.0308 -12.5 -7.5
      vertex -23.3308 -12.5 -8.81439
    endloop
  endfacet
  facet normal 0 -1 0
    outer loop
      vertex 12.5 -12.5 -15
      vertex -20.5 -12.5 15
      vertex -23.3308 -12.5 -15
    endloop
  endfacet
  facet normal 0 -1 0
    outer loop
      vertex 12.5 -12.5 15
      vertex -20.5 -12.5 15
      vertex 12.5 -12.5 -15
    endloop
  endfacet
  facet normal 0 -1 0
    outer loop
      vertex -29.8494 -12.5 -4.21631
      vertex -28.1654 -12.5 -3.4053
      vertex -20.5 -12.5 15
    endloop
  endfacet
  facet normal 1 0 0
    outer loop
      vertex -31.1308 12.5 -15
      vertex -31.1308 12.5 -8.81439
      vertex -31.1308 -12.5 -8.81439
    endloop
  endfacet
  facet normal 1 0 0
    outer loop
      vertex -31.1308 -12.5 -15
      vertex -31.1308 12.5 -15
      vertex -31.1308 -12.5 -8.81439
    endloop
  endfacet
  facet normal 0 1 0
    outer loop
      vertex -31.0148 12.5 -5.67769
      vertex -45.5 12.5 -15
      vertex -29.8494 12.5 -4.21631
    endloop
  endfacet
  facet normal 0 1 0
    outer loop
      vertex -23.0308 12.5 -7.5
      vertex -20.5 12.5 15
      vertex 12.5 12.5 15
    endloop
  endfacet
  facet normal 0 1 0
    outer loop
      vertex -23.3308 12.5 -15
      vertex 12.5 12.5 15
      vertex 12.5 12.5 -15
    endloop
  endfacet
  facet normal 0 1 0
    outer loop
      vertex -28.1654 12.5 -3.4053
      vertex -20.5 12.5 15
      vertex -26.2962 12.5 -3.4053
    endloop
  endfacet
  facet normal 0 1 0
    outer loop
      vertex -23.4467 12.5 -5.67769
      vertex -20.5 12.5 15
      vertex -23.0308 12.5 -7.5
    endloop
  endfacet
  facet normal 0 1 0
    outer loop
      vertex -23.3308 12.5 -8.81439
      vertex -23.0308 12.5 -7.5
      vertex 12.5 12.5 15
    endloop
  endfacet
  facet normal 0 1 0
    outer loop
      vertex -24.6121 12.5 -4.21631
      vertex -20.5 12.5 15
      vertex -23.4467 12.5 -5.67769
    endloop
  endfacet
  facet normal 0 1 0
    outer loop
      vertex -26.2962 12.5 -3.4053
      vertex -20.5 12.5 15
      vertex -24.6121 12.5 -4.21631
    endloop
  endfacet
  facet normal 0 1 0
    outer loop
      vertex -29.8494 12.5 -4.21631
      vertex -20.5 12.5 15
      vertex -28.1654 12.5 -3.4053
    endloop
  endfacet
  facet normal 0 1 0
    outer loop
      vertex -45.5 12.5 -15
      vertex -20.5 12.5 15
      vertex -29.8494 12.5 -4.21631
    endloop
  endfacet
  facet normal 0 1 0
    outer loop
      vertex -45.5 12.5 -15
      vertex -31.0148 12.5 -5.67769
      vertex -31.4308 12.5 -7.5
    endloop
  endfacet
  facet normal 0 1 0
    outer loop
      vertex -45.5 12.5 -15
      vertex -31.4308 12.5 -7.5
      vertex -31.1308 12.5 -15
    endloop
  endfacet
  facet normal 0 1 0
    outer loop
      vertex -31.4308 12.5 -7.5
      vertex -31.1308 12.5 -8.81439
      vertex -31.1308 12.5 -15
    endloop
  endfacet
  facet normal 0 1 0
    outer loop
      vertex -23.3308 12.5 -8.81439
      vertex 12.5 12.5 15
      vertex -23.3308 12.5 -15
    endloop
  endfacet
  facet normal 0 0 1
    outer loop
      vertex -10.5 -10.5 15
      vertex -20.5 -12.5 15
      vertex 12.5 -12.5 15
    endloop
  endfacet
  facet normal 0 0 1
    outer loop
      vertex 10.5 -10.5 15
      vertex -10.5 -10.5 15
      vertex 12.5 -12.5 15
    endloop
  endfacet
  facet normal 0 0 1
    outer loop
      vertex 10.5 -2.08333 15
      vertex 10.5 -10.5 15
      vertex 12.5 -7.5 15
    endloop
  endfacet
  facet normal 0 0 1
    outer loop
      vertex 24.5 -7.5 15
      vertex 10.5 -2.08333 15
      vertex 12.5 -7.5 15
    endloop
  endfacet
  facet normal 0 0 1
    outer loop
      vertex 12.5 -7.5 15
      vertex 10.5 -10.5 15
      vertex 12.5 -12.5 15
    endloop
  endfacet
  facet normal 0 0 1
    outer loop
      vertex -20.5 12.5 15
      vertex -20.5 -12.5 15
      vertex -10.5 -10.5 15
    endloop
  endfacet
  facet normal 0 0 1
    outer loop
      vertex 10.5 10.5 15
      vertex -20.5 12.5 15
      vertex -10.5 10.5 15
    endloop
  endfacet
  facet normal 0 0 1
    outer loop
      vertex 10.5 2.08333 15
      vertex 24.5 2.08333 15
      vertex 12.5 7.5 15
    endloop
  endfacet
  facet normal 0 0 1
    outer loop
      vertex 12.5 12.5 15
      vertex -20.5 12.5 15
      vertex 10.5 10.5 15
    endloop
  endfacet
  facet normal 0 0 1
    outer loop
      vertex 12.5 7.5 15
      vertex 12.5 12.5 15
      vertex 10.5 10.5 15
    endloop
  endfacet
  facet normal 0 0 1
    outer loop
      vertex 24.5 7.5 15
      vertex 12.5 7.5 15
      vertex 24.5 2.08333 15
    endloop
  endfacet
  facet normal 0 0 1
    outer loop
      vertex 10.5 10.5 15
      vertex 10.5 2.08333 15
      vertex 12.5 7.5 15
    endloop
  endfacet
  facet normal 0 0 1
    outer loop
      vertex 24.5 -2.08333 15
      vertex 10.5 -2.08333 15
      vertex 24.5 -7.5 15
    endloop
  endfacet
  facet normal 0 0 1
    outer loop
      vertex -10.5 -10.5 15
      vertex -10.5 10.5 15
      vertex -20.5 12.5 15
    endloop
  endfacet
  facet normal 1 0 0
    outer loop
      vertex 12.5 -12.5 15
      vertex 12.5 -12.5 -15
      vertex 12.5 -7.5 -15
    endloop
  endfacet
  facet normal 1 0 0
    outer loop
      vertex 12.5 -7.5 15
      vertex 12.5 -12.5 15
      vertex 12.5 -7.5 -15
    endloop
  endfacet
  facet normal 0 0 -1
    outer loop
      vertex 10.5 10.5 -15
      vertex -23.3308 12.5 -15
      vertex 12.5 12.5 -15
    endloop
  endfacet
  facet normal 0 0 -1
    outer loop
      vertex 10.5 -10.5 -15
      vertex 12.5 -12.5 -15
      vertex -10.5 -10.5 -15
    endloop
  endfacet
  facet normal 0 0 -1
    outer loop
      vertex 24.5 -2.08333 -15
      vertex 12.5 -7.5 -15
      vertex 10.5 -2.08333 -15
    endloop
  endfacet
  facet normal 0 0 -1
    outer loop
      vertex -10.5 -10.5 -15
      vertex -23.3308 12.5 -15
      vertex -10.5 10.5 -15
    endloop
  endfacet
  facet normal 0 0 -1
    outer loop
      vertex 12.5 7.5 -15
      vertex 10.5 10.5 -15
      vertex 12.5 12.5 -15
    endloop
  endfacet
  facet normal 0 0 -1
    outer loop
      vertex -23.3308 -12.5 -15
      vertex -23.3308 12.5 -15
      vertex -10.5 -10.5 -15
    endloop
  endfacet
  facet normal 0 0 -1
    outer loop
      vertex -23.3308 -12.5 -15
      vertex -10.5 -10.5 -15
      vertex 12.5 -12.5 -15
    endloop
  endfacet
  facet normal 0 0 -1
    outer loop
      vertex 12.5 -7.5 -15
      vertex 12.5 -12.5 -15
      vertex 10.5 -2.08333 -15
    endloop
  endfacet
  facet normal 0 0 -1
    outer loop
      vertex 12.5 -12.5 -15
      vertex 10.5 -10.5 -15
      vertex 10.5 -2.08333 -15
    endloop
  endfacet
  facet normal 0 0 -1
    outer loop
      vertex 12.5 -7.5 -15
      vertex 24.5 -2.08333 -15
      vertex 24.5 -7.5 -15
    endloop
  endfacet
  facet normal 0 0 -1
    outer loop
      vertex -10.5 10.5 -15
      vertex -23.3308 12.5 -15
      vertex 10.5 10.5 -15
    endloop
  endfacet
  facet normal 0 0 -1
    outer loop
      vertex 10.5 10.5 -15
      vertex 12.5 7.5 -15
      vertex 10.5 2.08333 -15
    endloop
  endfacet
  facet normal 0 0 -1
    outer loop
      vertex 10.5 2.08333 -15
      vertex 12.5 7.5 -15
      vertex 24.5 7.5 -15
    endloop
  endfacet
  facet normal 0 0 -1
    outer loop
      vertex 10.5 2.08333 -15
      vertex 24.5 7.5 -15
      vertex 24.5 2.08333 -15
    endloop
  endfacet
  facet normal -1 0 0
    outer loop
      vertex -23.3308 12.5 -8.81439
      vertex -23.3308 12.5 -15
      vertex -23.3308 -12.5 -8.81439
    endloop
  endfacet
  facet normal -1 0 0
    outer loop
      vertex -23.3308 -12.5 -8.81439
      vertex -23.3308 12.5 -15
      vertex -23.3308 -12.5 -15
    endloop
  endfacet
  facet normal -0.974928 4.94096e-17 0.222521
    outer loop
      vertex -23.0308 12.5 -7.5
      vertex -23.3308 12.5 -8.81439
      vertex -23.0308 -12.5 -7.5
    endloop
  endfacet
  facet normal -0.974928 4.94096e-17 0.222521
    outer loop
      vertex -23.0308 -12.5 -7.5
      vertex -23.3308 12.5 -8.81439
      vertex -23.3308 -12.5 -8.81439
    endloop
  endfacet
  facet normal -0.974928 -4.94096e-17 -0.222521
    outer loop
      vertex -23.0308 12.5 -7.5
      vertex -23.0308 -12.5 -7.5
      vertex -23.4467 12.5 -5.67769
    endloop
  endfacet
  facet normal -0.974928 -4.94096e-17 -0.222521
    outer loop
      vertex -23.4467 12.5 -5.67769
      vertex -23.0308 -12.5 -7.5
      vertex -23.4467 -12.5 -5.67769
    endloop
  endfacet
  facet normal -0.781831 -1.38443e-16 -0.62349
    outer loop
      vertex -23.4467 12.5 -5.67769
      vertex -23.4467 -12.5 -5.67769
      vertex -24.6121 12.5 -4.21631
    endloop
  endfacet
  facet normal -0.781831 -1.38443e-16 -0.62349
    outer loop
      vertex -24.6121 12.5 -4.21631
      vertex -23.4467 -12.5 -5.67769
      vertex -24.6121 -12.5 -4.21631
    endloop
  endfacet
  facet normal -0.433884 -2.00055e-16 -0.900969
    outer loop
      vertex -24.6121 12.5 -4.21631
      vertex -24.6121 -12.5 -4.21631
      vertex -26.2962 12.5 -3.4053
    endloop
  endfacet
  facet normal -0.433884 -2.00055e-16 -0.900969
    outer loop
      vertex -26.2962 12.5 -3.4053
      vertex -24.6121 -12.5 -4.21631
      vertex -26.2962 -12.5 -3.4053
    endloop
  endfacet
  facet normal 0 -2.22045e-16 -1
    outer loop
      vertex -26.2962 12.5 -3.4053
      vertex -26.2962 -12.5 -3.4053
      vertex -28.1654 12.5 -3.4053
    endloop
  endfacet
  facet normal 0 -2.22045e-16 -1
    outer loop
      vertex -28.1654 12.5 -3.4053
      vertex -26.2962 -12.5 -3.4053
      vertex -28.1654 -12.5 -3.4053
    endloop
  endfacet
  facet normal 0.433884 -2.00055e-16 -0.900969
    outer loop
      vertex -28.1654 12.5 -3.4053
      vertex -28.1654 -12.5 -3.4053
      vertex -29.8494 12.5 -4.21631
    endloop
  endfacet
  facet normal 0.433884 -2.00055e-16 -0.900969
    outer loop
      vertex -29.8494 12.5 -4.21631
      vertex -28.1654 -12.5 -3.4053
      vertex -29.8494 -12.5 -4.21631
    endloop
  endfacet
  facet normal 0.781831 -1.38443e-16 -0.62349
    outer loop
      vertex -31.0148 12.5 -5.67769
      vertex -29.8494 12.5 -4.21631
      vertex -29.8494 -12.5 -4.21631
    endloop
  endfacet
  facet normal 0.781831 -1.38443e-16 -0.62349
    outer loop
      vertex -31.0148 -12.5 -5.67769
      vertex -31.0148 12.5 -5.67769
      vertex -29.8494 -12.5 -4.21631
    endloop
  endfacet
  facet normal 0.974928 -4.94096e-17 -0.222521
    outer loop
      vertex -31.4308 12.5 -7.5
      vertex -31.0148 12.5 -5.67769
      vertex -31.0148 -12.5 -5.67769
    endloop
  endfacet
  facet normal 0.974928 -4.94096e-17 -0.222521
    outer loop
      vertex -31.4308 -12.5 -7.5
      vertex -31.4308 12.5 -7.5
      vertex -31.0148 -12.5 -5.67769
    endloop
  endfacet
  facet normal 0.974928 4.94096e-17 0.222521
    outer loop
      vertex -31.1308 -12.5 -8.81439
      vertex -31.1308 12.5 -8.81439
      vertex -31.4308 12.5 -7.5
    endloop
  endfacet
  facet normal 0.974928 4.94096e-17 0.222521
    outer loop
      vertex -31.4308 -12.5 -7.5
      vertex -31.1308 -12.5 -8.81439
      vertex -31.4308 12.5 -7.5
    endloop
  endfacet
  facet normal 1 0 0
    outer loop
      vertex 12.5 7.5 15
      vertex 12.5 7.5 -15
      vertex 12.5 12.5 -15
    endloop
  endfacet
  facet normal 1 0 0
    outer loop
      vertex 12.5 12.5 15
      vertex 12.5 7.5 15
      vertex 12.5 12.5 -15
    endloop
  endfacet
  facet normal 0 1 0
    outer loop
      vertex 19.4 7.5 -1.66533e-15
      vertex 12.5 7.5 15
      vertex 24.5 7.5 15
    endloop
  endfacet
  facet normal 0 1 0
    outer loop
      vertex 12.5 7.5 -15
      vertex 12.5 7.5 15
      vertex 15.6 7.5 -1.66533e-15
    endloop
  endfacet
  facet normal 0 1 0
    outer loop
      vertex 12.5 7.5 -15
      vertex 15.6 7.5 -1.66533e-15
      vertex 16.55 7.5 -1.64545
    endloop
  endfacet
  facet normal 0 1 0
    outer loop
      vertex 12.5 7.5 -15
      vertex 16.55 7.5 -1.64545
      vertex 24.5 7.5 -15
    endloop
  endfacet
  facet normal 0 1 0
    outer loop
      vertex 19.4 7.5 -1.66533e-15
      vertex 24.5 7.5 -15
      vertex 18.45 7.5 -1.64545
    endloop
  endfacet
  facet normal 0 1 0
    outer loop
      vertex 18.45 7.5 1.64545
      vertex 12.5 7.5 15
      vertex 19.4 7.5 -1.66533e-15
    endloop
  endfacet
  facet normal 0 1 0
    outer loop
      vertex 24.5 7.5 -15
      vertex 19.4 7.5 -1.66533e-15
      vertex 24.5 7.5 15
    endloop
  endfacet
  facet normal 0 1 0
    outer loop
      vertex 16.55 7.5 1.64545
      vertex 12.5 7.5 15
      vertex 18.45 7.5 1.64545
    endloop
  endfacet
  facet normal 0 1 0
    outer loop
      vertex 15.6 7.5 -1.66533e-15
      vertex 12.5 7.5 15
      vertex 16.55 7.5 1.64545
    endloop
  endfacet
  facet normal 0 1 0
    outer loop
      vertex 18.45 7.5 -1.64545
      vertex 24.5 7.5 -15
      vertex 16.55 7.5 -1.64545
    endloop
  endfacet
  facet normal 1 0 0
    outer loop
      vertex 24.5 2.08333 15
      vertex 24.5 2.08333 -15
      vertex 24.5 7.5 -15
    endloop
  endfacet
  facet normal 1 0 0
    outer loop
      vertex 24.5 7.5 15
      vertex 24.5 2.08333 15
      vertex 24.5 7.5 -15
    endloop
  endfacet
  facet normal 0 -1 0
    outer loop
      vertex 18.45 2.08333 1.64545
      vertex 24.5 2.08333 15
      vertex 10.5 2.08333 15
    endloop
  endfacet
  facet normal 0 -1 0
    outer loop
      vertex 18.45 2.08333 -1.64545
      vertex 16.55 2.08333 -1.64545
      vertex 24.5 2.08333 -15
    endloop
  endfacet
  facet normal 0 -1 0
    outer loop
      vertex 10.5 2.08333 -15
      vertex 15.6 2.08333 -4.62593e-16
      vertex 10.5 2.08333 15
    endloop
  endfacet
  facet normal 0 -1 0
    outer loop
      vertex 15.6 2.08333 -4.62593e-16
      vertex 16.55 2.08333 1.64545
      vertex 10.5 2.08333 15
    endloop
  endfacet
  facet normal 0 -1 0
    outer loop
      vertex 19.4 2.08333 -4.62593e-16
      vertex 24.5 2.08333 15
      vertex 18.45 2.08333 1.64545
    endloop
  endfacet
  facet normal 0 -1 0
    outer loop
      vertex 24.5 2.08333 -15
      vertex 24.5 2.08333 15
      vertex 19.4 2.08333 -4.62593e-16
    endloop
  endfacet
  facet normal 0 -1 0
    outer loop
      vertex 19.4 2.08333 -4.62593e-16
      vertex 18.45 2.08333 -1.64545
      vertex 24.5 2.08333 -15
    endloop
  endfacet
  facet normal 0 -1 0
    outer loop
      vertex 10.5 2.08333 -15
      vertex 16.55 2.08333 -1.64545
      vertex 15.6 2.08333 -4.62593e-16
    endloop
  endfacet
  facet normal 0 -1 0
    outer loop
      vertex 10.5 2.08333 -15
      vertex 24.5 2.08333 -15
      vertex 16.55 2.08333 -1.64545
    endloop
  endfacet
  facet normal 0 -1 0
    outer loop
      vertex 16.55 2.08333 1.64545
      vertex 18.45 2.08333 1.64545
      vertex 10.5 2.08333 15
    endloop
  endfacet
  facet normal -1 0 0
    outer loop
      vertex 10.5 10.5 15
      vertex 10.5 10.5 -15
      vertex 10.5 2.08333 15
    endloop
  endfacet
  facet normal -1 0 0
    outer loop
      vertex 10.5 2.08333 15
      vertex 10.5 10.5 -15
      vertex 10.5 2.08333 -15
    endloop
  endfacet
  facet normal 0 -1 0
    outer loop
      vertex 10.5 10.5 -15
      vertex 10.5 10.5 15
      vertex -10.5 10.5 15
    endloop
  endfacet
  facet normal 0 -1 0
    outer loop
      vertex -10.5 10.5 -15
      vertex 10.5 10.5 -15
      vertex -10.5 10.5 15
    endloop
  endfacet
  facet normal 1 0 0
    outer loop
      vertex -10.5 10.5 -15
      vertex -10.5 10.5 15
      vertex -10.5 -10.5 15
    endloop
  endfacet
  facet normal 1 0 0
    outer loop
      vertex -10.5 -10.5 -15
      vertex -10.5 10.5 -15
      vertex -10.5 -10.5 15
    endloop
  endfacet
  facet normal 0 1 0
    outer loop
      vertex 10.5 -10.5 15
      vertex 10.5 -10.5 -15
      vertex -10.5 -10.5 15
    endloop
  endfacet
  facet normal 0 1 0
    outer loop
      vertex -10.5 -10.5 15
      vertex 10.5 -10.5 -15
      vertex -10.5 -10.5 -15
    endloop
  endfacet
  facet normal -1 0 0
    outer loop
      vertex 10.5 -2.08333 15
      vertex 10.5 -2.08333 -15
      vertex 10.5 -10.5 15
    endloop
  endfacet
  facet normal -1 0 0
    outer loop
      vertex 10.5 -10.5 15
      vertex 10.5 -2.08333 -15
      vertex 10.5 -10.5 -15
    endloop
  endfacet
  facet normal 0 1 0
    outer loop
      vertex 18.45 -2.08333 1.64545
      vertex 24.5 -2.08333 15
      vertex 19.4 -2.08333 4.62593e-16
    endloop
  endfacet
  facet normal 0 1 0
    outer loop
      vertex 16.55 -2.08333 -1.64545
      vertex 24.5 -2.08333 -15
      vertex 10.5 -2.08333 -15
    endloop
  endfacet
  facet normal 0 1 0
    outer loop
      vertex 15.6 -2.08333 4.62593e-16
      vertex 16.55 -2.08333 -1.64545
      vertex 10.5 -2.08333 -15
    endloop
  endfacet
  facet normal 0 1 0
    outer loop
      vertex 19.4 -2.08333 4.62593e-16
      vertex 24.5 -2.08333 -15
      vertex 18.45 -2.08333 -1.64545
    endloop
  endfacet
  facet normal 0 1 0
    outer loop
      vertex 24.5 -2.08333 15
      vertex 24.5 -2.08333 -15
      vertex 19.4 -2.08333 4.62593e-16
    endloop
  endfacet
  facet normal 0 1 0
    outer loop
      vertex 16.55 -2.08333 1.64545
      vertex 10.5 -2.08333 15
      vertex 18.45 -2.08333 1.64545
    endloop
  endfacet
  facet normal 0 1 0
    outer loop
      vertex 24.5 -2.08333 15
      vertex 18.45 -2.08333 1.64545
      vertex 10.5 -2.08333 15
    endloop
  endfacet
  facet normal 0 1 0
    outer loop
      vertex 10.5 -2.08333 15
      vertex 15.6 -2.08333 4.62593e-16
      vertex 10.5 -2.08333 -15
    endloop
  endfacet
  facet normal 0 1 0
    outer loop
      vertex 18.45 -2.08333 -1.64545
      vertex 24.5 -2.08333 -15
      vertex 16.55 -2.08333 -1.64545
    endloop
  endfacet
  facet normal 0 1 0
    outer loop
      vertex 15.6 -2.08333 4.62593e-16
      vertex 10.5 -2.08333 15
      vertex 16.55 -2.08333 1.64545
    endloop
  endfacet
  facet normal 1 0 0
    outer loop
      vertex 24.5 -7.5 15
      vertex 24.5 -7.5 -15
      vertex 24.5 -2.08333 -15
    endloop
  endfacet
  facet normal 1 0 0
    outer loop
      vertex 24.5 -2.08333 15
      vertex 24.5 -7.5 15
      vertex 24.5 -2.08333 -15
    endloop
  endfacet
  facet normal 0 -1 0
    outer loop
      vertex 15.75 -7.5 -3.03109
      vertex 12.5 -7.5 -15
      vertex 24.5 -7.5 -15
    endloop
  endfacet
  facet normal 0 -1 0
    outer loop
      vertex 14 -7.5 1.66533e-15
      vertex 12.5 -7.5 -15
      vertex 15.75 -7.5 -3.03109
    endloop
  endfacet
  facet normal 0 -1 0
    outer loop
      vertex 12.5 -7.5 15
      vertex 12.5 -7.5 -15
      vertex 14 -7.5 1.66533e-15
    endloop
  endfacet
  facet normal 0 -1 0
    outer loop
      vertex 14 -7.5 1.66533e-15
      vertex 15.75 -7.5 3.03109
      vertex 12.5 -7.5 15
    endloop
  endfacet
  facet normal 0 -1 0
    outer loop
      vertex 24.5 -7.5 15
      vertex 12.5 -7.5 15
      vertex 19.25 -7.5 3.03109
    endloop
  endfacet
  facet normal 0 -1 0
    outer loop
      vertex 24.5 -7.5 15
      vertex 21 -7.5 1.66533e-15
      vertex 24.5 -7.5 -15
    endloop
  endfacet
  facet normal 0 -1 0
    outer loop
      vertex 24.5 -7.5 15
      vertex 19.25 -7.5 3.03109
      vertex 21 -7.5 1.66533e-15
    endloop
  endfacet
  facet normal 0 -1 0
    outer loop
      vertex 21 -7.5 1.66533e-15
      vertex 19.25 -7.5 -3.03109
      vertex 24.5 -7.5 -15
    endloop
  endfacet
  facet normal 0 -1 0
    outer loop
      vertex 19.25 -7.5 -3.03109
      vertex 15.75 -7.5 -3.03109
      vertex 24.5 -7.5 -15
    endloop
  endfacet
  facet normal 0 -1 0
    outer loop
      vertex 15.75 -7.5 3.03109
      vertex 19.25 -7.5 3.03109
      vertex 12.5 -7.5 15
    endloop
  endfacet
  facet normal 0.866025 -1.11022e-16 -0.5
    outer loop
      vertex 15.6 7.5 -1.66533e-15
      vertex 16.55 7.5 1.64545
      vertex 16.55 2.08333 1.64545
    endloop
  endfacet
  facet normal 0.866025 -1.11022e-16 -0.5
    outer loop
      vertex 15.6 2.08333 -4.62593e-16
      vertex 15.6 7.5 -1.66533e-15
      vertex 16.55 2.08333 1.64545
    endloop
  endfacet
  facet normal 0.866025 1.11022e-16 0.5
    outer loop
      vertex 16.55 2.08333 -1.64545
      vertex 16.55 7.5 -1.64545
      vertex 15.6 7.5 -1.66533e-15
    endloop
  endfacet
  facet normal 0.866025 1.11022e-16 0.5
    outer loop
      vertex 15.6 2.08333 -4.62593e-16
      vertex 16.55 2.08333 -1.64545
      vertex 15.6 7.5 -1.66533e-15
    endloop
  endfacet
  facet normal 0 -2.22045e-16 -1
    outer loop
      vertex 18.45 7.5 1.64545
      vertex 18.45 2.08333 1.64545
      vertex 16.55 7.5 1.64545
    endloop
  endfacet
  facet normal 0 -2.22045e-16 -1
    outer loop
      vertex 16.55 7.5 1.64545
      vertex 18.45 2.08333 1.64545
      vertex 16.55 2.08333 1.64545
    endloop
  endfacet
  facet normal -0.866025 -1.11022e-16 -0.5
    outer loop
      vertex 19.4 7.5 -1.66533e-15
      vertex 19.4 2.08333 -4.62593e-16
      vertex 18.45 7.5 1.64545
    endloop
  endfacet
  facet normal -0.866025 -1.11022e-16 -0.5
    outer loop
      vertex 18.45 7.5 1.64545
      vertex 19.4 2.08333 -4.62593e-16
      vertex 18.45 2.08333 1.64545
    endloop
  endfacet
  facet normal -0.866025 1.11022e-16 0.5
    outer loop
      vertex 19.4 7.5 -1.66533e-15
      vertex 18.45 7.5 -1.64545
      vertex 19.4 2.08333 -4.62593e-16
    endloop
  endfacet
  facet normal -0.866025 1.11022e-16 0.5
    outer loop
      vertex 19.4 2.08333 -4.62593e-16
      vertex 18.45 7.5 -1.64545
      vertex 18.45 2.08333 -1.64545
    endloop
  endfacet
  facet normal 0 2.22045e-16 1
    outer loop
      vertex 18.45 2.08333 -1.64545
      vertex 18.45 7.5 -1.64545
      vertex 16.55 7.5 -1.64545
    endloop
  endfacet
  facet normal 0 2.22045e-16 1
    outer loop
      vertex 16.55 2.08333 -1.64545
      vertex 18.45 2.08333 -1.64545
      vertex 16.55 7.5 -1.64545
    endloop
  endfacet
  facet normal 0 2.22045e-16 1
    outer loop
      vertex 18.45 -5 -1.64545
      vertex 18.45 -2.08333 -1.64545
      vertex 16.55 -2.08333 -1.64545
    endloop
  endfacet
  facet normal 0 2.22045e-16 1
    outer loop
      vertex 16.55 -5 -1.64545
      vertex 18.45 -5 -1.64545
      vertex 16.55 -2.08333 -1.64545
    endloop
  endfacet
  facet normal 0.866025 1.11022e-16 0.5
    outer loop
      vertex 16.55 -5 -1.64545
      vertex 16.55 -2.08333 -1.64545
      vertex 15.6 -2.08333 4.62593e-16
    endloop
  endfacet
  facet normal 0.866025 1.11022e-16 0.5
    outer loop
      vertex 15.6 -5 1.11022e-15
      vertex 16.55 -5 -1.64545
      vertex 15.6 -2.08333 4.62593e-16
    endloop
  endfacet
  facet normal 0.866025 -1.11022e-16 -0.5
    outer loop
      vertex 15.6 -2.08333 4.62593e-16
      vertex 16.55 -2.08333 1.64545
      vertex 16.55 -5 1.64545
    endloop
  endfacet
  facet normal 0.866025 -1.11022e-16 -0.5
    outer loop
      vertex 15.6 -5 1.11022e-15
      vertex 15.6 -2.08333 4.62593e-16
      vertex 16.55 -5 1.64545
    endloop
  endfacet
  facet normal 0 -2.22045e-16 -1
    outer loop
      vertex 18.45 -2.08333 1.64545
      vertex 18.45 -5 1.64545
      vertex 16.55 -2.08333 1.64545
    endloop
  endfacet
  facet normal 0 -2.22045e-16 -1
    outer loop
      vertex 16.55 -2.08333 1.64545
      vertex 18.45 -5 1.64545
      vertex 16.55 -5 1.64545
    endloop
  endfacet
  facet normal -0.866025 -1.11022e-16 -0.5
    outer loop
      vertex 19.4 -2.08333 4.62593e-16
      vertex 19.4 -5 1.11022e-15
      vertex 18.45 -2.08333 1.64545
    endloop
  endfacet
  facet normal -0.866025 -1.11022e-16 -0.5
    outer loop
      vertex 18.45 -2.08333 1.64545
      vertex 19.4 -5 1.11022e-15
      vertex 18.45 -5 1.64545
    endloop
  endfacet
  facet normal -0.866025 1.11022e-16 0.5
    outer loop
      vertex 19.4 -2.08333 4.62593e-16
      vertex 18.45 -2.08333 -1.64545
      vertex 19.4 -5 1.11022e-15
    endloop
  endfacet
  facet normal -0.866025 1.11022e-16 0.5
    outer loop
      vertex 19.4 -5 1.11022e-15
      vertex 18.45 -2.08333 -1.64545
      vertex 18.45 -5 -1.64545
    endloop
  endfacet
  facet normal 0.866025 1.11022e-16 0.5
    outer loop
      vertex 15.75 -7.5 -3.03109
      vertex 15.75 -5 -3.03109
      vertex 14 -5 1.11022e-15
    endloop
  endfacet
  facet normal 0.866025 1.11022e-16 0.5
    outer loop
      vertex 14 -7.5 1.66533e-15
      vertex 15.75 -7.5 -3.03109
      vertex 14 -5 1.11022e-15
    endloop
  endfacet
  facet normal 0 2.22045e-16 1
    outer loop
      vertex 19.25 -7.5 -3.03109
      vertex 19.25 -5 -3.03109
      vertex 15.75 -5 -3.03109
    endloop
  endfacet
  facet normal 0 2.22045e-16 1
    outer loop
      vertex 15.75 -7.5 -3.03109
      vertex 19.25 -7.5 -3.03109
      vertex 15.75 -5 -3.03109
    endloop
  endfacet
  facet normal -0.866025 1.11022e-16 0.5
    outer loop
      vertex 21 -5 1.11022e-15
      vertex 19.25 -5 -3.03109
      vertex 21 -7.5 1.66533e-15
    endloop
  endfacet
  facet normal -0.866025 1.11022e-16 0.5
    outer loop
      vertex 21 -7.5 1.66533e-15
      vertex 19.25 -5 -3.03109
      vertex 19.25 -7.5 -3.03109
    endloop
  endfacet
  facet normal -0.866025 -1.11022e-16 -0.5
    outer loop
      vertex 21 -5 1.11022e-15
      vertex 21 -7.5 1.66533e-15
      vertex 19.25 -5 3.03109
    endloop
  endfacet
  facet normal -0.866025 -1.11022e-16 -0.5
    outer loop
      vertex 19.25 -5 3.03109
      vertex 21 -7.5 1.66533e-15
      vertex 19.25 -7.5 3.03109
    endloop
  endfacet
  facet normal 0 -2.22045e-16 -1
    outer loop
      vertex 19.25 -5 3.03109
      vertex 19.25 -7.5 3.03109
      vertex 15.75 -5 3.03109
    endloop
  endfacet
  facet normal 0 -2.22045e-16 -1
    outer loop
      vertex 15.75 -5 3.03109
      vertex 19.25 -7.5 3.03109
      vertex 15.75 -7.5 3.03109
    endloop
  endfacet
  facet normal 0.866025 -1.11022e-16 -0.5
    outer loop
      vertex 14 -5 1.11022e-15
      vertex 15.75 -5 3.03109
      vertex 15.75 -7.5 3.03109
    endloop
  endfacet
  facet normal 0.866025 -1.11022e-16 -0.5
    outer loop
      vertex 14 -7.5 1.66533e-15
      vertex 14 -5 1.11022e-15
      vertex 15.75 -7.5 3.03109
    endloop
  endfacet
  facet normal 0 -1 2.22045e-16
    outer loop
      vertex 18.45 -5 -1.64545
      vertex 19.25 -5 -3.03109
      vertex 21 -5 1.11022e-15
    endloop
  endfacet
  facet normal 0 -1 2.22045e-16
    outer loop
      vertex 19.4 -5 1.11022e-15
      vertex 18.45 -5 -1.64545
      vertex 21 -5 1.11022e-15
    endloop
  endfacet
  facet normal 0 -1 2.22045e-16
    outer loop
      vertex 14 -5 1.11022e-15
      vertex 15.6 -5 1.11022e-15
      vertex 15.75 -5 3.03109
    endloop
  endfacet
  facet normal 0 -1 2.22045e-16
    outer loop
      vertex 14 -5 1.11022e-15
      vertex 15.75 -5 -3.03109
      vertex 15.6 -5 1.11022e-15
    endloop
  endfacet
  facet normal 0 -1 2.22045e-16
    outer loop
      vertex 15.75 -5 3.03109
      vertex 16.55 -5 1.64545
      vertex 19.25 -5 3.03109
    endloop
  endfacet
  facet normal 0 -1 2.22045e-16
    outer loop
      vertex 19.25 -5 3.03109
      vertex 18.45 -5 1.64545
      vertex 21 -5 1.11022e-15
    endloop
  endfacet
  facet normal 0 -1 2.22045e-16
    outer loop
      vertex 18.45 -5 1.64545
      vertex 19.4 -5 1.11022e-15
      vertex 21 -5 1.11022e-15
    endloop
  endfacet
  facet normal 0 -1 2.22045e-16
    outer loop
      vertex 15.75 -5 -3.03109
      vertex 19.25 -5 -3.03109
      vertex 18.45 -5 -1.64545
    endloop
  endfacet
  facet normal 0 -1 2.22045e-16
    outer loop
      vertex 18.45 -5 -1.64545
      vertex 16.55 -5 -1.64545
      vertex 15.75 -5 -3.03109
    endloop
  endfacet
  facet normal 0 -1 2.22045e-16
    outer loop
      vertex 16.55 -5 1.64545
      vertex 18.45 -5 1.64545
      vertex 19.25 -5 3.03109
    endloop
  endfacet
  facet normal 0 -1 2.22045e-16
    outer loop
      vertex 15.6 -5 1.11022e-15
      vertex 16.55 -5 1.64545
      vertex 15.75 -5 3.03109
    endloop
  endfacet
  facet normal 0 -1 2.22045e-16
    outer loop
      vertex 16.55 -5 -1.64545
      vertex 15.6 -5 1.11022e-15
      vertex 15.75 -5 -3.03109
    endloop
  endfacet
endsolid OpenSCAD_Model
