solid OpenSCAD_Model
  facet normal 0 0 -1
    outer loop
      vertex -45.5 -12.5 -15
      vertex -45.5 12.5 -15
      vertex -25 -12.5 -15
    endloop
  endfacet
  facet normal 0 0 -1
    outer loop
      vertex -25 -12.5 -15
      vertex -45.5 12.5 -15
      vertex -25 12.5 -15
    endloop
  endfacet
  facet normal -0.768221 0 0.640184
    outer loop
      vertex -45.5 -12.5 -15
      vertex -20.5 -12.5 15
      vertex -45.5 12.5 -15
    endloop
  endfacet
  facet normal -0.768221 0 0.640184
    outer loop
      vertex -45.5 12.5 -15
      vertex -20.5 -12.5 15
      vertex -20.5 12.5 15
    endloop
  endfacet
  facet normal 0 -1 0
    outer loop
      vertex -25 -12.5 -9.59211
      vertex -45.5 -12.5 -15
      vertex -25 -12.5 -15
    endloop
  endfacet
  facet normal 0 -1 0
    outer loop
      vertex -25.1194 -12.5 -9.41342
      vertex -45.5 -12.5 -15
      vertex -25 -12.5 -9.59211
    endloop
  endfacet
  facet normal 0 -1 0
    outer loop
      vertex -25.5 -12.5 -7.5
      vertex -45.5 -12.5 -15
      vertex -25.1194 -12.5 -9.41342
    endloop
  endfacet
  facet normal 0 -1 0
    outer loop
      vertex -25.1194 -12.5 -5.58658
      vertex -45.5 -12.5 -15
      vertex -25.5 -12.5 -7.5
    endloop
  endfacet
  facet normal 0 -1 0
    outer loop
      vertex -24.0355 -12.5 -3.96447
      vertex -22.4134 -12.5 -2.8806
      vertex -20.5 -12.5 15
    endloop
  endfacet
  facet normal 0 -1 0
    outer loop
      vertex -20.5 -12.5 15
      vertex -45.5 -12.5 -15
      vertex -25.1194 -12.5 -5.58658
    endloop
  endfacet
  facet normal 0 -1 0
    outer loop
      vertex -20.5 -12.5 -2.5
      vertex -20.5 -12.5 15
      vertex -22.4134 -12.5 -2.8806
    endloop
  endfacet
  facet normal 0 -1 0
    outer loop
      vertex -18.5866 -12.5 -2.8806
      vertex -20.5 -12.5 15
      vertex -20.5 -12.5 -2.5
    endloop
  endfacet
  facet normal 0 -1 0
    outer loop
      vertex -16.9645 -12.5 -3.96447
      vertex -20.5 -12.5 15
      vertex -18.5866 -12.5 -2.8806
    endloop
  endfacet
  facet normal 0 -1 0
    outer loop
      vertex -15.8806 -12.5 -5.58658
      vertex -20.5 -12.5 15
      vertex -16.9645 -12.5 -3.96447
    endloop
  endfacet
  facet normal 0 -1 0
    outer loop
      vertex 12.5 -12.5 -15
      vertex -20.5 -12.5 15
      vertex -15.8806 -12.5 -5.58658
    endloop
  endfacet
  facet normal 0 -1 0
    outer loop
      vertex 12.5 -12.5 -15
      vertex -15.8806 -12.5 -5.58658
      vertex -15.5 -12.5 -7.5
    endloop
  endfacet
  facet normal 0 -1 0
    outer loop
      vertex -16 -12.5 -15
      vertex -15.5 -12.5 -7.5
      vertex -15.8806 -12.5 -9.41342
    endloop
  endfacet
  facet normal 0 -1 0
    outer loop
      vertex -16 -12.5 -15
      vertex -15.8806 -12.5 -9.41342
      vertex -16 -12.5 -9.59211
    endloop
  endfacet
  facet normal 0 -1 0
    outer loop
      vertex 12.5 -12.5 -15
      vertex -15.5 -12.5 -7.5
      vertex -16 -12.5 -15
    endloop
  endfacet
  facet normal 0 -1 0
    outer loop
      vertex 12.5 -12.5 15
      vertex -20.5 -12.5 15
      vertex 12.5 -12.5 -15
    endloop
  endfacet
  facet normal 0 -1 0
    outer loop
      vertex -25.1194 -12.5 -5.58658
      vertex -24.0355 -12.5 -3.96447
      vertex -20.5 -12.5 15
    endloop
  endfacet
  facet normal 1 0 0
    outer loop
      vertex -25 12.5 -15
      vertex -25 12.5 -9.59211
      vertex -25 -12.5 -9.59211
    endloop
  endfacet
  facet normal 1 0 0
    outer loop
      vertex -25 -12.5 -15
      vertex -25 12.5 -15
      vertex -25 -12.5 -9.59211
    endloop
  endfacet
  facet normal 0 1 0
    outer loop
      vertex -25 12.5 -9.59211
      vertex -25 12.5 -15
      vertex -25.1194 12.5 -9.41342
    endloop
  endfacet
  facet normal 0 1 0
    outer loop
      vertex -15.8806 12.5 -5.58658
      vertex -20.5 12.5 15
      vertex 12.5 12.5 15
    endloop
  endfacet
  facet normal 0 1 0
    outer loop
      vertex -16 12.5 -15
      vertex 12.5 12.5 15
      vertex 12.5 12.5 -15
    endloop
  endfacet
  facet normal 0 1 0
    outer loop
      vertex -16 12.5 -9.59211
      vertex 12.5 12.5 15
      vertex -16 12.5 -15
    endloop
  endfacet
  facet normal 0 1 0
    outer loop
      vertex -15.8806 12.5 -9.41342
      vertex 12.5 12.5 15
      vertex -16 12.5 -9.59211
    endloop
  endfacet
  facet normal 0 1 0
    outer loop
      vertex -15.5 12.5 -7.5
      vertex 12.5 12.5 15
      vertex -15.8806 12.5 -9.41342
    endloop
  endfacet
  facet normal 0 1 0
    outer loop
      vertex -16.9645 12.5 -3.96447
      vertex -20.5 12.5 15
      vertex -15.8806 12.5 -5.58658
    endloop
  endfacet
  facet normal 0 1 0
    outer loop
      vertex -24.0355 12.5 -3.96447
      vertex -20.5 12.5 15
      vertex -22.4134 12.5 -2.8806
    endloop
  endfacet
  facet normal 0 1 0
    outer loop
      vertex -18.5866 12.5 -2.8806
      vertex -20.5 12.5 15
      vertex -16.9645 12.5 -3.96447
    endloop
  endfacet
  facet normal 0 1 0
    outer loop
      vertex -20.5 12.5 -2.5
      vertex -20.5 12.5 15
      vertex -18.5866 12.5 -2.8806
    endloop
  endfacet
  facet normal 0 1 0
    outer loop
      vertex -22.4134 12.5 -2.8806
      vertex -20.5 12.5 15
      vertex -20.5 12.5 -2.5
    endloop
  endfacet
  facet normal 0 1 0
    outer loop
      vertex -45.5 12.5 -15
      vertex -20.5 12.5 15
      vertex -24.0355 12.5 -3.96447
    endloop
  endfacet
  facet normal 0 1 0
    outer loop
      vertex -45.5 12.5 -15
      vertex -24.0355 12.5 -3.96447
      vertex -25.1194 12.5 -5.58658
    endloop
  endfacet
  facet normal 0 1 0
    outer loop
      vertex -45.5 12.5 -15
      vertex -25.1194 12.5 -5.58658
      vertex -25.5 12.5 -7.5
    endloop
  endfacet
  facet normal 0 1 0
    outer loop
      vertex -45.5 12.5 -15
      vertex -25.5 12.5 -7.5
      vertex -25 12.5 -15
    endloop
  endfacet
  facet normal 0 1 0
    outer loop
      vertex -25.5 12.5 -7.5
      vertex -25.1194 12.5 -9.41342
      vertex -25 12.5 -15
    endloop
  endfacet
  facet normal 0 1 0
    outer loop
      vertex -15.8806 12.5 -5.58658
      vertex 12.5 12.5 15
      vertex -15.5 12.5 -7.5
    endloop
  endfacet
  facet normal 0 0 1
    outer loop
      vertex -10.5 -10.5 15
      vertex -20.5 -12.5 15
      vertex 12.5 -12.5 15
    endloop
  endfacet
  facet normal 0 0 1
    outer loop
      vertex 10.5 -10.5 15
      vertex -10.5 -10.5 15
      vertex 12.5 -12.5 15
    endloop
  endfacet
  facet normal 0 0 1
    outer loop
      vertex 10.5 -2.08333 15
      vertex 10.5 -10.5 15
      vertex 12.5 -7.5 15
    endloop
  endfacet
  facet normal 0 0 1
    outer loop
      vertex 24.5 -7.5 15
      vertex 10.5 -2.08333 15
      vertex 12.5 -7.5 15
    endloop
  endfacet
  facet normal 0 0 1
    outer loop
      vertex 12.5 -7.5 15
      vertex 10.5 -10.5 15
      vertex 12.5 -12.5 15
    endloop
  endfacet
  facet normal 0 0 1
    outer loop
      vertex -20.5 12.5 15
      vertex -20.5 -12.5 15
      vertex -10.5 -10.5 15
    endloop
  endfacet
  facet normal 0 0 1
    outer loop
      vertex 10.5 10.5 15
      vertex -20.5 12.5 15
      vertex -10.5 10.5 15
    endloop
  endfacet
  facet normal 0 0 1
    outer loop
      vertex 10.5 2.08333 15
      vertex 24.5 2.08333 15
      vertex 12.5 7.5 15
    endloop
  endfacet
  facet normal 0 0 1
    outer loop
      vertex 12.5 12.5 15
      vertex -20.5 12.5 15
      vertex 10.5 10.5 15
    endloop
  endfacet
  facet normal 0 0 1
    outer loop
      vertex 12.5 7.5 15
      vertex 12.5 12.5 15
      vertex 10.5 10.5 15
    endloop
  endfacet
  facet normal 0 0 1
    outer loop
      vertex 24.5 7.5 15
      vertex 12.5 7.5 15
      vertex 24.5 2.08333 15
    endloop
  endfacet
  facet normal 0 0 1
    outer loop
      vertex 10.5 10.5 15
      vertex 10.5 2.08333 15
      vertex 12.5 7.5 15
    endloop
  endfacet
  facet normal 0 0 1
    outer loop
      vertex 24.5 -2.08333 15
      vertex 10.5 -2.08333 15
      vertex 24.5 -7.5 15
    endloop
  endfacet
  facet normal 0 0 1
    outer loop
      vertex -10.5 -10.5 15
      vertex -10.5 10.5 15
      vertex -20.5 12.5 15
    endloop
  endfacet
  facet normal 1 0 0
    outer loop
      vertex 12.5 -12.5 15
      vertex 12.5 -12.5 -15
      vertex 12.5 -7.5 -15
    endloop
  endfacet
  facet normal 1 0 0
    outer loop
      vertex 12.5 -7.5 15
      vertex 12.5 -12.5 15
      vertex 12.5 -7.5 -15
    endloop
  endfacet
  facet normal 0 0 -1
    outer loop
      vertex 10.5 10.5 -15
      vertex -16 12.5 -15
      vertex 12.5 12.5 -15
    endloop
  endfacet
  facet normal 0 0 -1
    outer loop
      vertex 10.5 -10.5 -15
      vertex 12.5 -12.5 -15
      vertex -10.5 -10.5 -15
    endloop
  endfacet
  facet normal 0 0 -1
    outer loop
      vertex 24.5 -2.08333 -15
      vertex 12.5 -7.5 -15
      vertex 10.5 -2.08333 -15
    endloop
  endfacet
  facet normal 0 0 -1
    outer loop
      vertex -10.5 -10.5 -15
      vertex -16 12.5 -15
      vertex -10.5 10.5 -15
    endloop
  endfacet
  facet normal 0 0 -1
    outer loop
      vertex 12.5 7.5 -15
      vertex 10.5 10.5 -15
      vertex 12.5 12.5 -15
    endloop
  endfacet
  facet normal 0 0 -1
    outer loop
      vertex -16 -12.5 -15
      vertex -16 12.5 -15
      vertex -10.5 -10.5 -15
    endloop
  endfacet
  facet normal 0 0 -1
    outer loop
      vertex -16 -12.5 -15
      vertex -10.5 -10.5 -15
      vertex 12.5 -12.5 -15
    endloop
  endfacet
  facet normal 0 0 -1
    outer loop
      vertex 12.5 -7.5 -15
      vertex 12.5 -12.5 -15
      vertex 10.5 -2.08333 -15
    endloop
  endfacet
  facet normal 0 0 -1
    outer loop
      vertex 12.5 -12.5 -15
      vertex 10.5 -10.5 -15
      vertex 10.5 -2.08333 -15
    endloop
  endfacet
  facet normal 0 0 -1
    outer loop
      vertex 12.5 -7.5 -15
      vertex 24.5 -2.08333 -15
      vertex 24.5 -7.5 -15
    endloop
  endfacet
  facet normal 0 0 -1
    outer loop
      vertex -10.5 10.5 -15
      vertex -16 12.5 -15
      vertex 10.5 10.5 -15
    endloop
  endfacet
  facet normal 0 0 -1
    outer loop
      vertex 10.5 10.5 -15
      vertex 12.5 7.5 -15
      vertex 10.5 2.08333 -15
    endloop
  endfacet
  facet normal 0 0 -1
    outer loop
      vertex 10.5 2.08333 -15
      vertex 12.5 7.5 -15
      vertex 24.5 7.5 -15
    endloop
  endfacet
  facet normal 0 0 -1
    outer loop
      vertex 10.5 2.08333 -15
      vertex 24.5 7.5 -15
      vertex 24.5 2.08333 -15
    endloop
  endfacet
  facet normal -1 0 0
    outer loop
      vertex -16 12.5 -9.59211
      vertex -16 12.5 -15
      vertex -16 -12.5 -9.59211
    endloop
  endfacet
  facet normal -1 0 0
    outer loop
      vertex -16 -12.5 -9.59211
      vertex -16 12.5 -15
      vertex -16 -12.5 -15
    endloop
  endfacet
  facet normal -0.83147 1.23361e-16 0.55557
    outer loop
      vertex -15.8806 12.5 -9.41342
      vertex -16 12.5 -9.59211
      vertex -15.8806 -12.5 -9.41342
    endloop
  endfacet
  facet normal -0.83147 1.23361e-16 0.55557
    outer loop
      vertex -15.8806 -12.5 -9.41342
      vertex -16 12.5 -9.59211
      vertex -16 -12.5 -9.59211
    endloop
  endfacet
  facet normal -0.980785 4.33187e-17 0.19509
    outer loop
      vertex -15.5 12.5 -7.5
      vertex -15.8806 12.5 -9.41342
      vertex -15.5 -12.5 -7.5
    endloop
  endfacet
  facet normal -0.980785 4.33187e-17 0.19509
    outer loop
      vertex -15.5 -12.5 -7.5
      vertex -15.8806 12.5 -9.41342
      vertex -15.8806 -12.5 -9.41342
    endloop
  endfacet
  facet normal -0.980785 -4.33187e-17 -0.19509
    outer loop
      vertex -15.5 12.5 -7.5
      vertex -15.5 -12.5 -7.5
      vertex -15.8806 12.5 -5.58658
    endloop
  endfacet
  facet normal -0.980785 -4.33187e-17 -0.19509
    outer loop
      vertex -15.8806 12.5 -5.58658
      vertex -15.5 -12.5 -7.5
      vertex -15.8806 -12.5 -5.58658
    endloop
  endfacet
  facet normal -0.83147 -1.23361e-16 -0.55557
    outer loop
      vertex -15.8806 12.5 -5.58658
      vertex -15.8806 -12.5 -5.58658
      vertex -16.9645 12.5 -3.96447
    endloop
  endfacet
  facet normal -0.83147 -1.23361e-16 -0.55557
    outer loop
      vertex -16.9645 12.5 -3.96447
      vertex -15.8806 -12.5 -5.58658
      vertex -16.9645 -12.5 -3.96447
    endloop
  endfacet
  facet normal -0.55557 -1.84623e-16 -0.83147
    outer loop
      vertex -16.9645 12.5 -3.96447
      vertex -16.9645 -12.5 -3.96447
      vertex -18.5866 12.5 -2.8806
    endloop
  endfacet
  facet normal -0.55557 -1.84623e-16 -0.83147
    outer loop
      vertex -18.5866 12.5 -2.8806
      vertex -16.9645 -12.5 -3.96447
      vertex -18.5866 -12.5 -2.8806
    endloop
  endfacet
  facet normal -0.19509 -2.17778e-16 -0.980785
    outer loop
      vertex -18.5866 12.5 -2.8806
      vertex -18.5866 -12.5 -2.8806
      vertex -20.5 12.5 -2.5
    endloop
  endfacet
  facet normal -0.19509 -2.17778e-16 -0.980785
    outer loop
      vertex -20.5 12.5 -2.5
      vertex -18.5866 -12.5 -2.8806
      vertex -20.5 -12.5 -2.5
    endloop
  endfacet
  facet normal 0.19509 -2.17778e-16 -0.980785
    outer loop
      vertex -20.5 12.5 -2.5
      vertex -20.5 -12.5 -2.5
      vertex -22.4134 12.5 -2.8806
    endloop
  endfacet
  facet normal 0.19509 -2.17778e-16 -0.980785
    outer loop
      vertex -22.4134 12.5 -2.8806
      vertex -20.5 -12.5 -2.5
      vertex -22.4134 -12.5 -2.8806
    endloop
  endfacet
  facet normal 0.55557 -1.84623e-16 -0.83147
    outer loop
      vertex -22.4134 12.5 -2.8806
      vertex -22.4134 -12.5 -2.8806
      vertex -24.0355 12.5 -3.96447
    endloop
  endfacet
  facet normal 0.55557 -1.84623e-16 -0.83147
    outer loop
      vertex -24.0355 12.5 -3.96447
      vertex -22.4134 -12.5 -2.8806
      vertex -24.0355 -12.5 -3.96447
    endloop
  endfacet
  facet normal 0.83147 -1.23361e-16 -0.55557
    outer loop
      vertex -25.1194 12.5 -5.58658
      vertex -24.0355 12.5 -3.96447
      vertex -24.0355 -12.5 -3.96447
    endloop
  endfacet
  facet normal 0.83147 -1.23361e-16 -0.55557
    outer loop
      vertex -25.1194 -12.5 -5.58658
      vertex -25.1194 12.5 -5.58658
      vertex -24.0355 -12.5 -3.96447
    endloop
  endfacet
  facet normal 0.980785 -4.33187e-17 -0.19509
    outer loop
      vertex -25.5 12.5 -7.5
      vertex -25.1194 12.5 -5.58658
      vertex -25.1194 -12.5 -5.58658
    endloop
  endfacet
  facet normal 0.980785 -4.33187e-17 -0.19509
    outer loop
      vertex -25.5 -12.5 -7.5
      vertex -25.5 12.5 -7.5
      vertex -25.1194 -12.5 -5.58658
    endloop
  endfacet
  facet normal 0.980785 4.33187e-17 0.19509
    outer loop
      vertex -25.1194 -12.5 -9.41342
      vertex -25.1194 12.5 -9.41342
      vertex -25.5 12.5 -7.5
    endloop
  endfacet
  facet normal 0.980785 4.33187e-17 0.19509
    outer loop
      vertex -25.5 -12.5 -7.5
      vertex -25.1194 -12.5 -9.41342
      vertex -25.5 12.5 -7.5
    endloop
  endfacet
  facet normal 0.83147 1.23361e-16 0.55557
    outer loop
      vertex -25 -12.5 -9.59211
      vertex -25 12.5 -9.59211
      vertex -25.1194 12.5 -9.41342
    endloop
  endfacet
  facet normal 0.83147 1.23361e-16 0.55557
    outer loop
      vertex -25.1194 -12.5 -9.41342
      vertex -25 -12.5 -9.59211
      vertex -25.1194 12.5 -9.41342
    endloop
  endfacet
  facet normal 1 0 0
    outer loop
      vertex 12.5 7.5 15
      vertex 12.5 7.5 -15
      vertex 12.5 12.5 -15
    endloop
  endfacet
  facet normal 1 0 0
    outer loop
      vertex 12.5 12.5 15
      vertex 12.5 7.5 15
      vertex 12.5 12.5 -15
    endloop
  endfacet
  facet normal 0 1 0
    outer loop
      vertex 19.4 7.5 -1.66533e-15
      vertex 12.5 7.5 15
      vertex 24.5 7.5 15
    endloop
  endfacet
  facet normal 0 1 0
    outer loop
      vertex 12.5 7.5 -15
      vertex 12.5 7.5 15
      vertex 15.6 7.5 -1.66533e-15
    endloop
  endfacet
  facet normal 0 1 0
    outer loop
      vertex 12.5 7.5 -15
      vertex 15.6 7.5 -1.66533e-15
      vertex 16.55 7.5 -1.64545
    endloop
  endfacet
  facet normal 0 1 0
    outer loop
      vertex 12.5 7.5 -15
      vertex 16.55 7.5 -1.64545
      vertex 24.5 7.5 -15
    endloop
  endfacet
  facet normal 0 1 0
    outer loop
      vertex 19.4 7.5 -1.66533e-15
      vertex 24.5 7.5 -15
      vertex 18.45 7.5 -1.64545
    endloop
  endfacet
  facet normal 0 1 0
    outer loop
      vertex 18.45 7.5 1.64545
      vertex 12.5 7.5 15
      vertex 19.4 7.5 -1.66533e-15
    endloop
  endfacet
  facet normal 0 1 0
    outer loop
      vertex 24.5 7.5 -15
      vertex 19.4 7.5 -1.66533e-15
      vertex 24.5 7.5 15
    endloop
  endfacet
  facet normal 0 1 0
    outer loop
      vertex 16.55 7.5 1.64545
      vertex 12.5 7.5 15
      vertex 18.45 7.5 1.64545
    endloop
  endfacet
  facet normal 0 1 0
    outer loop
      vertex 15.6 7.5 -1.66533e-15
      vertex 12.5 7.5 15
      vertex 16.55 7.5 1.64545
    endloop
  endfacet
  facet normal 0 1 0
    outer loop
      vertex 18.45 7.5 -1.64545
      vertex 24.5 7.5 -15
      vertex 16.55 7.5 -1.64545
    endloop
  endfacet
  facet normal 1 0 0
    outer loop
      vertex 24.5 2.08333 15
      vertex 24.5 2.08333 -15
      vertex 24.5 7.5 -15
    endloop
  endfacet
  facet normal 1 0 0
    outer loop
      vertex 24.5 7.5 15
      vertex 24.5 2.08333 15
      vertex 24.5 7.5 -15
    endloop
  endfacet
  facet normal 0 -1 0
    outer loop
      vertex 18.45 2.08333 1.64545
      vertex 24.5 2.08333 15
      vertex 10.5 2.08333 15
    endloop
  endfacet
  facet normal 0 -1 0
    outer loop
      vertex 18.45 2.08333 -1.64545
      vertex 16.55 2.08333 -1.64545
      vertex 24.5 2.08333 -15
    endloop
  endfacet
  facet normal 0 -1 0
    outer loop
      vertex 10.5 2.08333 -15
      vertex 15.6 2.08333 -4.62593e-16
      vertex 10.5 2.08333 15
    endloop
  endfacet
  facet normal 0 -1 0
    outer loop
      vertex 15.6 2.08333 -4.62593e-16
      vertex 16.55 2.08333 1.64545
      vertex 10.5 2.08333 15
    endloop
  endfacet
  facet normal 0 -1 0
    outer loop
      vertex 19.4 2.08333 -4.62593e-16
      vertex 24.5 2.08333 15
      vertex 18.45 2.08333 1.64545
    endloop
  endfacet
  facet normal 0 -1 0
    outer loop
      vertex 24.5 2.08333 -15
      vertex 24.5 2.08333 15
      vertex 19.4 2.08333 -4.62593e-16
    endloop
  endfacet
  facet normal 0 -1 0
    outer loop
      vertex 19.4 2.08333 -4.62593e-16
      vertex 18.45 2.08333 -1.64545
      vertex 24.5 2.08333 -15
    endloop
  endfacet
  facet normal 0 -1 0
    outer loop
      vertex 10.5 2.08333 -15
      vertex 16.55 2.08333 -1.64545
      vertex 15.6 2.08333 -4.62593e-16
    endloop
  endfacet
  facet normal 0 -1 0
    outer loop
      vertex 10.5 2.08333 -15
      vertex 24.5 2.08333 -15
      vertex 16.55 2.08333 -1.64545
    endloop
  endfacet
  facet normal 0 -1 0
    outer loop
      vertex 16.55 2.08333 1.64545
      vertex 18.45 2.08333 1.64545
      vertex 10.5 2.08333 15
    endloop
  endfacet
  facet normal -1 0 0
    outer loop
      vertex 10.5 10.5 15
      vertex 10.5 10.5 -15
      vertex 10.5 2.08333 15
    endloop
  endfacet
  facet normal -1 0 0
    outer loop
      vertex 10.5 2.08333 15
      vertex 10.5 10.5 -15
      vertex 10.5 2.08333 -15
    endloop
  endfacet
  facet normal 0 -1 0
    outer loop
      vertex 10.5 10.5 -15
      vertex 10.5 10.5 15
      vertex -10.5 10.5 15
    endloop
  endfacet
  facet normal 0 -1 0
    outer loop
      vertex -10.5 10.5 -15
      vertex 10.5 10.5 -15
      vertex -10.5 10.5 15
    endloop
  endfacet
  facet normal 1 0 0
    outer loop
      vertex -10.5 10.5 -15
      vertex -10.5 10.5 15
      vertex -10.5 -10.5 15
    endloop
  endfacet
  facet normal 1 0 0
    outer loop
      vertex -10.5 -10.5 -15
      vertex -10.5 10.5 -15
      vertex -10.5 -10.5 15
    endloop
  endfacet
  facet normal 0 1 0
    outer loop
      vertex 10.5 -10.5 15
      vertex 10.5 -10.5 -15
      vertex -10.5 -10.5 15
    endloop
  endfacet
  facet normal 0 1 0
    outer loop
      vertex -10.5 -10.5 15
      vertex 10.5 -10.5 -15
      vertex -10.5 -10.5 -15
    endloop
  endfacet
  facet normal -1 0 0
    outer loop
      vertex 10.5 -2.08333 15
      vertex 10.5 -2.08333 -15
      vertex 10.5 -10.5 15
    endloop
  endfacet
  facet normal -1 0 0
    outer loop
      vertex 10.5 -10.5 15
      vertex 10.5 -2.08333 -15
      vertex 10.5 -10.5 -15
    endloop
  endfacet
  facet normal 0 1 0
    outer loop
      vertex 18.45 -2.08333 1.64545
      vertex 24.5 -2.08333 15
      vertex 19.4 -2.08333 4.62593e-16
    endloop
  endfacet
  facet normal 0 1 0
    outer loop
      vertex 16.55 -2.08333 -1.64545
      vertex 24.5 -2.08333 -15
      vertex 10.5 -2.08333 -15
    endloop
  endfacet
  facet normal 0 1 0
    outer loop
      vertex 15.6 -2.08333 4.62593e-16
      vertex 16.55 -2.08333 -1.64545
      vertex 10.5 -2.08333 -15
    endloop
  endfacet
  facet normal 0 1 0
    outer loop
      vertex 19.4 -2.08333 4.62593e-16
      vertex 24.5 -2.08333 -15
      vertex 18.45 -2.08333 -1.64545
    endloop
  endfacet
  facet normal 0 1 0
    outer loop
      vertex 24.5 -2.08333 15
      vertex 24.5 -2.08333 -15
      vertex 19.4 -2.08333 4.62593e-16
    endloop
  endfacet
  facet normal 0 1 0
    outer loop
      vertex 16.55 -2.08333 1.64545
      vertex 10.5 -2.08333 15
      vertex 18.45 -2.08333 1.64545
    endloop
  endfacet
  facet normal 0 1 0
    outer loop
      vertex 24.5 -2.08333 15
      vertex 18.45 -2.08333 1.64545
      vertex 10.5 -2.08333 15
    endloop
  endfacet
  facet normal 0 1 0
    outer loop
      vertex 10.5 -2.08333 15
      vertex 15.6 -2.08333 4.62593e-16
      vertex 10.5 -2.08333 -15
    endloop
  endfacet
  facet normal 0 1 0
    outer loop
      vertex 18.45 -2.08333 -1.64545
      vertex 24.5 -2.08333 -15
      vertex 16.55 -2.08333 -1.64545
    endloop
  endfacet
  facet normal 0 1 0
    outer loop
      vertex 15.6 -2.08333 4.62593e-16
      vertex 10.5 -2.08333 15
      vertex 16.55 -2.08333 1.64545
    endloop
  endfacet
  facet normal 1 0 0
    outer loop
      vertex 24.5 -7.5 15
      vertex 24.5 -7.5 -15
      vertex 24.5 -2.08333 -15
    endloop
  endfacet
  facet normal 1 0 0
    outer loop
      vertex 24.5 -2.08333 15
      vertex 24.5 -7.5 15
      vertex 24.5 -2.08333 -15
    endloop
  endfacet
  facet normal 0 -1 0
    outer loop
      vertex 15.75 -7.5 -3.03109
      vertex 12.5 -7.5 -15
      vertex 24.5 -7.5 -15
    endloop
  endfacet
  facet normal 0 -1 0
    outer loop
      vertex 14 -7.5 1.66533e-15
      vertex 12.5 -7.5 -15
      vertex 15.75 -7.5 -3.03109
    endloop
  endfacet
  facet normal 0 -1 0
    outer loop
      vertex 12.5 -7.5 15
      vertex 12.5 -7.5 -15
      vertex 14 -7.5 1.66533e-15
    endloop
  endfacet
  facet normal 0 -1 0
    outer loop
      vertex 14 -7.5 1.66533e-15
      vertex 15.75 -7.5 3.03109
      vertex 12.5 -7.5 15
    endloop
  endfacet
  facet normal 0 -1 0
    outer loop
      vertex 24.5 -7.5 15
      vertex 12.5 -7.5 15
      vertex 19.25 -7.5 3.03109
    endloop
  endfacet
  facet normal 0 -1 0
    outer loop
      vertex 24.5 -7.5 15
      vertex 21 -7.5 1.66533e-15
      vertex 24.5 -7.5 -15
    endloop
  endfacet
  facet normal 0 -1 0
    outer loop
      vertex 24.5 -7.5 15
      vertex 19.25 -7.5 3.03109
      vertex 21 -7.5 1.66533e-15
    endloop
  endfacet
  facet normal 0 -1 0
    outer loop
      vertex 21 -7.5 1.66533e-15
      vertex 19.25 -7.5 -3.03109
      vertex 24.5 -7.5 -15
    endloop
  endfacet
  facet normal 0 -1 0
    outer loop
      vertex 19.25 -7.5 -3.03109
      vertex 15.75 -7.5 -3.03109
      vertex 24.5 -7.5 -15
    endloop
  endfacet
  facet normal 0 -1 0
    outer loop
      vertex 15.75 -7.5 3.03109
      vertex 19.25 -7.5 3.03109
      vertex 12.5 -7.5 15
    endloop
  endfacet
  facet normal 0.866025 -1.11022e-16 -0.5
    outer loop
      vertex 15.6 7.5 -1.66533e-15
      vertex 16.55 7.5 1.64545
      vertex 16.55 2.08333 1.64545
    endloop
  endfacet
  facet normal 0.866025 -1.11022e-16 -0.5
    outer loop
      vertex 15.6 2.08333 -4.62593e-16
      vertex 15.6 7.5 -1.66533e-15
      vertex 16.55 2.08333 1.64545
    endloop
  endfacet
  facet normal 0.866025 1.11022e-16 0.5
    outer loop
      vertex 16.55 2.08333 -1.64545
      vertex 16.55 7.5 -1.64545
      vertex 15.6 7.5 -1.66533e-15
    endloop
  endfacet
  facet normal 0.866025 1.11022e-16 0.5
    outer loop
      vertex 15.6 2.08333 -4.62593e-16
      vertex 16.55 2.08333 -1.64545
      vertex 15.6 7.5 -1.66533e-15
    endloop
  endfacet
  facet normal 0 -2.22045e-16 -1
    outer loop
      vertex 18.45 7.5 1.64545
      vertex 18.45 2.08333 1.64545
      vertex 16.55 7.5 1.64545
    endloop
  endfacet
  facet normal 0 -2.22045e-16 -1
    outer loop
      vertex 16.55 7.5 1.64545
      vertex 18.45 2.08333 1.64545
      vertex 16.55 2.08333 1.64545
    endloop
  endfacet
  facet normal -0.866025 -1.11022e-16 -0.5
    outer loop
      vertex 19.4 7.5 -1.66533e-15
      vertex 19.4 2.08333 -4.62593e-16
      vertex 18.45 7.5 1.64545
    endloop
  endfacet
  facet normal -0.866025 -1.11022e-16 -0.5
    outer loop
      vertex 18.45 7.5 1.64545
      vertex 19.4 2.08333 -4.62593e-16
      vertex 18.45 2.08333 1.64545
    endloop
  endfacet
  facet normal -0.866025 1.11022e-16 0.5
    outer loop
      vertex 19.4 7.5 -1.66533e-15
      vertex 18.45 7.5 -1.64545
      vertex 19.4 2.08333 -4.62593e-16
    endloop
  endfacet
  facet normal -0.866025 1.11022e-16 0.5
    outer loop
      vertex 19.4 2.08333 -4.62593e-16
      vertex 18.45 7.5 -1.64545
      vertex 18.45 2.08333 -1.64545
    endloop
  endfacet
  facet normal 0 2.22045e-16 1
    outer loop
      vertex 18.45 2.08333 -1.64545
      vertex 18.45 7.5 -1.64545
      vertex 16.55 7.5 -1.64545
    endloop
  endfacet
  facet normal 0 2.22045e-16 1
    outer loop
      vertex 16.55 2.08333 -1.64545
      vertex 18.45 2.08333 -1.64545
      vertex 16.55 7.5 -1.64545
    endloop
  endfacet
  facet normal 0 2.22045e-16 1
    outer loop
      vertex 18.45 -5 -1.64545
      vertex 18.45 -2.08333 -1.64545
      vertex 16.55 -2.08333 -1.64545
    endloop
  endfacet
  facet normal 0 2.22045e-16 1
    outer loop
      vertex 16.55 -5 -1.64545
      vertex 18.45 -5 -1.64545
      vertex 16.55 -2.08333 -1.64545
    endloop
  endfacet
  facet normal 0.866025 1.11022e-16 0.5
    outer loop
      vertex 16.55 -5 -1.64545
      vertex 16.55 -2.08333 -1.64545
      vertex 15.6 -2.08333 4.62593e-16
    endloop
  endfacet
  facet normal 0.866025 1.11022e-16 0.5
    outer loop
      vertex 15.6 -5 1.11022e-15
      vertex 16.55 -5 -1.64545
      vertex 15.6 -2.08333 4.62593e-16
    endloop
  endfacet
  facet normal 0.866025 -1.11022e-16 -0.5
    outer loop
      vertex 15.6 -2.08333 4.62593e-16
      vertex 16.55 -2.08333 1.64545
      vertex 16.55 -5 1.64545
    endloop
  endfacet
  facet normal 0.866025 -1.11022e-16 -0.5
    outer loop
      vertex 15.6 -5 1.11022e-15
      vertex 15.6 -2.08333 4.62593e-16
      vertex 16.55 -5 1.64545
    endloop
  endfacet
  facet normal 0 -2.22045e-16 -1
    outer loop
      vertex 18.45 -2.08333 1.64545
      vertex 18.45 -5 1.64545
      vertex 16.55 -2.08333 1.64545
    endloop
  endfacet
  facet normal 0 -2.22045e-16 -1
    outer loop
      vertex 16.55 -2.08333 1.64545
      vertex 18.45 -5 1.64545
      vertex 16.55 -5 1.64545
    endloop
  endfacet
  facet normal -0.866025 -1.11022e-16 -0.5
    outer loop
      vertex 19.4 -2.08333 4.62593e-16
      vertex 19.4 -5 1.11022e-15
      vertex 18.45 -2.08333 1.64545
    endloop
  endfacet
  facet normal -0.866025 -1.11022e-16 -0.5
    outer loop
      vertex 18.45 -2.08333 1.64545
      vertex 19.4 -5 1.11022e-15
      vertex 18.45 -5 1.64545
    endloop
  endfacet
  facet normal -0.866025 1.11022e-16 0.5
    outer loop
      vertex 19.4 -2.08333 4.62593e-16
      vertex 18.45 -2.08333 -1.64545
      vertex 19.4 -5 1.11022e-15
    endloop
  endfacet
  facet normal -0.866025 1.11022e-16 0.5
    outer loop
      vertex 19.4 -5 1.11022e-15
      vertex 18.45 -2.08333 -1.64545
      vertex 18.45 -5 -1.64545
    endloop
  endfacet
  facet normal 0.866025 1.11022e-16 0.5
    outer loop
      vertex 15.75 -7.5 -3.03109
      vertex 15.75 -5 -3.03109
      vertex 14 -5 1.11022e-15
    endloop
  endfacet
  facet normal 0.866025 1.11022e-16 0.5
    outer loop
      vertex 14 -7.5 1.66533e-15
      vertex 15.75 -7.5 -3.03109
      vertex 14 -5 1.11022e-15
    endloop
  endfacet
  facet normal 0 2.22045e-16 1
    outer loop
      vertex 19.25 -7.5 -3.03109
      vertex 19.25 -5 -3.03109
      vertex 15.75 -5 -3.03109
    endloop
  endfacet
  facet normal 0 2.22045e-16 1
    outer loop
      vertex 15.75 -7.5 -3.03109
      vertex 19.25 -7.5 -3.03109
      vertex 15.75 -5 -3.03109
    endloop
  endfacet
  facet normal -0.866025 1.11022e-16 0.5
    outer loop
      vertex 21 -5 1.11022e-15
      vertex 19.25 -5 -3.03109
      vertex 21 -7.5 1.66533e-15
    endloop
  endfacet
  facet normal -0.866025 1.11022e-16 0.5
    outer loop
      vertex 21 -7.5 1.66533e-15
      vertex 19.25 -5 -3.03109
      vertex 19.25 -7.5 -3.03109
    endloop
  endfacet
  facet normal -0.866025 -1.11022e-16 -0.5
    outer loop
      vertex 21 -5 1.11022e-15
      vertex 21 -7.5 1.66533e-15
      vertex 19.25 -5 3.03109
    endloop
  endfacet
  facet normal -0.866025 -1.11022e-16 -0.5
    outer loop
      vertex 19.25 -5 3.03109
      vertex 21 -7.5 1.66533e-15
      vertex 19.25 -7.5 3.03109
    endloop
  endfacet
  facet normal 0 -2.22045e-16 -1
    outer loop
      vertex 19.25 -5 3.03109
      vertex 19.25 -7.5 3.03109
      vertex 15.75 -5 3.03109
    endloop
  endfacet
  facet normal 0 -2.22045e-16 -1
    outer loop
      vertex 15.75 -5 3.03109
      vertex 19.25 -7.5 3.03109
      vertex 15.75 -7.5 3.03109
    endloop
  endfacet
  facet normal 0.866025 -1.11022e-16 -0.5
    outer loop
      vertex 14 -5 1.11022e-15
      vertex 15.75 -5 3.03109
      vertex 15.75 -7.5 3.03109
    endloop
  endfacet
  facet normal 0.866025 -1.11022e-16 -0.5
    outer loop
      vertex 14 -7.5 1.66533e-15
      vertex 14 -5 1.11022e-15
      vertex 15.75 -7.5 3.03109
    endloop
  endfacet
  facet normal 0 -1 2.22045e-16
    outer loop
      vertex 18.45 -5 -1.64545
      vertex 19.25 -5 -3.03109
      vertex 21 -5 1.11022e-15
    endloop
  endfacet
  facet normal 0 -1 2.22045e-16
    outer loop
      vertex 19.4 -5 1.11022e-15
      vertex 18.45 -5 -1.64545
      vertex 21 -5 1.11022e-15
    endloop
  endfacet
  facet normal 0 -1 2.22045e-16
    outer loop
      vertex 14 -5 1.11022e-15
      vertex 15.6 -5 1.11022e-15
      vertex 15.75 -5 3.03109
    endloop
  endfacet
  facet normal 0 -1 2.22045e-16
    outer loop
      vertex 14 -5 1.11022e-15
      vertex 15.75 -5 -3.03109
      vertex 15.6 -5 1.11022e-15
    endloop
  endfacet
  facet normal 0 -1 2.22045e-16
    outer loop
      vertex 15.75 -5 3.03109
      vertex 16.55 -5 1.64545
      vertex 19.25 -5 3.03109
    endloop
  endfacet
  facet normal 0 -1 2.22045e-16
    outer loop
      vertex 19.25 -5 3.03109
      vertex 18.45 -5 1.64545
      vertex 21 -5 1.11022e-15
    endloop
  endfacet
  facet normal 0 -1 2.22045e-16
    outer loop
      vertex 18.45 -5 1.64545
      vertex 19.4 -5 1.11022e-15
      vertex 21 -5 1.11022e-15
    endloop
  endfacet
  facet normal 0 -1 2.22045e-16
    outer loop
      vertex 15.75 -5 -3.03109
      vertex 19.25 -5 -3.03109
      vertex 18.45 -5 -1.64545
    endloop
  endfacet
  facet normal 0 -1 2.22045e-16
    outer loop
      vertex 18.45 -5 -1.64545
      vertex 16.55 -5 -1.64545
      vertex 15.75 -5 -3.03109
    endloop
  endfacet
  facet normal 0 -1 2.22045e-16
    outer loop
      vertex 16.55 -5 1.64545
      vertex 18.45 -5 1.64545
      vertex 19.25 -5 3.03109
    endloop
  endfacet
  facet normal 0 -1 2.22045e-16
    outer loop
      vertex 15.6 -5 1.11022e-15
      vertex 16.55 -5 1.64545
      vertex 15.75 -5 3.03109
    endloop
  endfacet
  facet normal 0 -1 2.22045e-16
    outer loop
      vertex 16.55 -5 -1.64545
      vertex 15.6 -5 1.11022e-15
      vertex 15.75 -5 -3.03109
    endloop
  endfacet
endsolid OpenSCAD_Model
