solid OpenSCAD_Model
  facet normal -2.22045e-16 -1 -4.93038e-32
    outer loop
      vertex -4.7 -16.25 19.25
      vertex -4.7 -16.25 -19.25
      vertex 4.7 -16.25 -19.25
    endloop
  endfacet
  facet normal -2.22045e-16 -1 -4.93038e-32
    outer loop
      vertex 4.7 -16.25 19.25
      vertex -4.7 -16.25 19.25
      vertex 4.7 -16.25 -19.25
    endloop
  endfacet
  facet normal 2.22045e-16 -4.93038e-32 -1
    outer loop
      vertex -4.7 -16.25 -19.25
      vertex -4.7 16.25 -19.25
      vertex 4.7 -16.25 -19.25
    endloop
  endfacet
  facet normal 2.22045e-16 -4.93038e-32 -1
    outer loop
      vertex 4.7 -16.25 -19.25
      vertex -4.7 16.25 -19.25
      vertex 4.7 16.25 -19.25
    endloop
  endfacet
  facet normal -1 2.22045e-16 -2.22045e-16
    outer loop
      vertex -4.7 4.5 -7.75
      vertex -4.7 -16.25 19.25
      vertex -4.7 16.25 -19.25
    endloop
  endfacet
  facet normal -1 2.22045e-16 -2.22045e-16
    outer loop
      vertex -4.7 16.25 -19.25
      vertex -4.7 -16.25 19.25
      vertex -4.7 16.25 19.25
    endloop
  endfacet
  facet normal -1 2.22045e-16 -2.22045e-16
    outer loop
      vertex -4.7 -16.25 -19.25
      vertex -4.7 -16.25 19.25
      vertex -4.7 -4.5 -7.75
    endloop
  endfacet
  facet normal -1 2.22045e-16 -2.22045e-16
    outer loop
      vertex -4.7 -16.25 -19.25
      vertex -4.7 -4.5 -7.75
      vertex -4.7 -4.5 -16.75
    endloop
  endfacet
  facet normal -1 2.22045e-16 -2.22045e-16
    outer loop
      vertex -4.7 -16.25 -19.25
      vertex -4.7 -4.5 -16.75
      vertex -4.7 16.25 -19.25
    endloop
  endfacet
  facet normal -1 2.22045e-16 -2.22045e-16
    outer loop
      vertex -4.7 -4.5 -16.75
      vertex -4.7 4.5 -16.75
      vertex -4.7 16.25 -19.25
    endloop
  endfacet
  facet normal -1 2.22045e-16 -2.22045e-16
    outer loop
      vertex -4.7 -4.5 -7.75
      vertex -4.7 -16.25 19.25
      vertex -4.7 4.5 -7.75
    endloop
  endfacet
  facet normal -1 2.22045e-16 -2.22045e-16
    outer loop
      vertex -4.7 4.5 -7.75
      vertex -4.7 16.25 -19.25
      vertex -4.7 4.5 -16.75
    endloop
  endfacet
  facet normal -2.22045e-16 4.93038e-32 1
    outer loop
      vertex 1.75 -13.25 19.25
      vertex -4.7 -16.25 19.25
      vertex 4.7 -16.25 19.25
    endloop
  endfacet
  facet normal -2.22045e-16 4.93038e-32 1
    outer loop
      vertex 1.75 -8.25 19.25
      vertex 1.75 -13.25 19.25
      vertex 4.7 -16.25 19.25
    endloop
  endfacet
  facet normal -2.22045e-16 4.93038e-32 1
    outer loop
      vertex -1.75 -13.25 19.25
      vertex -4.7 -16.25 19.25
      vertex 1.75 -13.25 19.25
    endloop
  endfacet
  facet normal -2.22045e-16 4.93038e-32 1
    outer loop
      vertex 1.75 13.25 19.25
      vertex -4.7 16.25 19.25
      vertex -1.75 13.25 19.25
    endloop
  endfacet
  facet normal -2.22045e-16 4.93038e-32 1
    outer loop
      vertex 4.7 16.25 19.25
      vertex -4.7 16.25 19.25
      vertex 1.75 13.25 19.25
    endloop
  endfacet
  facet normal -2.22045e-16 4.93038e-32 1
    outer loop
      vertex 4.7 16.25 19.25
      vertex 1.75 13.25 19.25
      vertex 4.7 8.25 19.25
    endloop
  endfacet
  facet normal -2.22045e-16 4.93038e-32 1
    outer loop
      vertex 1.75 8.25 19.25
      vertex 4.7 8.25 19.25
      vertex 1.75 13.25 19.25
    endloop
  endfacet
  facet normal -2.22045e-16 4.93038e-32 1
    outer loop
      vertex 4.7 -8.25 19.25
      vertex 1.75 -8.25 19.25
      vertex 4.7 -16.25 19.25
    endloop
  endfacet
  facet normal -2.22045e-16 4.93038e-32 1
    outer loop
      vertex -1.75 -13.25 19.25
      vertex -4.7 16.25 19.25
      vertex -4.7 -16.25 19.25
    endloop
  endfacet
  facet normal -2.22045e-16 4.93038e-32 1
    outer loop
      vertex -1.75 -13.25 19.25
      vertex -1.75 13.25 19.25
      vertex -4.7 16.25 19.25
    endloop
  endfacet
  facet normal 1 -2.22045e-16 2.22045e-16
    outer loop
      vertex 4.7 -8.25 -7.05
      vertex 4.7 -16.25 -19.25
      vertex 4.7 16.25 -19.25
    endloop
  endfacet
  facet normal 1 -2.22045e-16 2.22045e-16
    outer loop
      vertex 4.7 -8.25 -7.05
      vertex 4.7 -8.25 19.25
      vertex 4.7 -16.25 19.25
    endloop
  endfacet
  facet normal 1 -2.22045e-16 2.22045e-16
    outer loop
      vertex 4.7 16.25 19.25
      vertex 4.7 8.25 19.25
      vertex 4.7 16.25 -19.25
    endloop
  endfacet
  facet normal 1 -2.22045e-16 2.22045e-16
    outer loop
      vertex 4.7 8.25 19.25
      vertex 4.7 8.25 -7.05
      vertex 4.7 16.25 -19.25
    endloop
  endfacet
  facet normal 1 -2.22045e-16 2.22045e-16
    outer loop
      vertex 4.7 -16.25 19.25
      vertex 4.7 -16.25 -19.25
      vertex 4.7 -8.25 -7.05
    endloop
  endfacet
  facet normal 1 -2.22045e-16 2.22045e-16
    outer loop
      vertex 4.7 8.25 -7.05
      vertex 4.7 -8.25 -7.05
      vertex 4.7 16.25 -19.25
    endloop
  endfacet
  facet normal 2.22045e-16 1 4.93038e-32
    outer loop
      vertex -4.7 16.25 -19.25
      vertex -4.7 16.25 19.25
      vertex 4.7 16.25 -19.25
    endloop
  endfacet
  facet normal 2.22045e-16 1 4.93038e-32
    outer loop
      vertex 4.7 16.25 -19.25
      vertex -4.7 16.25 19.25
      vertex 4.7 16.25 19.25
    endloop
  endfacet
  facet normal -2.22045e-16 2.22045e-16 1
    outer loop
      vertex -22.7 -4.5 -7.75
      vertex -4.7 -4.5 -7.75
      vertex -4.7 4.5 -7.75
    endloop
  endfacet
  facet normal -2.22045e-16 2.22045e-16 1
    outer loop
      vertex -27 4.5 -7.75
      vertex -22.7 -4.5 -7.75
      vertex -22.7 4.5 -7.75
    endloop
  endfacet
  facet normal -2.22045e-16 2.22045e-16 1
    outer loop
      vertex -22.7 4.5 -7.75
      vertex -22.7 -4.5 -7.75
      vertex -4.7 4.5 -7.75
    endloop
  endfacet
  facet normal -2.22045e-16 2.22045e-16 1
    outer loop
      vertex -27 -4.5 -7.75
      vertex -22.7 -4.5 -7.75
      vertex -27 4.5 -7.75
    endloop
  endfacet
  facet normal -3.44505e-16 -1 2.22045e-16
    outer loop
      vertex -18.8029 -4.5 -14.5
      vertex -4.7 -4.5 -16.75
      vertex -4.7 -4.5 -7.75
    endloop
  endfacet
  facet normal -3.44505e-16 -1 2.22045e-16
    outer loop
      vertex -22.7 -4.5 -7.75
      vertex -20.8697 -4.5 -8.13905
      vertex -4.7 -4.5 -7.75
    endloop
  endfacet
  facet normal -3.44505e-16 -1 2.22045e-16
    outer loop
      vertex -20.8697 -4.5 -8.13905
      vertex -19.3558 -4.5 -9.23891
      vertex -4.7 -4.5 -7.75
    endloop
  endfacet
  facet normal -3.44505e-16 -1 2.22045e-16
    outer loop
      vertex -19.3558 -4.5 -9.23891
      vertex -18.4202 -4.5 -10.8594
      vertex -4.7 -4.5 -7.75
    endloop
  endfacet
  facet normal -3.44505e-16 -1 2.22045e-16
    outer loop
      vertex -18.4202 -4.5 -10.8594
      vertex -18.2247 -4.5 -12.7204
      vertex -4.7 -4.5 -7.75
    endloop
  endfacet
  facet normal -3.44505e-16 -1 2.22045e-16
    outer loop
      vertex -20.055 -4.5 -15.8906
      vertex -4.7 -4.5 -16.75
      vertex -18.8029 -4.5 -14.5
    endloop
  endfacet
  facet normal -3.44505e-16 -1 2.22045e-16
    outer loop
      vertex -21.7644 -4.5 -16.6517
      vertex -4.7 -4.5 -16.75
      vertex -20.055 -4.5 -15.8906
    endloop
  endfacet
  facet normal -3.44505e-16 -1 2.22045e-16
    outer loop
      vertex -27 -4.5 -16.75
      vertex -4.7 -4.5 -16.75
      vertex -21.7644 -4.5 -16.6517
    endloop
  endfacet
  facet normal -3.44505e-16 -1 2.22045e-16
    outer loop
      vertex -27 -4.5 -16.75
      vertex -21.7644 -4.5 -16.6517
      vertex -23.6356 -4.5 -16.6517
    endloop
  endfacet
  facet normal -3.44505e-16 -1 2.22045e-16
    outer loop
      vertex -27 -4.5 -13.26
      vertex -27 -4.5 -16.75
      vertex -26.5971 -4.5 -14.5
    endloop
  endfacet
  facet normal -3.44505e-16 -1 2.22045e-16
    outer loop
      vertex -18.2247 -4.5 -12.7204
      vertex -18.8029 -4.5 -14.5
      vertex -4.7 -4.5 -7.75
    endloop
  endfacet
  facet normal -3.44505e-16 -1 2.22045e-16
    outer loop
      vertex -23.6356 -4.5 -16.6517
      vertex -25.345 -4.5 -15.8906
      vertex -27 -4.5 -16.75
    endloop
  endfacet
  facet normal -3.44505e-16 -1 2.22045e-16
    outer loop
      vertex -25.345 -4.5 -15.8906
      vertex -26.5971 -4.5 -14.5
      vertex -27 -4.5 -16.75
    endloop
  endfacet
  facet normal 3.44505e-16 1 -2.22045e-16
    outer loop
      vertex -18.8029 4.5 -14.5
      vertex -4.7 4.5 -7.75
      vertex -20.055 4.5 -15.8906
    endloop
  endfacet
  facet normal 3.44505e-16 1 -2.22045e-16
    outer loop
      vertex -26.5971 4.5 -14.5
      vertex -27 4.5 -16.75
      vertex -27 4.5 -13.26
    endloop
  endfacet
  facet normal 3.44505e-16 1 -2.22045e-16
    outer loop
      vertex -25.345 4.5 -15.8906
      vertex -27 4.5 -16.75
      vertex -26.5971 4.5 -14.5
    endloop
  endfacet
  facet normal 3.44505e-16 1 -2.22045e-16
    outer loop
      vertex -4.7 4.5 -16.75
      vertex -27 4.5 -16.75
      vertex -23.6356 4.5 -16.6517
    endloop
  endfacet
  facet normal 3.44505e-16 1 -2.22045e-16
    outer loop
      vertex -4.7 4.5 -16.75
      vertex -23.6356 4.5 -16.6517
      vertex -21.7644 4.5 -16.6517
    endloop
  endfacet
  facet normal 3.44505e-16 1 -2.22045e-16
    outer loop
      vertex -4.7 4.5 -16.75
      vertex -21.7644 4.5 -16.6517
      vertex -20.055 4.5 -15.8906
    endloop
  endfacet
  facet normal 3.44505e-16 1 -2.22045e-16
    outer loop
      vertex -4.7 4.5 -16.75
      vertex -20.055 4.5 -15.8906
      vertex -4.7 4.5 -7.75
    endloop
  endfacet
  facet normal 3.44505e-16 1 -2.22045e-16
    outer loop
      vertex -18.2247 4.5 -12.7204
      vertex -4.7 4.5 -7.75
      vertex -18.8029 4.5 -14.5
    endloop
  endfacet
  facet normal 3.44505e-16 1 -2.22045e-16
    outer loop
      vertex -18.4202 4.5 -10.8594
      vertex -4.7 4.5 -7.75
      vertex -18.2247 4.5 -12.7204
    endloop
  endfacet
  facet normal 3.44505e-16 1 -2.22045e-16
    outer loop
      vertex -4.7 4.5 -7.75
      vertex -18.4202 4.5 -10.8594
      vertex -19.3558 4.5 -9.23891
    endloop
  endfacet
  facet normal 3.44505e-16 1 -2.22045e-16
    outer loop
      vertex -19.3558 4.5 -9.23891
      vertex -20.8697 4.5 -8.13905
      vertex -4.7 4.5 -7.75
    endloop
  endfacet
  facet normal 3.44505e-16 1 -2.22045e-16
    outer loop
      vertex -20.8697 4.5 -8.13905
      vertex -22.7 4.5 -7.75
      vertex -4.7 4.5 -7.75
    endloop
  endfacet
  facet normal 3.44505e-16 1 -2.22045e-16
    outer loop
      vertex -23.6356 4.5 -16.6517
      vertex -27 4.5 -16.75
      vertex -25.345 4.5 -15.8906
    endloop
  endfacet
  facet normal 2.22045e-16 -2.22045e-16 -1
    outer loop
      vertex -4.7 -4.5 -16.75
      vertex -27 -4.5 -16.75
      vertex -4.7 4.5 -16.75
    endloop
  endfacet
  facet normal 2.22045e-16 -2.22045e-16 -1
    outer loop
      vertex -4.7 4.5 -16.75
      vertex -27 -4.5 -16.75
      vertex -27 4.5 -16.75
    endloop
  endfacet
  facet normal -2.22045e-16 -1 -4.93038e-32
    outer loop
      vertex 4.7 8.25 -7.05
      vertex 4.7 8.25 19.25
      vertex 1.75 8.25 19.25
    endloop
  endfacet
  facet normal -2.22045e-16 -1 -4.93038e-32
    outer loop
      vertex 1.75 8.25 -7.05
      vertex 4.7 8.25 -7.05
      vertex 1.75 8.25 19.25
    endloop
  endfacet
  facet normal -1 2.22045e-16 -2.22045e-16
    outer loop
      vertex 1.75 -8.25 19.25
      vertex 1.75 -8.25 -7.05
      vertex 1.75 -13.25 19.25
    endloop
  endfacet
  facet normal -1 2.22045e-16 -2.22045e-16
    outer loop
      vertex 1.75 -13.25 -16.25
      vertex 1.75 -8.25 -7.05
      vertex 1.75 13.25 -16.25
    endloop
  endfacet
  facet normal -1 2.22045e-16 -2.22045e-16
    outer loop
      vertex 1.75 13.25 19.25
      vertex 1.75 8.25 -7.05
      vertex 1.75 8.25 19.25
    endloop
  endfacet
  facet normal -1 2.22045e-16 -2.22045e-16
    outer loop
      vertex 1.75 13.25 -16.25
      vertex 1.75 8.25 -7.05
      vertex 1.75 13.25 19.25
    endloop
  endfacet
  facet normal -1 2.22045e-16 -2.22045e-16
    outer loop
      vertex 1.75 -8.25 -7.05
      vertex 1.75 8.25 -7.05
      vertex 1.75 13.25 -16.25
    endloop
  endfacet
  facet normal -1 2.22045e-16 -2.22045e-16
    outer loop
      vertex 1.75 -13.25 19.25
      vertex 1.75 -8.25 -7.05
      vertex 1.75 -13.25 -16.25
    endloop
  endfacet
  facet normal -2.22045e-16 -1 -4.93038e-32
    outer loop
      vertex 1.75 13.25 -16.25
      vertex 1.75 13.25 19.25
      vertex -1.75 13.25 19.25
    endloop
  endfacet
  facet normal -2.22045e-16 -1 -4.93038e-32
    outer loop
      vertex -1.75 13.25 -16.25
      vertex 1.75 13.25 -16.25
      vertex -1.75 13.25 19.25
    endloop
  endfacet
  facet normal 1 -2.22045e-16 2.22045e-16
    outer loop
      vertex -1.75 13.25 19.25
      vertex -1.75 -4.5 -7.75
      vertex -1.75 4.5 -7.75
    endloop
  endfacet
  facet normal 1 -2.22045e-16 2.22045e-16
    outer loop
      vertex -1.75 -4.5 -16.25
      vertex -1.75 -4.5 -7.75
      vertex -1.75 -13.25 19.25
    endloop
  endfacet
  facet normal 1 -2.22045e-16 2.22045e-16
    outer loop
      vertex -1.75 4.5 -16.25
      vertex -1.75 13.25 -16.25
      vertex -1.75 4.5 -7.75
    endloop
  endfacet
  facet normal 1 -2.22045e-16 2.22045e-16
    outer loop
      vertex -1.75 13.25 -16.25
      vertex -1.75 13.25 19.25
      vertex -1.75 4.5 -7.75
    endloop
  endfacet
  facet normal 1 -2.22045e-16 2.22045e-16
    outer loop
      vertex -1.75 13.25 19.25
      vertex -1.75 -13.25 19.25
      vertex -1.75 -4.5 -7.75
    endloop
  endfacet
  facet normal 1 -2.22045e-16 2.22045e-16
    outer loop
      vertex -1.75 -13.25 19.25
      vertex -1.75 -13.25 -16.25
      vertex -1.75 -4.5 -16.25
    endloop
  endfacet
  facet normal 2.22045e-16 1 4.93038e-32
    outer loop
      vertex 1.75 -13.25 19.25
      vertex 1.75 -13.25 -16.25
      vertex -1.75 -13.25 19.25
    endloop
  endfacet
  facet normal 2.22045e-16 1 4.93038e-32
    outer loop
      vertex -1.75 -13.25 19.25
      vertex 1.75 -13.25 -16.25
      vertex -1.75 -13.25 -16.25
    endloop
  endfacet
  facet normal 2.22045e-16 1 4.93038e-32
    outer loop
      vertex 4.7 -8.25 19.25
      vertex 4.7 -8.25 -7.05
      vertex 1.75 -8.25 19.25
    endloop
  endfacet
  facet normal 2.22045e-16 1 4.93038e-32
    outer loop
      vertex 1.75 -8.25 19.25
      vertex 4.7 -8.25 -7.05
      vertex 1.75 -8.25 -7.05
    endloop
  endfacet
  facet normal -2.22045e-16 4.93038e-32 1
    outer loop
      vertex 4.7 -8.25 -7.05
      vertex 4.7 8.25 -7.05
      vertex 1.75 8.25 -7.05
    endloop
  endfacet
  facet normal -2.22045e-16 4.93038e-32 1
    outer loop
      vertex 1.75 -8.25 -7.05
      vertex 4.7 -8.25 -7.05
      vertex 1.75 8.25 -7.05
    endloop
  endfacet
  facet normal -3.44505e-16 -1 2.22045e-16
    outer loop
      vertex -24.5303 -4.5 -8.13905
      vertex -22.7 -4.5 -7.75
      vertex -27 -4.5 -7.75
    endloop
  endfacet
  facet normal -3.44505e-16 -1 2.22045e-16
    outer loop
      vertex -27 -4.5 -7.75
      vertex -27 -4.5 -11.0521
      vertex -26.9798 -4.5 -10.8594
    endloop
  endfacet
  facet normal -3.44505e-16 -1 2.22045e-16
    outer loop
      vertex -26.0442 -4.5 -9.23891
      vertex -27 -4.5 -7.75
      vertex -26.9798 -4.5 -10.8594
    endloop
  endfacet
  facet normal -3.44505e-16 -1 2.22045e-16
    outer loop
      vertex -26.0442 -4.5 -9.23891
      vertex -24.5303 -4.5 -8.13905
      vertex -27 -4.5 -7.75
    endloop
  endfacet
  facet normal 0.207911 9.94002e-17 0.978148
    outer loop
      vertex -22.7 -4.7 -7.75
      vertex -20.8697 -4.7 -8.13905
      vertex -20.8697 -4.5 -8.13905
    endloop
  endfacet
  facet normal 0.207911 9.94002e-17 0.978148
    outer loop
      vertex -22.7 -4.5 -7.75
      vertex -22.7 -4.7 -7.75
      vertex -20.8697 -4.5 -8.13905
    endloop
  endfacet
  facet normal -0.207911 3.34985e-16 0.978148
    outer loop
      vertex -24.5303 -4.7 -8.13905
      vertex -22.7 -4.7 -7.75
      vertex -22.7 -4.5 -7.75
    endloop
  endfacet
  facet normal -0.207911 3.34985e-16 0.978148
    outer loop
      vertex -24.5303 -4.5 -8.13905
      vertex -24.5303 -4.7 -8.13905
      vertex -22.7 -4.5 -7.75
    endloop
  endfacet
  facet normal -1 3.44505e-16 -2.22045e-16
    outer loop
      vertex -27 -4.5 -11.0521
      vertex -27 -4.5 -7.75
      vertex -27 4.5 -11.0521
    endloop
  endfacet
  facet normal -1 3.44505e-16 -2.22045e-16
    outer loop
      vertex -27 4.5 -11.0521
      vertex -27 -4.5 -7.75
      vertex -27 4.5 -7.75
    endloop
  endfacet
  facet normal 3.44505e-16 1 -2.22045e-16
    outer loop
      vertex -27 4.5 -11.0521
      vertex -27 4.5 -7.75
      vertex -26.9798 4.5 -10.8594
    endloop
  endfacet
  facet normal 3.44505e-16 1 -2.22045e-16
    outer loop
      vertex -24.5303 4.5 -8.13905
      vertex -27 4.5 -7.75
      vertex -22.7 4.5 -7.75
    endloop
  endfacet
  facet normal 3.44505e-16 1 -2.22045e-16
    outer loop
      vertex -26.0442 4.5 -9.23891
      vertex -27 4.5 -7.75
      vertex -24.5303 4.5 -8.13905
    endloop
  endfacet
  facet normal 3.44505e-16 1 -2.22045e-16
    outer loop
      vertex -26.9798 4.5 -10.8594
      vertex -27 4.5 -7.75
      vertex -26.0442 4.5 -9.23891
    endloop
  endfacet
  facet normal -0.207911 3.34985e-16 0.978148
    outer loop
      vertex -24.5303 4.5 -8.13905
      vertex -22.7 4.5 -7.75
      vertex -22.7 27.8 -7.75
    endloop
  endfacet
  facet normal -0.207911 3.34985e-16 0.978148
    outer loop
      vertex -24.5303 27.8 -8.13905
      vertex -24.5303 4.5 -8.13905
      vertex -22.7 27.8 -7.75
    endloop
  endfacet
  facet normal 0.207911 9.94002e-17 0.978148
    outer loop
      vertex -22.7 4.5 -7.75
      vertex -20.8697 4.5 -8.13905
      vertex -20.8697 27.8 -8.13905
    endloop
  endfacet
  facet normal 0.207911 9.94002e-17 0.978148
    outer loop
      vertex -22.7 27.8 -7.75
      vertex -22.7 4.5 -7.75
      vertex -20.8697 27.8 -8.13905
    endloop
  endfacet
  facet normal -1 3.44505e-16 -2.22045e-16
    outer loop
      vertex -27 -4.5 -16.75
      vertex -27 -4.5 -13.26
      vertex -27 4.5 -16.75
    endloop
  endfacet
  facet normal -1 3.44505e-16 -2.22045e-16
    outer loop
      vertex -27 4.5 -16.75
      vertex -27 -4.5 -13.26
      vertex -27 4.5 -13.26
    endloop
  endfacet
  facet normal -0.951056 4.70205e-16 -0.309017
    outer loop
      vertex -26.5971 -4.7 -14.5
      vertex -27.1753 -4.7 -12.7204
      vertex -26.5971 -4.5 -14.5
    endloop
  endfacet
  facet normal -0.951056 4.70205e-16 -0.309017
    outer loop
      vertex -27 4.5 -13.26
      vertex -27.1753 -4.7 -12.7204
      vertex -27.1753 27.8 -12.7204
    endloop
  endfacet
  facet normal -0.951056 4.70205e-16 -0.309017
    outer loop
      vertex -26.5971 4.5 -14.5
      vertex -27.1753 27.8 -12.7204
      vertex -26.5971 27.8 -14.5
    endloop
  endfacet
  facet normal -0.951056 4.70205e-16 -0.309017
    outer loop
      vertex -27 -4.5 -13.26
      vertex -27.1753 -4.7 -12.7204
      vertex -27 4.5 -13.26
    endloop
  endfacet
  facet normal -0.951056 4.70205e-16 -0.309017
    outer loop
      vertex -26.5971 -4.5 -14.5
      vertex -27.1753 -4.7 -12.7204
      vertex -27 -4.5 -13.26
    endloop
  endfacet
  facet normal -0.951056 4.70205e-16 -0.309017
    outer loop
      vertex -27 4.5 -13.26
      vertex -27.1753 27.8 -12.7204
      vertex -26.5971 4.5 -14.5
    endloop
  endfacet
  facet normal -0.743145 2.72452e-16 -0.669131
    outer loop
      vertex -25.345 -4.7 -15.8906
      vertex -26.5971 -4.7 -14.5
      vertex -25.345 -4.5 -15.8906
    endloop
  endfacet
  facet normal -0.743145 2.72452e-16 -0.669131
    outer loop
      vertex -25.345 -4.5 -15.8906
      vertex -26.5971 -4.7 -14.5
      vertex -26.5971 -4.5 -14.5
    endloop
  endfacet
  facet normal -0.406737 2.75888e-17 -0.913545
    outer loop
      vertex -23.6356 -4.7 -16.6517
      vertex -25.345 -4.7 -15.8906
      vertex -23.6356 -4.5 -16.6517
    endloop
  endfacet
  facet normal -0.406737 2.75888e-17 -0.913545
    outer loop
      vertex -23.6356 -4.5 -16.6517
      vertex -25.345 -4.7 -15.8906
      vertex -25.345 -4.5 -15.8906
    endloop
  endfacet
  facet normal 2.22045e-16 -2.22045e-16 -1
    outer loop
      vertex -21.7644 -4.7 -16.6517
      vertex -23.6356 -4.7 -16.6517
      vertex -21.7644 -4.5 -16.6517
    endloop
  endfacet
  facet normal 2.22045e-16 -2.22045e-16 -1
    outer loop
      vertex -21.7644 -4.5 -16.6517
      vertex -23.6356 -4.7 -16.6517
      vertex -23.6356 -4.5 -16.6517
    endloop
  endfacet
  facet normal 0.406737 -4.33284e-16 -0.913545
    outer loop
      vertex -20.055 -4.7 -15.8906
      vertex -21.7644 -4.7 -16.6517
      vertex -20.055 -4.5 -15.8906
    endloop
  endfacet
  facet normal 0.406737 -4.33284e-16 -0.913545
    outer loop
      vertex -20.055 -4.5 -15.8906
      vertex -21.7644 -4.7 -16.6517
      vertex -21.7644 -4.5 -16.6517
    endloop
  endfacet
  facet normal 0.743145 -5.69605e-16 -0.669131
    outer loop
      vertex -18.8029 -4.5 -14.5
      vertex -18.8029 -4.7 -14.5
      vertex -20.055 -4.7 -15.8906
    endloop
  endfacet
  facet normal 0.743145 -5.69605e-16 -0.669131
    outer loop
      vertex -20.055 -4.5 -15.8906
      vertex -18.8029 -4.5 -14.5
      vertex -20.055 -4.7 -15.8906
    endloop
  endfacet
  facet normal 0.951056 -6.07436e-16 -0.309017
    outer loop
      vertex -18.2247 -4.7 -12.7204
      vertex -18.8029 -4.7 -14.5
      vertex -18.8029 -4.5 -14.5
    endloop
  endfacet
  facet normal 0.951056 -6.07436e-16 -0.309017
    outer loop
      vertex -18.2247 -4.5 -12.7204
      vertex -18.2247 -4.7 -12.7204
      vertex -18.8029 -4.5 -14.5
    endloop
  endfacet
  facet normal 0.994522 -5.40236e-16 0.104529
    outer loop
      vertex -18.4202 -4.7 -10.8594
      vertex -18.2247 -4.7 -12.7204
      vertex -18.2247 -4.5 -12.7204
    endloop
  endfacet
  facet normal 0.994522 -5.40236e-16 0.104529
    outer loop
      vertex -18.4202 -4.5 -10.8594
      vertex -18.4202 -4.7 -10.8594
      vertex -18.2247 -4.5 -12.7204
    endloop
  endfacet
  facet normal 0.866026 -3.79624e-16 0.5
    outer loop
      vertex -19.3558 -4.7 -9.23891
      vertex -18.4202 -4.7 -10.8594
      vertex -18.4202 -4.5 -10.8594
    endloop
  endfacet
  facet normal 0.866026 -3.79624e-16 0.5
    outer loop
      vertex -19.3558 -4.5 -9.23891
      vertex -19.3558 -4.7 -9.23891
      vertex -18.4202 -4.5 -10.8594
    endloop
  endfacet
  facet normal 0.587785 -1.53372e-16 0.809017
    outer loop
      vertex -20.8697 -4.7 -8.13905
      vertex -19.3558 -4.7 -9.23891
      vertex -19.3558 -4.5 -9.23891
    endloop
  endfacet
  facet normal 0.587785 -1.53372e-16 0.809017
    outer loop
      vertex -20.8697 -4.5 -8.13905
      vertex -20.8697 -4.7 -8.13905
      vertex -19.3558 -4.5 -9.23891
    endloop
  endfacet
  facet normal 0.587785 -1.53372e-16 0.809017
    outer loop
      vertex -20.8697 4.5 -8.13905
      vertex -19.3558 4.5 -9.23891
      vertex -19.3558 27.8 -9.23891
    endloop
  endfacet
  facet normal 0.587785 -1.53372e-16 0.809017
    outer loop
      vertex -20.8697 27.8 -8.13905
      vertex -20.8697 4.5 -8.13905
      vertex -19.3558 27.8 -9.23891
    endloop
  endfacet
  facet normal 0.866026 -3.79624e-16 0.5
    outer loop
      vertex -19.3558 4.5 -9.23891
      vertex -18.4202 4.5 -10.8594
      vertex -18.4202 27.8 -10.8594
    endloop
  endfacet
  facet normal 0.866026 -3.79624e-16 0.5
    outer loop
      vertex -19.3558 27.8 -9.23891
      vertex -19.3558 4.5 -9.23891
      vertex -18.4202 27.8 -10.8594
    endloop
  endfacet
  facet normal 0.994522 -5.40236e-16 0.104529
    outer loop
      vertex -18.4202 4.5 -10.8594
      vertex -18.2247 4.5 -12.7204
      vertex -18.2247 27.8 -12.7204
    endloop
  endfacet
  facet normal 0.994522 -5.40236e-16 0.104529
    outer loop
      vertex -18.4202 27.8 -10.8594
      vertex -18.4202 4.5 -10.8594
      vertex -18.2247 27.8 -12.7204
    endloop
  endfacet
  facet normal 0.951056 -6.07436e-16 -0.309017
    outer loop
      vertex -18.2247 4.5 -12.7204
      vertex -18.8029 4.5 -14.5
      vertex -18.8029 27.8 -14.5
    endloop
  endfacet
  facet normal 0.951056 -6.07436e-16 -0.309017
    outer loop
      vertex -18.2247 27.8 -12.7204
      vertex -18.2247 4.5 -12.7204
      vertex -18.8029 27.8 -14.5
    endloop
  endfacet
  facet normal 0.743145 -5.69605e-16 -0.669131
    outer loop
      vertex -18.8029 4.5 -14.5
      vertex -20.055 4.5 -15.8906
      vertex -20.055 27.8 -15.8906
    endloop
  endfacet
  facet normal 0.743145 -5.69605e-16 -0.669131
    outer loop
      vertex -18.8029 27.8 -14.5
      vertex -18.8029 4.5 -14.5
      vertex -20.055 27.8 -15.8906
    endloop
  endfacet
  facet normal 0.406737 -4.33284e-16 -0.913545
    outer loop
      vertex -20.055 4.5 -15.8906
      vertex -21.7644 4.5 -16.6517
      vertex -20.055 27.8 -15.8906
    endloop
  endfacet
  facet normal 0.406737 -4.33284e-16 -0.913545
    outer loop
      vertex -20.055 27.8 -15.8906
      vertex -21.7644 4.5 -16.6517
      vertex -21.7644 27.8 -16.6517
    endloop
  endfacet
  facet normal 2.22045e-16 -2.22045e-16 -1
    outer loop
      vertex -21.7644 4.5 -16.6517
      vertex -23.6356 4.5 -16.6517
      vertex -21.7644 27.8 -16.6517
    endloop
  endfacet
  facet normal 2.22045e-16 -2.22045e-16 -1
    outer loop
      vertex -21.7644 27.8 -16.6517
      vertex -23.6356 4.5 -16.6517
      vertex -23.6356 27.8 -16.6517
    endloop
  endfacet
  facet normal -0.406737 2.75888e-17 -0.913545
    outer loop
      vertex -23.6356 4.5 -16.6517
      vertex -25.345 4.5 -15.8906
      vertex -23.6356 27.8 -16.6517
    endloop
  endfacet
  facet normal -0.406737 2.75888e-17 -0.913545
    outer loop
      vertex -23.6356 27.8 -16.6517
      vertex -25.345 4.5 -15.8906
      vertex -25.345 27.8 -15.8906
    endloop
  endfacet
  facet normal -0.743145 2.72452e-16 -0.669131
    outer loop
      vertex -25.345 4.5 -15.8906
      vertex -26.5971 4.5 -14.5
      vertex -25.345 27.8 -15.8906
    endloop
  endfacet
  facet normal -0.743145 2.72452e-16 -0.669131
    outer loop
      vertex -25.345 27.8 -15.8906
      vertex -26.5971 4.5 -14.5
      vertex -26.5971 27.8 -14.5
    endloop
  endfacet
  facet normal -2.22045e-16 4.93038e-32 1
    outer loop
      vertex 0.3 4.5 -16.25
      vertex 1.75 13.25 -16.25
      vertex -1.75 13.25 -16.25
    endloop
  endfacet
  facet normal -2.22045e-16 4.93038e-32 1
    outer loop
      vertex 0.3 -4.5 -16.25
      vertex -1.75 -4.5 -16.25
      vertex 1.75 -13.25 -16.25
    endloop
  endfacet
  facet normal -2.22045e-16 4.93038e-32 1
    outer loop
      vertex 1.75 -13.25 -16.25
      vertex 1.75 13.25 -16.25
      vertex 0.3 4.5 -16.25
    endloop
  endfacet
  facet normal -2.22045e-16 4.93038e-32 1
    outer loop
      vertex -1.75 -13.25 -16.25
      vertex 1.75 -13.25 -16.25
      vertex -1.75 -4.5 -16.25
    endloop
  endfacet
  facet normal -2.22045e-16 4.93038e-32 1
    outer loop
      vertex 0.3 4.5 -16.25
      vertex 0.3 -4.5 -16.25
      vertex 1.75 -13.25 -16.25
    endloop
  endfacet
  facet normal -2.22045e-16 4.93038e-32 1
    outer loop
      vertex -1.75 4.5 -16.25
      vertex 0.3 4.5 -16.25
      vertex -1.75 13.25 -16.25
    endloop
  endfacet
  facet normal -3.44505e-16 -1 2.22045e-16
    outer loop
      vertex -1.75 -4.5 -16.25
      vertex 0.3 -4.5 -16.25
      vertex 0.3 -4.5 -7.75
    endloop
  endfacet
  facet normal -3.44505e-16 -1 2.22045e-16
    outer loop
      vertex -1.75 -4.5 -7.75
      vertex -1.75 -4.5 -16.25
      vertex 0.3 -4.5 -7.75
    endloop
  endfacet
  facet normal 3.44505e-16 1 -2.22045e-16
    outer loop
      vertex 0.3 4.5 -16.25
      vertex -1.75 4.5 -16.25
      vertex 0.3 4.5 -7.75
    endloop
  endfacet
  facet normal 3.44505e-16 1 -2.22045e-16
    outer loop
      vertex 0.3 4.5 -7.75
      vertex -1.75 4.5 -16.25
      vertex -1.75 4.5 -7.75
    endloop
  endfacet
  facet normal -2.22045e-16 2.22045e-16 1
    outer loop
      vertex -1.75 -4.5 -7.75
      vertex 0.3 -4.5 -7.75
      vertex 0.3 4.5 -7.75
    endloop
  endfacet
  facet normal -2.22045e-16 2.22045e-16 1
    outer loop
      vertex -1.75 4.5 -7.75
      vertex -1.75 -4.5 -7.75
      vertex 0.3 4.5 -7.75
    endloop
  endfacet
  facet normal -0.587785 5.12648e-16 0.809017
    outer loop
      vertex -26.0442 -4.7 -9.23891
      vertex -24.5303 -4.7 -8.13905
      vertex -24.5303 -4.5 -8.13905
    endloop
  endfacet
  facet normal -0.587785 5.12648e-16 0.809017
    outer loop
      vertex -26.0442 -4.5 -9.23891
      vertex -26.0442 -4.7 -9.23891
      vertex -24.5303 -4.5 -8.13905
    endloop
  endfacet
  facet normal -0.866026 6.01669e-16 0.5
    outer loop
      vertex -26.9798 -4.7 -10.8594
      vertex -26.0442 -4.7 -9.23891
      vertex -26.9798 -4.5 -10.8594
    endloop
  endfacet
  facet normal -0.866026 6.01669e-16 0.5
    outer loop
      vertex -26.9798 -4.5 -10.8594
      vertex -26.0442 -4.7 -9.23891
      vertex -26.0442 -4.5 -9.23891
    endloop
  endfacet
  facet normal -0.994522 5.86656e-16 0.104529
    outer loop
      vertex -27 4.5 -11.0521
      vertex -27.1753 27.8 -12.7204
      vertex -27 -4.5 -11.0521
    endloop
  endfacet
  facet normal -0.994522 5.86656e-16 0.104529
    outer loop
      vertex -27.1753 -4.7 -12.7204
      vertex -26.9798 -4.7 -10.8594
      vertex -27 -4.5 -11.0521
    endloop
  endfacet
  facet normal -0.994522 5.86656e-16 0.104529
    outer loop
      vertex -27.1753 -4.7 -12.7204
      vertex -27 -4.5 -11.0521
      vertex -27.1753 27.8 -12.7204
    endloop
  endfacet
  facet normal -0.994522 5.86656e-16 0.104529
    outer loop
      vertex -27.1753 27.8 -12.7204
      vertex -27 4.5 -11.0521
      vertex -26.9798 4.5 -10.8594
    endloop
  endfacet
  facet normal -0.994522 5.86656e-16 0.104529
    outer loop
      vertex -27.1753 27.8 -12.7204
      vertex -26.9798 4.5 -10.8594
      vertex -26.9798 27.8 -10.8594
    endloop
  endfacet
  facet normal -0.994522 5.86656e-16 0.104529
    outer loop
      vertex -27 -4.5 -11.0521
      vertex -26.9798 -4.7 -10.8594
      vertex -26.9798 -4.5 -10.8594
    endloop
  endfacet
  facet normal -5.6655e-16 -1 2.22045e-16
    outer loop
      vertex -20.055 -4.7 -15.8906
      vertex -18.8029 -4.7 -14.5
      vertex -18.2247 -4.7 -12.7204
    endloop
  endfacet
  facet normal -5.6655e-16 -1 2.22045e-16
    outer loop
      vertex -19.3558 -4.7 -9.23891
      vertex -20.055 -4.7 -15.8906
      vertex -18.4202 -4.7 -10.8594
    endloop
  endfacet
  facet normal -5.6655e-16 -1 2.22045e-16
    outer loop
      vertex -18.4202 -4.7 -10.8594
      vertex -20.055 -4.7 -15.8906
      vertex -18.2247 -4.7 -12.7204
    endloop
  endfacet
  facet normal -5.6655e-16 -1 2.22045e-16
    outer loop
      vertex -20.8697 -4.7 -8.13905
      vertex -20.055 -4.7 -15.8906
      vertex -19.3558 -4.7 -9.23891
    endloop
  endfacet
  facet normal -5.6655e-16 -1 2.22045e-16
    outer loop
      vertex -22.7 -4.7 -7.75
      vertex -20.055 -4.7 -15.8906
      vertex -20.8697 -4.7 -8.13905
    endloop
  endfacet
  facet normal -5.6655e-16 -1 2.22045e-16
    outer loop
      vertex -24.5303 -4.7 -8.13905
      vertex -20.055 -4.7 -15.8906
      vertex -22.7 -4.7 -7.75
    endloop
  endfacet
  facet normal -5.6655e-16 -1 2.22045e-16
    outer loop
      vertex -26.0442 -4.7 -9.23891
      vertex -20.055 -4.7 -15.8906
      vertex -24.5303 -4.7 -8.13905
    endloop
  endfacet
  facet normal -5.6655e-16 -1 2.22045e-16
    outer loop
      vertex -26.9798 -4.7 -10.8594
      vertex -20.055 -4.7 -15.8906
      vertex -26.0442 -4.7 -9.23891
    endloop
  endfacet
  facet normal -5.6655e-16 -1 2.22045e-16
    outer loop
      vertex -27.1753 -4.7 -12.7204
      vertex -20.055 -4.7 -15.8906
      vertex -26.9798 -4.7 -10.8594
    endloop
  endfacet
  facet normal -5.6655e-16 -1 2.22045e-16
    outer loop
      vertex -26.5971 -4.7 -14.5
      vertex -20.055 -4.7 -15.8906
      vertex -27.1753 -4.7 -12.7204
    endloop
  endfacet
  facet normal -5.6655e-16 -1 2.22045e-16
    outer loop
      vertex -25.345 -4.7 -15.8906
      vertex -20.055 -4.7 -15.8906
      vertex -26.5971 -4.7 -14.5
    endloop
  endfacet
  facet normal -5.6655e-16 -1 2.22045e-16
    outer loop
      vertex -23.6356 -4.7 -16.6517
      vertex -20.055 -4.7 -15.8906
      vertex -25.345 -4.7 -15.8906
    endloop
  endfacet
  facet normal -5.6655e-16 -1 2.22045e-16
    outer loop
      vertex -21.7644 -4.7 -16.6517
      vertex -20.055 -4.7 -15.8906
      vertex -23.6356 -4.7 -16.6517
    endloop
  endfacet
  facet normal -0.866026 6.01669e-16 0.5
    outer loop
      vertex -26.9798 4.5 -10.8594
      vertex -26.0442 4.5 -9.23891
      vertex -26.9798 27.8 -10.8594
    endloop
  endfacet
  facet normal -0.866026 6.01669e-16 0.5
    outer loop
      vertex -26.9798 27.8 -10.8594
      vertex -26.0442 4.5 -9.23891
      vertex -26.0442 27.8 -9.23891
    endloop
  endfacet
  facet normal -0.587785 5.12648e-16 0.809017
    outer loop
      vertex -26.0442 27.8 -9.23891
      vertex -26.0442 4.5 -9.23891
      vertex -24.5303 4.5 -8.13905
    endloop
  endfacet
  facet normal -0.587785 5.12648e-16 0.809017
    outer loop
      vertex -24.5303 27.8 -8.13905
      vertex -26.0442 27.8 -9.23891
      vertex -24.5303 4.5 -8.13905
    endloop
  endfacet
  facet normal 5.6655e-16 1 -2.22045e-16
    outer loop
      vertex -18.8029 27.8 -14.5
      vertex -20.055 27.8 -15.8906
      vertex -18.2247 27.8 -12.7204
    endloop
  endfacet
  facet normal 5.6655e-16 1 -2.22045e-16
    outer loop
      vertex -18.2247 27.8 -12.7204
      vertex -20.055 27.8 -15.8906
      vertex -21.7644 27.8 -16.6517
    endloop
  endfacet
  facet normal 5.6655e-16 1 -2.22045e-16
    outer loop
      vertex -18.2247 27.8 -12.7204
      vertex -21.7644 27.8 -16.6517
      vertex -23.6356 27.8 -16.6517
    endloop
  endfacet
  facet normal 5.6655e-16 1 -2.22045e-16
    outer loop
      vertex -18.2247 27.8 -12.7204
      vertex -23.6356 27.8 -16.6517
      vertex -25.345 27.8 -15.8906
    endloop
  endfacet
  facet normal 5.6655e-16 1 -2.22045e-16
    outer loop
      vertex -18.2247 27.8 -12.7204
      vertex -25.345 27.8 -15.8906
      vertex -26.5971 27.8 -14.5
    endloop
  endfacet
  facet normal 5.6655e-16 1 -2.22045e-16
    outer loop
      vertex -18.2247 27.8 -12.7204
      vertex -26.5971 27.8 -14.5
      vertex -27.1753 27.8 -12.7204
    endloop
  endfacet
  facet normal 5.6655e-16 1 -2.22045e-16
    outer loop
      vertex -18.2247 27.8 -12.7204
      vertex -27.1753 27.8 -12.7204
      vertex -26.9798 27.8 -10.8594
    endloop
  endfacet
  facet normal 5.6655e-16 1 -2.22045e-16
    outer loop
      vertex -18.2247 27.8 -12.7204
      vertex -26.9798 27.8 -10.8594
      vertex -26.0442 27.8 -9.23891
    endloop
  endfacet
  facet normal 5.6655e-16 1 -2.22045e-16
    outer loop
      vertex -18.2247 27.8 -12.7204
      vertex -26.0442 27.8 -9.23891
      vertex -24.5303 27.8 -8.13905
    endloop
  endfacet
  facet normal 5.6655e-16 1 -2.22045e-16
    outer loop
      vertex -18.2247 27.8 -12.7204
      vertex -24.5303 27.8 -8.13905
      vertex -22.7 27.8 -7.75
    endloop
  endfacet
  facet normal 5.6655e-16 1 -2.22045e-16
    outer loop
      vertex -18.2247 27.8 -12.7204
      vertex -22.7 27.8 -7.75
      vertex -20.8697 27.8 -8.13905
    endloop
  endfacet
  facet normal 5.6655e-16 1 -2.22045e-16
    outer loop
      vertex -18.2247 27.8 -12.7204
      vertex -20.8697 27.8 -8.13905
      vertex -19.3558 27.8 -9.23891
    endloop
  endfacet
  facet normal 5.6655e-16 1 -2.22045e-16
    outer loop
      vertex -18.2247 27.8 -12.7204
      vertex -19.3558 27.8 -9.23891
      vertex -18.4202 27.8 -10.8594
    endloop
  endfacet
  facet normal 1 -3.44505e-16 2.22045e-16
    outer loop
      vertex 0.3 -4.5 -7.75
      vertex 0.3 -4.5 -16.25
      vertex 0.3 4.5 -16.25
    endloop
  endfacet
  facet normal 1 -3.44505e-16 2.22045e-16
    outer loop
      vertex 0.3 4.5 -7.75
      vertex 0.3 -4.5 -7.75
      vertex 0.3 4.5 -16.25
    endloop
  endfacet
endsolid OpenSCAD_Model
