solid OpenSCAD_Model
  facet normal 1.22461e-16 -1 2.22045e-16
    outer loop
      vertex -21.9798 -27.8 -13.6406
      vertex -21.0442 -27.8 -15.2611
      vertex -19.5303 -27.8 -16.361
    endloop
  endfacet
  facet normal 1.22461e-16 -1 2.22045e-16
    outer loop
      vertex -15.8697 -27.8 -16.361
      vertex -21.9798 -27.8 -13.6406
      vertex -17.7 -27.8 -16.75
    endloop
  endfacet
  facet normal 1.22461e-16 -1 2.22045e-16
    outer loop
      vertex -17.7 -27.8 -16.75
      vertex -21.9798 -27.8 -13.6406
      vertex -19.5303 -27.8 -16.361
    endloop
  endfacet
  facet normal 1.22461e-16 -1 2.22045e-16
    outer loop
      vertex -14.3558 -27.8 -15.2611
      vertex -21.9798 -27.8 -13.6406
      vertex -15.8697 -27.8 -16.361
    endloop
  endfacet
  facet normal 1.22461e-16 -1 2.22045e-16
    outer loop
      vertex -13.4202 -27.8 -13.6406
      vertex -21.9798 -27.8 -13.6406
      vertex -14.3558 -27.8 -15.2611
    endloop
  endfacet
  facet normal 1.22461e-16 -1 2.22045e-16
    outer loop
      vertex -13.2247 -27.8 -11.7796
      vertex -21.9798 -27.8 -13.6406
      vertex -13.4202 -27.8 -13.6406
    endloop
  endfacet
  facet normal 1.22461e-16 -1 2.22045e-16
    outer loop
      vertex -13.8029 -27.8 -10
      vertex -21.9798 -27.8 -13.6406
      vertex -13.2247 -27.8 -11.7796
    endloop
  endfacet
  facet normal 1.22461e-16 -1 2.22045e-16
    outer loop
      vertex -15.055 -27.8 -8.60942
      vertex -21.9798 -27.8 -13.6406
      vertex -13.8029 -27.8 -10
    endloop
  endfacet
  facet normal 1.22461e-16 -1 2.22045e-16
    outer loop
      vertex -16.7644 -27.8 -7.84834
      vertex -21.9798 -27.8 -13.6406
      vertex -15.055 -27.8 -8.60942
    endloop
  endfacet
  facet normal 1.22461e-16 -1 2.22045e-16
    outer loop
      vertex -18.6356 -27.8 -7.84834
      vertex -21.9798 -27.8 -13.6406
      vertex -16.7644 -27.8 -7.84834
    endloop
  endfacet
  facet normal 1.22461e-16 -1 2.22045e-16
    outer loop
      vertex -20.345 -27.8 -8.60942
      vertex -21.9798 -27.8 -13.6406
      vertex -18.6356 -27.8 -7.84834
    endloop
  endfacet
  facet normal 1.22461e-16 -1 2.22045e-16
    outer loop
      vertex -21.5971 -27.8 -10
      vertex -21.9798 -27.8 -13.6406
      vertex -20.345 -27.8 -8.60942
    endloop
  endfacet
  facet normal 1.22461e-16 -1 2.22045e-16
    outer loop
      vertex -22.1753 -27.8 -11.7796
      vertex -21.9798 -27.8 -13.6406
      vertex -21.5971 -27.8 -10
    endloop
  endfacet
  facet normal -0.587785 -2.51618e-16 -0.809017
    outer loop
      vertex -21.0442 -27.8 -15.2611
      vertex -21.0442 -4.5 -15.2611
      vertex -19.5303 -27.8 -16.361
    endloop
  endfacet
  facet normal -0.587785 -2.51618e-16 -0.809017
    outer loop
      vertex -19.5303 -27.8 -16.361
      vertex -21.0442 -4.5 -15.2611
      vertex -19.5303 -4.5 -16.361
    endloop
  endfacet
  facet normal -0.866026 -2.17076e-16 -0.5
    outer loop
      vertex -21.0442 -27.8 -15.2611
      vertex -21.9798 -27.8 -13.6406
      vertex -21.0442 -4.5 -15.2611
    endloop
  endfacet
  facet normal -0.866026 -2.17076e-16 -0.5
    outer loop
      vertex -21.0442 -4.5 -15.2611
      vertex -21.9798 -27.8 -13.6406
      vertex -21.9798 -4.5 -13.6406
    endloop
  endfacet
  facet normal -0.994522 -1.45e-16 -0.104529
    outer loop
      vertex -21.9798 -27.8 -13.6406
      vertex -22.1753 -27.8 -11.7796
      vertex -21.9798 -4.5 -13.6406
    endloop
  endfacet
  facet normal -0.994522 -1.45e-16 -0.104529
    outer loop
      vertex -22 -4.5 -13.4479
      vertex -22.1753 -27.8 -11.7796
      vertex -22.1753 4.7 -11.7796
    endloop
  endfacet
  facet normal -0.994522 -1.45e-16 -0.104529
    outer loop
      vertex -21.9798 4.5 -13.6406
      vertex -22.1753 4.7 -11.7796
      vertex -21.9798 4.7 -13.6406
    endloop
  endfacet
  facet normal -0.994522 -1.45e-16 -0.104529
    outer loop
      vertex -22 4.5 -13.4479
      vertex -22.1753 4.7 -11.7796
      vertex -21.9798 4.5 -13.6406
    endloop
  endfacet
  facet normal -0.994522 -1.45e-16 -0.104529
    outer loop
      vertex -21.9798 -4.5 -13.6406
      vertex -22.1753 -27.8 -11.7796
      vertex -22 -4.5 -13.4479
    endloop
  endfacet
  facet normal -0.994522 -1.45e-16 -0.104529
    outer loop
      vertex -22 -4.5 -13.4479
      vertex -22.1753 4.7 -11.7796
      vertex -22 4.5 -13.4479
    endloop
  endfacet
  facet normal -0.951056 -4.78513e-17 0.309017
    outer loop
      vertex -22.1753 -27.8 -11.7796
      vertex -21.5971 -27.8 -10
      vertex -22.1753 4.7 -11.7796
    endloop
  endfacet
  facet normal -0.951056 -4.78513e-17 0.309017
    outer loop
      vertex -22 -4.5 -11.24
      vertex -21.5971 -27.8 -10
      vertex -21.5971 -4.5 -10
    endloop
  endfacet
  facet normal -0.951056 -4.78513e-17 0.309017
    outer loop
      vertex -22.1753 4.7 -11.7796
      vertex -21.5971 -27.8 -10
      vertex -22 -4.5 -11.24
    endloop
  endfacet
  facet normal -0.951056 -4.78513e-17 0.309017
    outer loop
      vertex -22.1753 4.7 -11.7796
      vertex -22 4.5 -11.24
      vertex -21.5971 4.5 -10
    endloop
  endfacet
  facet normal -0.951056 -4.78513e-17 0.309017
    outer loop
      vertex -22.1753 4.7 -11.7796
      vertex -21.5971 4.5 -10
      vertex -21.5971 4.7 -10
    endloop
  endfacet
  facet normal -0.951056 -4.78513e-17 0.309017
    outer loop
      vertex -22 4.5 -11.24
      vertex -22.1753 4.7 -11.7796
      vertex -22 -4.5 -11.24
    endloop
  endfacet
  facet normal -0.743145 5.75708e-17 0.669131
    outer loop
      vertex -21.5971 -27.8 -10
      vertex -20.345 -27.8 -8.60942
      vertex -21.5971 -4.5 -10
    endloop
  endfacet
  facet normal -0.743145 5.75708e-17 0.669131
    outer loop
      vertex -21.5971 -4.5 -10
      vertex -20.345 -27.8 -8.60942
      vertex -20.345 -4.5 -8.60942
    endloop
  endfacet
  facet normal -0.406737 1.53039e-16 0.913545
    outer loop
      vertex -20.345 -4.5 -8.60942
      vertex -20.345 -27.8 -8.60942
      vertex -18.6356 -27.8 -7.84834
    endloop
  endfacet
  facet normal -0.406737 1.53039e-16 0.913545
    outer loop
      vertex -18.6356 -4.5 -7.84834
      vertex -20.345 -4.5 -8.60942
      vertex -18.6356 -27.8 -7.84834
    endloop
  endfacet
  facet normal -2.22045e-16 2.22045e-16 1
    outer loop
      vertex -18.6356 -4.5 -7.84834
      vertex -18.6356 -27.8 -7.84834
      vertex -16.7644 -27.8 -7.84834
    endloop
  endfacet
  facet normal -2.22045e-16 2.22045e-16 1
    outer loop
      vertex -16.7644 -4.5 -7.84834
      vertex -18.6356 -4.5 -7.84834
      vertex -16.7644 -27.8 -7.84834
    endloop
  endfacet
  facet normal 0.406737 2.52657e-16 0.913545
    outer loop
      vertex -16.7644 -4.5 -7.84834
      vertex -16.7644 -27.8 -7.84834
      vertex -15.055 -27.8 -8.60942
    endloop
  endfacet
  facet normal 0.406737 2.52657e-16 0.913545
    outer loop
      vertex -15.055 -4.5 -8.60942
      vertex -16.7644 -4.5 -7.84834
      vertex -15.055 -27.8 -8.60942
    endloop
  endfacet
  facet normal 0.743145 2.39583e-16 0.669131
    outer loop
      vertex -15.055 -4.5 -8.60942
      vertex -15.055 -27.8 -8.60942
      vertex -13.8029 -27.8 -10
    endloop
  endfacet
  facet normal 0.743145 2.39583e-16 0.669131
    outer loop
      vertex -13.8029 -4.5 -10
      vertex -15.055 -4.5 -8.60942
      vertex -13.8029 -27.8 -10
    endloop
  endfacet
  facet normal 0.951056 1.85083e-16 0.309017
    outer loop
      vertex -13.8029 -27.8 -10
      vertex -13.2247 -27.8 -11.7796
      vertex -13.2247 -4.5 -11.7796
    endloop
  endfacet
  facet normal 0.951056 1.85083e-16 0.309017
    outer loop
      vertex -13.8029 -4.5 -10
      vertex -13.8029 -27.8 -10
      vertex -13.2247 -4.5 -11.7796
    endloop
  endfacet
  facet normal 0.994522 9.85797e-17 -0.104529
    outer loop
      vertex -13.2247 -27.8 -11.7796
      vertex -13.4202 -27.8 -13.6406
      vertex -13.4202 -4.5 -13.6406
    endloop
  endfacet
  facet normal 0.994522 9.85797e-17 -0.104529
    outer loop
      vertex -13.2247 -4.5 -11.7796
      vertex -13.2247 -27.8 -11.7796
      vertex -13.4202 -4.5 -13.6406
    endloop
  endfacet
  facet normal 0.866026 -4.96816e-18 -0.5
    outer loop
      vertex -13.4202 -27.8 -13.6406
      vertex -14.3558 -27.8 -15.2611
      vertex -14.3558 -4.5 -15.2611
    endloop
  endfacet
  facet normal 0.866026 -4.96816e-18 -0.5
    outer loop
      vertex -13.4202 -4.5 -13.6406
      vertex -13.4202 -27.8 -13.6406
      vertex -14.3558 -4.5 -15.2611
    endloop
  endfacet
  facet normal 0.587785 -1.07657e-16 -0.809017
    outer loop
      vertex -15.8697 -27.8 -16.361
      vertex -15.8697 -4.5 -16.361
      vertex -14.3558 -27.8 -15.2611
    endloop
  endfacet
  facet normal 0.587785 -1.07657e-16 -0.809017
    outer loop
      vertex -14.3558 -27.8 -15.2611
      vertex -15.8697 -4.5 -16.361
      vertex -14.3558 -4.5 -15.2611
    endloop
  endfacet
  facet normal 0.207911 -1.91731e-16 -0.978148
    outer loop
      vertex -17.7 -27.8 -16.75
      vertex -17.7 -4.5 -16.75
      vertex -15.8697 -27.8 -16.361
    endloop
  endfacet
  facet normal 0.207911 -1.91731e-16 -0.978148
    outer loop
      vertex -15.8697 -27.8 -16.361
      vertex -17.7 -4.5 -16.75
      vertex -15.8697 -4.5 -16.361
    endloop
  endfacet
  facet normal -0.207911 -2.42653e-16 -0.978148
    outer loop
      vertex -19.5303 -27.8 -16.361
      vertex -19.5303 -4.5 -16.361
      vertex -17.7 -27.8 -16.75
    endloop
  endfacet
  facet normal -0.207911 -2.42653e-16 -0.978148
    outer loop
      vertex -17.7 -27.8 -16.75
      vertex -19.5303 -4.5 -16.361
      vertex -17.7 -4.5 -16.75
    endloop
  endfacet
  facet normal -9.9584e-17 -1 2.22045e-16
    outer loop
      vertex -19.5303 -4.5 -16.361
      vertex -22 -4.5 -16.75
      vertex -17.7 -4.5 -16.75
    endloop
  endfacet
  facet normal -9.9584e-17 -1 2.22045e-16
    outer loop
      vertex -21.0442 -4.5 -15.2611
      vertex -22 -4.5 -16.75
      vertex -19.5303 -4.5 -16.361
    endloop
  endfacet
  facet normal -9.9584e-17 -1 2.22045e-16
    outer loop
      vertex -21.9798 -4.5 -13.6406
      vertex -22 -4.5 -16.75
      vertex -21.0442 -4.5 -15.2611
    endloop
  endfacet
  facet normal -9.9584e-17 -1 2.22045e-16
    outer loop
      vertex -22 -4.5 -13.4479
      vertex -22 -4.5 -16.75
      vertex -21.9798 -4.5 -13.6406
    endloop
  endfacet
  facet normal -1 9.9584e-17 -2.22045e-16
    outer loop
      vertex -22 -4.5 -16.75
      vertex -22 -4.5 -13.4479
      vertex -22 4.5 -16.75
    endloop
  endfacet
  facet normal -1 9.9584e-17 -2.22045e-16
    outer loop
      vertex -22 4.5 -16.75
      vertex -22 -4.5 -13.4479
      vertex -22 4.5 -13.4479
    endloop
  endfacet
  facet normal 9.9584e-17 1 -2.22045e-16
    outer loop
      vertex -22 4.5 -16.75
      vertex -22 4.5 -13.4479
      vertex -21.9798 4.5 -13.6406
    endloop
  endfacet
  facet normal 9.9584e-17 1 -2.22045e-16
    outer loop
      vertex -22 4.5 -16.75
      vertex -21.9798 4.5 -13.6406
      vertex -21.0442 4.5 -15.2611
    endloop
  endfacet
  facet normal 9.9584e-17 1 -2.22045e-16
    outer loop
      vertex -22 4.5 -16.75
      vertex -21.0442 4.5 -15.2611
      vertex -19.5303 4.5 -16.361
    endloop
  endfacet
  facet normal 9.9584e-17 1 -2.22045e-16
    outer loop
      vertex -22 4.5 -16.75
      vertex -19.5303 4.5 -16.361
      vertex -17.7 4.5 -16.75
    endloop
  endfacet
  facet normal -0.866026 -2.17076e-16 -0.5
    outer loop
      vertex -21.0442 4.5 -15.2611
      vertex -21.9798 4.5 -13.6406
      vertex -21.0442 4.7 -15.2611
    endloop
  endfacet
  facet normal -0.866026 -2.17076e-16 -0.5
    outer loop
      vertex -21.0442 4.7 -15.2611
      vertex -21.9798 4.5 -13.6406
      vertex -21.9798 4.7 -13.6406
    endloop
  endfacet
  facet normal -1.22461e-16 1 -2.22045e-16
    outer loop
      vertex -21.0442 4.7 -15.2611
      vertex -21.9798 4.7 -13.6406
      vertex -19.5303 4.7 -16.361
    endloop
  endfacet
  facet normal -1.22461e-16 1 -2.22045e-16
    outer loop
      vertex -19.5303 4.7 -16.361
      vertex -21.9798 4.7 -13.6406
      vertex -22.1753 4.7 -11.7796
    endloop
  endfacet
  facet normal -1.22461e-16 1 -2.22045e-16
    outer loop
      vertex -19.5303 4.7 -16.361
      vertex -22.1753 4.7 -11.7796
      vertex -21.5971 4.7 -10
    endloop
  endfacet
  facet normal -1.22461e-16 1 -2.22045e-16
    outer loop
      vertex -19.5303 4.7 -16.361
      vertex -21.5971 4.7 -10
      vertex -20.345 4.7 -8.60942
    endloop
  endfacet
  facet normal -1.22461e-16 1 -2.22045e-16
    outer loop
      vertex -19.5303 4.7 -16.361
      vertex -20.345 4.7 -8.60942
      vertex -18.6356 4.7 -7.84834
    endloop
  endfacet
  facet normal -1.22461e-16 1 -2.22045e-16
    outer loop
      vertex -19.5303 4.7 -16.361
      vertex -18.6356 4.7 -7.84834
      vertex -16.7644 4.7 -7.84834
    endloop
  endfacet
  facet normal -1.22461e-16 1 -2.22045e-16
    outer loop
      vertex -19.5303 4.7 -16.361
      vertex -16.7644 4.7 -7.84834
      vertex -15.055 4.7 -8.60942
    endloop
  endfacet
  facet normal -1.22461e-16 1 -2.22045e-16
    outer loop
      vertex -19.5303 4.7 -16.361
      vertex -15.055 4.7 -8.60942
      vertex -13.8029 4.7 -10
    endloop
  endfacet
  facet normal -1.22461e-16 1 -2.22045e-16
    outer loop
      vertex -19.5303 4.7 -16.361
      vertex -13.8029 4.7 -10
      vertex -13.2247 4.7 -11.7796
    endloop
  endfacet
  facet normal -1.22461e-16 1 -2.22045e-16
    outer loop
      vertex -19.5303 4.7 -16.361
      vertex -13.2247 4.7 -11.7796
      vertex -13.4202 4.7 -13.6406
    endloop
  endfacet
  facet normal -1.22461e-16 1 -2.22045e-16
    outer loop
      vertex -19.5303 4.7 -16.361
      vertex -13.4202 4.7 -13.6406
      vertex -14.3558 4.7 -15.2611
    endloop
  endfacet
  facet normal -1.22461e-16 1 -2.22045e-16
    outer loop
      vertex -19.5303 4.7 -16.361
      vertex -14.3558 4.7 -15.2611
      vertex -15.8697 4.7 -16.361
    endloop
  endfacet
  facet normal -1.22461e-16 1 -2.22045e-16
    outer loop
      vertex -19.5303 4.7 -16.361
      vertex -15.8697 4.7 -16.361
      vertex -17.7 4.7 -16.75
    endloop
  endfacet
  facet normal -0.743145 5.75708e-17 0.669131
    outer loop
      vertex -21.5971 4.5 -10
      vertex -20.345 4.5 -8.60942
      vertex -21.5971 4.7 -10
    endloop
  endfacet
  facet normal -0.743145 5.75708e-17 0.669131
    outer loop
      vertex -21.5971 4.7 -10
      vertex -20.345 4.5 -8.60942
      vertex -20.345 4.7 -8.60942
    endloop
  endfacet
  facet normal 9.9584e-17 1 -2.22045e-16
    outer loop
      vertex -17.7 4.5 -16.75
      vertex -15.8697 4.5 -16.361
      vertex -4.7 4.5 -16.75
    endloop
  endfacet
  facet normal 9.9584e-17 1 -2.22045e-16
    outer loop
      vertex -4.7 4.5 -16.75
      vertex -15.8697 4.5 -16.361
      vertex -14.3558 4.5 -15.2611
    endloop
  endfacet
  facet normal 9.9584e-17 1 -2.22045e-16
    outer loop
      vertex -14.3558 4.5 -15.2611
      vertex -13.4202 4.5 -13.6406
      vertex -4.7 4.5 -16.75
    endloop
  endfacet
  facet normal 9.9584e-17 1 -2.22045e-16
    outer loop
      vertex -13.4202 4.5 -13.6406
      vertex -13.2247 4.5 -11.7796
      vertex -4.7 4.5 -16.75
    endloop
  endfacet
  facet normal 9.9584e-17 1 -2.22045e-16
    outer loop
      vertex -13.2247 4.5 -11.7796
      vertex -13.8029 4.5 -10
      vertex -4.7 4.5 -16.75
    endloop
  endfacet
  facet normal 9.9584e-17 1 -2.22045e-16
    outer loop
      vertex -13.8029 4.5 -10
      vertex -15.055 4.5 -8.60942
      vertex -4.7 4.5 -16.75
    endloop
  endfacet
  facet normal 9.9584e-17 1 -2.22045e-16
    outer loop
      vertex -15.055 4.5 -8.60942
      vertex -4.7 4.5 -7.75
      vertex -4.7 4.5 -16.75
    endloop
  endfacet
  facet normal 9.9584e-17 1 -2.22045e-16
    outer loop
      vertex -18.6356 4.5 -7.84834
      vertex -22 4.5 -7.75
      vertex -16.7644 4.5 -7.84834
    endloop
  endfacet
  facet normal 9.9584e-17 1 -2.22045e-16
    outer loop
      vertex -20.345 4.5 -8.60942
      vertex -22 4.5 -7.75
      vertex -18.6356 4.5 -7.84834
    endloop
  endfacet
  facet normal 9.9584e-17 1 -2.22045e-16
    outer loop
      vertex -21.5971 4.5 -10
      vertex -22 4.5 -11.24
      vertex -22 4.5 -7.75
    endloop
  endfacet
  facet normal 9.9584e-17 1 -2.22045e-16
    outer loop
      vertex -21.5971 4.5 -10
      vertex -22 4.5 -7.75
      vertex -20.345 4.5 -8.60942
    endloop
  endfacet
  facet normal 9.9584e-17 1 -2.22045e-16
    outer loop
      vertex -16.7644 4.5 -7.84834
      vertex -22 4.5 -7.75
      vertex -4.7 4.5 -7.75
    endloop
  endfacet
  facet normal 9.9584e-17 1 -2.22045e-16
    outer loop
      vertex -16.7644 4.5 -7.84834
      vertex -4.7 4.5 -7.75
      vertex -15.055 4.5 -8.60942
    endloop
  endfacet
  facet normal -1 9.9584e-17 -2.22045e-16
    outer loop
      vertex -22 -4.5 -11.24
      vertex -22 -4.5 -7.75
      vertex -22 4.5 -11.24
    endloop
  endfacet
  facet normal -1 9.9584e-17 -2.22045e-16
    outer loop
      vertex -22 4.5 -11.24
      vertex -22 -4.5 -7.75
      vertex -22 4.5 -7.75
    endloop
  endfacet
  facet normal -9.9584e-17 -1 2.22045e-16
    outer loop
      vertex -15.8697 -4.5 -16.361
      vertex -17.7 -4.5 -16.75
      vertex -4.7 -4.5 -16.75
    endloop
  endfacet
  facet normal -9.9584e-17 -1 2.22045e-16
    outer loop
      vertex -14.3558 -4.5 -15.2611
      vertex -15.8697 -4.5 -16.361
      vertex -4.7 -4.5 -16.75
    endloop
  endfacet
  facet normal -9.9584e-17 -1 2.22045e-16
    outer loop
      vertex -18.6356 -4.5 -7.84834
      vertex -4.7 -4.5 -7.75
      vertex -22 -4.5 -7.75
    endloop
  endfacet
  facet normal -9.9584e-17 -1 2.22045e-16
    outer loop
      vertex -21.5971 -4.5 -10
      vertex -22 -4.5 -7.75
      vertex -22 -4.5 -11.24
    endloop
  endfacet
  facet normal -9.9584e-17 -1 2.22045e-16
    outer loop
      vertex -16.7644 -4.5 -7.84834
      vertex -15.055 -4.5 -8.60942
      vertex -4.7 -4.5 -7.75
    endloop
  endfacet
  facet normal -9.9584e-17 -1 2.22045e-16
    outer loop
      vertex -20.345 -4.5 -8.60942
      vertex -18.6356 -4.5 -7.84834
      vertex -22 -4.5 -7.75
    endloop
  endfacet
  facet normal -9.9584e-17 -1 2.22045e-16
    outer loop
      vertex -16.7644 -4.5 -7.84834
      vertex -4.7 -4.5 -7.75
      vertex -18.6356 -4.5 -7.84834
    endloop
  endfacet
  facet normal -9.9584e-17 -1 2.22045e-16
    outer loop
      vertex -13.8029 -4.5 -10
      vertex -4.7 -4.5 -7.75
      vertex -15.055 -4.5 -8.60942
    endloop
  endfacet
  facet normal -9.9584e-17 -1 2.22045e-16
    outer loop
      vertex -13.2247 -4.5 -11.7796
      vertex -4.7 -4.5 -7.75
      vertex -13.8029 -4.5 -10
    endloop
  endfacet
  facet normal -9.9584e-17 -1 2.22045e-16
    outer loop
      vertex -13.4202 -4.5 -13.6406
      vertex -4.7 -4.5 -7.75
      vertex -13.2247 -4.5 -11.7796
    endloop
  endfacet
  facet normal -9.9584e-17 -1 2.22045e-16
    outer loop
      vertex -4.7 -4.5 -7.75
      vertex -14.3558 -4.5 -15.2611
      vertex -4.7 -4.5 -16.75
    endloop
  endfacet
  facet normal -9.9584e-17 -1 2.22045e-16
    outer loop
      vertex -21.5971 -4.5 -10
      vertex -20.345 -4.5 -8.60942
      vertex -22 -4.5 -7.75
    endloop
  endfacet
  facet normal -9.9584e-17 -1 2.22045e-16
    outer loop
      vertex -13.4202 -4.5 -13.6406
      vertex -14.3558 -4.5 -15.2611
      vertex -4.7 -4.5 -7.75
    endloop
  endfacet
  facet normal 2.22045e-16 -2.22045e-16 -1
    outer loop
      vertex -22 -4.5 -16.75
      vertex -22 4.5 -16.75
      vertex -17.7 -4.5 -16.75
    endloop
  endfacet
  facet normal 2.22045e-16 -2.22045e-16 -1
    outer loop
      vertex -17.7 -4.5 -16.75
      vertex -22 4.5 -16.75
      vertex -17.7 4.5 -16.75
    endloop
  endfacet
  facet normal 2.22045e-16 -2.22045e-16 -1
    outer loop
      vertex -17.7 -4.5 -16.75
      vertex -17.7 4.5 -16.75
      vertex -4.7 4.5 -16.75
    endloop
  endfacet
  facet normal 2.22045e-16 -2.22045e-16 -1
    outer loop
      vertex -17.7 -4.5 -16.75
      vertex -4.7 4.5 -16.75
      vertex -4.7 -4.5 -16.75
    endloop
  endfacet
  facet normal 0.207911 -1.91731e-16 -0.978148
    outer loop
      vertex -17.7 4.5 -16.75
      vertex -17.7 4.7 -16.75
      vertex -15.8697 4.5 -16.361
    endloop
  endfacet
  facet normal 0.207911 -1.91731e-16 -0.978148
    outer loop
      vertex -15.8697 4.5 -16.361
      vertex -17.7 4.7 -16.75
      vertex -15.8697 4.7 -16.361
    endloop
  endfacet
  facet normal -0.207911 -2.42653e-16 -0.978148
    outer loop
      vertex -19.5303 4.5 -16.361
      vertex -19.5303 4.7 -16.361
      vertex -17.7 4.5 -16.75
    endloop
  endfacet
  facet normal -0.207911 -2.42653e-16 -0.978148
    outer loop
      vertex -17.7 4.5 -16.75
      vertex -19.5303 4.7 -16.361
      vertex -17.7 4.7 -16.75
    endloop
  endfacet
  facet normal -0.587785 -2.51618e-16 -0.809017
    outer loop
      vertex -19.5303 4.5 -16.361
      vertex -21.0442 4.5 -15.2611
      vertex -19.5303 4.7 -16.361
    endloop
  endfacet
  facet normal -0.587785 -2.51618e-16 -0.809017
    outer loop
      vertex -19.5303 4.7 -16.361
      vertex -21.0442 4.5 -15.2611
      vertex -21.0442 4.7 -15.2611
    endloop
  endfacet
  facet normal 0.587785 -1.07657e-16 -0.809017
    outer loop
      vertex -15.8697 4.5 -16.361
      vertex -15.8697 4.7 -16.361
      vertex -14.3558 4.5 -15.2611
    endloop
  endfacet
  facet normal 0.587785 -1.07657e-16 -0.809017
    outer loop
      vertex -14.3558 4.5 -15.2611
      vertex -15.8697 4.7 -16.361
      vertex -14.3558 4.7 -15.2611
    endloop
  endfacet
  facet normal 0.866026 -4.96816e-18 -0.5
    outer loop
      vertex -13.4202 4.5 -13.6406
      vertex -14.3558 4.5 -15.2611
      vertex -14.3558 4.7 -15.2611
    endloop
  endfacet
  facet normal 0.866026 -4.96816e-18 -0.5
    outer loop
      vertex -13.4202 4.7 -13.6406
      vertex -13.4202 4.5 -13.6406
      vertex -14.3558 4.7 -15.2611
    endloop
  endfacet
  facet normal 0.994522 9.85797e-17 -0.104529
    outer loop
      vertex -13.2247 4.5 -11.7796
      vertex -13.4202 4.5 -13.6406
      vertex -13.4202 4.7 -13.6406
    endloop
  endfacet
  facet normal 0.994522 9.85797e-17 -0.104529
    outer loop
      vertex -13.2247 4.7 -11.7796
      vertex -13.2247 4.5 -11.7796
      vertex -13.4202 4.7 -13.6406
    endloop
  endfacet
  facet normal 0.951056 1.85083e-16 0.309017
    outer loop
      vertex -13.8029 4.5 -10
      vertex -13.2247 4.5 -11.7796
      vertex -13.2247 4.7 -11.7796
    endloop
  endfacet
  facet normal 0.951056 1.85083e-16 0.309017
    outer loop
      vertex -13.8029 4.7 -10
      vertex -13.8029 4.5 -10
      vertex -13.2247 4.7 -11.7796
    endloop
  endfacet
  facet normal 0.743145 2.39583e-16 0.669131
    outer loop
      vertex -15.055 4.5 -8.60942
      vertex -13.8029 4.5 -10
      vertex -13.8029 4.7 -10
    endloop
  endfacet
  facet normal 0.743145 2.39583e-16 0.669131
    outer loop
      vertex -15.055 4.7 -8.60942
      vertex -15.055 4.5 -8.60942
      vertex -13.8029 4.7 -10
    endloop
  endfacet
  facet normal 0.406737 2.52657e-16 0.913545
    outer loop
      vertex -16.7644 4.7 -7.84834
      vertex -16.7644 4.5 -7.84834
      vertex -15.055 4.5 -8.60942
    endloop
  endfacet
  facet normal 0.406737 2.52657e-16 0.913545
    outer loop
      vertex -15.055 4.7 -8.60942
      vertex -16.7644 4.7 -7.84834
      vertex -15.055 4.5 -8.60942
    endloop
  endfacet
  facet normal -2.22045e-16 2.22045e-16 1
    outer loop
      vertex -18.6356 4.7 -7.84834
      vertex -18.6356 4.5 -7.84834
      vertex -16.7644 4.5 -7.84834
    endloop
  endfacet
  facet normal -2.22045e-16 2.22045e-16 1
    outer loop
      vertex -16.7644 4.7 -7.84834
      vertex -18.6356 4.7 -7.84834
      vertex -16.7644 4.5 -7.84834
    endloop
  endfacet
  facet normal -0.406737 1.53039e-16 0.913545
    outer loop
      vertex -20.345 4.7 -8.60942
      vertex -20.345 4.5 -8.60942
      vertex -18.6356 4.5 -7.84834
    endloop
  endfacet
  facet normal -0.406737 1.53039e-16 0.913545
    outer loop
      vertex -18.6356 4.7 -7.84834
      vertex -20.345 4.7 -8.60942
      vertex -18.6356 4.5 -7.84834
    endloop
  endfacet
  facet normal -1 2.22045e-16 -2.22045e-16
    outer loop
      vertex -4.7 4.5 -7.75
      vertex -4.7 -16.25 19.25
      vertex -4.7 16.25 -19.25
    endloop
  endfacet
  facet normal -1 2.22045e-16 -2.22045e-16
    outer loop
      vertex -4.7 16.25 -19.25
      vertex -4.7 -16.25 19.25
      vertex -4.7 16.25 19.25
    endloop
  endfacet
  facet normal -1 2.22045e-16 -2.22045e-16
    outer loop
      vertex -4.7 -16.25 -19.25
      vertex -4.7 -16.25 19.25
      vertex -4.7 -4.5 -7.75
    endloop
  endfacet
  facet normal -1 2.22045e-16 -2.22045e-16
    outer loop
      vertex -4.7 -16.25 -19.25
      vertex -4.7 -4.5 -7.75
      vertex -4.7 -4.5 -16.75
    endloop
  endfacet
  facet normal -1 2.22045e-16 -2.22045e-16
    outer loop
      vertex -4.7 -16.25 -19.25
      vertex -4.7 -4.5 -16.75
      vertex -4.7 16.25 -19.25
    endloop
  endfacet
  facet normal -1 2.22045e-16 -2.22045e-16
    outer loop
      vertex -4.7 -4.5 -16.75
      vertex -4.7 4.5 -16.75
      vertex -4.7 16.25 -19.25
    endloop
  endfacet
  facet normal -1 2.22045e-16 -2.22045e-16
    outer loop
      vertex -4.7 -4.5 -7.75
      vertex -4.7 -16.25 19.25
      vertex -4.7 4.5 -7.75
    endloop
  endfacet
  facet normal -1 2.22045e-16 -2.22045e-16
    outer loop
      vertex -4.7 4.5 -7.75
      vertex -4.7 16.25 -19.25
      vertex -4.7 4.5 -16.75
    endloop
  endfacet
  facet normal -2.22045e-16 2.22045e-16 1
    outer loop
      vertex -22 4.5 -7.75
      vertex -22 -4.5 -7.75
      vertex -4.7 -4.5 -7.75
    endloop
  endfacet
  facet normal -2.22045e-16 2.22045e-16 1
    outer loop
      vertex -4.7 4.5 -7.75
      vertex -22 4.5 -7.75
      vertex -4.7 -4.5 -7.75
    endloop
  endfacet
  facet normal 2.22045e-16 1 4.93038e-32
    outer loop
      vertex -4.7 16.25 -19.25
      vertex -4.7 16.25 19.25
      vertex 4.7 16.25 -19.25
    endloop
  endfacet
  facet normal 2.22045e-16 1 4.93038e-32
    outer loop
      vertex 4.7 16.25 -19.25
      vertex -4.7 16.25 19.25
      vertex 4.7 16.25 19.25
    endloop
  endfacet
  facet normal 2.22045e-16 -4.93038e-32 -1
    outer loop
      vertex -4.7 -16.25 -19.25
      vertex -4.7 16.25 -19.25
      vertex 4.7 -16.25 -19.25
    endloop
  endfacet
  facet normal 2.22045e-16 -4.93038e-32 -1
    outer loop
      vertex 4.7 -16.25 -19.25
      vertex -4.7 16.25 -19.25
      vertex 4.7 16.25 -19.25
    endloop
  endfacet
  facet normal -2.22045e-16 4.93038e-32 1
    outer loop
      vertex 1.75 -13.25 19.25
      vertex -4.7 -16.25 19.25
      vertex 4.7 -16.25 19.25
    endloop
  endfacet
  facet normal -2.22045e-16 4.93038e-32 1
    outer loop
      vertex 1.75 -8.25 19.25
      vertex 1.75 -13.25 19.25
      vertex 4.7 -16.25 19.25
    endloop
  endfacet
  facet normal -2.22045e-16 4.93038e-32 1
    outer loop
      vertex -1.75 -13.25 19.25
      vertex -4.7 -16.25 19.25
      vertex 1.75 -13.25 19.25
    endloop
  endfacet
  facet normal -2.22045e-16 4.93038e-32 1
    outer loop
      vertex 1.75 13.25 19.25
      vertex -4.7 16.25 19.25
      vertex -1.75 13.25 19.25
    endloop
  endfacet
  facet normal -2.22045e-16 4.93038e-32 1
    outer loop
      vertex 4.7 16.25 19.25
      vertex -4.7 16.25 19.25
      vertex 1.75 13.25 19.25
    endloop
  endfacet
  facet normal -2.22045e-16 4.93038e-32 1
    outer loop
      vertex 4.7 16.25 19.25
      vertex 1.75 13.25 19.25
      vertex 4.7 8.25 19.25
    endloop
  endfacet
  facet normal -2.22045e-16 4.93038e-32 1
    outer loop
      vertex 1.75 8.25 19.25
      vertex 4.7 8.25 19.25
      vertex 1.75 13.25 19.25
    endloop
  endfacet
  facet normal -2.22045e-16 4.93038e-32 1
    outer loop
      vertex 4.7 -8.25 19.25
      vertex 1.75 -8.25 19.25
      vertex 4.7 -16.25 19.25
    endloop
  endfacet
  facet normal -2.22045e-16 4.93038e-32 1
    outer loop
      vertex -1.75 -13.25 19.25
      vertex -4.7 16.25 19.25
      vertex -4.7 -16.25 19.25
    endloop
  endfacet
  facet normal -2.22045e-16 4.93038e-32 1
    outer loop
      vertex -1.75 -13.25 19.25
      vertex -1.75 13.25 19.25
      vertex -4.7 16.25 19.25
    endloop
  endfacet
  facet normal -2.22045e-16 -1 -4.93038e-32
    outer loop
      vertex -4.7 -16.25 19.25
      vertex -4.7 -16.25 -19.25
      vertex 4.7 -16.25 -19.25
    endloop
  endfacet
  facet normal -2.22045e-16 -1 -4.93038e-32
    outer loop
      vertex 4.7 -16.25 19.25
      vertex -4.7 -16.25 19.25
      vertex 4.7 -16.25 -19.25
    endloop
  endfacet
  facet normal 1 -2.22045e-16 2.22045e-16
    outer loop
      vertex 4.7 -8.25 -7.05
      vertex 4.7 -16.25 -19.25
      vertex 4.7 16.25 -19.25
    endloop
  endfacet
  facet normal 1 -2.22045e-16 2.22045e-16
    outer loop
      vertex 4.7 -8.25 -7.05
      vertex 4.7 -8.25 19.25
      vertex 4.7 -16.25 19.25
    endloop
  endfacet
  facet normal 1 -2.22045e-16 2.22045e-16
    outer loop
      vertex 4.7 16.25 19.25
      vertex 4.7 8.25 19.25
      vertex 4.7 16.25 -19.25
    endloop
  endfacet
  facet normal 1 -2.22045e-16 2.22045e-16
    outer loop
      vertex 4.7 8.25 19.25
      vertex 4.7 8.25 -7.05
      vertex 4.7 16.25 -19.25
    endloop
  endfacet
  facet normal 1 -2.22045e-16 2.22045e-16
    outer loop
      vertex 4.7 -16.25 19.25
      vertex 4.7 -16.25 -19.25
      vertex 4.7 -8.25 -7.05
    endloop
  endfacet
  facet normal 1 -2.22045e-16 2.22045e-16
    outer loop
      vertex 4.7 8.25 -7.05
      vertex 4.7 -8.25 -7.05
      vertex 4.7 16.25 -19.25
    endloop
  endfacet
  facet normal -2.22045e-16 -1 -4.93038e-32
    outer loop
      vertex 4.7 8.25 -7.05
      vertex 4.7 8.25 19.25
      vertex 1.75 8.25 19.25
    endloop
  endfacet
  facet normal -2.22045e-16 -1 -4.93038e-32
    outer loop
      vertex 1.75 8.25 -7.05
      vertex 4.7 8.25 -7.05
      vertex 1.75 8.25 19.25
    endloop
  endfacet
  facet normal -1 2.22045e-16 -2.22045e-16
    outer loop
      vertex 1.75 -8.25 19.25
      vertex 1.75 -8.25 -7.05
      vertex 1.75 -13.25 19.25
    endloop
  endfacet
  facet normal -1 2.22045e-16 -2.22045e-16
    outer loop
      vertex 1.75 -13.25 -16.25
      vertex 1.75 -8.25 -7.05
      vertex 1.75 13.25 -16.25
    endloop
  endfacet
  facet normal -1 2.22045e-16 -2.22045e-16
    outer loop
      vertex 1.75 13.25 19.25
      vertex 1.75 8.25 -7.05
      vertex 1.75 8.25 19.25
    endloop
  endfacet
  facet normal -1 2.22045e-16 -2.22045e-16
    outer loop
      vertex 1.75 13.25 -16.25
      vertex 1.75 8.25 -7.05
      vertex 1.75 13.25 19.25
    endloop
  endfacet
  facet normal -1 2.22045e-16 -2.22045e-16
    outer loop
      vertex 1.75 -8.25 -7.05
      vertex 1.75 8.25 -7.05
      vertex 1.75 13.25 -16.25
    endloop
  endfacet
  facet normal -1 2.22045e-16 -2.22045e-16
    outer loop
      vertex 1.75 -13.25 19.25
      vertex 1.75 -8.25 -7.05
      vertex 1.75 -13.25 -16.25
    endloop
  endfacet
  facet normal -2.22045e-16 -1 -4.93038e-32
    outer loop
      vertex 1.75 13.25 -16.25
      vertex 1.75 13.25 19.25
      vertex -1.75 13.25 19.25
    endloop
  endfacet
  facet normal -2.22045e-16 -1 -4.93038e-32
    outer loop
      vertex -1.75 13.25 -16.25
      vertex 1.75 13.25 -16.25
      vertex -1.75 13.25 19.25
    endloop
  endfacet
  facet normal 1 -2.22045e-16 2.22045e-16
    outer loop
      vertex -1.75 13.25 -16.25
      vertex -1.75 13.25 19.25
      vertex -1.75 -13.25 19.25
    endloop
  endfacet
  facet normal 1 -2.22045e-16 2.22045e-16
    outer loop
      vertex -1.75 -13.25 -16.25
      vertex -1.75 13.25 -16.25
      vertex -1.75 -13.25 19.25
    endloop
  endfacet
  facet normal 2.22045e-16 1 4.93038e-32
    outer loop
      vertex 1.75 -13.25 19.25
      vertex 1.75 -13.25 -16.25
      vertex -1.75 -13.25 19.25
    endloop
  endfacet
  facet normal 2.22045e-16 1 4.93038e-32
    outer loop
      vertex -1.75 -13.25 19.25
      vertex 1.75 -13.25 -16.25
      vertex -1.75 -13.25 -16.25
    endloop
  endfacet
  facet normal 2.22045e-16 1 4.93038e-32
    outer loop
      vertex 4.7 -8.25 19.25
      vertex 4.7 -8.25 -7.05
      vertex 1.75 -8.25 19.25
    endloop
  endfacet
  facet normal 2.22045e-16 1 4.93038e-32
    outer loop
      vertex 1.75 -8.25 19.25
      vertex 4.7 -8.25 -7.05
      vertex 1.75 -8.25 -7.05
    endloop
  endfacet
  facet normal -2.22045e-16 4.93038e-32 1
    outer loop
      vertex 4.7 -8.25 -7.05
      vertex 4.7 8.25 -7.05
      vertex 1.75 8.25 -7.05
    endloop
  endfacet
  facet normal -2.22045e-16 4.93038e-32 1
    outer loop
      vertex 1.75 -8.25 -7.05
      vertex 4.7 -8.25 -7.05
      vertex 1.75 8.25 -7.05
    endloop
  endfacet
  facet normal -2.22045e-16 4.93038e-32 1
    outer loop
      vertex 1.75 -13.25 -16.25
      vertex 1.75 13.25 -16.25
      vertex -1.75 13.25 -16.25
    endloop
  endfacet
  facet normal -2.22045e-16 4.93038e-32 1
    outer loop
      vertex -1.75 -13.25 -16.25
      vertex 1.75 -13.25 -16.25
      vertex -1.75 13.25 -16.25
    endloop
  endfacet
endsolid OpenSCAD_Model
