solid OpenSCAD_Model
  facet normal -2.22045e-16 -1 -4.93038e-32
    outer loop
      vertex -4.7 -16.25 19.25
      vertex -4.7 -16.25 -19.25
      vertex 4.7 -16.25 -19.25
    endloop
  endfacet
  facet normal -2.22045e-16 -1 -4.93038e-32
    outer loop
      vertex 4.7 -16.25 19.25
      vertex -4.7 -16.25 19.25
      vertex 4.7 -16.25 -19.25
    endloop
  endfacet
  facet normal 2.22045e-16 -4.93038e-32 -1
    outer loop
      vertex -4.7 -16.25 -19.25
      vertex -4.7 16.25 -19.25
      vertex 4.7 -16.25 -19.25
    endloop
  endfacet
  facet normal 2.22045e-16 -4.93038e-32 -1
    outer loop
      vertex 4.7 -16.25 -19.25
      vertex -4.7 16.25 -19.25
      vertex 4.7 16.25 -19.25
    endloop
  endfacet
  facet normal -1 2.22045e-16 -2.22045e-16
    outer loop
      vertex -4.7 -16.25 -19.25
      vertex -4.7 -16.25 19.25
      vertex -4.7 16.25 -19.25
    endloop
  endfacet
  facet normal -1 2.22045e-16 -2.22045e-16
    outer loop
      vertex -4.7 16.25 -19.25
      vertex -4.7 -16.25 19.25
      vertex -4.7 16.25 19.25
    endloop
  endfacet
  facet normal -2.22045e-16 4.93038e-32 1
    outer loop
      vertex 1.75 -13.25 19.25
      vertex -4.7 -16.25 19.25
      vertex 4.7 -16.25 19.25
    endloop
  endfacet
  facet normal -2.22045e-16 4.93038e-32 1
    outer loop
      vertex 1.75 -8.25 19.25
      vertex 1.75 -13.25 19.25
      vertex 4.7 -16.25 19.25
    endloop
  endfacet
  facet normal -2.22045e-16 4.93038e-32 1
    outer loop
      vertex -1.75 -13.25 19.25
      vertex -4.7 -16.25 19.25
      vertex 1.75 -13.25 19.25
    endloop
  endfacet
  facet normal -2.22045e-16 4.93038e-32 1
    outer loop
      vertex 1.75 13.25 19.25
      vertex -4.7 16.25 19.25
      vertex -1.75 13.25 19.25
    endloop
  endfacet
  facet normal -2.22045e-16 4.93038e-32 1
    outer loop
      vertex 4.7 16.25 19.25
      vertex -4.7 16.25 19.25
      vertex 1.75 13.25 19.25
    endloop
  endfacet
  facet normal -2.22045e-16 4.93038e-32 1
    outer loop
      vertex 4.7 16.25 19.25
      vertex 1.75 13.25 19.25
      vertex 4.7 8.25 19.25
    endloop
  endfacet
  facet normal -2.22045e-16 4.93038e-32 1
    outer loop
      vertex 1.75 8.25 19.25
      vertex 4.7 8.25 19.25
      vertex 1.75 13.25 19.25
    endloop
  endfacet
  facet normal -2.22045e-16 4.93038e-32 1
    outer loop
      vertex 4.7 -8.25 19.25
      vertex 1.75 -8.25 19.25
      vertex 4.7 -16.25 19.25
    endloop
  endfacet
  facet normal -2.22045e-16 4.93038e-32 1
    outer loop
      vertex -1.75 -13.25 19.25
      vertex -4.7 16.25 19.25
      vertex -4.7 -16.25 19.25
    endloop
  endfacet
  facet normal -2.22045e-16 4.93038e-32 1
    outer loop
      vertex -1.75 -13.25 19.25
      vertex -1.75 13.25 19.25
      vertex -4.7 16.25 19.25
    endloop
  endfacet
  facet normal 1 -2.22045e-16 2.22045e-16
    outer loop
      vertex 4.7 -8.25 -7.05
      vertex 4.7 -16.25 -19.25
      vertex 4.7 16.25 -19.25
    endloop
  endfacet
  facet normal 1 -2.22045e-16 2.22045e-16
    outer loop
      vertex 4.7 -8.25 -7.05
      vertex 4.7 -8.25 19.25
      vertex 4.7 -16.25 19.25
    endloop
  endfacet
  facet normal 1 -2.22045e-16 2.22045e-16
    outer loop
      vertex 4.7 16.25 19.25
      vertex 4.7 8.25 19.25
      vertex 4.7 16.25 -19.25
    endloop
  endfacet
  facet normal 1 -2.22045e-16 2.22045e-16
    outer loop
      vertex 4.7 8.25 19.25
      vertex 4.7 8.25 -7.05
      vertex 4.7 16.25 -19.25
    endloop
  endfacet
  facet normal 1 -2.22045e-16 2.22045e-16
    outer loop
      vertex 4.7 -16.25 19.25
      vertex 4.7 -16.25 -19.25
      vertex 4.7 -8.25 -7.05
    endloop
  endfacet
  facet normal 1 -2.22045e-16 2.22045e-16
    outer loop
      vertex 4.7 8.25 -7.05
      vertex 4.7 -8.25 -7.05
      vertex 4.7 16.25 -19.25
    endloop
  endfacet
  facet normal 2.22045e-16 1 4.93038e-32
    outer loop
      vertex -4.7 16.25 -19.25
      vertex -4.7 16.25 19.25
      vertex 4.7 16.25 -19.25
    endloop
  endfacet
  facet normal 2.22045e-16 1 4.93038e-32
    outer loop
      vertex 4.7 16.25 -19.25
      vertex -4.7 16.25 19.25
      vertex 4.7 16.25 19.25
    endloop
  endfacet
  facet normal -2.22045e-16 -1 -4.93038e-32
    outer loop
      vertex 4.7 8.25 -7.05
      vertex 4.7 8.25 19.25
      vertex 1.75 8.25 19.25
    endloop
  endfacet
  facet normal -2.22045e-16 -1 -4.93038e-32
    outer loop
      vertex 1.75 8.25 -7.05
      vertex 4.7 8.25 -7.05
      vertex 1.75 8.25 19.25
    endloop
  endfacet
  facet normal -1 2.22045e-16 -2.22045e-16
    outer loop
      vertex 1.75 -8.25 19.25
      vertex 1.75 -8.25 -7.05
      vertex 1.75 -13.25 19.25
    endloop
  endfacet
  facet normal -1 2.22045e-16 -2.22045e-16
    outer loop
      vertex 1.75 -13.25 -16.25
      vertex 1.75 -8.25 -7.05
      vertex 1.75 13.25 -16.25
    endloop
  endfacet
  facet normal -1 2.22045e-16 -2.22045e-16
    outer loop
      vertex 1.75 13.25 19.25
      vertex 1.75 8.25 -7.05
      vertex 1.75 8.25 19.25
    endloop
  endfacet
  facet normal -1 2.22045e-16 -2.22045e-16
    outer loop
      vertex 1.75 13.25 -16.25
      vertex 1.75 8.25 -7.05
      vertex 1.75 13.25 19.25
    endloop
  endfacet
  facet normal -1 2.22045e-16 -2.22045e-16
    outer loop
      vertex 1.75 -8.25 -7.05
      vertex 1.75 8.25 -7.05
      vertex 1.75 13.25 -16.25
    endloop
  endfacet
  facet normal -1 2.22045e-16 -2.22045e-16
    outer loop
      vertex 1.75 -13.25 19.25
      vertex 1.75 -8.25 -7.05
      vertex 1.75 -13.25 -16.25
    endloop
  endfacet
  facet normal -2.22045e-16 -1 -4.93038e-32
    outer loop
      vertex 1.75 13.25 -16.25
      vertex 1.75 13.25 19.25
      vertex -1.75 13.25 19.25
    endloop
  endfacet
  facet normal -2.22045e-16 -1 -4.93038e-32
    outer loop
      vertex -1.75 13.25 -16.25
      vertex 1.75 13.25 -16.25
      vertex -1.75 13.25 19.25
    endloop
  endfacet
  facet normal 1 -2.22045e-16 2.22045e-16
    outer loop
      vertex -1.75 13.25 -16.25
      vertex -1.75 13.25 19.25
      vertex -1.75 -13.25 19.25
    endloop
  endfacet
  facet normal 1 -2.22045e-16 2.22045e-16
    outer loop
      vertex -1.75 -13.25 -16.25
      vertex -1.75 13.25 -16.25
      vertex -1.75 -13.25 19.25
    endloop
  endfacet
  facet normal 2.22045e-16 1 4.93038e-32
    outer loop
      vertex 1.75 -13.25 19.25
      vertex 1.75 -13.25 -16.25
      vertex -1.75 -13.25 19.25
    endloop
  endfacet
  facet normal 2.22045e-16 1 4.93038e-32
    outer loop
      vertex -1.75 -13.25 19.25
      vertex 1.75 -13.25 -16.25
      vertex -1.75 -13.25 -16.25
    endloop
  endfacet
  facet normal 2.22045e-16 1 4.93038e-32
    outer loop
      vertex 4.7 -8.25 19.25
      vertex 4.7 -8.25 -7.05
      vertex 1.75 -8.25 19.25
    endloop
  endfacet
  facet normal 2.22045e-16 1 4.93038e-32
    outer loop
      vertex 1.75 -8.25 19.25
      vertex 4.7 -8.25 -7.05
      vertex 1.75 -8.25 -7.05
    endloop
  endfacet
  facet normal -2.22045e-16 4.93038e-32 1
    outer loop
      vertex 4.7 -8.25 -7.05
      vertex 4.7 8.25 -7.05
      vertex 1.75 8.25 -7.05
    endloop
  endfacet
  facet normal -2.22045e-16 4.93038e-32 1
    outer loop
      vertex 1.75 -8.25 -7.05
      vertex 4.7 -8.25 -7.05
      vertex 1.75 8.25 -7.05
    endloop
  endfacet
  facet normal -2.22045e-16 4.93038e-32 1
    outer loop
      vertex 1.75 -13.25 -16.25
      vertex 1.75 13.25 -16.25
      vertex -1.75 13.25 -16.25
    endloop
  endfacet
  facet normal -2.22045e-16 4.93038e-32 1
    outer loop
      vertex -1.75 -13.25 -16.25
      vertex 1.75 -13.25 -16.25
      vertex -1.75 13.25 -16.25
    endloop
  endfacet
  facet normal -5.6655e-16 -1 2.22045e-16
    outer loop
      vertex -25.055 -4.7 8.60942
      vertex -23.8029 -4.7 10
      vertex -23.2247 -4.7 11.7796
    endloop
  endfacet
  facet normal -5.6655e-16 -1 2.22045e-16
    outer loop
      vertex -24.3558 -4.7 15.2611
      vertex -25.055 -4.7 8.60942
      vertex -23.4202 -4.7 13.6406
    endloop
  endfacet
  facet normal -5.6655e-16 -1 2.22045e-16
    outer loop
      vertex -23.4202 -4.7 13.6406
      vertex -25.055 -4.7 8.60942
      vertex -23.2247 -4.7 11.7796
    endloop
  endfacet
  facet normal -5.6655e-16 -1 2.22045e-16
    outer loop
      vertex -25.8697 -4.7 16.361
      vertex -25.055 -4.7 8.60942
      vertex -24.3558 -4.7 15.2611
    endloop
  endfacet
  facet normal -5.6655e-16 -1 2.22045e-16
    outer loop
      vertex -27.7 -4.7 16.75
      vertex -25.055 -4.7 8.60942
      vertex -25.8697 -4.7 16.361
    endloop
  endfacet
  facet normal -5.6655e-16 -1 2.22045e-16
    outer loop
      vertex -29.5303 -4.7 16.361
      vertex -25.055 -4.7 8.60942
      vertex -27.7 -4.7 16.75
    endloop
  endfacet
  facet normal -5.6655e-16 -1 2.22045e-16
    outer loop
      vertex -31.0442 -4.7 15.2611
      vertex -25.055 -4.7 8.60942
      vertex -29.5303 -4.7 16.361
    endloop
  endfacet
  facet normal -5.6655e-16 -1 2.22045e-16
    outer loop
      vertex -31.9798 -4.7 13.6406
      vertex -25.055 -4.7 8.60942
      vertex -31.0442 -4.7 15.2611
    endloop
  endfacet
  facet normal -5.6655e-16 -1 2.22045e-16
    outer loop
      vertex -32.1753 -4.7 11.7796
      vertex -25.055 -4.7 8.60942
      vertex -31.9798 -4.7 13.6406
    endloop
  endfacet
  facet normal -5.6655e-16 -1 2.22045e-16
    outer loop
      vertex -31.5971 -4.7 10
      vertex -25.055 -4.7 8.60942
      vertex -32.1753 -4.7 11.7796
    endloop
  endfacet
  facet normal -5.6655e-16 -1 2.22045e-16
    outer loop
      vertex -30.345 -4.7 8.60942
      vertex -25.055 -4.7 8.60942
      vertex -31.5971 -4.7 10
    endloop
  endfacet
  facet normal -5.6655e-16 -1 2.22045e-16
    outer loop
      vertex -28.6356 -4.7 7.84834
      vertex -25.055 -4.7 8.60942
      vertex -30.345 -4.7 8.60942
    endloop
  endfacet
  facet normal -5.6655e-16 -1 2.22045e-16
    outer loop
      vertex -26.7644 -4.7 7.84834
      vertex -25.055 -4.7 8.60942
      vertex -28.6356 -4.7 7.84834
    endloop
  endfacet
  facet normal 0.951056 -6.07436e-16 -0.309017
    outer loop
      vertex -23.2247 -4.7 11.7796
      vertex -23.8029 -4.7 10
      vertex -23.8029 -4.5 10
    endloop
  endfacet
  facet normal 0.951056 -6.07436e-16 -0.309017
    outer loop
      vertex -23.2247 -4.5 11.7796
      vertex -23.2247 -4.7 11.7796
      vertex -23.8029 -4.5 10
    endloop
  endfacet
  facet normal 0.743145 -5.69605e-16 -0.669131
    outer loop
      vertex -23.8029 -4.5 10
      vertex -23.8029 -4.7 10
      vertex -25.055 -4.7 8.60942
    endloop
  endfacet
  facet normal 0.743145 -5.69605e-16 -0.669131
    outer loop
      vertex -25.055 -4.5 8.60942
      vertex -23.8029 -4.5 10
      vertex -25.055 -4.7 8.60942
    endloop
  endfacet
  facet normal 0.406737 -4.33284e-16 -0.913545
    outer loop
      vertex -25.055 -4.7 8.60942
      vertex -26.7644 -4.7 7.84834
      vertex -25.055 -4.5 8.60942
    endloop
  endfacet
  facet normal 0.406737 -4.33284e-16 -0.913545
    outer loop
      vertex -25.055 -4.5 8.60942
      vertex -26.7644 -4.7 7.84834
      vertex -26.7644 -4.5 7.84834
    endloop
  endfacet
  facet normal 2.22045e-16 -2.22045e-16 -1
    outer loop
      vertex -26.7644 -4.7 7.84834
      vertex -28.6356 -4.7 7.84834
      vertex -26.7644 -4.5 7.84834
    endloop
  endfacet
  facet normal 2.22045e-16 -2.22045e-16 -1
    outer loop
      vertex -26.7644 -4.5 7.84834
      vertex -28.6356 -4.7 7.84834
      vertex -28.6356 -4.5 7.84834
    endloop
  endfacet
  facet normal -0.406737 2.75888e-17 -0.913545
    outer loop
      vertex -28.6356 -4.7 7.84834
      vertex -30.345 -4.7 8.60942
      vertex -28.6356 -4.5 7.84834
    endloop
  endfacet
  facet normal -0.406737 2.75888e-17 -0.913545
    outer loop
      vertex -28.6356 -4.5 7.84834
      vertex -30.345 -4.7 8.60942
      vertex -30.345 -4.5 8.60942
    endloop
  endfacet
  facet normal -0.743145 2.72452e-16 -0.669131
    outer loop
      vertex -30.345 -4.7 8.60942
      vertex -31.5971 -4.7 10
      vertex -30.345 -4.5 8.60942
    endloop
  endfacet
  facet normal -0.743145 2.72452e-16 -0.669131
    outer loop
      vertex -30.345 -4.5 8.60942
      vertex -31.5971 -4.7 10
      vertex -31.5971 -4.5 10
    endloop
  endfacet
  facet normal -0.951056 4.70205e-16 -0.309017
    outer loop
      vertex -31.5971 -4.7 10
      vertex -32.1753 -4.7 11.7796
      vertex -31.5971 -4.5 10
    endloop
  endfacet
  facet normal -0.951056 4.70205e-16 -0.309017
    outer loop
      vertex -32 4.5 11.24
      vertex -32.1753 -4.7 11.7796
      vertex -32.1753 27.8 11.7796
    endloop
  endfacet
  facet normal -0.951056 4.70205e-16 -0.309017
    outer loop
      vertex -31.5971 4.5 10
      vertex -32.1753 27.8 11.7796
      vertex -31.5971 27.8 10
    endloop
  endfacet
  facet normal -0.951056 4.70205e-16 -0.309017
    outer loop
      vertex -32 -4.5 11.24
      vertex -32.1753 -4.7 11.7796
      vertex -32 4.5 11.24
    endloop
  endfacet
  facet normal -0.951056 4.70205e-16 -0.309017
    outer loop
      vertex -31.5971 -4.5 10
      vertex -32.1753 -4.7 11.7796
      vertex -32 -4.5 11.24
    endloop
  endfacet
  facet normal -0.951056 4.70205e-16 -0.309017
    outer loop
      vertex -32 4.5 11.24
      vertex -32.1753 27.8 11.7796
      vertex -31.5971 4.5 10
    endloop
  endfacet
  facet normal -0.994522 5.86656e-16 0.104529
    outer loop
      vertex -32 4.5 13.4479
      vertex -32.1753 27.8 11.7796
      vertex -32 -4.5 13.4479
    endloop
  endfacet
  facet normal -0.994522 5.86656e-16 0.104529
    outer loop
      vertex -32.1753 -4.7 11.7796
      vertex -31.9798 -4.7 13.6406
      vertex -32 -4.5 13.4479
    endloop
  endfacet
  facet normal -0.994522 5.86656e-16 0.104529
    outer loop
      vertex -32.1753 -4.7 11.7796
      vertex -32 -4.5 13.4479
      vertex -32.1753 27.8 11.7796
    endloop
  endfacet
  facet normal -0.994522 5.86656e-16 0.104529
    outer loop
      vertex -32.1753 27.8 11.7796
      vertex -32 4.5 13.4479
      vertex -31.9798 4.5 13.6406
    endloop
  endfacet
  facet normal -0.994522 5.86656e-16 0.104529
    outer loop
      vertex -32.1753 27.8 11.7796
      vertex -31.9798 4.5 13.6406
      vertex -31.9798 27.8 13.6406
    endloop
  endfacet
  facet normal -0.994522 5.86656e-16 0.104529
    outer loop
      vertex -32 -4.5 13.4479
      vertex -31.9798 -4.7 13.6406
      vertex -31.9798 -4.5 13.6406
    endloop
  endfacet
  facet normal -0.866026 6.01669e-16 0.5
    outer loop
      vertex -31.9798 -4.7 13.6406
      vertex -31.0442 -4.7 15.2611
      vertex -31.9798 -4.5 13.6406
    endloop
  endfacet
  facet normal -0.866026 6.01669e-16 0.5
    outer loop
      vertex -31.9798 -4.5 13.6406
      vertex -31.0442 -4.7 15.2611
      vertex -31.0442 -4.5 15.2611
    endloop
  endfacet
  facet normal -0.587785 5.12648e-16 0.809017
    outer loop
      vertex -31.0442 -4.7 15.2611
      vertex -29.5303 -4.7 16.361
      vertex -29.5303 -4.5 16.361
    endloop
  endfacet
  facet normal -0.587785 5.12648e-16 0.809017
    outer loop
      vertex -31.0442 -4.5 15.2611
      vertex -31.0442 -4.7 15.2611
      vertex -29.5303 -4.5 16.361
    endloop
  endfacet
  facet normal -0.207911 3.34985e-16 0.978148
    outer loop
      vertex -29.5303 -4.7 16.361
      vertex -27.7 -4.7 16.75
      vertex -27.7 -4.5 16.75
    endloop
  endfacet
  facet normal -0.207911 3.34985e-16 0.978148
    outer loop
      vertex -29.5303 -4.5 16.361
      vertex -29.5303 -4.7 16.361
      vertex -27.7 -4.5 16.75
    endloop
  endfacet
  facet normal 0.207911 9.94002e-17 0.978148
    outer loop
      vertex -27.7 -4.7 16.75
      vertex -25.8697 -4.7 16.361
      vertex -25.8697 -4.5 16.361
    endloop
  endfacet
  facet normal 0.207911 9.94002e-17 0.978148
    outer loop
      vertex -27.7 -4.5 16.75
      vertex -27.7 -4.7 16.75
      vertex -25.8697 -4.5 16.361
    endloop
  endfacet
  facet normal 0.587785 -1.53372e-16 0.809017
    outer loop
      vertex -25.8697 -4.7 16.361
      vertex -24.3558 -4.7 15.2611
      vertex -24.3558 -4.5 15.2611
    endloop
  endfacet
  facet normal 0.587785 -1.53372e-16 0.809017
    outer loop
      vertex -25.8697 -4.5 16.361
      vertex -25.8697 -4.7 16.361
      vertex -24.3558 -4.5 15.2611
    endloop
  endfacet
  facet normal 0.866026 -3.79624e-16 0.5
    outer loop
      vertex -24.3558 -4.7 15.2611
      vertex -23.4202 -4.7 13.6406
      vertex -23.4202 -4.5 13.6406
    endloop
  endfacet
  facet normal 0.866026 -3.79624e-16 0.5
    outer loop
      vertex -24.3558 -4.5 15.2611
      vertex -24.3558 -4.7 15.2611
      vertex -23.4202 -4.5 13.6406
    endloop
  endfacet
  facet normal 0.994522 -5.40236e-16 0.104529
    outer loop
      vertex -23.4202 -4.7 13.6406
      vertex -23.2247 -4.7 11.7796
      vertex -23.2247 -4.5 11.7796
    endloop
  endfacet
  facet normal 0.994522 -5.40236e-16 0.104529
    outer loop
      vertex -23.4202 -4.5 13.6406
      vertex -23.4202 -4.7 13.6406
      vertex -23.2247 -4.5 11.7796
    endloop
  endfacet
  facet normal -3.44505e-16 -1 2.22045e-16
    outer loop
      vertex -23.8029 -4.5 10
      vertex -4.7 -4.5 7.75
      vertex -4.7 -4.5 16.75
    endloop
  endfacet
  facet normal -3.44505e-16 -1 2.22045e-16
    outer loop
      vertex -27.7 -4.5 16.75
      vertex -25.8697 -4.5 16.361
      vertex -4.7 -4.5 16.75
    endloop
  endfacet
  facet normal -3.44505e-16 -1 2.22045e-16
    outer loop
      vertex -25.8697 -4.5 16.361
      vertex -24.3558 -4.5 15.2611
      vertex -4.7 -4.5 16.75
    endloop
  endfacet
  facet normal -3.44505e-16 -1 2.22045e-16
    outer loop
      vertex -24.3558 -4.5 15.2611
      vertex -23.4202 -4.5 13.6406
      vertex -4.7 -4.5 16.75
    endloop
  endfacet
  facet normal -3.44505e-16 -1 2.22045e-16
    outer loop
      vertex -23.4202 -4.5 13.6406
      vertex -23.2247 -4.5 11.7796
      vertex -4.7 -4.5 16.75
    endloop
  endfacet
  facet normal -3.44505e-16 -1 2.22045e-16
    outer loop
      vertex -25.055 -4.5 8.60942
      vertex -4.7 -4.5 7.75
      vertex -23.8029 -4.5 10
    endloop
  endfacet
  facet normal -3.44505e-16 -1 2.22045e-16
    outer loop
      vertex -26.7644 -4.5 7.84834
      vertex -4.7 -4.5 7.75
      vertex -25.055 -4.5 8.60942
    endloop
  endfacet
  facet normal -3.44505e-16 -1 2.22045e-16
    outer loop
      vertex -32 -4.5 7.75
      vertex -4.7 -4.5 7.75
      vertex -26.7644 -4.5 7.84834
    endloop
  endfacet
  facet normal -3.44505e-16 -1 2.22045e-16
    outer loop
      vertex -32 -4.5 7.75
      vertex -26.7644 -4.5 7.84834
      vertex -28.6356 -4.5 7.84834
    endloop
  endfacet
  facet normal -3.44505e-16 -1 2.22045e-16
    outer loop
      vertex -32 -4.5 11.24
      vertex -32 -4.5 7.75
      vertex -31.5971 -4.5 10
    endloop
  endfacet
  facet normal -3.44505e-16 -1 2.22045e-16
    outer loop
      vertex -23.2247 -4.5 11.7796
      vertex -23.8029 -4.5 10
      vertex -4.7 -4.5 16.75
    endloop
  endfacet
  facet normal -3.44505e-16 -1 2.22045e-16
    outer loop
      vertex -28.6356 -4.5 7.84834
      vertex -30.345 -4.5 8.60942
      vertex -32 -4.5 7.75
    endloop
  endfacet
  facet normal -3.44505e-16 -1 2.22045e-16
    outer loop
      vertex -30.345 -4.5 8.60942
      vertex -31.5971 -4.5 10
      vertex -32 -4.5 7.75
    endloop
  endfacet
  facet normal -1 3.44505e-16 -2.22045e-16
    outer loop
      vertex -32 -4.5 7.75
      vertex -32 -4.5 11.24
      vertex -32 4.5 7.75
    endloop
  endfacet
  facet normal -1 3.44505e-16 -2.22045e-16
    outer loop
      vertex -32 4.5 7.75
      vertex -32 -4.5 11.24
      vertex -32 4.5 11.24
    endloop
  endfacet
  facet normal 3.44505e-16 1 -2.22045e-16
    outer loop
      vertex -31.5971 4.5 10
      vertex -32 4.5 7.75
      vertex -32 4.5 11.24
    endloop
  endfacet
  facet normal 3.44505e-16 1 -2.22045e-16
    outer loop
      vertex -30.345 4.5 8.60942
      vertex -32 4.5 7.75
      vertex -31.5971 4.5 10
    endloop
  endfacet
  facet normal 3.44505e-16 1 -2.22045e-16
    outer loop
      vertex -4.7 4.5 7.75
      vertex -32 4.5 7.75
      vertex -28.6356 4.5 7.84834
    endloop
  endfacet
  facet normal 3.44505e-16 1 -2.22045e-16
    outer loop
      vertex -4.7 4.5 7.75
      vertex -28.6356 4.5 7.84834
      vertex -26.7644 4.5 7.84834
    endloop
  endfacet
  facet normal 3.44505e-16 1 -2.22045e-16
    outer loop
      vertex -4.7 4.5 7.75
      vertex -26.7644 4.5 7.84834
      vertex -4.7 4.5 16.75
    endloop
  endfacet
  facet normal 3.44505e-16 1 -2.22045e-16
    outer loop
      vertex -26.7644 4.5 7.84834
      vertex -25.055 4.5 8.60942
      vertex -4.7 4.5 16.75
    endloop
  endfacet
  facet normal 3.44505e-16 1 -2.22045e-16
    outer loop
      vertex -23.8029 4.5 10
      vertex -4.7 4.5 16.75
      vertex -25.055 4.5 8.60942
    endloop
  endfacet
  facet normal 3.44505e-16 1 -2.22045e-16
    outer loop
      vertex -23.2247 4.5 11.7796
      vertex -4.7 4.5 16.75
      vertex -23.8029 4.5 10
    endloop
  endfacet
  facet normal 3.44505e-16 1 -2.22045e-16
    outer loop
      vertex -23.4202 4.5 13.6406
      vertex -4.7 4.5 16.75
      vertex -23.2247 4.5 11.7796
    endloop
  endfacet
  facet normal 3.44505e-16 1 -2.22045e-16
    outer loop
      vertex -4.7 4.5 16.75
      vertex -23.4202 4.5 13.6406
      vertex -24.3558 4.5 15.2611
    endloop
  endfacet
  facet normal 3.44505e-16 1 -2.22045e-16
    outer loop
      vertex -24.3558 4.5 15.2611
      vertex -25.8697 4.5 16.361
      vertex -4.7 4.5 16.75
    endloop
  endfacet
  facet normal 3.44505e-16 1 -2.22045e-16
    outer loop
      vertex -25.8697 4.5 16.361
      vertex -27.7 4.5 16.75
      vertex -4.7 4.5 16.75
    endloop
  endfacet
  facet normal 3.44505e-16 1 -2.22045e-16
    outer loop
      vertex -28.6356 4.5 7.84834
      vertex -32 4.5 7.75
      vertex -30.345 4.5 8.60942
    endloop
  endfacet
  facet normal -0.743145 2.72452e-16 -0.669131
    outer loop
      vertex -30.345 4.5 8.60942
      vertex -31.5971 4.5 10
      vertex -30.345 27.8 8.60942
    endloop
  endfacet
  facet normal -0.743145 2.72452e-16 -0.669131
    outer loop
      vertex -30.345 27.8 8.60942
      vertex -31.5971 4.5 10
      vertex -31.5971 27.8 10
    endloop
  endfacet
  facet normal 5.6655e-16 1 -2.22045e-16
    outer loop
      vertex -23.8029 27.8 10
      vertex -25.055 27.8 8.60942
      vertex -23.2247 27.8 11.7796
    endloop
  endfacet
  facet normal 5.6655e-16 1 -2.22045e-16
    outer loop
      vertex -23.2247 27.8 11.7796
      vertex -25.055 27.8 8.60942
      vertex -26.7644 27.8 7.84834
    endloop
  endfacet
  facet normal 5.6655e-16 1 -2.22045e-16
    outer loop
      vertex -23.2247 27.8 11.7796
      vertex -26.7644 27.8 7.84834
      vertex -28.6356 27.8 7.84834
    endloop
  endfacet
  facet normal 5.6655e-16 1 -2.22045e-16
    outer loop
      vertex -23.2247 27.8 11.7796
      vertex -28.6356 27.8 7.84834
      vertex -30.345 27.8 8.60942
    endloop
  endfacet
  facet normal 5.6655e-16 1 -2.22045e-16
    outer loop
      vertex -23.2247 27.8 11.7796
      vertex -30.345 27.8 8.60942
      vertex -31.5971 27.8 10
    endloop
  endfacet
  facet normal 5.6655e-16 1 -2.22045e-16
    outer loop
      vertex -23.2247 27.8 11.7796
      vertex -31.5971 27.8 10
      vertex -32.1753 27.8 11.7796
    endloop
  endfacet
  facet normal 5.6655e-16 1 -2.22045e-16
    outer loop
      vertex -23.2247 27.8 11.7796
      vertex -32.1753 27.8 11.7796
      vertex -31.9798 27.8 13.6406
    endloop
  endfacet
  facet normal 5.6655e-16 1 -2.22045e-16
    outer loop
      vertex -23.2247 27.8 11.7796
      vertex -31.9798 27.8 13.6406
      vertex -31.0442 27.8 15.2611
    endloop
  endfacet
  facet normal 5.6655e-16 1 -2.22045e-16
    outer loop
      vertex -23.2247 27.8 11.7796
      vertex -31.0442 27.8 15.2611
      vertex -29.5303 27.8 16.361
    endloop
  endfacet
  facet normal 5.6655e-16 1 -2.22045e-16
    outer loop
      vertex -23.2247 27.8 11.7796
      vertex -29.5303 27.8 16.361
      vertex -27.7 27.8 16.75
    endloop
  endfacet
  facet normal 5.6655e-16 1 -2.22045e-16
    outer loop
      vertex -23.2247 27.8 11.7796
      vertex -27.7 27.8 16.75
      vertex -25.8697 27.8 16.361
    endloop
  endfacet
  facet normal 5.6655e-16 1 -2.22045e-16
    outer loop
      vertex -23.2247 27.8 11.7796
      vertex -25.8697 27.8 16.361
      vertex -24.3558 27.8 15.2611
    endloop
  endfacet
  facet normal 5.6655e-16 1 -2.22045e-16
    outer loop
      vertex -23.2247 27.8 11.7796
      vertex -24.3558 27.8 15.2611
      vertex -23.4202 27.8 13.6406
    endloop
  endfacet
  facet normal -0.866026 6.01669e-16 0.5
    outer loop
      vertex -31.9798 4.5 13.6406
      vertex -31.0442 4.5 15.2611
      vertex -31.9798 27.8 13.6406
    endloop
  endfacet
  facet normal -0.866026 6.01669e-16 0.5
    outer loop
      vertex -31.9798 27.8 13.6406
      vertex -31.0442 4.5 15.2611
      vertex -31.0442 27.8 15.2611
    endloop
  endfacet
  facet normal 3.44505e-16 1 -2.22045e-16
    outer loop
      vertex -32 4.5 13.4479
      vertex -32 4.5 16.75
      vertex -31.9798 4.5 13.6406
    endloop
  endfacet
  facet normal 3.44505e-16 1 -2.22045e-16
    outer loop
      vertex -29.5303 4.5 16.361
      vertex -32 4.5 16.75
      vertex -27.7 4.5 16.75
    endloop
  endfacet
  facet normal 3.44505e-16 1 -2.22045e-16
    outer loop
      vertex -31.0442 4.5 15.2611
      vertex -32 4.5 16.75
      vertex -29.5303 4.5 16.361
    endloop
  endfacet
  facet normal 3.44505e-16 1 -2.22045e-16
    outer loop
      vertex -31.9798 4.5 13.6406
      vertex -32 4.5 16.75
      vertex -31.0442 4.5 15.2611
    endloop
  endfacet
  facet normal -1 3.44505e-16 -2.22045e-16
    outer loop
      vertex -32 -4.5 13.4479
      vertex -32 -4.5 16.75
      vertex -32 4.5 13.4479
    endloop
  endfacet
  facet normal -1 3.44505e-16 -2.22045e-16
    outer loop
      vertex -32 4.5 13.4479
      vertex -32 -4.5 16.75
      vertex -32 4.5 16.75
    endloop
  endfacet
  facet normal -3.44505e-16 -1 2.22045e-16
    outer loop
      vertex -29.5303 -4.5 16.361
      vertex -27.7 -4.5 16.75
      vertex -32 -4.5 16.75
    endloop
  endfacet
  facet normal -3.44505e-16 -1 2.22045e-16
    outer loop
      vertex -32 -4.5 16.75
      vertex -32 -4.5 13.4479
      vertex -31.9798 -4.5 13.6406
    endloop
  endfacet
  facet normal -3.44505e-16 -1 2.22045e-16
    outer loop
      vertex -31.0442 -4.5 15.2611
      vertex -32 -4.5 16.75
      vertex -31.9798 -4.5 13.6406
    endloop
  endfacet
  facet normal -3.44505e-16 -1 2.22045e-16
    outer loop
      vertex -31.0442 -4.5 15.2611
      vertex -29.5303 -4.5 16.361
      vertex -32 -4.5 16.75
    endloop
  endfacet
  facet normal -2.22045e-16 2.22045e-16 1
    outer loop
      vertex -27.7 -4.5 16.75
      vertex -4.7 -4.5 16.75
      vertex -4.7 4.5 16.75
    endloop
  endfacet
  facet normal -2.22045e-16 2.22045e-16 1
    outer loop
      vertex -32 4.5 16.75
      vertex -27.7 -4.5 16.75
      vertex -27.7 4.5 16.75
    endloop
  endfacet
  facet normal -2.22045e-16 2.22045e-16 1
    outer loop
      vertex -27.7 4.5 16.75
      vertex -27.7 -4.5 16.75
      vertex -4.7 4.5 16.75
    endloop
  endfacet
  facet normal -2.22045e-16 2.22045e-16 1
    outer loop
      vertex -32 -4.5 16.75
      vertex -27.7 -4.5 16.75
      vertex -32 4.5 16.75
    endloop
  endfacet
  facet normal 2.22045e-16 -2.22045e-16 -1
    outer loop
      vertex -4.7 -4.5 7.75
      vertex -32 -4.5 7.75
      vertex -4.7 4.5 7.75
    endloop
  endfacet
  facet normal 2.22045e-16 -2.22045e-16 -1
    outer loop
      vertex -4.7 4.5 7.75
      vertex -32 -4.5 7.75
      vertex -32 4.5 7.75
    endloop
  endfacet
  facet normal 1 -3.44505e-16 2.22045e-16
    outer loop
      vertex -4.7 -4.5 16.75
      vertex -4.7 -4.5 7.75
      vertex -4.7 4.5 7.75
    endloop
  endfacet
  facet normal 1 -3.44505e-16 2.22045e-16
    outer loop
      vertex -4.7 4.5 16.75
      vertex -4.7 -4.5 16.75
      vertex -4.7 4.5 7.75
    endloop
  endfacet
  facet normal -0.207911 3.34985e-16 0.978148
    outer loop
      vertex -29.5303 4.5 16.361
      vertex -27.7 4.5 16.75
      vertex -27.7 27.8 16.75
    endloop
  endfacet
  facet normal -0.207911 3.34985e-16 0.978148
    outer loop
      vertex -29.5303 27.8 16.361
      vertex -29.5303 4.5 16.361
      vertex -27.7 27.8 16.75
    endloop
  endfacet
  facet normal 0.207911 9.94002e-17 0.978148
    outer loop
      vertex -27.7 4.5 16.75
      vertex -25.8697 4.5 16.361
      vertex -25.8697 27.8 16.361
    endloop
  endfacet
  facet normal 0.207911 9.94002e-17 0.978148
    outer loop
      vertex -27.7 27.8 16.75
      vertex -27.7 4.5 16.75
      vertex -25.8697 27.8 16.361
    endloop
  endfacet
  facet normal 0.587785 -1.53372e-16 0.809017
    outer loop
      vertex -25.8697 4.5 16.361
      vertex -24.3558 4.5 15.2611
      vertex -24.3558 27.8 15.2611
    endloop
  endfacet
  facet normal 0.587785 -1.53372e-16 0.809017
    outer loop
      vertex -25.8697 27.8 16.361
      vertex -25.8697 4.5 16.361
      vertex -24.3558 27.8 15.2611
    endloop
  endfacet
  facet normal 0.866026 -3.79624e-16 0.5
    outer loop
      vertex -24.3558 4.5 15.2611
      vertex -23.4202 4.5 13.6406
      vertex -23.4202 27.8 13.6406
    endloop
  endfacet
  facet normal 0.866026 -3.79624e-16 0.5
    outer loop
      vertex -24.3558 27.8 15.2611
      vertex -24.3558 4.5 15.2611
      vertex -23.4202 27.8 13.6406
    endloop
  endfacet
  facet normal 0.994522 -5.40236e-16 0.104529
    outer loop
      vertex -23.4202 4.5 13.6406
      vertex -23.2247 4.5 11.7796
      vertex -23.2247 27.8 11.7796
    endloop
  endfacet
  facet normal 0.994522 -5.40236e-16 0.104529
    outer loop
      vertex -23.4202 27.8 13.6406
      vertex -23.4202 4.5 13.6406
      vertex -23.2247 27.8 11.7796
    endloop
  endfacet
  facet normal 0.951056 -6.07436e-16 -0.309017
    outer loop
      vertex -23.2247 4.5 11.7796
      vertex -23.8029 4.5 10
      vertex -23.8029 27.8 10
    endloop
  endfacet
  facet normal 0.951056 -6.07436e-16 -0.309017
    outer loop
      vertex -23.2247 27.8 11.7796
      vertex -23.2247 4.5 11.7796
      vertex -23.8029 27.8 10
    endloop
  endfacet
  facet normal 0.743145 -5.69605e-16 -0.669131
    outer loop
      vertex -23.8029 4.5 10
      vertex -25.055 4.5 8.60942
      vertex -25.055 27.8 8.60942
    endloop
  endfacet
  facet normal 0.743145 -5.69605e-16 -0.669131
    outer loop
      vertex -23.8029 27.8 10
      vertex -23.8029 4.5 10
      vertex -25.055 27.8 8.60942
    endloop
  endfacet
  facet normal 0.406737 -4.33284e-16 -0.913545
    outer loop
      vertex -25.055 4.5 8.60942
      vertex -26.7644 4.5 7.84834
      vertex -25.055 27.8 8.60942
    endloop
  endfacet
  facet normal 0.406737 -4.33284e-16 -0.913545
    outer loop
      vertex -25.055 27.8 8.60942
      vertex -26.7644 4.5 7.84834
      vertex -26.7644 27.8 7.84834
    endloop
  endfacet
  facet normal 2.22045e-16 -2.22045e-16 -1
    outer loop
      vertex -26.7644 4.5 7.84834
      vertex -28.6356 4.5 7.84834
      vertex -26.7644 27.8 7.84834
    endloop
  endfacet
  facet normal 2.22045e-16 -2.22045e-16 -1
    outer loop
      vertex -26.7644 27.8 7.84834
      vertex -28.6356 4.5 7.84834
      vertex -28.6356 27.8 7.84834
    endloop
  endfacet
  facet normal -0.406737 2.75888e-17 -0.913545
    outer loop
      vertex -28.6356 4.5 7.84834
      vertex -30.345 4.5 8.60942
      vertex -28.6356 27.8 7.84834
    endloop
  endfacet
  facet normal -0.406737 2.75888e-17 -0.913545
    outer loop
      vertex -28.6356 27.8 7.84834
      vertex -30.345 4.5 8.60942
      vertex -30.345 27.8 8.60942
    endloop
  endfacet
  facet normal -0.587785 5.12648e-16 0.809017
    outer loop
      vertex -31.0442 27.8 15.2611
      vertex -31.0442 4.5 15.2611
      vertex -29.5303 4.5 16.361
    endloop
  endfacet
  facet normal -0.587785 5.12648e-16 0.809017
    outer loop
      vertex -29.5303 27.8 16.361
      vertex -31.0442 27.8 15.2611
      vertex -29.5303 4.5 16.361
    endloop
  endfacet
endsolid OpenSCAD_Model
