solid OpenSCAD_Model
  facet normal 0 0 -1
    outer loop
      vertex -14 0 -1.25
      vertex -13.6941 2.91076 -1.25
      vertex -13.6941 -2.91076 -1.25
    endloop
  endfacet
  facet normal 0 0 -1
    outer loop
      vertex -13.6941 -2.91076 -1.25
      vertex -13.6941 2.91076 -1.25
      vertex -12.7896 5.69431 -1.25
    endloop
  endfacet
  facet normal 0 0 -1
    outer loop
      vertex -13.6941 -2.91076 -1.25
      vertex -12.7896 5.69431 -1.25
      vertex -11.3262 8.22899 -1.25
    endloop
  endfacet
  facet normal 0 0 -1
    outer loop
      vertex -13.6941 -2.91076 -1.25
      vertex -11.3262 8.22899 -1.25
      vertex -9.36783 10.404 -1.25
    endloop
  endfacet
  facet normal 0 0 -1
    outer loop
      vertex -13.6941 -2.91076 -1.25
      vertex -9.36783 10.404 -1.25
      vertex -7 12.1244 -1.25
    endloop
  endfacet
  facet normal 0 0 -1
    outer loop
      vertex -13.6941 -2.91076 -1.25
      vertex -7 12.1244 -1.25
      vertex -4.32624 13.3148 -1.25
    endloop
  endfacet
  facet normal 0 0 -1
    outer loop
      vertex -13.6941 -2.91076 -1.25
      vertex -4.32624 13.3148 -1.25
      vertex -1.4634 13.9233 -1.25
    endloop
  endfacet
  facet normal 0 0 -1
    outer loop
      vertex -13.6941 -2.91076 -1.25
      vertex -1.4634 13.9233 -1.25
      vertex 1.4634 13.9233 -1.25
    endloop
  endfacet
  facet normal 0 0 -1
    outer loop
      vertex -13.6941 -2.91076 -1.25
      vertex 1.4634 13.9233 -1.25
      vertex 4.32624 13.3148 -1.25
    endloop
  endfacet
  facet normal 0 0 -1
    outer loop
      vertex -13.6941 -2.91076 -1.25
      vertex 4.32624 13.3148 -1.25
      vertex 7 12.1244 -1.25
    endloop
  endfacet
  facet normal 0 0 -1
    outer loop
      vertex -13.6941 -2.91076 -1.25
      vertex 7 12.1244 -1.25
      vertex 9.36783 10.404 -1.25
    endloop
  endfacet
  facet normal 0 0 -1
    outer loop
      vertex 0.482147 3.97083 -1.25
      vertex 9.36783 10.404 -1.25
      vertex 11.3262 8.22899 -1.25
    endloop
  endfacet
  facet normal 0 0 -1
    outer loop
      vertex 2.27226 3.29194 -1.25
      vertex 11.3262 8.22899 -1.25
      vertex 12.7896 5.69431 -1.25
    endloop
  endfacet
  facet normal 0 0 -1
    outer loop
      vertex 3.54182 1.85889 -1.25
      vertex 12.7896 5.69431 -1.25
      vertex 13.6941 2.91076 -1.25
    endloop
  endfacet
  facet normal 0 0 -1
    outer loop
      vertex 4 0 -1.25
      vertex 13.6941 2.91076 -1.25
      vertex 14 0 -1.25
    endloop
  endfacet
  facet normal 0 0 -1
    outer loop
      vertex 3.54182 -1.85889 -1.25
      vertex 14 0 -1.25
      vertex 13.6941 -2.91076 -1.25
    endloop
  endfacet
  facet normal 0 0 -1
    outer loop
      vertex 0.482147 -3.97083 -1.25
      vertex 13.6941 -2.91076 -1.25
      vertex 12.7896 -5.69431 -1.25
    endloop
  endfacet
  facet normal 0 0 -1
    outer loop
      vertex -13.6941 -2.91076 -1.25
      vertex 12.7896 -5.69431 -1.25
      vertex 11.3262 -8.22899 -1.25
    endloop
  endfacet
  facet normal 0 0 -1
    outer loop
      vertex -13.6941 -2.91076 -1.25
      vertex 11.3262 -8.22899 -1.25
      vertex 9.36783 -10.404 -1.25
    endloop
  endfacet
  facet normal 0 0 -1
    outer loop
      vertex -13.6941 -2.91076 -1.25
      vertex 9.36783 -10.404 -1.25
      vertex 7 -12.1244 -1.25
    endloop
  endfacet
  facet normal 0 0 -1
    outer loop
      vertex -13.6941 -2.91076 -1.25
      vertex 7 -12.1244 -1.25
      vertex 4.32624 -13.3148 -1.25
    endloop
  endfacet
  facet normal 0 0 -1
    outer loop
      vertex -13.6941 -2.91076 -1.25
      vertex 4.32624 -13.3148 -1.25
      vertex 1.4634 -13.9233 -1.25
    endloop
  endfacet
  facet normal 0 0 -1
    outer loop
      vertex -13.6941 -2.91076 -1.25
      vertex 1.4634 -13.9233 -1.25
      vertex -1.4634 -13.9233 -1.25
    endloop
  endfacet
  facet normal 0 0 -1
    outer loop
      vertex -13.6941 -2.91076 -1.25
      vertex -1.4634 -13.9233 -1.25
      vertex -4.32624 -13.3148 -1.25
    endloop
  endfacet
  facet normal 0 0 -1
    outer loop
      vertex -13.6941 -2.91076 -1.25
      vertex -4.32624 -13.3148 -1.25
      vertex -7 -12.1244 -1.25
    endloop
  endfacet
  facet normal 0 0 -1
    outer loop
      vertex -13.6941 -2.91076 -1.25
      vertex -7 -12.1244 -1.25
      vertex -9.36783 -10.404 -1.25
    endloop
  endfacet
  facet normal 0 0 -1
    outer loop
      vertex -13.6941 -2.91076 -1.25
      vertex -9.36783 -10.404 -1.25
      vertex -11.3262 -8.22899 -1.25
    endloop
  endfacet
  facet normal 0 0 -1
    outer loop
      vertex -13.6941 -2.91076 -1.25
      vertex -11.3262 -8.22899 -1.25
      vertex -12.7896 -5.69431 -1.25
    endloop
  endfacet
  facet normal 0 0 -1
    outer loop
      vertex -3.88377 -0.957263 -1.25
      vertex -13.6941 -2.91076 -1.25
      vertex -3.88377 0.957263 -1.25
    endloop
  endfacet
  facet normal 0 0 -1
    outer loop
      vertex -2.99404 -2.65249 -1.25
      vertex -13.6941 -2.91076 -1.25
      vertex -3.88377 -0.957263 -1.25
    endloop
  endfacet
  facet normal 0 0 -1
    outer loop
      vertex -1.41842 -3.74006 -1.25
      vertex -13.6941 -2.91076 -1.25
      vertex -2.99404 -2.65249 -1.25
    endloop
  endfacet
  facet normal 0 0 -1
    outer loop
      vertex 3.54182 -1.85889 -1.25
      vertex 13.6941 -2.91076 -1.25
      vertex 2.27226 -3.29194 -1.25
    endloop
  endfacet
  facet normal 0 0 -1
    outer loop
      vertex -13.6941 -2.91076 -1.25
      vertex -1.41842 -3.74006 -1.25
      vertex 12.7896 -5.69431 -1.25
    endloop
  endfacet
  facet normal 0 0 -1
    outer loop
      vertex -1.41842 -3.74006 -1.25
      vertex 0.482147 -3.97083 -1.25
      vertex 12.7896 -5.69431 -1.25
    endloop
  endfacet
  facet normal 0 0 -1
    outer loop
      vertex 2.27226 -3.29194 -1.25
      vertex 13.6941 -2.91076 -1.25
      vertex 0.482147 -3.97083 -1.25
    endloop
  endfacet
  facet normal 0 0 -1
    outer loop
      vertex 4 0 -1.25
      vertex 14 0 -1.25
      vertex 3.54182 -1.85889 -1.25
    endloop
  endfacet
  facet normal 0 0 -1
    outer loop
      vertex 3.54182 1.85889 -1.25
      vertex 13.6941 2.91076 -1.25
      vertex 4 0 -1.25
    endloop
  endfacet
  facet normal 0 0 -1
    outer loop
      vertex 0.482147 3.97083 -1.25
      vertex 11.3262 8.22899 -1.25
      vertex 2.27226 3.29194 -1.25
    endloop
  endfacet
  facet normal 0 0 -1
    outer loop
      vertex -1.41842 3.74006 -1.25
      vertex 9.36783 10.404 -1.25
      vertex 0.482147 3.97083 -1.25
    endloop
  endfacet
  facet normal 0 0 -1
    outer loop
      vertex -13.6941 -2.91076 -1.25
      vertex 9.36783 10.404 -1.25
      vertex -1.41842 3.74006 -1.25
    endloop
  endfacet
  facet normal 0 0 -1
    outer loop
      vertex -13.6941 -2.91076 -1.25
      vertex -1.41842 3.74006 -1.25
      vertex -2.99404 2.65249 -1.25
    endloop
  endfacet
  facet normal 0 0 -1
    outer loop
      vertex 2.27226 3.29194 -1.25
      vertex 12.7896 5.69431 -1.25
      vertex 3.54182 1.85889 -1.25
    endloop
  endfacet
  facet normal 0 0 -1
    outer loop
      vertex -3.88377 0.957263 -1.25
      vertex -13.6941 -2.91076 -1.25
      vertex -2.99404 2.65249 -1.25
    endloop
  endfacet
  facet normal -0.994522 0.104529 0
    outer loop
      vertex -14 0 -1.25
      vertex -14 0 1.25
      vertex -13.6941 2.91076 -1.25
    endloop
  endfacet
  facet normal -0.994522 0.104529 0
    outer loop
      vertex -13.6941 2.91076 -1.25
      vertex -14 0 1.25
      vertex -13.6941 2.91076 1.25
    endloop
  endfacet
  facet normal -0.994522 -0.104529 0
    outer loop
      vertex -14 0 -1.25
      vertex -13.6941 -2.91076 -1.25
      vertex -14 0 1.25
    endloop
  endfacet
  facet normal -0.994522 -0.104529 0
    outer loop
      vertex -14 0 1.25
      vertex -13.6941 -2.91076 -1.25
      vertex -13.6941 -2.91076 1.25
    endloop
  endfacet
  facet normal -0.951057 -0.309017 0
    outer loop
      vertex -13.6941 -2.91076 -1.25
      vertex -12.7896 -5.69431 -1.25
      vertex -13.6941 -2.91076 1.25
    endloop
  endfacet
  facet normal -0.951057 -0.309017 0
    outer loop
      vertex -13.6941 -2.91076 1.25
      vertex -12.7896 -5.69431 -1.25
      vertex -12.7896 -5.69431 1.25
    endloop
  endfacet
  facet normal -0.866026 -0.5 0
    outer loop
      vertex -12.7896 -5.69431 -1.25
      vertex -11.3262 -8.22899 -1.25
      vertex -12.7896 -5.69431 1.25
    endloop
  endfacet
  facet normal -0.866026 -0.5 0
    outer loop
      vertex -12.7896 -5.69431 1.25
      vertex -11.3262 -8.22899 -1.25
      vertex -11.3262 -8.22899 1.25
    endloop
  endfacet
  facet normal -0.743145 -0.669131 0
    outer loop
      vertex -11.3262 -8.22899 -1.25
      vertex -9.36783 -10.404 -1.25
      vertex -11.3262 -8.22899 1.25
    endloop
  endfacet
  facet normal -0.743145 -0.669131 0
    outer loop
      vertex -11.3262 -8.22899 1.25
      vertex -9.36783 -10.404 -1.25
      vertex -9.36783 -10.404 1.25
    endloop
  endfacet
  facet normal -0.587785 -0.809017 0
    outer loop
      vertex -9.36783 -10.404 1.25
      vertex -9.36783 -10.404 -1.25
      vertex -7 -12.1244 -1.25
    endloop
  endfacet
  facet normal -0.587785 -0.809017 0
    outer loop
      vertex -7 -12.1244 1.25
      vertex -9.36783 -10.404 1.25
      vertex -7 -12.1244 -1.25
    endloop
  endfacet
  facet normal -0.406736 -0.913546 0
    outer loop
      vertex -7 -12.1244 1.25
      vertex -7 -12.1244 -1.25
      vertex -4.32624 -13.3148 -1.25
    endloop
  endfacet
  facet normal -0.406736 -0.913546 0
    outer loop
      vertex -4.32624 -13.3148 1.25
      vertex -7 -12.1244 1.25
      vertex -4.32624 -13.3148 -1.25
    endloop
  endfacet
  facet normal -0.207912 -0.978148 0
    outer loop
      vertex -4.32624 -13.3148 1.25
      vertex -4.32624 -13.3148 -1.25
      vertex -1.4634 -13.9233 -1.25
    endloop
  endfacet
  facet normal -0.207912 -0.978148 0
    outer loop
      vertex -1.4634 -13.9233 1.25
      vertex -4.32624 -13.3148 1.25
      vertex -1.4634 -13.9233 -1.25
    endloop
  endfacet
  facet normal 0 -1 0
    outer loop
      vertex -1.4634 -13.9233 1.25
      vertex -1.4634 -13.9233 -1.25
      vertex 1.4634 -13.9233 -1.25
    endloop
  endfacet
  facet normal 0 -1 0
    outer loop
      vertex 1.4634 -13.9233 1.25
      vertex -1.4634 -13.9233 1.25
      vertex 1.4634 -13.9233 -1.25
    endloop
  endfacet
  facet normal 0.207912 -0.978148 0
    outer loop
      vertex 1.4634 -13.9233 1.25
      vertex 1.4634 -13.9233 -1.25
      vertex 4.32624 -13.3148 -1.25
    endloop
  endfacet
  facet normal 0.207912 -0.978148 0
    outer loop
      vertex 4.32624 -13.3148 1.25
      vertex 1.4634 -13.9233 1.25
      vertex 4.32624 -13.3148 -1.25
    endloop
  endfacet
  facet normal 0.406736 -0.913546 0
    outer loop
      vertex 4.32624 -13.3148 1.25
      vertex 4.32624 -13.3148 -1.25
      vertex 7 -12.1244 -1.25
    endloop
  endfacet
  facet normal 0.406736 -0.913546 0
    outer loop
      vertex 7 -12.1244 1.25
      vertex 4.32624 -13.3148 1.25
      vertex 7 -12.1244 -1.25
    endloop
  endfacet
  facet normal 0.587785 -0.809017 0
    outer loop
      vertex 7 -12.1244 1.25
      vertex 7 -12.1244 -1.25
      vertex 9.36783 -10.404 -1.25
    endloop
  endfacet
  facet normal 0.587785 -0.809017 0
    outer loop
      vertex 9.36783 -10.404 1.25
      vertex 7 -12.1244 1.25
      vertex 9.36783 -10.404 -1.25
    endloop
  endfacet
  facet normal 0.743145 -0.669131 0
    outer loop
      vertex 9.36783 -10.404 1.25
      vertex 9.36783 -10.404 -1.25
      vertex 11.3262 -8.22899 -1.25
    endloop
  endfacet
  facet normal 0.743145 -0.669131 0
    outer loop
      vertex 11.3262 -8.22899 1.25
      vertex 9.36783 -10.404 1.25
      vertex 11.3262 -8.22899 -1.25
    endloop
  endfacet
  facet normal 0.866026 -0.5 0
    outer loop
      vertex 11.3262 -8.22899 1.25
      vertex 11.3262 -8.22899 -1.25
      vertex 12.7896 -5.69431 -1.25
    endloop
  endfacet
  facet normal 0.866026 -0.5 0
    outer loop
      vertex 12.7896 -5.69431 1.25
      vertex 11.3262 -8.22899 1.25
      vertex 12.7896 -5.69431 -1.25
    endloop
  endfacet
  facet normal 0.951057 -0.309017 0
    outer loop
      vertex 12.7896 -5.69431 1.25
      vertex 12.7896 -5.69431 -1.25
      vertex 13.6941 -2.91076 -1.25
    endloop
  endfacet
  facet normal 0.951057 -0.309017 0
    outer loop
      vertex 13.6941 -2.91076 1.25
      vertex 12.7896 -5.69431 1.25
      vertex 13.6941 -2.91076 -1.25
    endloop
  endfacet
  facet normal 0.994522 -0.104529 0
    outer loop
      vertex 13.6941 -2.91076 1.25
      vertex 13.6941 -2.91076 -1.25
      vertex 14 0 -1.25
    endloop
  endfacet
  facet normal 0.994522 -0.104529 0
    outer loop
      vertex 14 0 1.25
      vertex 13.6941 -2.91076 1.25
      vertex 14 0 -1.25
    endloop
  endfacet
  facet normal 0.994522 0.104529 0
    outer loop
      vertex 14 0 -1.25
      vertex 13.6941 2.91076 -1.25
      vertex 13.6941 2.91076 1.25
    endloop
  endfacet
  facet normal 0.994522 0.104529 0
    outer loop
      vertex 14 0 1.25
      vertex 14 0 -1.25
      vertex 13.6941 2.91076 1.25
    endloop
  endfacet
  facet normal 0.951057 0.309017 0
    outer loop
      vertex 13.6941 2.91076 -1.25
      vertex 12.7896 5.69431 -1.25
      vertex 12.7896 5.69431 1.25
    endloop
  endfacet
  facet normal 0.951057 0.309017 0
    outer loop
      vertex 13.6941 2.91076 1.25
      vertex 13.6941 2.91076 -1.25
      vertex 12.7896 5.69431 1.25
    endloop
  endfacet
  facet normal 0.866026 0.5 0
    outer loop
      vertex 12.7896 5.69431 -1.25
      vertex 11.3262 8.22899 -1.25
      vertex 11.3262 8.22899 1.25
    endloop
  endfacet
  facet normal 0.866026 0.5 0
    outer loop
      vertex 12.7896 5.69431 1.25
      vertex 12.7896 5.69431 -1.25
      vertex 11.3262 8.22899 1.25
    endloop
  endfacet
  facet normal 0.743145 0.669131 0
    outer loop
      vertex 11.3262 8.22899 -1.25
      vertex 9.36783 10.404 -1.25
      vertex 9.36783 10.404 1.25
    endloop
  endfacet
  facet normal 0.743145 0.669131 0
    outer loop
      vertex 11.3262 8.22899 1.25
      vertex 11.3262 8.22899 -1.25
      vertex 9.36783 10.404 1.25
    endloop
  endfacet
  facet normal 0.587785 0.809017 0
    outer loop
      vertex 7 12.1244 -1.25
      vertex 7 12.1244 1.25
      vertex 9.36783 10.404 -1.25
    endloop
  endfacet
  facet normal 0.587785 0.809017 0
    outer loop
      vertex 9.36783 10.404 -1.25
      vertex 7 12.1244 1.25
      vertex 9.36783 10.404 1.25
    endloop
  endfacet
  facet normal 0.406736 0.913546 0
    outer loop
      vertex 4.32624 13.3148 -1.25
      vertex 4.32624 13.3148 1.25
      vertex 7 12.1244 -1.25
    endloop
  endfacet
  facet normal 0.406736 0.913546 0
    outer loop
      vertex 7 12.1244 -1.25
      vertex 4.32624 13.3148 1.25
      vertex 7 12.1244 1.25
    endloop
  endfacet
  facet normal 0.207912 0.978148 0
    outer loop
      vertex 1.4634 13.9233 -1.25
      vertex 1.4634 13.9233 1.25
      vertex 4.32624 13.3148 -1.25
    endloop
  endfacet
  facet normal 0.207912 0.978148 0
    outer loop
      vertex 4.32624 13.3148 -1.25
      vertex 1.4634 13.9233 1.25
      vertex 4.32624 13.3148 1.25
    endloop
  endfacet
  facet normal 0 1 0
    outer loop
      vertex -1.4634 13.9233 -1.25
      vertex -1.4634 13.9233 1.25
      vertex 1.4634 13.9233 -1.25
    endloop
  endfacet
  facet normal 0 1 0
    outer loop
      vertex 1.4634 13.9233 -1.25
      vertex -1.4634 13.9233 1.25
      vertex 1.4634 13.9233 1.25
    endloop
  endfacet
  facet normal -0.207912 0.978148 0
    outer loop
      vertex -4.32624 13.3148 -1.25
      vertex -4.32624 13.3148 1.25
      vertex -1.4634 13.9233 -1.25
    endloop
  endfacet
  facet normal -0.207912 0.978148 0
    outer loop
      vertex -1.4634 13.9233 -1.25
      vertex -4.32624 13.3148 1.25
      vertex -1.4634 13.9233 1.25
    endloop
  endfacet
  facet normal -0.406736 0.913546 0
    outer loop
      vertex -7 12.1244 -1.25
      vertex -7 12.1244 1.25
      vertex -4.32624 13.3148 -1.25
    endloop
  endfacet
  facet normal -0.406736 0.913546 0
    outer loop
      vertex -4.32624 13.3148 -1.25
      vertex -7 12.1244 1.25
      vertex -4.32624 13.3148 1.25
    endloop
  endfacet
  facet normal -0.587785 0.809017 0
    outer loop
      vertex -9.36783 10.404 -1.25
      vertex -9.36783 10.404 1.25
      vertex -7 12.1244 -1.25
    endloop
  endfacet
  facet normal -0.587785 0.809017 0
    outer loop
      vertex -7 12.1244 -1.25
      vertex -9.36783 10.404 1.25
      vertex -7 12.1244 1.25
    endloop
  endfacet
  facet normal -0.743145 0.669131 0
    outer loop
      vertex -11.3262 8.22899 -1.25
      vertex -11.3262 8.22899 1.25
      vertex -9.36783 10.404 -1.25
    endloop
  endfacet
  facet normal -0.743145 0.669131 0
    outer loop
      vertex -9.36783 10.404 -1.25
      vertex -11.3262 8.22899 1.25
      vertex -9.36783 10.404 1.25
    endloop
  endfacet
  facet normal -0.866026 0.5 0
    outer loop
      vertex -12.7896 5.69431 -1.25
      vertex -12.7896 5.69431 1.25
      vertex -11.3262 8.22899 -1.25
    endloop
  endfacet
  facet normal -0.866026 0.5 0
    outer loop
      vertex -11.3262 8.22899 -1.25
      vertex -12.7896 5.69431 1.25
      vertex -11.3262 8.22899 1.25
    endloop
  endfacet
  facet normal -0.951057 0.309017 0
    outer loop
      vertex -13.6941 2.91076 -1.25
      vertex -13.6941 2.91076 1.25
      vertex -12.7896 5.69431 -1.25
    endloop
  endfacet
  facet normal -0.951057 0.309017 0
    outer loop
      vertex -12.7896 5.69431 -1.25
      vertex -13.6941 2.91076 1.25
      vertex -12.7896 5.69431 1.25
    endloop
  endfacet
  facet normal 0.885456 -0.464723 0
    outer loop
      vertex -2.99404 2.65249 -1.25
      vertex -2.99404 2.65249 15
      vertex -3.88377 0.957263 15
    endloop
  endfacet
  facet normal 0.885456 -0.464723 0
    outer loop
      vertex -3.88377 0.957263 -1.25
      vertex -2.99404 2.65249 -1.25
      vertex -3.88377 0.957263 15
    endloop
  endfacet
  facet normal 1 0 0
    outer loop
      vertex -3.88377 0.957263 -1.25
      vertex -3.88377 0.957263 15
      vertex -3.88377 -0.957263 15
    endloop
  endfacet
  facet normal 1 0 0
    outer loop
      vertex -3.88377 -0.957263 -1.25
      vertex -3.88377 0.957263 -1.25
      vertex -3.88377 -0.957263 15
    endloop
  endfacet
  facet normal 0.568065 -0.822984 0
    outer loop
      vertex -1.41842 3.74006 -1.25
      vertex -1.41842 3.74006 15
      vertex -2.99404 2.65249 15
    endloop
  endfacet
  facet normal 0.568065 -0.822984 0
    outer loop
      vertex -2.99404 2.65249 -1.25
      vertex -1.41842 3.74006 -1.25
      vertex -2.99404 2.65249 15
    endloop
  endfacet
  facet normal 0.120536 -0.992709 0
    outer loop
      vertex 0.482147 3.97083 -1.25
      vertex 0.482147 3.97083 15
      vertex -1.41842 3.74006 15
    endloop
  endfacet
  facet normal 0.120536 -0.992709 0
    outer loop
      vertex -1.41842 3.74006 -1.25
      vertex 0.482147 3.97083 -1.25
      vertex -1.41842 3.74006 15
    endloop
  endfacet
  facet normal -0.354605 -0.935016 0
    outer loop
      vertex 2.27226 3.29194 -1.25
      vertex 2.27226 3.29194 15
      vertex 0.482147 3.97083 15
    endloop
  endfacet
  facet normal -0.354605 -0.935016 0
    outer loop
      vertex 0.482147 3.97083 -1.25
      vertex 2.27226 3.29194 -1.25
      vertex 0.482147 3.97083 15
    endloop
  endfacet
  facet normal -0.748511 -0.663123 0
    outer loop
      vertex 3.54182 1.85889 15
      vertex 2.27226 3.29194 15
      vertex 3.54182 1.85889 -1.25
    endloop
  endfacet
  facet normal -0.748511 -0.663123 0
    outer loop
      vertex 3.54182 1.85889 -1.25
      vertex 2.27226 3.29194 15
      vertex 2.27226 3.29194 -1.25
    endloop
  endfacet
  facet normal -0.970942 -0.239316 0
    outer loop
      vertex 4 0 15
      vertex 3.54182 1.85889 15
      vertex 4 0 -1.25
    endloop
  endfacet
  facet normal -0.970942 -0.239316 0
    outer loop
      vertex 4 0 -1.25
      vertex 3.54182 1.85889 15
      vertex 3.54182 1.85889 -1.25
    endloop
  endfacet
  facet normal -0.970942 0.239316 0
    outer loop
      vertex 4 0 15
      vertex 4 0 -1.25
      vertex 3.54182 -1.85889 15
    endloop
  endfacet
  facet normal -0.970942 0.239316 0
    outer loop
      vertex 3.54182 -1.85889 15
      vertex 4 0 -1.25
      vertex 3.54182 -1.85889 -1.25
    endloop
  endfacet
  facet normal -0.748511 0.663123 0
    outer loop
      vertex 3.54182 -1.85889 15
      vertex 3.54182 -1.85889 -1.25
      vertex 2.27226 -3.29194 15
    endloop
  endfacet
  facet normal -0.748511 0.663123 0
    outer loop
      vertex 2.27226 -3.29194 15
      vertex 3.54182 -1.85889 -1.25
      vertex 2.27226 -3.29194 -1.25
    endloop
  endfacet
  facet normal -0.354605 0.935016 0
    outer loop
      vertex 2.27226 -3.29194 15
      vertex 2.27226 -3.29194 -1.25
      vertex 0.482147 -3.97083 15
    endloop
  endfacet
  facet normal -0.354605 0.935016 0
    outer loop
      vertex 0.482147 -3.97083 15
      vertex 2.27226 -3.29194 -1.25
      vertex 0.482147 -3.97083 -1.25
    endloop
  endfacet
  facet normal 0.120536 0.992709 0
    outer loop
      vertex 0.482147 -3.97083 15
      vertex 0.482147 -3.97083 -1.25
      vertex -1.41842 -3.74006 15
    endloop
  endfacet
  facet normal 0.120536 0.992709 0
    outer loop
      vertex -1.41842 -3.74006 15
      vertex 0.482147 -3.97083 -1.25
      vertex -1.41842 -3.74006 -1.25
    endloop
  endfacet
  facet normal 0.568065 0.822984 0
    outer loop
      vertex -1.41842 -3.74006 15
      vertex -1.41842 -3.74006 -1.25
      vertex -2.99404 -2.65249 15
    endloop
  endfacet
  facet normal 0.568065 0.822984 0
    outer loop
      vertex -2.99404 -2.65249 15
      vertex -1.41842 -3.74006 -1.25
      vertex -2.99404 -2.65249 -1.25
    endloop
  endfacet
  facet normal 0.885456 0.464723 0
    outer loop
      vertex -3.88377 -0.957263 15
      vertex -2.99404 -2.65249 15
      vertex -2.99404 -2.65249 -1.25
    endloop
  endfacet
  facet normal 0.885456 0.464723 0
    outer loop
      vertex -3.88377 -0.957263 -1.25
      vertex -3.88377 -0.957263 15
      vertex -2.99404 -2.65249 -1.25
    endloop
  endfacet
  facet normal 0 0 1
    outer loop
      vertex -13.6941 2.91076 1.25
      vertex -14 0 1.25
      vertex -13.6941 -2.91076 1.25
    endloop
  endfacet
  facet normal 0 0 1
    outer loop
      vertex -11.3262 -8.22899 1.25
      vertex -13.6941 2.91076 1.25
      vertex -12.7896 -5.69431 1.25
    endloop
  endfacet
  facet normal 0 0 1
    outer loop
      vertex -12.7896 -5.69431 1.25
      vertex -13.6941 2.91076 1.25
      vertex -13.6941 -2.91076 1.25
    endloop
  endfacet
  facet normal 0 0 1
    outer loop
      vertex -12.5 -1.5 1.25
      vertex -13.6941 2.91076 1.25
      vertex -11.3262 -8.22899 1.25
    endloop
  endfacet
  facet normal 0 0 1
    outer loop
      vertex 5.3033 -5.3033 1.25
      vertex 3.75 -6.49519 1.25
      vertex 11.3262 -8.22899 1.25
    endloop
  endfacet
  facet normal 0 0 1
    outer loop
      vertex 3.75 -6.49519 1.25
      vertex 1.94114 -7.24444 1.25
      vertex 9.36783 -10.404 1.25
    endloop
  endfacet
  facet normal 0 0 1
    outer loop
      vertex 12.5 -1.5 1.25
      vertex 7.30252 -1.5 1.25
      vertex 13.6941 -2.91076 1.25
    endloop
  endfacet
  facet normal 0 0 1
    outer loop
      vertex 7.24444 -1.94114 1.25
      vertex 6.49519 -3.75 1.25
      vertex 12.7896 -5.69431 1.25
    endloop
  endfacet
  facet normal 0 0 1
    outer loop
      vertex 7.30252 1.5 1.25
      vertex 12.5 1.5 1.25
      vertex 7.24444 1.94114 1.25
    endloop
  endfacet
  facet normal 0 0 1
    outer loop
      vertex -6.49519 3.75 1.25
      vertex -5.3033 5.3033 1.25
      vertex -13.6941 2.91076 1.25
    endloop
  endfacet
  facet normal 0 0 1
    outer loop
      vertex 1.94114 7.24444 1.25
      vertex 3.75 6.49519 1.25
      vertex 11.3262 8.22899 1.25
    endloop
  endfacet
  facet normal 0 0 1
    outer loop
      vertex -1.94114 7.24444 1.25
      vertex 0 7.5 1.25
      vertex 9.36783 10.404 1.25
    endloop
  endfacet
  facet normal 0 0 1
    outer loop
      vertex 4.32624 13.3148 1.25
      vertex -13.6941 2.91076 1.25
      vertex 7 12.1244 1.25
    endloop
  endfacet
  facet normal 0 0 1
    outer loop
      vertex 1.4634 13.9233 1.25
      vertex -13.6941 2.91076 1.25
      vertex 4.32624 13.3148 1.25
    endloop
  endfacet
  facet normal 0 0 1
    outer loop
      vertex -1.4634 13.9233 1.25
      vertex -13.6941 2.91076 1.25
      vertex 1.4634 13.9233 1.25
    endloop
  endfacet
  facet normal 0 0 1
    outer loop
      vertex -4.32624 13.3148 1.25
      vertex -13.6941 2.91076 1.25
      vertex -1.4634 13.9233 1.25
    endloop
  endfacet
  facet normal 0 0 1
    outer loop
      vertex -7 12.1244 1.25
      vertex -13.6941 2.91076 1.25
      vertex -4.32624 13.3148 1.25
    endloop
  endfacet
  facet normal 0 0 1
    outer loop
      vertex -9.36783 10.404 1.25
      vertex -13.6941 2.91076 1.25
      vertex -7 12.1244 1.25
    endloop
  endfacet
  facet normal 0 0 1
    outer loop
      vertex -11.3262 8.22899 1.25
      vertex -13.6941 2.91076 1.25
      vertex -9.36783 10.404 1.25
    endloop
  endfacet
  facet normal 0 0 1
    outer loop
      vertex -12.7896 5.69431 1.25
      vertex -13.6941 2.91076 1.25
      vertex -11.3262 8.22899 1.25
    endloop
  endfacet
  facet normal 0 0 1
    outer loop
      vertex -9.36783 -10.404 1.25
      vertex -12.5 -1.5 1.25
      vertex -11.3262 -8.22899 1.25
    endloop
  endfacet
  facet normal 0 0 1
    outer loop
      vertex 7.30252 -1.5 1.25
      vertex 7.24444 -1.94114 1.25
      vertex 13.6941 -2.91076 1.25
    endloop
  endfacet
  facet normal 0 0 1
    outer loop
      vertex 6.49519 3.75 1.25
      vertex 7.24444 1.94114 1.25
      vertex 13.6941 2.91076 1.25
    endloop
  endfacet
  facet normal 0 0 1
    outer loop
      vertex -5.3033 5.3033 1.25
      vertex -3.75 6.49519 1.25
      vertex -13.6941 2.91076 1.25
    endloop
  endfacet
  facet normal 0 0 1
    outer loop
      vertex 3.75 6.49519 1.25
      vertex 5.3033 5.3033 1.25
      vertex 11.3262 8.22899 1.25
    endloop
  endfacet
  facet normal 0 0 1
    outer loop
      vertex 0 7.5 1.25
      vertex 1.94114 7.24444 1.25
      vertex 9.36783 10.404 1.25
    endloop
  endfacet
  facet normal 0 0 1
    outer loop
      vertex 7 12.1244 1.25
      vertex -13.6941 2.91076 1.25
      vertex -3.75 6.49519 1.25
    endloop
  endfacet
  facet normal 0 0 1
    outer loop
      vertex 7 12.1244 1.25
      vertex -1.94114 7.24444 1.25
      vertex 9.36783 10.404 1.25
    endloop
  endfacet
  facet normal 0 0 1
    outer loop
      vertex 7 12.1244 1.25
      vertex -3.75 6.49519 1.25
      vertex -1.94114 7.24444 1.25
    endloop
  endfacet
  facet normal 0 0 1
    outer loop
      vertex 9.36783 10.404 1.25
      vertex 1.94114 7.24444 1.25
      vertex 11.3262 8.22899 1.25
    endloop
  endfacet
  facet normal 0 0 1
    outer loop
      vertex 5.3033 5.3033 1.25
      vertex 6.49519 3.75 1.25
      vertex 12.7896 5.69431 1.25
    endloop
  endfacet
  facet normal 0 0 1
    outer loop
      vertex 11.3262 8.22899 1.25
      vertex 5.3033 5.3033 1.25
      vertex 12.7896 5.69431 1.25
    endloop
  endfacet
  facet normal 0 0 1
    outer loop
      vertex 12.7896 5.69431 1.25
      vertex 6.49519 3.75 1.25
      vertex 13.6941 2.91076 1.25
    endloop
  endfacet
  facet normal 0 0 1
    outer loop
      vertex 12.5 1.5 1.25
      vertex 12.5 -1.5 1.25
      vertex 14 0 1.25
    endloop
  endfacet
  facet normal 0 0 1
    outer loop
      vertex 13.6941 2.91076 1.25
      vertex 12.5 1.5 1.25
      vertex 14 0 1.25
    endloop
  endfacet
  facet normal 0 0 1
    outer loop
      vertex 13.6941 2.91076 1.25
      vertex 7.24444 1.94114 1.25
      vertex 12.5 1.5 1.25
    endloop
  endfacet
  facet normal 0 0 1
    outer loop
      vertex 14 0 1.25
      vertex 12.5 -1.5 1.25
      vertex 13.6941 -2.91076 1.25
    endloop
  endfacet
  facet normal 0 0 1
    outer loop
      vertex 13.6941 -2.91076 1.25
      vertex 7.24444 -1.94114 1.25
      vertex 12.7896 -5.69431 1.25
    endloop
  endfacet
  facet normal 0 0 1
    outer loop
      vertex 12.7896 -5.69431 1.25
      vertex 6.49519 -3.75 1.25
      vertex 11.3262 -8.22899 1.25
    endloop
  endfacet
  facet normal 0 0 1
    outer loop
      vertex 6.49519 -3.75 1.25
      vertex 5.3033 -5.3033 1.25
      vertex 11.3262 -8.22899 1.25
    endloop
  endfacet
  facet normal 0 0 1
    outer loop
      vertex -7.30252 1.5 1.25
      vertex -7.24444 1.94114 1.25
      vertex -13.6941 2.91076 1.25
    endloop
  endfacet
  facet normal 0 0 1
    outer loop
      vertex 11.3262 -8.22899 1.25
      vertex 3.75 -6.49519 1.25
      vertex 9.36783 -10.404 1.25
    endloop
  endfacet
  facet normal 0 0 1
    outer loop
      vertex 1.94114 -7.24444 1.25
      vertex 0 -7.5 1.25
      vertex 7 -12.1244 1.25
    endloop
  endfacet
  facet normal 0 0 1
    outer loop
      vertex 9.36783 -10.404 1.25
      vertex 1.94114 -7.24444 1.25
      vertex 7 -12.1244 1.25
    endloop
  endfacet
  facet normal 0 0 1
    outer loop
      vertex -7.24444 1.94114 1.25
      vertex -6.49519 3.75 1.25
      vertex -13.6941 2.91076 1.25
    endloop
  endfacet
  facet normal 0 0 1
    outer loop
      vertex 7 -12.1244 1.25
      vertex 0 -7.5 1.25
      vertex 4.32624 -13.3148 1.25
    endloop
  endfacet
  facet normal 0 0 1
    outer loop
      vertex 0 -7.5 1.25
      vertex -1.94114 -7.24444 1.25
      vertex 4.32624 -13.3148 1.25
    endloop
  endfacet
  facet normal 0 0 1
    outer loop
      vertex 4.32624 -13.3148 1.25
      vertex -3.75 -6.49519 1.25
      vertex 1.4634 -13.9233 1.25
    endloop
  endfacet
  facet normal 0 0 1
    outer loop
      vertex -3.75 -6.49519 1.25
      vertex -5.3033 -5.3033 1.25
      vertex 1.4634 -13.9233 1.25
    endloop
  endfacet
  facet normal 0 0 1
    outer loop
      vertex -12.5 1.5 1.25
      vertex -7.30252 1.5 1.25
      vertex -13.6941 2.91076 1.25
    endloop
  endfacet
  facet normal 0 0 1
    outer loop
      vertex -12.5 -1.5 1.25
      vertex -12.5 1.5 1.25
      vertex -13.6941 2.91076 1.25
    endloop
  endfacet
  facet normal 0 0 1
    outer loop
      vertex -1.94114 -7.24444 1.25
      vertex -3.75 -6.49519 1.25
      vertex 4.32624 -13.3148 1.25
    endloop
  endfacet
  facet normal 0 0 1
    outer loop
      vertex -5.3033 -5.3033 1.25
      vertex -1.4634 -13.9233 1.25
      vertex 1.4634 -13.9233 1.25
    endloop
  endfacet
  facet normal 0 0 1
    outer loop
      vertex -6.49519 -3.75 1.25
      vertex -1.4634 -13.9233 1.25
      vertex -5.3033 -5.3033 1.25
    endloop
  endfacet
  facet normal 0 0 1
    outer loop
      vertex -6.49519 -3.75 1.25
      vertex -4.32624 -13.3148 1.25
      vertex -1.4634 -13.9233 1.25
    endloop
  endfacet
  facet normal 0 0 1
    outer loop
      vertex -7.24444 -1.94114 1.25
      vertex -4.32624 -13.3148 1.25
      vertex -6.49519 -3.75 1.25
    endloop
  endfacet
  facet normal 0 0 1
    outer loop
      vertex -7.24444 -1.94114 1.25
      vertex -7 -12.1244 1.25
      vertex -4.32624 -13.3148 1.25
    endloop
  endfacet
  facet normal 0 0 1
    outer loop
      vertex -7.30252 -1.5 1.25
      vertex -7 -12.1244 1.25
      vertex -7.24444 -1.94114 1.25
    endloop
  endfacet
  facet normal 0 0 1
    outer loop
      vertex -7.30252 -1.5 1.25
      vertex -9.36783 -10.404 1.25
      vertex -7 -12.1244 1.25
    endloop
  endfacet
  facet normal 0 0 1
    outer loop
      vertex -7.30252 -1.5 1.25
      vertex -12.5 -1.5 1.25
      vertex -9.36783 -10.404 1.25
    endloop
  endfacet
  facet normal 0 0 1
    outer loop
      vertex -7.24444 -1.94114 15
      vertex -6.49519 -3.75 15
      vertex -7.30252 -1.5 15
    endloop
  endfacet
  facet normal 0 0 1
    outer loop
      vertex -12.5 1.5 15
      vertex -12.5 -1.5 15
      vertex -7.30252 -1.5 15
    endloop
  endfacet
  facet normal 0 0 1
    outer loop
      vertex 3.75 -6.49519 15
      vertex -12.5 1.5 15
      vertex -7.30252 -1.5 15
    endloop
  endfacet
  facet normal 0 0 1
    outer loop
      vertex -6.49519 -3.75 15
      vertex -5.3033 -5.3033 15
      vertex -7.30252 -1.5 15
    endloop
  endfacet
  facet normal 0 0 1
    outer loop
      vertex -5.3033 -5.3033 15
      vertex -3.75 -6.49519 15
      vertex -7.30252 -1.5 15
    endloop
  endfacet
  facet normal 0 0 1
    outer loop
      vertex -3.75 -6.49519 15
      vertex -1.94114 -7.24444 15
      vertex -7.30252 -1.5 15
    endloop
  endfacet
  facet normal 0 0 1
    outer loop
      vertex -1.94114 -7.24444 15
      vertex 0 -7.5 15
      vertex -7.30252 -1.5 15
    endloop
  endfacet
  facet normal 0 0 1
    outer loop
      vertex 0 -7.5 15
      vertex 1.94114 -7.24444 15
      vertex -7.30252 -1.5 15
    endloop
  endfacet
  facet normal 0 0 1
    outer loop
      vertex 1.94114 -7.24444 15
      vertex 3.75 -6.49519 15
      vertex -7.30252 -1.5 15
    endloop
  endfacet
  facet normal 0 0 1
    outer loop
      vertex 3.54182 1.85889 15
      vertex 4 0 15
      vertex 7.30252 1.5 15
    endloop
  endfacet
  facet normal 0 0 1
    outer loop
      vertex 3.54182 1.85889 15
      vertex 7.30252 1.5 15
      vertex 7.24444 1.94114 15
    endloop
  endfacet
  facet normal 0 0 1
    outer loop
      vertex 12.5 -1.5 15
      vertex 12.5 1.5 15
      vertex 7.30252 1.5 15
    endloop
  endfacet
  facet normal 0 0 1
    outer loop
      vertex 0.482147 3.97083 15
      vertex 2.27226 3.29194 15
      vertex 5.3033 5.3033 15
    endloop
  endfacet
  facet normal 0 0 1
    outer loop
      vertex 2.27226 3.29194 15
      vertex 6.49519 3.75 15
      vertex 5.3033 5.3033 15
    endloop
  endfacet
  facet normal 0 0 1
    outer loop
      vertex 2.27226 -3.29194 15
      vertex 0.482147 -3.97083 15
      vertex 5.3033 -5.3033 15
    endloop
  endfacet
  facet normal 0 0 1
    outer loop
      vertex -6.49519 3.75 15
      vertex 3.75 6.49519 15
      vertex 1.94114 7.24444 15
    endloop
  endfacet
  facet normal 0 0 1
    outer loop
      vertex -6.49519 3.75 15
      vertex 5.3033 5.3033 15
      vertex 3.75 6.49519 15
    endloop
  endfacet
  facet normal 0 0 1
    outer loop
      vertex -5.3033 5.3033 15
      vertex 0 7.5 15
      vertex -1.94114 7.24444 15
    endloop
  endfacet
  facet normal 0 0 1
    outer loop
      vertex -5.3033 5.3033 15
      vertex 1.94114 7.24444 15
      vertex 0 7.5 15
    endloop
  endfacet
  facet normal 0 0 1
    outer loop
      vertex -6.49519 3.75 15
      vertex -1.41842 3.74006 15
      vertex 5.3033 5.3033 15
    endloop
  endfacet
  facet normal 0 0 1
    outer loop
      vertex -3.88377 -0.957263 15
      vertex -3.88377 0.957263 15
      vertex -12.5 1.5 15
    endloop
  endfacet
  facet normal 0 0 1
    outer loop
      vertex 2.27226 3.29194 15
      vertex 3.54182 1.85889 15
      vertex 7.24444 1.94114 15
    endloop
  endfacet
  facet normal 0 0 1
    outer loop
      vertex -3.88377 0.957263 15
      vertex -7.30252 1.5 15
      vertex -12.5 1.5 15
    endloop
  endfacet
  facet normal 0 0 1
    outer loop
      vertex 3.54182 -1.85889 15
      vertex 2.27226 -3.29194 15
      vertex 6.49519 -3.75 15
    endloop
  endfacet
  facet normal 0 0 1
    outer loop
      vertex 4 0 15
      vertex 7.30252 -1.5 15
      vertex 12.5 -1.5 15
    endloop
  endfacet
  facet normal 0 0 1
    outer loop
      vertex 2.27226 3.29194 15
      vertex 7.24444 1.94114 15
      vertex 6.49519 3.75 15
    endloop
  endfacet
  facet normal 0 0 1
    outer loop
      vertex 4 0 15
      vertex 3.54182 -1.85889 15
      vertex 7.24444 -1.94114 15
    endloop
  endfacet
  facet normal 0 0 1
    outer loop
      vertex -1.41842 3.74006 15
      vertex 0.482147 3.97083 15
      vertex 5.3033 5.3033 15
    endloop
  endfacet
  facet normal 0 0 1
    outer loop
      vertex 4 0 15
      vertex 7.24444 -1.94114 15
      vertex 7.30252 -1.5 15
    endloop
  endfacet
  facet normal 0 0 1
    outer loop
      vertex -2.99404 -2.65249 15
      vertex -3.88377 -0.957263 15
      vertex -12.5 1.5 15
    endloop
  endfacet
  facet normal 0 0 1
    outer loop
      vertex 12.5 -1.5 15
      vertex 7.30252 1.5 15
      vertex 4 0 15
    endloop
  endfacet
  facet normal 0 0 1
    outer loop
      vertex 6.49519 -3.75 15
      vertex 7.24444 -1.94114 15
      vertex 3.54182 -1.85889 15
    endloop
  endfacet
  facet normal 0 0 1
    outer loop
      vertex 5.3033 -5.3033 15
      vertex 6.49519 -3.75 15
      vertex 2.27226 -3.29194 15
    endloop
  endfacet
  facet normal 0 0 1
    outer loop
      vertex 3.75 -6.49519 15
      vertex 5.3033 -5.3033 15
      vertex 0.482147 -3.97083 15
    endloop
  endfacet
  facet normal 0 0 1
    outer loop
      vertex 3.75 -6.49519 15
      vertex -1.41842 -3.74006 15
      vertex -12.5 1.5 15
    endloop
  endfacet
  facet normal 0 0 1
    outer loop
      vertex 3.75 -6.49519 15
      vertex 0.482147 -3.97083 15
      vertex -1.41842 -3.74006 15
    endloop
  endfacet
  facet normal 0 0 1
    outer loop
      vertex -1.41842 -3.74006 15
      vertex -2.99404 -2.65249 15
      vertex -12.5 1.5 15
    endloop
  endfacet
  facet normal 0 0 1
    outer loop
      vertex -3.75 6.49519 15
      vertex -5.3033 5.3033 15
      vertex -1.94114 7.24444 15
    endloop
  endfacet
  facet normal 0 0 1
    outer loop
      vertex -5.3033 5.3033 15
      vertex -6.49519 3.75 15
      vertex 1.94114 7.24444 15
    endloop
  endfacet
  facet normal 0 0 1
    outer loop
      vertex -6.49519 3.75 15
      vertex -2.99404 2.65249 15
      vertex -1.41842 3.74006 15
    endloop
  endfacet
  facet normal 0 0 1
    outer loop
      vertex -6.49519 3.75 15
      vertex -7.24444 1.94114 15
      vertex -2.99404 2.65249 15
    endloop
  endfacet
  facet normal 0 0 1
    outer loop
      vertex -3.88377 0.957263 15
      vertex -7.24444 1.94114 15
      vertex -7.30252 1.5 15
    endloop
  endfacet
  facet normal 0 0 1
    outer loop
      vertex -3.88377 0.957263 15
      vertex -2.99404 2.65249 15
      vertex -7.24444 1.94114 15
    endloop
  endfacet
  facet normal -1 0 0
    outer loop
      vertex -12.5 -1.5 1.25
      vertex -12.5 -1.5 15
      vertex -12.5 1.5 1.25
    endloop
  endfacet
  facet normal -1 0 0
    outer loop
      vertex -12.5 1.5 1.25
      vertex -12.5 -1.5 15
      vertex -12.5 1.5 15
    endloop
  endfacet
  facet normal 0 -1 0
    outer loop
      vertex -12.5 -1.5 15
      vertex -12.5 -1.5 1.25
      vertex -7.30252 -1.5 1.25
    endloop
  endfacet
  facet normal 0 -1 0
    outer loop
      vertex -7.30252 -1.5 15
      vertex -12.5 -1.5 15
      vertex -7.30252 -1.5 1.25
    endloop
  endfacet
  facet normal -0.991445 -0.130526 0
    outer loop
      vertex -7.30252 -1.5 1.25
      vertex -7.24444 -1.94114 1.25
      vertex -7.30252 -1.5 15
    endloop
  endfacet
  facet normal -0.991445 -0.130526 0
    outer loop
      vertex -7.30252 -1.5 15
      vertex -7.24444 -1.94114 1.25
      vertex -7.24444 -1.94114 15
    endloop
  endfacet
  facet normal -0.92388 -0.382683 0
    outer loop
      vertex -7.24444 -1.94114 1.25
      vertex -6.49519 -3.75 1.25
      vertex -7.24444 -1.94114 15
    endloop
  endfacet
  facet normal -0.92388 -0.382683 0
    outer loop
      vertex -7.24444 -1.94114 15
      vertex -6.49519 -3.75 1.25
      vertex -6.49519 -3.75 15
    endloop
  endfacet
  facet normal -0.793353 -0.608762 0
    outer loop
      vertex -6.49519 -3.75 1.25
      vertex -5.3033 -5.3033 1.25
      vertex -6.49519 -3.75 15
    endloop
  endfacet
  facet normal -0.793353 -0.608762 0
    outer loop
      vertex -6.49519 -3.75 15
      vertex -5.3033 -5.3033 1.25
      vertex -5.3033 -5.3033 15
    endloop
  endfacet
  facet normal -0.608762 -0.793353 0
    outer loop
      vertex -5.3033 -5.3033 15
      vertex -5.3033 -5.3033 1.25
      vertex -3.75 -6.49519 1.25
    endloop
  endfacet
  facet normal -0.608762 -0.793353 0
    outer loop
      vertex -3.75 -6.49519 15
      vertex -5.3033 -5.3033 15
      vertex -3.75 -6.49519 1.25
    endloop
  endfacet
  facet normal -0.382683 -0.92388 0
    outer loop
      vertex -3.75 -6.49519 15
      vertex -3.75 -6.49519 1.25
      vertex -1.94114 -7.24444 1.25
    endloop
  endfacet
  facet normal -0.382683 -0.92388 0
    outer loop
      vertex -1.94114 -7.24444 15
      vertex -3.75 -6.49519 15
      vertex -1.94114 -7.24444 1.25
    endloop
  endfacet
  facet normal -0.130526 -0.991445 0
    outer loop
      vertex -1.94114 -7.24444 15
      vertex -1.94114 -7.24444 1.25
      vertex 0 -7.5 1.25
    endloop
  endfacet
  facet normal -0.130526 -0.991445 0
    outer loop
      vertex 0 -7.5 15
      vertex -1.94114 -7.24444 15
      vertex 0 -7.5 1.25
    endloop
  endfacet
  facet normal 0.130526 -0.991445 0
    outer loop
      vertex 0 -7.5 15
      vertex 0 -7.5 1.25
      vertex 1.94114 -7.24444 1.25
    endloop
  endfacet
  facet normal 0.130526 -0.991445 0
    outer loop
      vertex 1.94114 -7.24444 15
      vertex 0 -7.5 15
      vertex 1.94114 -7.24444 1.25
    endloop
  endfacet
  facet normal 0.382683 -0.92388 0
    outer loop
      vertex 1.94114 -7.24444 15
      vertex 1.94114 -7.24444 1.25
      vertex 3.75 -6.49519 1.25
    endloop
  endfacet
  facet normal 0.382683 -0.92388 0
    outer loop
      vertex 3.75 -6.49519 15
      vertex 1.94114 -7.24444 15
      vertex 3.75 -6.49519 1.25
    endloop
  endfacet
  facet normal 0.608762 -0.793353 0
    outer loop
      vertex 3.75 -6.49519 15
      vertex 3.75 -6.49519 1.25
      vertex 5.3033 -5.3033 1.25
    endloop
  endfacet
  facet normal 0.608762 -0.793353 0
    outer loop
      vertex 5.3033 -5.3033 15
      vertex 3.75 -6.49519 15
      vertex 5.3033 -5.3033 1.25
    endloop
  endfacet
  facet normal 0.793353 -0.608762 0
    outer loop
      vertex 5.3033 -5.3033 15
      vertex 5.3033 -5.3033 1.25
      vertex 6.49519 -3.75 1.25
    endloop
  endfacet
  facet normal 0.793353 -0.608762 0
    outer loop
      vertex 6.49519 -3.75 15
      vertex 5.3033 -5.3033 15
      vertex 6.49519 -3.75 1.25
    endloop
  endfacet
  facet normal 0.92388 -0.382683 0
    outer loop
      vertex 6.49519 -3.75 15
      vertex 6.49519 -3.75 1.25
      vertex 7.24444 -1.94114 1.25
    endloop
  endfacet
  facet normal 0.92388 -0.382683 0
    outer loop
      vertex 7.24444 -1.94114 15
      vertex 6.49519 -3.75 15
      vertex 7.24444 -1.94114 1.25
    endloop
  endfacet
  facet normal 0.991445 -0.130526 0
    outer loop
      vertex 7.24444 -1.94114 15
      vertex 7.24444 -1.94114 1.25
      vertex 7.30252 -1.5 1.25
    endloop
  endfacet
  facet normal 0.991445 -0.130526 0
    outer loop
      vertex 7.30252 -1.5 15
      vertex 7.24444 -1.94114 15
      vertex 7.30252 -1.5 1.25
    endloop
  endfacet
  facet normal 0 -1 0
    outer loop
      vertex 7.30252 -1.5 15
      vertex 7.30252 -1.5 1.25
      vertex 12.5 -1.5 1.25
    endloop
  endfacet
  facet normal 0 -1 0
    outer loop
      vertex 12.5 -1.5 15
      vertex 7.30252 -1.5 15
      vertex 12.5 -1.5 1.25
    endloop
  endfacet
  facet normal 1 0 0
    outer loop
      vertex 12.5 -1.5 15
      vertex 12.5 -1.5 1.25
      vertex 12.5 1.5 1.25
    endloop
  endfacet
  facet normal 1 0 0
    outer loop
      vertex 12.5 1.5 15
      vertex 12.5 -1.5 15
      vertex 12.5 1.5 1.25
    endloop
  endfacet
  facet normal 0 1 0
    outer loop
      vertex 7.30252 1.5 1.25
      vertex 7.30252 1.5 15
      vertex 12.5 1.5 1.25
    endloop
  endfacet
  facet normal 0 1 0
    outer loop
      vertex 12.5 1.5 1.25
      vertex 7.30252 1.5 15
      vertex 12.5 1.5 15
    endloop
  endfacet
  facet normal 0.991445 0.130526 0
    outer loop
      vertex 7.30252 1.5 1.25
      vertex 7.24444 1.94114 1.25
      vertex 7.24444 1.94114 15
    endloop
  endfacet
  facet normal 0.991445 0.130526 0
    outer loop
      vertex 7.30252 1.5 15
      vertex 7.30252 1.5 1.25
      vertex 7.24444 1.94114 15
    endloop
  endfacet
  facet normal 0.92388 0.382683 0
    outer loop
      vertex 7.24444 1.94114 1.25
      vertex 6.49519 3.75 1.25
      vertex 6.49519 3.75 15
    endloop
  endfacet
  facet normal 0.92388 0.382683 0
    outer loop
      vertex 7.24444 1.94114 15
      vertex 7.24444 1.94114 1.25
      vertex 6.49519 3.75 15
    endloop
  endfacet
  facet normal 0.793353 0.608762 0
    outer loop
      vertex 6.49519 3.75 1.25
      vertex 5.3033 5.3033 1.25
      vertex 5.3033 5.3033 15
    endloop
  endfacet
  facet normal 0.793353 0.608762 0
    outer loop
      vertex 6.49519 3.75 15
      vertex 6.49519 3.75 1.25
      vertex 5.3033 5.3033 15
    endloop
  endfacet
  facet normal 0.608762 0.793353 0
    outer loop
      vertex 3.75 6.49519 1.25
      vertex 3.75 6.49519 15
      vertex 5.3033 5.3033 1.25
    endloop
  endfacet
  facet normal 0.608762 0.793353 0
    outer loop
      vertex 5.3033 5.3033 1.25
      vertex 3.75 6.49519 15
      vertex 5.3033 5.3033 15
    endloop
  endfacet
  facet normal 0.382683 0.92388 0
    outer loop
      vertex 1.94114 7.24444 1.25
      vertex 1.94114 7.24444 15
      vertex 3.75 6.49519 1.25
    endloop
  endfacet
  facet normal 0.382683 0.92388 0
    outer loop
      vertex 3.75 6.49519 1.25
      vertex 1.94114 7.24444 15
      vertex 3.75 6.49519 15
    endloop
  endfacet
  facet normal 0.130526 0.991445 0
    outer loop
      vertex 0 7.5 1.25
      vertex 0 7.5 15
      vertex 1.94114 7.24444 1.25
    endloop
  endfacet
  facet normal 0.130526 0.991445 0
    outer loop
      vertex 1.94114 7.24444 1.25
      vertex 0 7.5 15
      vertex 1.94114 7.24444 15
    endloop
  endfacet
  facet normal -0.130526 0.991445 0
    outer loop
      vertex -1.94114 7.24444 1.25
      vertex -1.94114 7.24444 15
      vertex 0 7.5 1.25
    endloop
  endfacet
  facet normal -0.130526 0.991445 0
    outer loop
      vertex 0 7.5 1.25
      vertex -1.94114 7.24444 15
      vertex 0 7.5 15
    endloop
  endfacet
  facet normal -0.382683 0.92388 0
    outer loop
      vertex -3.75 6.49519 1.25
      vertex -3.75 6.49519 15
      vertex -1.94114 7.24444 1.25
    endloop
  endfacet
  facet normal -0.382683 0.92388 0
    outer loop
      vertex -1.94114 7.24444 1.25
      vertex -3.75 6.49519 15
      vertex -1.94114 7.24444 15
    endloop
  endfacet
  facet normal -0.608762 0.793353 0
    outer loop
      vertex -5.3033 5.3033 1.25
      vertex -5.3033 5.3033 15
      vertex -3.75 6.49519 1.25
    endloop
  endfacet
  facet normal -0.608762 0.793353 0
    outer loop
      vertex -3.75 6.49519 1.25
      vertex -5.3033 5.3033 15
      vertex -3.75 6.49519 15
    endloop
  endfacet
  facet normal -0.793353 0.608762 0
    outer loop
      vertex -6.49519 3.75 1.25
      vertex -6.49519 3.75 15
      vertex -5.3033 5.3033 1.25
    endloop
  endfacet
  facet normal -0.793353 0.608762 0
    outer loop
      vertex -5.3033 5.3033 1.25
      vertex -6.49519 3.75 15
      vertex -5.3033 5.3033 15
    endloop
  endfacet
  facet normal -0.92388 0.382683 0
    outer loop
      vertex -7.24444 1.94114 1.25
      vertex -7.24444 1.94114 15
      vertex -6.49519 3.75 1.25
    endloop
  endfacet
  facet normal -0.92388 0.382683 0
    outer loop
      vertex -6.49519 3.75 1.25
      vertex -7.24444 1.94114 15
      vertex -6.49519 3.75 15
    endloop
  endfacet
  facet normal -0.991445 0.130526 0
    outer loop
      vertex -7.30252 1.5 1.25
      vertex -7.30252 1.5 15
      vertex -7.24444 1.94114 1.25
    endloop
  endfacet
  facet normal -0.991445 0.130526 0
    outer loop
      vertex -7.24444 1.94114 1.25
      vertex -7.30252 1.5 15
      vertex -7.24444 1.94114 15
    endloop
  endfacet
  facet normal 0 1 0
    outer loop
      vertex -12.5 1.5 1.25
      vertex -12.5 1.5 15
      vertex -7.30252 1.5 1.25
    endloop
  endfacet
  facet normal 0 1 0
    outer loop
      vertex -7.30252 1.5 1.25
      vertex -12.5 1.5 15
      vertex -7.30252 1.5 15
    endloop
  endfacet
endsolid OpenSCAD_Model
