solid OpenSCAD_Model
  facet normal -1 0 0
    outer loop
      vertex -12.5 -12.5 -1.5
      vertex -12.5 -12.5 1.5
      vertex -12.5 12.5 -1.5
    endloop
  endfacet
  facet normal -1 0 0
    outer loop
      vertex -12.5 12.5 -1.5
      vertex -12.5 -12.5 1.5
      vertex -12.5 12.5 1.5
    endloop
  endfacet
  facet normal 0 -1 0
    outer loop
      vertex -12.5 -12.5 1.5
      vertex -12.5 -12.5 -1.5
      vertex 12.5 -12.5 -1.5
    endloop
  endfacet
  facet normal 0 -1 0
    outer loop
      vertex 12.5 -12.5 1.5
      vertex -12.5 -12.5 1.5
      vertex 12.5 -12.5 -1.5
    endloop
  endfacet
  facet normal 0 0 -1
    outer loop
      vertex -12.5 -12.5 -1.5
      vertex -12.5 12.5 -1.5
      vertex 12.5 -12.5 -1.5
    endloop
  endfacet
  facet normal 0 0 -1
    outer loop
      vertex 12.5 -12.5 -1.5
      vertex -12.5 12.5 -1.5
      vertex 12.5 12.5 -1.5
    endloop
  endfacet
  facet normal 0 1 0
    outer loop
      vertex -12.5 12.5 -1.5
      vertex -12.5 12.5 1.5
      vertex 12.5 12.5 -1.5
    endloop
  endfacet
  facet normal 0 1 0
    outer loop
      vertex 12.5 12.5 -1.5
      vertex -12.5 12.5 1.5
      vertex 12.5 12.5 1.5
    endloop
  endfacet
  facet normal 0 0 1
    outer loop
      vertex -7.5 -7.5 1.5
      vertex -12.5 -12.5 1.5
      vertex 12.5 -12.5 1.5
    endloop
  endfacet
  facet normal 0 0 1
    outer loop
      vertex -7.5 7.5 1.5
      vertex -12.5 12.5 1.5
      vertex -7.5 -7.5 1.5
    endloop
  endfacet
  facet normal 0 0 1
    outer loop
      vertex 7.5 -7.5 1.5
      vertex -7.5 -7.5 1.5
      vertex 12.5 -12.5 1.5
    endloop
  endfacet
  facet normal 0 0 1
    outer loop
      vertex -12.5 12.5 1.5
      vertex -12.5 -12.5 1.5
      vertex -7.5 -7.5 1.5
    endloop
  endfacet
  facet normal 0 0 1
    outer loop
      vertex 12.5 12.5 1.5
      vertex -12.5 12.5 1.5
      vertex -7.5 7.5 1.5
    endloop
  endfacet
  facet normal 0 0 1
    outer loop
      vertex 12.5 12.5 1.5
      vertex 7.5 7.5 1.5
      vertex 12.5 -12.5 1.5
    endloop
  endfacet
  facet normal 0 0 1
    outer loop
      vertex 12.5 12.5 1.5
      vertex -7.5 7.5 1.5
      vertex 7.5 7.5 1.5
    endloop
  endfacet
  facet normal 0 0 1
    outer loop
      vertex 7.5 7.5 1.5
      vertex 7.5 -7.5 1.5
      vertex 12.5 -12.5 1.5
    endloop
  endfacet
  facet normal 1 0 0
    outer loop
      vertex 12.5 -12.5 1.5
      vertex 12.5 -12.5 -1.5
      vertex 12.5 12.5 -1.5
    endloop
  endfacet
  facet normal 1 0 0
    outer loop
      vertex 12.5 12.5 1.5
      vertex 12.5 -12.5 1.5
      vertex 12.5 12.5 -1.5
    endloop
  endfacet
  facet normal -1 0 0
    outer loop
      vertex -7.5 -7.5 1.5
      vertex -7.5 -7.5 4
      vertex -7.5 7.5 1.5
    endloop
  endfacet
  facet normal -1 0 0
    outer loop
      vertex -7.5 7.5 1.5
      vertex -7.5 -7.5 4
      vertex -7.5 7.5 4
    endloop
  endfacet
  facet normal 0 -1 0
    outer loop
      vertex -7.5 -7.5 4
      vertex -7.5 -7.5 1.5
      vertex 7.5 -7.5 1.5
    endloop
  endfacet
  facet normal 0 -1 0
    outer loop
      vertex 7.5 -7.5 4
      vertex -7.5 -7.5 4
      vertex 7.5 -7.5 1.5
    endloop
  endfacet
  facet normal 1 0 0
    outer loop
      vertex 7.5 -7.5 4
      vertex 7.5 -7.5 1.5
      vertex 7.5 7.5 1.5
    endloop
  endfacet
  facet normal 1 0 0
    outer loop
      vertex 7.5 0 4
      vertex 7.5 -7.5 4
      vertex 7.5 7.5 1.5
    endloop
  endfacet
  facet normal 1 0 0
    outer loop
      vertex 7.5 7.5 4
      vertex 7.5 0 4
      vertex 7.5 7.5 1.5
    endloop
  endfacet
  facet normal 0 1 0
    outer loop
      vertex -7.5 7.5 1.5
      vertex -7.5 7.5 4
      vertex 7.5 7.5 1.5
    endloop
  endfacet
  facet normal 0 1 0
    outer loop
      vertex 7.5 7.5 1.5
      vertex -7.5 7.5 4
      vertex 7.5 7.5 4
    endloop
  endfacet
  facet normal 0 0 1
    outer loop
      vertex 2.52962 -4.47535 4
      vertex -7.5 -7.5 4
      vertex 7.5 -7.5 4
    endloop
  endfacet
  facet normal 0 0 1
    outer loop
      vertex -1.40166 -0.935603 4
      vertex -1.40166 0.935603 4
      vertex -7.5 7.5 4
    endloop
  endfacet
  facet normal 0 0 1
    outer loop
      vertex 7.5 0 4
      vertex 7.11095 -1.83031 4
      vertex 7.5 -7.5 4
    endloop
  endfacet
  facet normal 0 0 1
    outer loop
      vertex 7.11095 -1.83031 4
      vertex 6.01109 -3.34415 4
      vertex 7.5 -7.5 4
    endloop
  endfacet
  facet normal 0 0 1
    outer loop
      vertex 6.01109 -3.34415 4
      vertex 4.39058 -4.27975 4
      vertex 7.5 -7.5 4
    endloop
  endfacet
  facet normal 0 0 1
    outer loop
      vertex 0.75 -3.89711 4
      vertex -7.5 -7.5 4
      vertex 2.52962 -4.47535 4
    endloop
  endfacet
  facet normal 0 0 1
    outer loop
      vertex -0.640576 -2.64503 4
      vertex -7.5 -7.5 4
      vertex 0.75 -3.89711 4
    endloop
  endfacet
  facet normal 0 0 1
    outer loop
      vertex -7.5 7.5 4
      vertex -7.5 -7.5 4
      vertex -0.640576 -2.64503 4
    endloop
  endfacet
  facet normal 0 0 1
    outer loop
      vertex -1.40166 0.935603 4
      vertex -0.640576 2.64503 4
      vertex -7.5 7.5 4
    endloop
  endfacet
  facet normal 0 0 1
    outer loop
      vertex -7.5 7.5 4
      vertex -0.640576 -2.64503 4
      vertex -1.40166 -0.935603 4
    endloop
  endfacet
  facet normal 0 0 1
    outer loop
      vertex 2.52962 4.47535 4
      vertex -7.5 7.5 4
      vertex 0.75 3.89711 4
    endloop
  endfacet
  facet normal 0 0 1
    outer loop
      vertex 4.39058 4.27975 4
      vertex -7.5 7.5 4
      vertex 2.52962 4.47535 4
    endloop
  endfacet
  facet normal 0 0 1
    outer loop
      vertex 7.5 7.5 4
      vertex -7.5 7.5 4
      vertex 4.39058 4.27975 4
    endloop
  endfacet
  facet normal 0 0 1
    outer loop
      vertex 7.5 7.5 4
      vertex 4.39058 4.27975 4
      vertex 6.01109 3.34415 4
    endloop
  endfacet
  facet normal 0 0 1
    outer loop
      vertex 7.5 7.5 4
      vertex 6.01109 3.34415 4
      vertex 7.11095 1.83031 4
    endloop
  endfacet
  facet normal 0 0 1
    outer loop
      vertex 7.5 0 4
      vertex 7.5 7.5 4
      vertex 7.11095 1.83031 4
    endloop
  endfacet
  facet normal 0 0 1
    outer loop
      vertex -0.640576 2.64503 4
      vertex 0.75 3.89711 4
      vertex -7.5 7.5 4
    endloop
  endfacet
  facet normal 0 0 1
    outer loop
      vertex 4.39058 -4.27975 4
      vertex 2.52962 -4.47535 4
      vertex 7.5 -7.5 4
    endloop
  endfacet
  facet normal 0.978148 -0.207911 0
    outer loop
      vertex 7.11095 -1.83031 40
      vertex 7.11095 -1.83031 4
      vertex 7.5 0 4
    endloop
  endfacet
  facet normal 0.978148 -0.207911 0
    outer loop
      vertex 7.5 0 40
      vertex 7.11095 -1.83031 40
      vertex 7.5 0 4
    endloop
  endfacet
  facet normal 0.978148 0.207911 0
    outer loop
      vertex 7.5 0 4
      vertex 7.11095 1.83031 4
      vertex 7.11095 1.83031 40
    endloop
  endfacet
  facet normal 0.978148 0.207911 0
    outer loop
      vertex 7.5 0 40
      vertex 7.5 0 4
      vertex 7.11095 1.83031 40
    endloop
  endfacet
  facet normal 0.809017 0.587785 0
    outer loop
      vertex 7.11095 1.83031 4
      vertex 6.01109 3.34415 4
      vertex 6.01109 3.34415 40
    endloop
  endfacet
  facet normal 0.809017 0.587785 0
    outer loop
      vertex 7.11095 1.83031 40
      vertex 7.11095 1.83031 4
      vertex 6.01109 3.34415 40
    endloop
  endfacet
  facet normal 0.5 0.866026 0
    outer loop
      vertex 4.39058 4.27975 4
      vertex 4.39058 4.27975 40
      vertex 6.01109 3.34415 4
    endloop
  endfacet
  facet normal 0.5 0.866026 0
    outer loop
      vertex 6.01109 3.34415 4
      vertex 4.39058 4.27975 40
      vertex 6.01109 3.34415 40
    endloop
  endfacet
  facet normal 0.104529 0.994522 0
    outer loop
      vertex 2.52962 4.47535 4
      vertex 2.52962 4.47535 40
      vertex 4.39058 4.27975 4
    endloop
  endfacet
  facet normal 0.104529 0.994522 0
    outer loop
      vertex 4.39058 4.27975 4
      vertex 2.52962 4.47535 40
      vertex 4.39058 4.27975 40
    endloop
  endfacet
  facet normal -0.309017 0.951056 0
    outer loop
      vertex 0.75 3.89711 4
      vertex 0.75 3.89711 40
      vertex 2.52962 4.47535 4
    endloop
  endfacet
  facet normal -0.309017 0.951056 0
    outer loop
      vertex 2.52962 4.47535 4
      vertex 0.75 3.89711 40
      vertex 2.52962 4.47535 40
    endloop
  endfacet
  facet normal -0.669131 0.743145 0
    outer loop
      vertex -0.640576 2.64503 4
      vertex -0.640576 2.64503 40
      vertex 0.75 3.89711 4
    endloop
  endfacet
  facet normal -0.669131 0.743145 0
    outer loop
      vertex 0.75 3.89711 4
      vertex -0.640576 2.64503 40
      vertex 0.75 3.89711 40
    endloop
  endfacet
  facet normal -0.913545 0.406737 0
    outer loop
      vertex -1.40166 0.935603 4
      vertex -1.40166 0.935603 40
      vertex -0.640576 2.64503 4
    endloop
  endfacet
  facet normal -0.913545 0.406737 0
    outer loop
      vertex -0.640576 2.64503 4
      vertex -1.40166 0.935603 40
      vertex -0.640576 2.64503 40
    endloop
  endfacet
  facet normal -1 0 0
    outer loop
      vertex -1.40166 -0.935603 4
      vertex -1.40166 -0.935603 40
      vertex -1.40166 0.935603 4
    endloop
  endfacet
  facet normal -1 0 0
    outer loop
      vertex -1.40166 0.935603 4
      vertex -1.40166 -0.935603 40
      vertex -1.40166 0.935603 40
    endloop
  endfacet
  facet normal -0.913545 -0.406737 0
    outer loop
      vertex -1.40166 -0.935603 4
      vertex -0.640576 -2.64503 4
      vertex -1.40166 -0.935603 40
    endloop
  endfacet
  facet normal -0.913545 -0.406737 0
    outer loop
      vertex -1.40166 -0.935603 40
      vertex -0.640576 -2.64503 4
      vertex -0.640576 -2.64503 40
    endloop
  endfacet
  facet normal -0.669131 -0.743145 0
    outer loop
      vertex -0.640576 -2.64503 40
      vertex -0.640576 -2.64503 4
      vertex 0.75 -3.89711 4
    endloop
  endfacet
  facet normal -0.669131 -0.743145 0
    outer loop
      vertex 0.75 -3.89711 40
      vertex -0.640576 -2.64503 40
      vertex 0.75 -3.89711 4
    endloop
  endfacet
  facet normal -0.309017 -0.951056 0
    outer loop
      vertex 0.75 -3.89711 40
      vertex 0.75 -3.89711 4
      vertex 2.52962 -4.47535 4
    endloop
  endfacet
  facet normal -0.309017 -0.951056 0
    outer loop
      vertex 2.52962 -4.47535 40
      vertex 0.75 -3.89711 40
      vertex 2.52962 -4.47535 4
    endloop
  endfacet
  facet normal 0.104529 -0.994522 0
    outer loop
      vertex 2.52962 -4.47535 40
      vertex 2.52962 -4.47535 4
      vertex 4.39058 -4.27975 4
    endloop
  endfacet
  facet normal 0.104529 -0.994522 0
    outer loop
      vertex 4.39058 -4.27975 40
      vertex 2.52962 -4.47535 40
      vertex 4.39058 -4.27975 4
    endloop
  endfacet
  facet normal 0.5 -0.866026 0
    outer loop
      vertex 4.39058 -4.27975 40
      vertex 4.39058 -4.27975 4
      vertex 6.01109 -3.34415 4
    endloop
  endfacet
  facet normal 0.5 -0.866026 0
    outer loop
      vertex 6.01109 -3.34415 40
      vertex 4.39058 -4.27975 40
      vertex 6.01109 -3.34415 4
    endloop
  endfacet
  facet normal 0.809017 -0.587785 0
    outer loop
      vertex 6.01109 -3.34415 40
      vertex 6.01109 -3.34415 4
      vertex 7.11095 -1.83031 4
    endloop
  endfacet
  facet normal 0.809017 -0.587785 0
    outer loop
      vertex 7.11095 -1.83031 40
      vertex 6.01109 -3.34415 40
      vertex 7.11095 -1.83031 4
    endloop
  endfacet
  facet normal 0 0 1
    outer loop
      vertex -1.40166 0.935603 40
      vertex -1.40166 -0.935603 40
      vertex -0.640576 -2.64503 40
    endloop
  endfacet
  facet normal 0 0 1
    outer loop
      vertex 2.52962 -4.47535 40
      vertex -1.40166 0.935603 40
      vertex 0.75 -3.89711 40
    endloop
  endfacet
  facet normal 0 0 1
    outer loop
      vertex 0.75 -3.89711 40
      vertex -1.40166 0.935603 40
      vertex -0.640576 -2.64503 40
    endloop
  endfacet
  facet normal 0 0 1
    outer loop
      vertex 4.39058 -4.27975 40
      vertex -1.40166 0.935603 40
      vertex 2.52962 -4.47535 40
    endloop
  endfacet
  facet normal 0 0 1
    outer loop
      vertex 6.01109 -3.34415 40
      vertex -1.40166 0.935603 40
      vertex 4.39058 -4.27975 40
    endloop
  endfacet
  facet normal 0 0 1
    outer loop
      vertex 7.11095 -1.83031 40
      vertex -1.40166 0.935603 40
      vertex 6.01109 -3.34415 40
    endloop
  endfacet
  facet normal 0 0 1
    outer loop
      vertex 7.5 0 40
      vertex -1.40166 0.935603 40
      vertex 7.11095 -1.83031 40
    endloop
  endfacet
  facet normal 0 0 1
    outer loop
      vertex 7.11095 1.83031 40
      vertex -1.40166 0.935603 40
      vertex 7.5 0 40
    endloop
  endfacet
  facet normal 0 0 1
    outer loop
      vertex 6.01109 3.34415 40
      vertex -1.40166 0.935603 40
      vertex 7.11095 1.83031 40
    endloop
  endfacet
  facet normal 0 0 1
    outer loop
      vertex 4.39058 4.27975 40
      vertex -1.40166 0.935603 40
      vertex 6.01109 3.34415 40
    endloop
  endfacet
  facet normal 0 0 1
    outer loop
      vertex 2.52962 4.47535 40
      vertex -1.40166 0.935603 40
      vertex 4.39058 4.27975 40
    endloop
  endfacet
  facet normal 0 0 1
    outer loop
      vertex 0.75 3.89711 40
      vertex -1.40166 0.935603 40
      vertex 2.52962 4.47535 40
    endloop
  endfacet
  facet normal 0 0 1
    outer loop
      vertex -0.640576 2.64503 40
      vertex -1.40166 0.935603 40
      vertex 0.75 3.89711 40
    endloop
  endfacet
endsolid OpenSCAD_Model
